<svg height="268pt" preserveAspectRatio="xMidYMid meet" viewBox="0 0 268 268" width="268pt" xmlns="http://www.w3.org/2000/svg"><g transform="matrix(.1 0 0 -.1 0 268)"><path d="m0 1340v-1340h1340 1340v1340 1340h-310-310v-845-845h-255-255l-2 491-3 492-119-101-120-101-59 52c-32 29-79 69-103 90l-44 39v-481-481h-255-255v845 845h-295-295zm781-655c18-30 36-55 39-55s21 25 40 55c25 40 41 55 58 55 21 0 22-3 22-100v-100h-25c-23 0-25 3-25 53v52l-31-47c-17-27-35-48-39-48s-22 21-39 48l-31 47v-52c0-50-2-53-25-53h-25v100c0 99 0 100 24 100 18 0 31-13 57-55zm342-40c26-52 47-97 47-100s-11-5-25-5-25 5-25 10c0 6-22 10-50 10-27 0-50-4-50-10 0-5-12-10-26-10s-24 3-22 8c2 4 24 49 48 100 24 50 46 92 50 92 3 0 27-43 53-95zm156 38 51-57v57c0 54 1 57 25 57h25v-100c0-119-6-123-76-50-26 28-52 50-56 50s-8-22-8-50c0-43-3-50-20-50-19 0-20 7-20 100 0 121 7 124 79 43zm284 46c65-33 76-108 25-159-28-29-36-32-76-27-60 7-97 43-97 96 0 75 81 124 148 90zm137-69v-80h45c38 0 45-3 45-20 0-18-7-20-65-20h-65v100c0 93 1 100 20 100 18 0 20-7 20-80zm250 60c0-17-7-20-45-20s-45-3-45-20c0-15 7-20 25-20s25-5 25-20-7-20-25-20-25-5-25-20c0-17 7-20 45-20s45-3 45-20c0-18-7-20-65-20h-65v100 100h65c58 0 65-2 65-20zm-960-410c0-17-7-20-45-20s-45-3-45-20c0-15 7-20 25-20s25-5 25-20-7-20-25-20-25-5-25-20c0-17 7-20 45-20s45-3 45-20c0-18-7-20-70-20h-70v100 100h70c63 0 70-2 70-20zm135 10c22-8 25-13 15-25-8-9-22-12-41-8-43 8-37-17 9-42 71-38 48-122-32-112-49 7-64 21-46 42 9 11 16 13 24 5 15-15 46-12 46 5 0 9-11 20-23 24-57 22-75 77-35 105 26 19 46 20 83 6zm215-10c0-16-7-20-30-20h-30v-80c0-73-2-80-20-80s-20 7-20 80v80h-30c-23 0-30 4-30 20 0 18 7 20 80 20s80-2 80-20zm163-75c26-52 47-97 47-100s-11-5-25-5-25 5-25 10c0 6-22 10-50 10-27 0-50-4-50-10 0-5-11-10-24-10-25 0-25 0 21 100 26 55 49 100 52 100 4 0 28-43 54-95zm207 75c0-15-7-20-25-20-25 0-25-1-25-80s0-80-25-80-25 1-25 80v80h-30c-23 0-30 4-30 20 0 18 7 20 80 20s80-2 80-20zm170 0c0-17-7-20-45-20s-45-3-45-20c0-15 7-20 25-20s25-5 25-20-7-20-25-20-25-5-25-20c0-17 7-20 45-20s45-3 45-20c0-18-7-20-65-20h-65v100 100h65c58 0 65-2 65-20z"/><path d="m1062 633c-16-29-15-33 8-33 22 0 23 4 11 35-8 19-8 19-19-2z"/><path d="m1477 672c-22-24-21-45 1-65 37-34 92-13 92 33 0 47-61 68-93 32z"/><path d="m1436 214c-9-23-8-24 14-24 11 0 20 2 20 4 0 12-13 36-20 36-4 0-11-7-14-16z"/><path d="m859 2488 241-193v-110-110l103-91 103-92 122 101 122 101v101 100l241 193 242 192h-708-708z"/></g></svg>