<?xml version="1.0" standalone="no"?>
<!DOCTYPE svg PUBLIC "-//W3C//DTD SVG 1.1//EN" "http://www.w3.org/Graphics/SVG/1.1/DTD/svg11.dtd" >
<svg xmlns="http://www.w3.org/2000/svg" xmlns:xlink="http://www.w3.org/1999/xlink" version="1.1">
<metadata>
Created by FontForge 20170910 at Sat Feb 15 09:29:55 2014
 By Jimmy Wärting
Copyright \(c\) 2005 by Frantisek Storm, www.stormtype.com. All rights reserved.
</metadata>
<defs>
<font id="EtelkaLightPro" horiz-adv-x="585" >
  <font-face 
    font-family="Etelka Light Pro"
    font-weight="400"
    font-stretch="normal"
    units-per-em="1000"
    panose-1="2 0 5 3 3 0 0 2 0 4"
    ascent="800"
    descent="-200"
    x-height="505"
    cap-height="697"
    bbox="-208 -314 1343 959"
    underline-thickness="50"
    underline-position="-150"
    unicode-range="U+0020-FB04"
  />
<missing-glyph horiz-adv-x="500" 
d="M500 0h-500v697h500v-697zM80 647l170 -253l170 253h-340zM450 602l-170 -253l170 -254v507zM250 304l-170 -254h340zM220 349l-170 253v-507z" />
    <glyph glyph-name="ff" unicode="ff" horiz-adv-x="667" 
d="M479 552v-47h180v-60h-180v-445h-65v445h-247v-445h-65v445h-89v60h89v39c0 148 98 175 203 175c55 0 108 -10 159 -29c24 19 62 29 114 29c41 0 79 -5 114 -16l-17 -57c-27 9 -60 13 -97 13c-48 0 -99 -8 -99 -107zM167 544v-39h247v47c0 35 5 64 14 87
c-40 13 -81 20 -123 20c-92 0 -138 -23 -138 -115z" />
    <glyph glyph-name="fi" unicode="fi" horiz-adv-x="554" 
d="M167 505h312v-505h-65v445h-247v-445h-65v445h-89v60h89v39c0 148 98 175 203 175c62 0 119 -11 171 -34l-20 -56c-49 20 -100 30 -151 30c-92 0 -138 -23 -138 -115v-39z" />
    <glyph glyph-name="fl" unicode="fl" horiz-adv-x="559" 
d="M479 685v-555c0 -48 11 -72 48 -109l-51 -42c-44 44 -62 78 -62 147v518c-34 10 -70 15 -109 15c-92 0 -138 -23 -138 -115v-39h180v-60h-180v-445h-65v445h-89v60h89v39c0 148 98 175 203 175c61 0 119 -11 174 -34z" />
    <glyph glyph-name="ffi" unicode="ffi" horiz-adv-x="866" 
d="M479 505h312v-505h-65v445h-247v-445h-65v445h-247v-445h-65v445h-89v60h89v39c0 148 98 175 203 175c63 0 120 -11 170 -33c32 22 79 33 142 33c62 0 119 -11 171 -34l-20 -56c-49 20 -100 30 -151 30c-92 0 -138 -23 -138 -115v-39zM167 544v-39h247v39
c0 35 6 66 18 92c-39 15 -81 23 -127 23c-92 0 -138 -23 -138 -115z" />
    <glyph glyph-name="ffl" unicode="ffl" horiz-adv-x="872" 
d="M791 685v-555c0 -48 11 -72 48 -109l-51 -42c-44 44 -62 78 -62 147v518c-34 10 -70 15 -109 15c-92 0 -138 -23 -138 -115v-39h180v-60h-180v-445h-65v445h-247v-445h-65v445h-89v60h89v39c0 148 98 175 203 175c61 0 117 -11 169 -33c32 22 80 33 143 33
c61 0 119 -11 174 -34zM414 505v39c0 37 6 68 19 93c-42 15 -85 22 -128 22c-92 0 -138 -23 -138 -115v-39h247z" />
    <glyph glyph-name="fj" unicode="fj" horiz-adv-x="554" 
d="M167 505h312v-533c0 -69 -14 -115 -43 -139c-28 -24 -69 -36 -122 -36v60c36 0 62 7 77 22s23 46 23 93v473h-247v-445h-65v445h-89v60h89v39c0 148 98 175 203 175c62 0 119 -11 171 -34l-20 -56c-49 20 -100 30 -151 30c-92 0 -138 -23 -138 -115v-39z" />
    <glyph glyph-name="fk" unicode="fk" horiz-adv-x="816" 
d="M479 685v-685h-65v644c-34 10 -70 15 -109 15c-92 0 -138 -23 -138 -115v-39h180v-60h-180v-445h-65v445h-89v60h89v39c0 148 98 175 203 175c61 0 119 -11 174 -34zM818 0h-84c-135 166 -220 255 -255 267c39 26 118 105 237 238h84c-114 -126 -191 -202 -231 -229
c33 -17 116 -109 249 -276z" />
    <glyph glyph-name="ffk" unicode="ffk" horiz-adv-x="1128" 
d="M1130 0h-84c-135 166 -220 255 -255 267v-267h-65v644c-34 10 -70 15 -109 15c-92 0 -138 -23 -138 -115v-39h180v-60h-180v-445h-65v445h-247v-445h-65v445h-89v60h89v39c0 148 98 175 203 175c61 0 117 -11 169 -33c32 22 80 33 143 33c61 0 119 -11 174 -34v-418
c39 26 118 105 237 238h84c-114 -126 -191 -202 -231 -229c33 -17 116 -109 249 -276zM414 505v39c0 37 6 68 19 93c-42 15 -85 22 -128 22c-92 0 -138 -23 -138 -115v-39h247z" />
    <glyph glyph-name="Th" unicode="Th" horiz-adv-x="1035" 
d="M6 697h616v-219c27 21 87 41 147 41c70 0 119 -17 148 -50s43 -94 43 -184v-285h-65v272c0 75 -9 125 -28 149c-18 24 -53 36 -105 36c-76 0 -140 -27 -140 -71v-386h-65v637h-236v-637h-73v637h-242v60z" />
    <glyph glyph-name=".notdef" horiz-adv-x="500" 
d="M500 0h-500v697h500v-697zM80 647l170 -253l170 253h-340zM450 602l-170 -253l170 -254v507zM250 304l-170 -254h340zM220 349l-170 253v-507z" />
    <glyph glyph-name="NULL" horiz-adv-x="0" 
 />
    <glyph glyph-name="CR" horiz-adv-x="333" 
 />
    <glyph glyph-name="space" unicode=" " horiz-adv-x="286" 
 />
    <glyph glyph-name="exclam" unicode="!" horiz-adv-x="331" 
d="M140 198l-22 499h94l-22 -499h-50zM165 103c41 0 53 -8 53 -49c0 -44 -12 -54 -53 -54c-40 0 -52 10 -52 54c0 41 12 49 52 49z" />
    <glyph glyph-name="quotedbl" unicode="&#x22;" horiz-adv-x="305" 
d="M56 467l-11 230h77l-19 -230h-47zM195 467l-9 230h74l-19 -230h-46z" />
    <glyph glyph-name="numbersign" unicode="#" horiz-adv-x="659" 
d="M184 455h-141l4 55h141l11 187h64l-11 -187h165l11 187h64l-11 -187h148l-4 -55h-148l-12 -194h151l-4 -54h-150l-13 -207h-64l13 207h-165l-13 -207h-64l13 207h-139l4 54h138zM413 455h-165l-12 -194h165z" />
    <glyph glyph-name="dollar" unicode="$" horiz-adv-x="624" 
d="M283 680v145h60v-141c73 0 133 -7 182 -21l-21 -65c-30 16 -84 24 -161 24v-241c141 -17 204 -74 204 -186c0 -111 -68 -173 -204 -187v-145h-60v142c-79 0 -142 7 -189 21l22 65c41 -16 97 -24 167 -24v256c-143 13 -202 60 -202 171s67 173 202 186zM474 194
c0 72 -32 107 -131 122v-245c85 11 131 46 131 123zM154 495c0 -69 32 -97 129 -108v232c-86 -11 -129 -52 -129 -124z" />
    <glyph glyph-name="percent" unicode="%" horiz-adv-x="862" 
d="M50 499c0 81 12 137 37 168s64 47 117 47s92 -15 117 -46s37 -87 37 -169c0 -83 -13 -140 -38 -173s-63 -49 -116 -49s-92 16 -117 49s-37 90 -37 173zM204 661c-34 0 -58 -11 -72 -33s-21 -66 -21 -131c0 -125 26 -168 93 -168c69 0 93 41 93 168c0 66 -7 110 -20 131
c-13 22 -38 33 -73 33zM504 208c0 81 12 137 37 168s64 47 117 47s92 -15 117 -46s37 -87 37 -169c0 -83 -13 -140 -38 -173s-63 -49 -116 -49s-92 16 -117 49s-37 90 -37 173zM658 370c-34 0 -58 -11 -72 -33s-21 -66 -21 -131c0 -125 26 -168 93 -168c69 0 93 41 93 168
c0 66 -7 110 -20 131c-13 22 -38 33 -73 33zM197 0l394 697h71l-394 -697h-71z" />
    <glyph glyph-name="ampersand" unicode="&#x26;" horiz-adv-x="758" 
d="M650 401h67c0 -86 -29 -167 -88 -244c16 -23 49 -75 100 -157h-81c-13 25 -35 59 -64 104c-46 -45 -87 -76 -124 -93s-86 -25 -149 -25c-85 0 -148 14 -188 43s-60 81 -60 156c0 104 56 181 180 186c-48 4 -82 20 -101 39c-9 9 -15 22 -20 37c-9 32 -10 52 -10 92
c0 117 73 175 219 175c152 0 220 -57 220 -170c0 -97 -33 -160 -148 -171c27 -3 55 -17 83 -40s63 -65 105 -124c39 59 59 123 59 192zM311 47c57 0 101 7 132 22c32 15 67 44 106 87c-87 128 -151 188 -228 188c-125 0 -181 -42 -181 -150c0 -54 12 -92 37 -114
s69 -33 134 -33zM323 403c103 0 155 44 155 131c0 85 -40 119 -147 119s-145 -33 -145 -118c0 -93 38 -132 137 -132z" />
    <glyph glyph-name="quotesingle" unicode="'" horiz-adv-x="167" 
d="M56 467l-11 230h77l-19 -230h-47z" />
    <glyph glyph-name="parenleft" unicode="(" horiz-adv-x="255" 
d="M268 796l32 -53c-45 -16 -83 -64 -114 -145s-47 -190 -47 -329s16 -248 47 -329s69 -129 114 -145l-32 -53c-119 60 -200 230 -200 527s81 467 200 527z" />
    <glyph glyph-name="parenright" unicode=")" horiz-adv-x="255" 
d="M-13 -258l-32 53c45 16 83 64 114 145s47 190 47 329s-16 248 -47 329s-69 129 -114 145l32 53c119 -60 200 -230 200 -527s-81 -467 -200 -527z" />
    <glyph glyph-name="asterisk" unicode="*" horiz-adv-x="420" 
d="M162 518h-132v54h133l-66 116l47 26l65 -115l67 115l48 -27l-67 -115h133v-54h-134l67 -116l-47 -26l-66 114l-66 -114l-48 27z" />
    <glyph glyph-name="plus" unicode="+" horiz-adv-x="622" 
d="M279 328h-208v60h208v210h62v-210h209v-60h-209v-209h-62v209z" />
    <glyph glyph-name="comma" unicode="," horiz-adv-x="256" 
d="M101 98h91l-109 -257h-60z" />
    <glyph glyph-name="hyphen" unicode="-" horiz-adv-x="277" 
d="M244 245h-211v60h211v-60z" />
    <glyph glyph-name="hyphen" unicode="&#xad;" horiz-adv-x="277" 
d="M244 245h-211v60h211v-60z" />
    <glyph glyph-name="period" unicode="." horiz-adv-x="256" 
d="M127 103c43 0 53 -8 53 -49c0 -45 -10 -54 -53 -54c-40 0 -51 10 -51 54c0 41 11 49 51 49z" />
    <glyph glyph-name="slash" unicode="/" horiz-adv-x="427" 
d="M42 0l355 697h76l-357 -697h-74z" />
    <glyph glyph-name="zero" unicode="0" horiz-adv-x="622" 
d="M311 -14c-169 0 -243 86 -247 372c4 283 76 356 247 356c59 0 105 -10 139 -30c69 -39 108 -141 108 -326c0 -139 -20 -235 -59 -290s-101 -82 -188 -82zM310 656c-45 0 -79 -7 -102 -21c-45 -28 -71 -108 -71 -277c3 -244 46 -308 173 -310c65 0 110 22 136 65
c26 44 39 126 39 245c0 128 -10 202 -41 245c-29 43 -66 53 -134 53z" />
    <glyph glyph-name="one" unicode="1" horiz-adv-x="622" 
d="M372 722v-722h-72v621l-156 -75l-24 54z" />
    <glyph glyph-name="two" unicode="2" horiz-adv-x="622" 
d="M155 60h379v-60h-472v56c100 79 175 140 225 182c50 43 89 81 118 116s47 63 52 82c6 20 9 47 9 81c0 100 -49 132 -176 132c-30 0 -63 -3 -98 -8s-60 -11 -76 -19l-18 65c73 18 138 27 193 27c173 0 250 -55 250 -195c0 -37 -4 -68 -13 -95c-8 -27 -26 -58 -54 -93
s-67 -74 -117 -115c-49 -41 -117 -93 -202 -156z" />
    <glyph glyph-name="three" unicode="3" horiz-adv-x="622" 
d="M386 375c121 -5 162 -75 162 -183c0 -152 -81 -206 -273 -206c-65 0 -136 10 -213 29l17 56c53 -16 118 -24 196 -24c76 0 128 11 155 32c27 22 41 60 41 115c0 111 -49 150 -184 150h-80v59h80c121 0 173 39 173 132c0 43 -13 74 -38 91c-25 18 -73 27 -142 27
c-75 0 -139 -9 -192 -26l-18 60c84 18 154 27 210 27c184 0 254 -54 254 -170c0 -96 -35 -158 -148 -169z" />
    <glyph glyph-name="four" unicode="4" horiz-adv-x="615" 
d="M133 263h256v389c-43 -52 -89 -116 -138 -193s-88 -142 -118 -196zM345 697h115v-434h99v-59h-99v-204h-71v204h-353v15c37 69 85 149 143 240c59 91 114 171 166 238z" />
    <glyph glyph-name="five" unicode="5" horiz-adv-x="622" 
d="M505 637h-324v-225c34 4 72 6 113 6c93 0 159 -17 197 -50s57 -87 57 -164c0 -81 -21 -138 -63 -170s-111 -48 -208 -48c-54 0 -120 10 -199 29l18 56c52 -16 112 -24 181 -24c76 0 127 11 154 33s40 60 40 115c0 61 -12 104 -37 127c-24 23 -71 35 -140 35
c-70 0 -131 -6 -183 -19v359h394v-60z" />
    <glyph glyph-name="six" unicode="6" horiz-adv-x="622" 
d="M373 714c59 0 119 -10 180 -29l-23 -64c-46 19 -98 28 -156 28c-84 0 -129 -9 -172 -44c-41 -35 -59 -99 -63 -204c57 11 117 17 181 17c93 0 159 -17 197 -50c39 -33 58 -87 58 -164c0 -81 -19 -138 -58 -170s-103 -48 -192 -48c-194 3 -257 79 -261 367
c0 141 24 234 79 287c55 55 123 74 230 74zM325 47c69 0 115 11 138 32c23 22 35 61 35 116c0 61 -12 104 -37 127s-72 35 -141 35c-67 0 -128 -6 -181 -18c3 -241 62 -292 186 -292z" />
    <glyph glyph-name="seven" unicode="7" horiz-adv-x="622" 
d="M91 697h493v-26c-53 -86 -109 -193 -168 -321c-59 -127 -107 -244 -144 -350h-82c41 114 90 230 145 348c55 119 106 215 153 289h-397v60z" />
    <glyph glyph-name="eight" unicode="8" horiz-adv-x="622" 
d="M483 194c0 109 -49 150 -172 150s-171 -41 -171 -150c0 -54 12 -92 37 -114s69 -33 134 -33s109 11 134 33s38 60 38 114zM466 535c0 85 -40 118 -155 118s-155 -33 -155 -118c0 -93 46 -132 155 -132s155 39 155 132zM311 -14c-168 0 -248 57 -248 206
c0 108 40 178 163 183c-57 5 -95 22 -115 51c-19 29 -29 69 -29 118c0 115 68 170 229 170s230 -55 230 -170c0 -49 -10 -89 -30 -118c-19 -29 -57 -46 -114 -51c121 -5 162 -75 162 -183c0 -151 -79 -206 -248 -206z" />
    <glyph glyph-name="nine" unicode="9" horiz-adv-x="622" 
d="M314 282c-95 0 -162 15 -199 44s-56 82 -56 157c0 164 74 231 250 231c97 0 164 -17 200 -50s54 -97 54 -193c0 -100 -32 -194 -91 -274c-29 -40 -57 -75 -85 -104c-27 -29 -60 -60 -98 -93h-100c131 109 218 207 260 292c-53 -7 -98 -10 -135 -10zM489 459
c0 71 -10 118 -27 146c-8 14 -20 25 -36 32c-32 15 -61 17 -117 17c-68 0 -114 -13 -138 -39c-23 -25 -35 -67 -35 -124c0 -59 12 -99 35 -118c24 -19 72 -29 143 -29c61 0 115 4 160 13c10 32 15 66 15 102z" />
    <glyph glyph-name="colon" unicode=":" horiz-adv-x="256" 
d="M127 103c43 0 53 -8 53 -49c0 -45 -10 -54 -53 -54c-40 0 -51 10 -51 54c0 41 11 49 51 49zM127 505c43 0 53 -8 53 -49c0 -45 -10 -54 -53 -54c-40 0 -51 9 -51 54c0 41 11 49 51 49z" />
    <glyph glyph-name="semicolon" unicode=";" horiz-adv-x="256" 
d="M101 98h91l-109 -257h-60zM127 505c43 0 53 -8 53 -49c0 -45 -10 -54 -53 -54c-40 0 -51 9 -51 54c0 41 11 49 51 49z" />
    <glyph glyph-name="less" unicode="&#x3c;" horiz-adv-x="622" 
d="M477 665l39 -43l-320 -264l320 -266l-37 -44l-368 292v34z" />
    <glyph glyph-name="equal" unicode="=" horiz-adv-x="622" 
d="M550 221h-479v60h479v-60zM550 427h-479v60h479v-60z" />
    <glyph glyph-name="greater" unicode="&#x3e;" horiz-adv-x="622" 
d="M151 49l-39 43l320 264l-320 266l37 44l368 -292v-34z" />
    <glyph glyph-name="question" unicode="?" horiz-adv-x="530" 
d="M236 289v-99h-70v157h70c71 0 120 11 147 34s40 64 40 124c0 55 -13 93 -40 115s-78 33 -154 33c-67 0 -127 -8 -181 -25l-14 59c73 18 138 27 195 27c97 0 166 -16 208 -48s63 -89 63 -170c0 -75 -20 -129 -61 -160s-108 -47 -203 -47zM196 103c43 0 53 -8 53 -49
c0 -45 -10 -54 -53 -54c-40 0 -51 10 -51 54c0 41 11 49 51 49z" />
    <glyph glyph-name="at" unicode="@" horiz-adv-x="932" 
d="M446 432c62 0 112 -4 151 -12c-1 57 -14 96 -40 117s-71 31 -136 31c-113 0 -173 -12 -221 -57c-48 -44 -63 -119 -63 -248c0 -120 23 -200 68 -241c46 -40 133 -60 260 -60c129 0 206 16 259 67c55 52 74 130 74 261c0 99 -8 170 -24 215h73c15 -45 22 -117 22 -217
c0 -151 -30 -248 -99 -307c-68 -60 -161 -82 -305 -82s-235 20 -304 75c-68 55 -98 147 -98 291c0 141 28 236 88 289c60 55 140 75 260 75c87 0 146 -7 190 -46c40 -38 62 -102 62 -222c0 -112 -12 -178 -48 -217c-35 -37 -77 -48 -156 -48c-75 0 -129 12 -160 36
s-46 69 -46 134c0 72 14 115 49 138c36 23 73 28 144 28zM466 374c-57 0 -94 -6 -113 -19c-18 -13 -27 -41 -27 -86s9 -75 28 -91c19 -15 55 -23 107 -23c53 0 88 11 107 32s29 63 29 125v53c-35 6 -78 9 -131 9z" />
    <glyph glyph-name="A" unicode="A" horiz-adv-x="668" 
d="M661 0h-81c-37 93 -65 164 -84 215h-340c-27 -77 -51 -148 -72 -215h-71c85 248 173 480 263 697h123c93 -278 181 -510 262 -697zM349 641h-29c-61 -150 -108 -272 -142 -366h296c-43 119 -85 241 -125 366z" />
    <glyph glyph-name="B" unicode="B" horiz-adv-x="689" 
d="M173 60h273c65 0 98 46 98 138c0 89 -33 146 -102 146h-269v-284zM173 403h263c61 0 92 40 92 120c0 76 -23 114 -92 114h-263v-234zM464 375c61 -3 102 -19 124 -50s33 -73 33 -128c0 -129 -61 -197 -174 -197h-346v697h335c139 0 166 -78 166 -165
c0 -49 -9 -86 -27 -111c-17 -25 -54 -41 -111 -46z" />
    <glyph glyph-name="C" unicode="C" horiz-adv-x="602" 
d="M63 355c0 141 24 233 79 286c56 55 127 73 240 73c69 0 134 -9 195 -27l-23 -65c-45 18 -102 27 -171 27c-95 0 -144 -10 -187 -51c-41 -41 -55 -115 -55 -243c0 -85 8 -149 25 -193c17 -43 41 -73 74 -88s80 -22 143 -22c69 0 126 9 171 26l23 -64
c-59 -19 -124 -28 -195 -28c-112 0 -193 27 -244 81c-50 54 -75 150 -75 288z" />
    <glyph glyph-name="D" unicode="D" horiz-adv-x="703" 
d="M101 0v697h215c113 0 187 -20 243 -72s81 -142 81 -275c0 -130 -26 -221 -77 -273c-51 -51 -134 -77 -247 -77h-215zM563 350c0 121 -14 193 -57 234c-43 43 -94 53 -190 53h-143v-577h143c92 0 156 20 192 61c37 41 55 117 55 229z" />
    <glyph glyph-name="E" unicode="E" horiz-adv-x="610" 
d="M101 0v697h477v-60h-405v-234h287v-60h-287v-283h405v-60h-477z" />
    <glyph glyph-name="F" unicode="F" horiz-adv-x="571" 
d="M101 0v697h470v-60h-398v-268h287v-60h-287v-309h-72z" />
    <glyph glyph-name="G" unicode="G" horiz-adv-x="677" 
d="M523 67v249h-182v58h254v-365c-49 -15 -120 -23 -213 -23c-112 0 -193 27 -244 81c-50 54 -75 150 -75 288c0 141 24 233 79 286c56 55 127 73 240 73c69 0 134 -9 195 -27l-23 -63c-45 17 -102 26 -171 26c-95 0 -144 -9 -187 -52c-41 -41 -55 -115 -55 -243
c0 -85 8 -149 25 -193s41 -74 74 -89s81 -23 143 -23c51 0 97 6 140 17z" />
    <glyph glyph-name="H" unicode="H" horiz-adv-x="714" 
d="M543 341h-370v-341h-72v697h72v-291h370v291h71v-697h-71v341z" />
    <glyph glyph-name="I" unicode="I" horiz-adv-x="273" 
d="M101 0v697h72v-697h-72z" />
    <glyph glyph-name="J" unicode="J" horiz-adv-x="440" 
d="M265 697h74v-505c0 -83 -21 -140 -60 -168c-37 -28 -77 -38 -130 -38c-45 0 -90 10 -136 30l24 67c33 -17 71 -26 112 -26c77 0 116 45 116 135v505z" />
    <glyph glyph-name="K" unicode="K" horiz-adv-x="617" 
d="M101 697h72v-697h-72v697zM624 0h-97c-77 107 -149 192 -214 257s-111 102 -139 111c30 17 75 56 136 115s126 131 193 214h95c-70 -82 -134 -152 -192 -209s-100 -94 -126 -111c27 -15 72 -56 136 -123s133 -151 208 -254z" />
    <glyph glyph-name="L" unicode="L" horiz-adv-x="546" 
d="M101 0v697h72v-634h360v-63h-432z" />
    <glyph glyph-name="M" unicode="M" horiz-adv-x="869" 
d="M437 174c61 159 138 334 231 523h101v-697h-72v617l-238 -541h-53l-235 541v-617h-70v697h108c87 -183 163 -357 228 -523z" />
    <glyph glyph-name="N" unicode="N" horiz-adv-x="730" 
d="M173 624v-624h-72v697h98c115 -170 234 -367 357 -590v590h73v-697h-86c-113 209 -236 417 -370 624z" />
    <glyph glyph-name="O" unicode="O" horiz-adv-x="759" 
d="M379 -14c-75 0 -135 10 -180 31c-88 41 -136 146 -136 335c0 93 12 167 35 220c47 107 130 142 281 142c75 0 135 -10 180 -31c89 -41 137 -144 137 -331c0 -95 -12 -169 -35 -223c-47 -108 -130 -143 -282 -143zM141 350c5 -246 56 -297 238 -301c93 0 147 14 187 59
c40 47 54 119 54 242c0 129 -14 203 -55 247c-40 45 -91 56 -186 56s-145 -11 -185 -56c-40 -44 -53 -118 -53 -247z" />
    <glyph glyph-name="P" unicode="P" horiz-adv-x="650" 
d="M173 637v-317h238c79 0 119 59 119 152c0 104 -39 165 -114 165h-243zM173 256v-256h-72v697h311c132 0 198 -75 198 -226c0 -61 -16 -113 -47 -154s-79 -61 -146 -61h-244z" />
    <glyph glyph-name="Q" unicode="Q" horiz-adv-x="785" 
d="M696 -192h-92c-79 111 -164 173 -217 178c-74 1 -133 11 -177 32c-87 43 -134 146 -134 334c0 93 12 167 35 220c47 107 130 142 281 142c75 0 135 -10 180 -31c89 -41 137 -144 137 -331c0 -119 -18 -206 -54 -261c-35 -54 -92 -87 -171 -99c52 -9 123 -70 212 -184z
M154 350c5 -246 56 -297 238 -301c93 0 147 14 187 59c40 47 54 119 54 242c0 129 -14 203 -55 247c-40 45 -91 56 -186 56s-145 -11 -185 -56c-40 -44 -53 -118 -53 -247z" />
    <glyph glyph-name="R" unicode="R" horiz-adv-x="675" 
d="M101 0v697h311c132 0 198 -67 198 -202c0 -109 -58 -184 -201 -184c47 -16 129 -120 244 -311h-90c-111 193 -203 302 -255 302h-135v-302h-72zM412 637h-239v-272h234c80 0 123 50 123 131c0 91 -42 141 -118 141z" />
    <glyph glyph-name="S" unicode="S" horiz-adv-x="624" 
d="M343 714c67 0 131 -9 192 -27l-20 -65c-15 8 -40 14 -75 19c-34 5 -66 8 -96 8c-133 0 -203 -34 -203 -137c0 -73 45 -111 177 -120c168 -13 241 -74 241 -202c0 -136 -94 -204 -283 -204c-73 0 -139 9 -198 28l20 64c47 -17 106 -26 177 -26c135 0 208 36 208 137
c0 76 -47 126 -176 135c-172 12 -243 61 -243 186c0 136 93 204 279 204z" />
    <glyph glyph-name="T" unicode="T" horiz-adv-x="568" 
d="M562 637h-241v-637h-73v637h-242v60h556v-60z" />
    <glyph glyph-name="U" unicode="U" horiz-adv-x="738" 
d="M578 697h72v-455c0 -104 -22 -171 -73 -208c-51 -36 -111 -48 -208 -48c-96 0 -156 12 -207 48c-51 37 -74 104 -74 208v455h73v-456c0 -77 16 -128 48 -154c33 -25 86 -38 161 -38c74 0 127 13 159 39c33 27 49 78 49 153v456z" />
    <glyph glyph-name="V" unicode="V" horiz-adv-x="639" 
d="M319 55c82 193 160 407 235 642h72c-84 -253 -172 -486 -263 -697h-95c-84 266 -171 498 -262 697h82c90 -215 167 -429 231 -642z" />
    <glyph glyph-name="W" unicode="W" horiz-adv-x="905" 
d="M648 74c71 217 131 425 179 623h71c-63 -247 -131 -479 -206 -697h-93c-29 157 -75 355 -137 594c-24 -130 -77 -328 -158 -594h-91c-83 313 -152 545 -207 697h81c63 -191 122 -399 176 -623c77 259 131 466 162 623h74c3 -9 12 -46 29 -110c17 -63 28 -109 35 -138
l30 -121c27 -105 43 -183 55 -254z" />
    <glyph glyph-name="X" unicode="X" horiz-adv-x="648" 
d="M330 412l211 285h84l-252 -340l262 -357h-87l-219 299l-232 -299h-84l274 353l-266 344h87z" />
    <glyph glyph-name="Y" unicode="Y" horiz-adv-x="607" 
d="M340 335v-335h-73v335c-79 117 -170 237 -272 362h91c77 -95 151 -196 223 -305c76 96 149 198 220 305h83c-97 -139 -188 -259 -272 -362z" />
    <glyph glyph-name="Z" unicode="Z" horiz-adv-x="609" 
d="M566 0h-545v29c171 212 324 415 459 608h-432v60h536v-26c-145 -213 -297 -417 -458 -611h440v-60z" />
    <glyph glyph-name="bracketleft" unicode="[" horiz-adv-x="266" 
d="M86 -260v1055h200v-58h-131v-940h131v-57h-200z" />
    <glyph glyph-name="backslash" unicode="\" horiz-adv-x="427" 
d="M309 0l-357 697h76l355 -697h-74z" />
    <glyph glyph-name="bracketright" unicode="]" horiz-adv-x="266" 
d="M-20 737v58h200v-1055h-200v57h131v940h-131z" />
    <glyph glyph-name="asciicircum" unicode="^" horiz-adv-x="471" 
d="M461 296h-69l-159 338l-159 -338h-64l190 401h69z" />
    <glyph glyph-name="underscore" unicode="_" horiz-adv-x="398" 
d="M365 -128h-332v60h332v-60z" />
    <glyph glyph-name="grave" unicode="`" horiz-adv-x="494" 
d="M185 697l119 -129h-69l-133 129h83z" />
    <glyph glyph-name="a" unicode="a" horiz-adv-x="542" 
d="M466 323v-297c-59 -27 -127 -40 -204 -40c-74 0 -127 12 -158 37s-47 69 -47 133c0 66 17 110 51 133s84 34 149 34c45 0 93 -5 144 -16c0 61 -10 102 -30 121s-60 29 -119 29s-108 -8 -145 -24l-19 61c59 17 115 25 168 25c76 0 130 -14 162 -42s48 -79 48 -154zM401 68
v184c-35 9 -81 13 -136 13c-53 0 -89 -6 -108 -19c-18 -12 -27 -40 -27 -85c0 -49 9 -81 26 -95c18 -14 54 -21 109 -21c48 0 93 8 136 23z" />
    <glyph glyph-name="b" unicode="b" horiz-adv-x="572" 
d="M280 519c81 0 140 -20 175 -59c36 -39 54 -109 54 -209s-18 -169 -54 -208c-35 -38 -94 -57 -175 -57c-32 0 -67 4 -106 11s-71 17 -98 29v696h65v-244c34 27 80 41 139 41zM280 48c122 3 153 30 157 204c0 81 -11 135 -34 163c-22 28 -63 42 -123 42
c-79 0 -139 -27 -139 -71v-317c39 -14 86 -21 139 -21z" />
    <glyph glyph-name="c" unicode="c" horiz-adv-x="466" 
d="M430 74l21 -60c-42 -19 -90 -28 -144 -28c-83 0 -144 20 -184 60s-60 110 -60 209s20 167 60 206s101 58 184 58c53 0 101 -8 144 -25l-21 -61c-34 16 -75 24 -123 24c-118 0 -172 -32 -172 -204c0 -79 13 -133 39 -162c27 -29 71 -43 133 -43c43 0 84 9 123 26z" />
    <glyph glyph-name="d" unicode="d" horiz-adv-x="572" 
d="M292 519c59 0 105 -14 139 -41v244h65v-696c-27 -12 -59 -22 -98 -29s-74 -11 -106 -11c-81 0 -140 19 -176 57c-35 39 -53 108 -53 208s18 170 53 209c36 39 95 59 176 59zM292 48c54 0 100 7 139 21v317c0 44 -60 71 -139 71c-60 0 -101 -14 -124 -42
c-22 -28 -33 -82 -33 -163c4 -174 35 -201 157 -204z" />
    <glyph glyph-name="e" unicode="e" horiz-adv-x="546" 
d="M290 519c74 0 127 -20 158 -59c32 -39 48 -110 48 -214h-361c1 -79 14 -132 39 -159c26 -27 70 -40 131 -40c48 0 96 9 145 27l15 -60c-61 -19 -116 -28 -166 -28c-81 0 -140 20 -179 60c-38 40 -57 110 -57 209c0 192 71 264 227 264zM290 458c-54 0 -92 -11 -115 -33
c-22 -21 -35 -61 -39 -120h286c-3 61 -13 102 -32 122c-19 21 -52 31 -100 31z" />
    <glyph glyph-name="f" unicode="f" horiz-adv-x="355" 
d="M167 552v-47h180v-60h-180v-445h-65v445h-89v60h89v47c0 71 18 118 51 139c35 21 65 28 113 28c41 0 79 -5 114 -16l-17 -57c-27 9 -60 13 -97 13c-48 0 -99 -8 -99 -107z" />
    <glyph glyph-name="g" unicode="g" horiz-adv-x="572" 
d="M496 479v-442c0 -89 -21 -152 -63 -187c-41 -35 -104 -53 -187 -53c-23 0 -51 3 -85 9c-34 5 -60 12 -78 20l19 62c17 -8 40 -15 69 -20c30 -6 55 -9 75 -9c127 0 185 41 185 169c-35 -28 -82 -42 -139 -42c-81 0 -140 20 -176 59c-35 39 -53 109 -53 210
c0 100 18 169 53 207c36 38 95 57 176 57c32 0 67 -4 106 -11s71 -17 98 -29zM431 120v316c-39 14 -85 21 -139 21c-61 0 -103 -13 -125 -40c-21 -26 -32 -81 -32 -164c0 -81 11 -135 33 -163c23 -28 64 -42 124 -42c79 0 139 27 139 72z" />
    <glyph glyph-name="h" unicode="h" horiz-adv-x="554" 
d="M288 519c70 0 119 -17 148 -50s43 -94 43 -184v-285h-65v272c0 75 -9 125 -28 149c-18 24 -53 36 -105 36c-76 0 -140 -27 -140 -71v-386h-65v722h65v-244c27 21 87 41 147 41z" />
    <glyph glyph-name="i" unicode="i" horiz-adv-x="217" 
d="M76 505h65v-505h-65v505zM110 697c32 0 41 -6 41 -39c0 -36 -9 -43 -41 -43c-33 0 -42 7 -42 43c0 33 9 39 42 39z" />
    <glyph glyph-name="j" unicode="j" horiz-adv-x="217" 
d="M-24 -203v60c36 0 62 7 77 22s23 46 23 93v533h65v-533c0 -69 -14 -115 -43 -139c-28 -24 -69 -36 -122 -36zM110 697c32 0 41 -6 41 -39c0 -36 -9 -43 -41 -43c-33 0 -42 7 -42 43c0 33 9 39 42 39z" />
    <glyph glyph-name="k" unicode="k" horiz-adv-x="478" 
d="M480 0h-84c-135 166 -220 255 -255 267v-267h-65v722h65v-455c39 26 118 105 237 238h84c-114 -126 -191 -202 -231 -229c33 -17 116 -109 249 -276z" />
    <glyph glyph-name="l" unicode="l" horiz-adv-x="222" 
d="M76 722h65v-592c0 -48 11 -72 48 -109l-50 -42c-45 43 -63 76 -63 147v596z" />
    <glyph glyph-name="m" unicode="m" horiz-adv-x="860" 
d="M141 440v-440h-65v479c59 27 124 40 196 40c63 0 108 -12 136 -35c62 23 124 35 186 35c73 0 123 -16 150 -49c27 -32 41 -94 41 -185v-285h-65v272c0 75 -10 125 -29 149s-55 36 -109 36c-51 0 -98 -7 -140 -22c14 -39 21 -89 21 -150v-285h-65v272c0 75 -9 125 -28 149
s-55 36 -109 36c-45 0 -85 -6 -120 -17z" />
    <glyph glyph-name="n" unicode="n" horiz-adv-x="554" 
d="M141 440v-440h-65v479c27 12 59 22 98 29s74 11 106 11c75 0 126 -16 155 -49s44 -94 44 -185v-285h-65v272c0 76 -10 126 -30 149c-19 24 -58 36 -116 36c-48 0 -90 -6 -127 -17z" />
    <glyph glyph-name="o" unicode="o" 
d="M63 255c0 100 18 169 53 207c36 38 95 57 176 57s140 -19 176 -57s54 -107 54 -207c0 -101 -18 -171 -54 -210s-95 -59 -176 -59s-140 20 -176 59c-35 39 -53 109 -53 210zM292 459c-61 0 -102 -13 -124 -40s-33 -82 -33 -166c0 -81 11 -135 33 -164
c23 -29 64 -43 124 -43c61 0 102 14 124 43c23 29 34 83 34 164c0 84 -11 139 -33 166s-64 40 -125 40z" />
    <glyph glyph-name="p" unicode="p" horiz-adv-x="572" 
d="M280 -14c-57 0 -104 14 -139 42v-220h-65v671c27 12 59 22 98 29s74 11 106 11c81 0 140 -19 175 -57c36 -38 54 -107 54 -207c0 -101 -18 -171 -54 -210c-35 -39 -94 -59 -175 -59zM280 457c-53 0 -100 -7 -139 -21v-316c0 -45 60 -72 139 -72c60 0 101 14 123 42
c23 28 34 82 34 163c0 83 -11 138 -33 164c-21 27 -63 40 -124 40z" />
    <glyph glyph-name="q" unicode="q" horiz-adv-x="572" 
d="M292 -14c-81 0 -140 20 -176 59c-35 39 -53 109 -53 210c0 100 18 169 53 207c36 38 95 57 176 57c32 0 67 -4 106 -11s71 -17 98 -29v-671h-65v220c-35 -28 -82 -42 -139 -42zM292 457c-61 0 -103 -13 -125 -40c-21 -26 -32 -81 -32 -164c0 -81 11 -135 33 -163
c23 -28 64 -42 124 -42c79 0 139 27 139 72v316c-39 14 -85 21 -139 21z" />
    <glyph glyph-name="r" unicode="r" horiz-adv-x="343" 
d="M283 519c19 0 36 -1 52 -3v-67c-20 3 -37 4 -52 4c-81 0 -142 -23 -142 -67v-386h-65v505h65v-36c21 27 75 50 142 50z" />
    <glyph glyph-name="s" unicode="s" horiz-adv-x="504" 
d="M426 493l-22 -62c-48 19 -96 28 -144 28c-93 0 -129 -16 -129 -91c0 -51 35 -73 126 -78c132 -9 187 -52 187 -145c0 -59 -15 -100 -46 -124c-31 -23 -80 -35 -149 -35s-129 9 -182 27l20 61c17 -8 42 -15 74 -21c33 -5 62 -8 88 -8c89 0 124 18 124 94
c0 56 -29 80 -124 88c-129 9 -189 44 -189 135c0 115 64 157 200 157c49 0 104 -9 166 -26z" />
    <glyph glyph-name="t" unicode="t" horiz-adv-x="393" 
d="M354 445h-187v-275c0 -88 25 -122 94 -122c37 0 69 5 96 15l15 -58c-37 -13 -74 -19 -111 -19c-59 0 -101 12 -124 37s-35 74 -35 146v276h-89v60h89v106l65 27v-133h187v-60z" />
    <glyph glyph-name="u" unicode="u" horiz-adv-x="554" 
d="M414 66v439h65v-479c-60 -27 -128 -40 -204 -40c-74 0 -126 16 -155 49s-44 95 -44 185v285h65v-272c0 -75 10 -125 29 -149c20 -24 59 -36 116 -36c49 0 92 6 128 18z" />
    <glyph glyph-name="v" unicode="v" horiz-adv-x="509" 
d="M253 62c74 179 127 326 160 443h71c-41 -136 -104 -304 -188 -505h-92c-67 227 -126 395 -179 505h73c57 -131 108 -279 155 -443z" />
    <glyph glyph-name="w" unicode="w" horiz-adv-x="813" 
d="M714 505h73c-47 -177 -104 -345 -172 -505h-92c-36 174 -73 317 -112 430c-36 -145 -79 -289 -130 -430h-92c-53 197 -108 366 -164 505h77c49 -129 95 -276 136 -443c22 61 47 138 74 230c27 93 46 164 57 213h83c38 -110 78 -258 120 -443c65 171 112 318 142 443z" />
    <glyph glyph-name="x" unicode="x" horiz-adv-x="522" 
d="M489 0h-81c-42 67 -88 135 -137 203l-160 -203h-80c66 76 134 160 203 253c-61 83 -128 167 -203 252h90c64 -80 115 -146 152 -198c39 53 84 119 136 198h79c-56 -83 -115 -166 -177 -249c51 -69 110 -154 178 -256z" />
    <glyph glyph-name="y" unicode="y" horiz-adv-x="509" 
d="M211 -24c-66 233 -128 410 -186 529h73c53 -119 105 -268 156 -447c71 171 124 320 159 447h71c-42 -140 -105 -308 -188 -505c-27 -65 -58 -129 -91 -192h-76c23 43 51 99 82 168z" />
    <glyph glyph-name="z" unicode="z" horiz-adv-x="495" 
d="M454 0h-418v27c138 167 243 306 315 418h-299v60h401v-25c-45 -69 -99 -146 -162 -231s-112 -148 -147 -189h310v-60z" />
    <glyph glyph-name="braceleft" unicode="{" horiz-adv-x="259" 
d="M103 269c43 -13 88 -96 88 -247c0 -75 9 -129 28 -162s48 -55 85 -65l-32 -53c-91 31 -149 120 -149 280c0 151 -44 221 -108 221v52c64 0 108 70 108 221c0 160 58 249 149 280l32 -53c-37 -10 -66 -32 -85 -65s-28 -87 -28 -162c0 -151 -45 -234 -88 -247z" />
    <glyph glyph-name="bar" unicode="|" horiz-adv-x="311" 
d="M120 -256v1011h71v-1011h-71z" />
    <glyph glyph-name="braceright" unicode="}" horiz-adv-x="259" 
d="M244 295v-53c-64 0 -108 -69 -108 -220c0 -160 -58 -249 -149 -280l-32 53c37 10 65 32 84 65s29 87 29 162c0 151 45 234 88 247c-43 13 -88 96 -88 247c0 75 -10 129 -29 162s-47 55 -84 65l32 53c91 -31 149 -120 149 -280c0 -151 44 -221 108 -221z" />
    <glyph glyph-name="asciitilde" unicode="~" horiz-adv-x="622" 
d="M507 425l47 -35c-25 -67 -69 -101 -130 -101c-21 0 -63 15 -125 44c-62 30 -102 45 -120 45c-27 0 -50 -22 -68 -65l-42 37c36 61 68 88 119 88c23 0 65 -14 126 -43s101 -43 118 -43c32 0 57 24 75 73z" />
    <glyph glyph-name="nbspace" unicode="&#xa0;" horiz-adv-x="286" 
 />
    <glyph glyph-name="exclamdown" unicode="&#xa1;" horiz-adv-x="331" 
d="M192 321l22 -499h-94l22 499h50zM167 416c-41 0 -53 8 -53 49c0 44 12 54 53 54c40 0 52 -10 52 -54c0 -41 -12 -49 -52 -49z" />
    <glyph glyph-name="cent" unicode="&#xa2;" horiz-adv-x="466" 
d="M259 653v104h61v-101c48 -3 92 -11 131 -25l-21 -61c-30 14 -67 22 -110 24v-409c40 2 77 11 110 26l21 -60c-35 -16 -79 -25 -131 -28v-123h-61v125c-132 13 -196 88 -196 267c0 177 64 249 196 261zM135 390c0 -136 36 -190 124 -202v403c-44 -5 -76 -22 -95 -51
s-29 -79 -29 -150z" />
    <glyph glyph-name="sterling" unicode="&#xa3;" horiz-adv-x="599" 
d="M115 320h-68v60h68v111c0 148 85 222 254 222c67 0 131 -9 192 -27l-20 -65c-15 8 -40 14 -75 19c-34 5 -66 8 -96 8c-124 0 -183 -49 -183 -157v-111h192v-60h-192v-260h360v-60h-432v320z" />
    <glyph glyph-name="currency" unicode="&#xa4;" horiz-adv-x="648" 
d="M330 84c-61 0 -108 10 -141 30l-92 -114l-47 47l92 113c-27 41 -41 106 -41 193c0 83 13 146 39 187l-88 117l56 40l82 -109c33 19 80 29 140 29c59 0 104 -9 136 -26l75 106l55 -39l-79 -113c29 -41 43 -105 43 -192c0 -89 -14 -154 -43 -195l84 -111l-53 -47l-83 110
c-34 -17 -79 -26 -135 -26zM330 555c-61 0 -103 -13 -125 -40c-21 -26 -32 -81 -32 -164c0 -81 11 -135 33 -163c23 -28 64 -42 124 -42c61 0 102 14 124 42c23 28 34 82 34 163c-5 174 -34 202 -158 204z" />
    <glyph glyph-name="yen" unicode="&#xa5;" horiz-adv-x="607" 
d="M267 313h-203v60h177c-74 105 -156 213 -246 324h91c77 -95 151 -196 223 -305c76 96 149 198 220 305h83c-87 -123 -167 -231 -241 -324h172v-60h-203v-96h203v-60h-203v-157h-73v157h-203v60h203v96z" />
    <glyph glyph-name="brokenbar" unicode="&#xa6;" horiz-adv-x="311" 
d="M120 388v367h71v-367h-71zM120 -256v367h71v-367h-71z" />
    <glyph glyph-name="section" unicode="&#xa7;" horiz-adv-x="624" 
d="M535 687l-20 -65c-15 8 -40 14 -75 19c-34 5 -66 8 -96 8c-135 0 -203 -44 -203 -133c0 -67 45 -101 177 -109c171 -12 251 -64 251 -180c0 -42 -13 -82 -40 -119c27 -25 41 -62 41 -111c0 -132 -104 -200 -279 -200c-67 0 -131 9 -192 27l20 65c15 -8 40 -14 74 -19
c35 -5 67 -8 97 -8c135 0 203 44 203 133c0 67 -45 101 -177 109c-171 12 -251 64 -251 180c0 41 13 80 39 118c-27 27 -40 64 -40 112c0 132 104 200 279 200c67 0 131 -9 192 -27zM156 369c-10 -23 -15 -51 -15 -84c0 -72 50 -105 186 -114c63 -4 113 -14 151 -30
c10 26 15 54 15 85c0 72 -50 105 -186 114c-65 4 -115 14 -151 29z" />
    <glyph glyph-name="dieresis" unicode="&#xa8;" horiz-adv-x="408" 
d="M110 657c32 0 41 -6 41 -39c0 -36 -9 -43 -41 -43c-33 0 -42 7 -42 43c0 33 9 39 42 39zM299 657c32 0 41 -6 41 -39c0 -36 -9 -43 -41 -43c-33 0 -42 7 -42 43c0 33 9 39 42 39z" />
    <glyph glyph-name="copyright" unicode="&#xa9;" horiz-adv-x="873" 
d="M76 352c0 141 27 233 88 288s144 74 272 74c129 0 212 -19 273 -74s88 -147 88 -288c0 -144 -27 -236 -88 -291s-144 -75 -273 -75s-210 20 -273 75c-61 55 -87 147 -87 291zM435 657c-109 0 -172 -13 -221 -58c-48 -44 -66 -121 -66 -249c0 -81 10 -143 29 -187
c40 -88 114 -117 258 -117c109 0 175 16 223 61c49 45 68 120 68 243c0 128 -17 205 -68 249c-49 45 -112 58 -223 58zM565 205l18 -61c-43 -16 -89 -24 -137 -24c-75 0 -129 17 -164 52s-52 95 -52 182s17 148 51 181c35 34 90 51 165 51c49 0 95 -7 137 -21l-18 -63
c-29 13 -69 20 -119 20c-108 -2 -133 -23 -138 -169c0 -67 10 -113 29 -136c20 -23 56 -35 109 -35c43 0 82 8 119 23z" />
    <glyph glyph-name="ordfeminine" unicode="&#xaa;" horiz-adv-x="407" 
d="M347 577v-208c-43 -19 -90 -28 -143 -28c-105 0 -144 27 -144 119c0 93 49 117 140 117c35 0 68 -4 101 -11c0 43 -7 71 -22 84c-15 14 -42 21 -82 21c-41 0 -75 -6 -102 -17l-13 43c44 11 83 17 118 17c107 0 147 -30 147 -137zM301 398v129c-22 6 -54 9 -95 9
c-65 0 -94 -12 -94 -72s22 -82 94 -82c31 0 63 5 95 16z" />
    <glyph glyph-name="guillemotleft" unicode="&#xab;" horiz-adv-x="595" 
d="M302 567l39 -43l-217 -222l217 -228l-37 -44l-270 269zM522 567l39 -43l-217 -222l217 -228l-37 -44l-270 269z" />
    <glyph glyph-name="logicalnot" unicode="&#xac;" horiz-adv-x="495" 
d="M455 403v-403h-73v344h-349v59h422z" />
    <glyph glyph-name="registered" unicode="&#xae;" horiz-adv-x="566" 
d="M180 611h149c45 0 68 -35 68 -86c0 -55 -22 -83 -65 -83c19 -9 42 -39 69 -90h-69c-9 20 -21 40 -34 59s-23 29 -31 29h-30v-88h-57v259zM310 562h-73v-79h73c19 0 29 14 29 41c0 25 -10 38 -29 38zM282 713c78 0 134 -17 169 -50s52 -94 52 -182
c0 -87 -17 -148 -52 -183c-35 -34 -91 -51 -169 -51c-77 0 -133 17 -168 51c-34 35 -51 96 -51 183c0 88 17 149 51 182c35 33 91 50 168 50zM282 663c-61 0 -103 -12 -126 -36c-23 -23 -34 -72 -34 -146c0 -71 12 -120 35 -145c24 -25 66 -37 125 -37c61 0 104 12 127 37
c24 25 36 74 36 145c-5 156 -40 180 -163 182z" />
    <glyph glyph-name="overscore" unicode="&#xaf;" horiz-adv-x="533" 
d="M387 586h-251v58h251v-58z" />
    <glyph glyph-name="overscore" unicode="&#x2c9;" horiz-adv-x="533" 
d="M387 586h-251v58h251v-58z" />
    <glyph glyph-name="degree" unicode="&#xb0;" horiz-adv-x="408" 
d="M50 499c0 81 12 137 37 168s64 47 117 47s92 -15 117 -46s37 -87 37 -169c0 -83 -13 -140 -38 -173s-63 -49 -116 -49s-92 16 -117 49s-37 90 -37 173zM204 661c-34 0 -58 -11 -72 -33s-21 -66 -21 -131c0 -125 26 -168 93 -168c69 0 93 41 93 168c0 66 -7 110 -20 131
c-13 22 -38 33 -73 33z" />
    <glyph glyph-name="plusminus" unicode="&#xb1;" horiz-adv-x="622" 
d="M279 398h-208v60h208v210h62v-210h209v-60h-209v-209h-62v209zM550 40h-479v60h479v-60z" />
    <glyph glyph-name="twosuperior" unicode="&#xb2;" horiz-adv-x="380" 
d="M108 341h232v-55h-305c5 46 14 83 28 112c29 57 65 78 133 102c59 20 77 50 77 94s-30 61 -105 61c-49 0 -84 -5 -104 -16l-11 59c43 11 81 16 116 16c123 0 170 -35 170 -120c0 -68 -33 -112 -113 -143c-79 -31 -110 -51 -118 -110z" />
    <glyph glyph-name="threesuperior" unicode="&#xb3;" horiz-adv-x="375" 
d="M233 509c75 -4 99 -40 99 -108c0 -91 -50 -123 -166 -123c-44 0 -87 6 -128 19l10 51c37 -12 77 -18 119 -18c75 0 99 17 99 78c0 57 -24 71 -113 71h-28v54h28c80 0 103 15 103 68c0 49 -20 61 -91 61c-41 0 -78 -6 -112 -17l-11 51c41 12 82 18 124 18
c111 0 154 -33 154 -102c0 -64 -18 -96 -87 -103z" />
    <glyph glyph-name="acute" unicode="&#xb4;" horiz-adv-x="494" 
d="M304 697l-133 -129h-69l119 129h83z" />
    <glyph glyph-name="mu" unicode="&#xb5;" horiz-adv-x="592" 
d="M123 -192h-65c17 125 26 245 26 361v336h65v-272c0 -74 8 -123 24 -147c17 -23 48 -35 93 -35c59 0 111 28 156 83v371h65v-386c0 -55 13 -71 74 -71l-15 -62c-40 0 -68 6 -84 17s-27 32 -34 63c-53 -53 -112 -80 -177 -80c-52 0 -88 13 -109 39c-3 -73 -9 -146 -19 -217
z" />
    <glyph glyph-name="mu" unicode="&#x3bc;" horiz-adv-x="592" 
d="M123 -192h-65c17 125 26 245 26 361v336h65v-272c0 -74 8 -123 24 -147c17 -23 48 -35 93 -35c59 0 111 28 156 83v371h65v-386c0 -55 13 -71 74 -71l-15 -62c-40 0 -68 6 -84 17s-27 32 -34 63c-53 -53 -112 -80 -177 -80c-52 0 -88 13 -109 39c-3 -73 -9 -146 -19 -217
z" />
    <glyph glyph-name="paragraph" unicode="&#xb6;" horiz-adv-x="650" 
d="M549 697v-697h-72v256h-97v-256h-72v256h-75c-67 0 -116 20 -147 61s-46 93 -46 154c0 151 66 226 198 226h311z" />
    <glyph glyph-name="middot" unicode="&#xb7;" horiz-adv-x="264" 
d="M131 354c45 0 57 -9 57 -53c0 -48 -12 -58 -57 -58c-43 0 -55 10 -55 58c0 44 12 53 55 53z" />
    <glyph glyph-name="middot" unicode="&#x2219;" horiz-adv-x="264" 
d="M131 354c45 0 57 -9 57 -53c0 -48 -12 -58 -57 -58c-43 0 -55 10 -55 58c0 44 12 53 55 53z" />
    <glyph glyph-name="cedilla" unicode="&#xb8;" horiz-adv-x="654" 
d="M292 -92l36 92h34v-47c47 0 78 -5 94 -15c17 -10 25 -30 25 -60c0 -61 -33 -81 -125 -81c-47 0 -82 7 -106 21l18 42c23 -11 52 -17 88 -17c44 0 57 6 57 34c0 29 -25 36 -121 31z" />
    <glyph glyph-name="onesuperior" unicode="&#xb9;" horiz-adv-x="336" 
d="M220 728v-434h-64v349l-93 -45l-15 56z" />
    <glyph glyph-name="ordmasculine" unicode="&#xba;" horiz-adv-x="441" 
d="M220 341c-57 0 -98 14 -123 41s-37 76 -37 147c0 70 12 118 37 145s66 40 123 40s98 -13 123 -40s38 -75 38 -145c0 -71 -13 -120 -38 -147s-66 -41 -123 -41zM120 528c0 -53 7 -88 20 -107c14 -18 41 -27 80 -27s66 9 80 27c14 19 21 54 21 107c0 55 -7 91 -20 108
s-40 25 -81 25s-68 -8 -81 -25s-19 -53 -19 -108z" />
    <glyph glyph-name="guillemotright" unicode="&#xbb;" horiz-adv-x="595" 
d="M294 31l-39 43l217 222l-217 228l37 44l270 -269zM74 31l-39 43l217 222l-217 228l37 44l270 -269z" />
    <glyph glyph-name="onequarter" unicode="&#xbc;" horiz-adv-x="779" 
d="M118 0l394 697h71l-394 -697h-71zM48 654l172 74v-434h-64v349l-93 -45zM460 167h144v204c-59 -73 -107 -141 -144 -204zM577 418h89v-251h60v-55h-60v-112h-62v112h-227v19c55 92 121 188 200 287z" />
    <glyph glyph-name="onehalf" unicode="&#xbd;" horiz-adv-x="779" 
d="M110 0l394 697h71l-394 -697h-71zM40 654l172 74v-434h-64v349l-93 -45zM568 428c123 0 170 -35 170 -120c0 -68 -33 -112 -113 -143c-79 -31 -110 -51 -118 -110h232v-55h-305c5 46 14 83 28 112c29 57 65 78 133 102c59 20 77 50 77 94s-30 61 -105 61
c-49 0 -84 -5 -104 -16l-11 59c43 11 81 16 116 16z" />
    <glyph glyph-name="threequarters" unicode="&#xbe;" horiz-adv-x="779" 
d="M176 0l394 697h71l-394 -697h-71zM460 167h144v204c-59 -73 -107 -141 -144 -204zM577 418h89v-251h60v-55h-60v-112h-62v112h-227v19c55 92 121 188 200 287zM236 509c75 -4 99 -40 99 -108c0 -91 -50 -123 -166 -123c-44 0 -87 6 -128 19l10 51c37 -12 77 -18 119 -18
c75 0 99 17 99 78c0 57 -24 71 -113 71h-28v54h28c80 0 103 15 103 68c0 49 -20 61 -91 61c-41 0 -78 -6 -112 -17l-11 51c41 12 82 18 124 18c111 0 154 -33 154 -102c0 -64 -18 -96 -87 -103z" />
    <glyph glyph-name="questiondown" unicode="&#xbf;" horiz-adv-x="530" 
d="M298 329h70v-157h-70c-71 0 -120 -11 -147 -34s-40 -64 -40 -124c0 -55 13 -93 40 -115s78 -33 154 -33c67 0 127 8 181 25l14 -59c-73 -18 -138 -27 -195 -27c-97 0 -166 16 -208 48s-63 89 -63 170c0 75 20 129 61 160s108 47 203 47v99zM338 416c-43 0 -53 8 -53 49
c0 45 10 54 53 54c40 0 51 -10 51 -54c0 -41 -11 -49 -51 -49z" />
    <glyph glyph-name="Agrave" unicode="&#xc0;" horiz-adv-x="668" 
d="M661 0h-81c-37 93 -65 164 -84 215h-340c-27 -77 -51 -148 -72 -215h-71c85 248 173 480 263 697h123c93 -278 181 -510 262 -697zM349 641h-29c-61 -150 -108 -272 -142 -366h296c-43 119 -85 241 -125 366zM263 876l146 -129h-79l-160 129h93z" />
    <glyph glyph-name="Aacute" unicode="&#xc1;" horiz-adv-x="668" 
d="M661 0h-81c-37 93 -65 164 -84 215h-340c-27 -77 -51 -148 -72 -215h-71c85 248 173 480 263 697h123c93 -278 181 -510 262 -697zM349 641h-29c-61 -150 -108 -272 -142 -366h296c-43 119 -85 241 -125 366zM339 747h-67l134 129h92z" />
    <glyph glyph-name="Acircumflex" unicode="&#xc2;" horiz-adv-x="668" 
d="M416 747l-84 90l-81 -90h-76l122 129h72l126 -129h-79zM661 0h-81c-37 93 -65 164 -84 215h-340c-27 -77 -51 -148 -72 -215h-71c85 248 173 480 263 697h123c93 -278 181 -510 262 -697zM349 641h-29c-61 -150 -108 -272 -142 -366h296c-43 119 -85 241 -125 366z" />
    <glyph glyph-name="Atilde" unicode="&#xc3;" horiz-adv-x="668" 
d="M661 0h-81c-37 93 -65 164 -84 215h-340c-27 -77 -51 -148 -72 -215h-71c85 248 173 480 263 697h123c93 -278 181 -510 262 -697zM349 641h-29c-61 -150 -108 -272 -142 -366h296c-43 119 -85 241 -125 366zM469 867l40 -32c-21 -61 -58 -91 -110 -91
c-17 0 -42 11 -74 33c-32 23 -55 34 -70 34c-23 0 -43 -20 -58 -59l-35 34c31 55 57 79 100 79c19 0 45 -11 76 -32s54 -32 69 -32c27 0 47 22 62 66z" />
    <glyph glyph-name="Adieresis" unicode="&#xc4;" horiz-adv-x="668" 
d="M237 847c32 0 41 -6 41 -39c0 -36 -9 -43 -41 -43c-33 0 -42 7 -42 43c0 33 9 39 42 39zM426 847c32 0 41 -6 41 -39c0 -36 -9 -43 -41 -43c-33 0 -42 7 -42 43c0 33 9 39 42 39zM661 0h-81c-37 93 -65 164 -84 215h-340c-27 -77 -51 -148 -72 -215h-71
c85 248 173 480 263 697h123c93 -278 181 -510 262 -697zM349 641h-29c-61 -150 -108 -272 -142 -366h296c-43 119 -85 241 -125 366z" />
    <glyph glyph-name="Aring" unicode="&#xc5;" horiz-adv-x="668" 
d="M336 873c73 0 110 -31 110 -94c0 -40 -16 -67 -47 -82c93 -278 181 -510 262 -697h-81c-37 93 -65 164 -84 215h-340c-27 -77 -51 -148 -72 -215h-71c89 259 177 491 262 696c-32 15 -48 42 -48 83c0 64 30 94 109 94zM349 641h-29c-61 -150 -108 -272 -142 -366h296
c-43 119 -85 241 -125 366zM336 828c-43 0 -57 -16 -57 -51s19 -52 57 -52c39 0 59 17 59 52s-15 51 -59 51z" />
    <glyph glyph-name="AE" unicode="&#xc6;" horiz-adv-x="962" 
d="M380 697h550v-60h-405v-234h247v-59h-247v-284h405v-60h-477v215h-343c-57 -83 -105 -155 -143 -215h-85c167 246 333 478 498 697zM453 275v366h-34l-266 -366h300z" />
    <glyph glyph-name="Ccedilla" unicode="&#xc7;" horiz-adv-x="602" 
d="M63 355c0 141 24 233 79 286c56 55 127 73 240 73c69 0 134 -9 195 -27l-23 -65c-45 18 -102 27 -171 27c-95 0 -144 -10 -187 -51c-41 -41 -55 -115 -55 -243c0 -85 8 -149 25 -193c17 -43 41 -73 74 -88s80 -22 143 -22c69 0 126 9 171 26l23 -64
c-59 -19 -124 -28 -195 -28h-6v-33c47 0 78 -5 94 -15c17 -10 25 -30 25 -60c0 -61 -33 -81 -125 -81c-47 0 -82 7 -106 21l18 42c23 -11 52 -17 88 -17c44 0 57 6 57 34c0 29 -25 36 -121 31l31 80c-95 6 -165 36 -209 91c-43 55 -65 147 -65 276z" />
    <glyph glyph-name="Egrave" unicode="&#xc8;" horiz-adv-x="610" 
d="M101 0v697h477v-60h-405v-234h287v-60h-287v-283h405v-60h-477zM309 876l146 -129h-79l-160 129h93z" />
    <glyph glyph-name="Eacute" unicode="&#xc9;" horiz-adv-x="610" 
d="M101 0v697h477v-60h-405v-234h287v-60h-287v-283h405v-60h-477zM331 747h-67l134 129h92z" />
    <glyph glyph-name="Ecircumflex" unicode="&#xca;" horiz-adv-x="610" 
d="M430 747l-84 90l-81 -90h-76l122 129h72l126 -129h-79zM101 0v697h477v-60h-405v-234h287v-60h-287v-283h405v-60h-477z" />
    <glyph glyph-name="Edieresis" unicode="&#xcb;" horiz-adv-x="610" 
d="M256 847c32 0 41 -6 41 -39c0 -36 -9 -43 -41 -43c-33 0 -42 7 -42 43c0 33 9 39 42 39zM445 847c32 0 41 -6 41 -39c0 -36 -9 -43 -41 -43c-33 0 -42 7 -42 43c0 33 9 39 42 39zM101 0v697h477v-60h-405v-234h287v-60h-287v-283h405v-60h-477z" />
    <glyph glyph-name="Igrave" unicode="&#xcc;" horiz-adv-x="273" 
d="M59 876l146 -129h-79l-160 129h93zM101 0v697h72v-697h-72z" />
    <glyph glyph-name="Iacute" unicode="&#xcd;" horiz-adv-x="273" 
d="M101 0v697h72v-697h-72zM139 747h-67l134 129h92z" />
    <glyph glyph-name="Icircumflex" unicode="&#xce;" horiz-adv-x="273" 
d="M219 747l-84 90l-81 -90h-76l122 129h72l126 -129h-79zM101 0v697h72v-697h-72z" />
    <glyph glyph-name="Idieresis" unicode="&#xcf;" horiz-adv-x="273" 
d="M101 0v697h72v-697h-72zM45 847c32 0 41 -6 41 -39c0 -36 -9 -43 -41 -43c-33 0 -42 7 -42 43c0 33 9 39 42 39zM234 847c32 0 41 -6 41 -39c0 -36 -9 -43 -41 -43c-33 0 -42 7 -42 43c0 33 9 39 42 39z" />
    <glyph glyph-name="Eth" unicode="&#xd0;" horiz-adv-x="703" 
d="M101 334h-54v55h54v308h215c113 0 187 -20 243 -72s81 -142 81 -275c0 -130 -26 -221 -77 -273c-51 -51 -134 -77 -247 -77h-215v334zM563 350c0 121 -14 193 -57 233c-43 41 -94 52 -190 52h-143v-246h162v-55h-162v-274h143c92 0 156 20 192 61c37 41 55 117 55 229z
" />
    <glyph glyph-name="Ntilde" unicode="&#xd1;" horiz-adv-x="730" 
d="M173 624v-624h-72v697h98c115 -170 234 -367 357 -590v590h73v-697h-86c-113 209 -236 417 -370 624zM511 867l40 -32c-21 -61 -58 -91 -110 -91c-17 0 -42 11 -74 33c-32 23 -55 34 -70 34c-23 0 -43 -20 -58 -59l-35 34c31 55 57 79 100 79c19 0 45 -11 76 -32
s54 -32 69 -32c27 0 47 22 62 66z" />
    <glyph glyph-name="Ograve" unicode="&#xd2;" horiz-adv-x="759" 
d="M379 -14c-75 0 -135 10 -180 31c-88 41 -136 146 -136 335c0 93 12 167 35 220c47 107 130 142 281 142c75 0 135 -10 180 -31c89 -41 137 -144 137 -331c0 -95 -12 -169 -35 -223c-47 -108 -130 -143 -282 -143zM141 350c5 -246 56 -297 238 -301c93 0 147 14 187 59
c40 47 54 119 54 242c0 129 -14 203 -55 247c-40 45 -91 56 -186 56s-145 -11 -185 -56c-40 -44 -53 -118 -53 -247zM318 876l146 -129h-79l-160 129h93z" />
    <glyph glyph-name="Oacute" unicode="&#xd3;" horiz-adv-x="759" 
d="M379 -14c-75 0 -135 10 -180 31c-88 41 -136 146 -136 335c0 93 12 167 35 220c47 107 130 142 281 142c75 0 135 -10 180 -31c89 -41 137 -144 137 -331c0 -95 -12 -169 -35 -223c-47 -108 -130 -143 -282 -143zM141 350c5 -246 56 -297 238 -301c93 0 147 14 187 59
c40 47 54 119 54 242c0 129 -14 203 -55 247c-40 45 -91 56 -186 56s-145 -11 -185 -56c-40 -44 -53 -118 -53 -247zM331 747h-67l134 129h92z" />
    <glyph glyph-name="Ocircumflex" unicode="&#xd4;" horiz-adv-x="759" 
d="M379 -14c-75 0 -135 10 -180 31c-88 41 -136 146 -136 335c0 93 12 167 35 220c47 107 130 142 281 142c75 0 135 -10 180 -31c89 -41 137 -144 137 -331c0 -95 -12 -169 -35 -223c-47 -108 -130 -143 -282 -143zM141 350c5 -246 56 -297 238 -301c93 0 147 14 187 59
c40 47 54 119 54 242c0 129 -14 203 -55 247c-40 45 -91 56 -186 56s-145 -11 -185 -56c-40 -44 -53 -118 -53 -247zM459 747l-84 90l-81 -90h-76l122 129h72l126 -129h-79z" />
    <glyph glyph-name="Otilde" unicode="&#xd5;" horiz-adv-x="759" 
d="M379 -14c-75 0 -135 10 -180 31c-88 41 -136 146 -136 335c0 93 12 167 35 220c47 107 130 142 281 142c75 0 135 -10 180 -31c89 -41 137 -144 137 -331c0 -95 -12 -169 -35 -223c-47 -108 -130 -143 -282 -143zM141 350c5 -246 56 -297 238 -301c93 0 147 14 187 59
c40 47 54 119 54 242c0 129 -14 203 -55 247c-40 45 -91 56 -186 56s-145 -11 -185 -56c-40 -44 -53 -118 -53 -247zM509 867l40 -32c-21 -61 -58 -91 -110 -91c-17 0 -42 11 -74 33c-32 23 -55 34 -70 34c-23 0 -43 -20 -58 -59l-35 34c31 55 57 79 100 79
c19 0 45 -11 76 -32s54 -32 69 -32c27 0 47 22 62 66z" />
    <glyph glyph-name="Odieresis" unicode="&#xd6;" horiz-adv-x="759" 
d="M379 -14c-75 0 -135 10 -180 31c-88 41 -136 146 -136 335c0 93 12 167 35 220c47 107 130 142 281 142c75 0 135 -10 180 -31c89 -41 137 -144 137 -331c0 -95 -12 -169 -35 -223c-47 -108 -130 -143 -282 -143zM141 350c5 -246 56 -297 238 -301c93 0 147 14 187 59
c40 47 54 119 54 242c0 129 -14 203 -55 247c-40 45 -91 56 -186 56s-145 -11 -185 -56c-40 -44 -53 -118 -53 -247zM286 847c32 0 41 -6 41 -39c0 -36 -9 -43 -41 -43c-33 0 -42 7 -42 43c0 33 9 39 42 39zM475 847c32 0 41 -6 41 -39c0 -36 -9 -43 -41 -43
c-33 0 -42 7 -42 43c0 33 9 39 42 39z" />
    <glyph glyph-name="multiply" unicode="&#xd7;" horiz-adv-x="622" 
d="M266 360l-147 147l43 42l147 -147l148 149l44 -44l-148 -149l148 -147l-43 -43l-148 148l-147 -148l-44 44z" />
    <glyph glyph-name="Oslash" unicode="&#xd8;" horiz-adv-x="759" 
d="M602 655l35 42h76l-72 -85c37 -55 55 -142 55 -260c0 -95 -12 -169 -35 -223c-47 -108 -130 -143 -282 -143c-101 0 -175 19 -222 58l-37 -44h-74l73 86c-37 56 -56 145 -56 266c0 93 12 167 35 220c47 107 130 142 281 142c101 0 176 -20 223 -59zM379 653
c-95 0 -145 -11 -185 -56c-40 -44 -53 -118 -53 -247c0 -91 10 -159 29 -204l389 459c-32 32 -92 48 -180 48zM379 49c93 0 147 14 187 59c40 47 54 119 54 242c0 94 -9 162 -28 205l-389 -457c33 -33 92 -49 176 -49z" />
    <glyph glyph-name="Ugrave" unicode="&#xd9;" horiz-adv-x="738" 
d="M578 697h72v-455c0 -104 -22 -171 -73 -208c-51 -36 -111 -48 -208 -48c-96 0 -156 12 -207 48c-51 37 -74 104 -74 208v455h73v-456c0 -77 16 -128 48 -154c33 -25 86 -38 161 -38c74 0 127 13 159 39c33 27 49 78 49 153v456zM329 876l146 -129h-79l-160 129h93z" />
    <glyph glyph-name="Uacute" unicode="&#xda;" horiz-adv-x="738" 
d="M578 697h72v-455c0 -104 -22 -171 -73 -208c-51 -36 -111 -48 -208 -48c-96 0 -156 12 -207 48c-51 37 -74 104 -74 208v455h73v-456c0 -77 16 -128 48 -154c33 -25 86 -38 161 -38c74 0 127 13 159 39c33 27 49 78 49 153v456zM348 747h-67l134 129h92z" />
    <glyph glyph-name="Ucircumflex" unicode="&#xdb;" horiz-adv-x="738" 
d="M450 747l-84 90l-81 -90h-76l122 129h72l126 -129h-79zM578 697h72v-455c0 -104 -22 -171 -73 -208c-51 -36 -111 -48 -208 -48c-96 0 -156 12 -207 48c-51 37 -74 104 -74 208v455h73v-456c0 -77 16 -128 48 -154c33 -25 86 -38 161 -38c74 0 127 13 159 39
c33 27 49 78 49 153v456z" />
    <glyph glyph-name="Udieresis" unicode="&#xdc;" horiz-adv-x="738" 
d="M578 697h72v-455c0 -104 -22 -171 -73 -208c-51 -36 -111 -48 -208 -48c-96 0 -156 12 -207 48c-51 37 -74 104 -74 208v455h73v-456c0 -77 16 -128 48 -154c33 -25 86 -38 161 -38c74 0 127 13 159 39c33 27 49 78 49 153v456zM273 847c32 0 41 -6 41 -39
c0 -36 -9 -43 -41 -43c-33 0 -42 7 -42 43c0 33 9 39 42 39zM462 847c32 0 41 -6 41 -39c0 -36 -9 -43 -41 -43c-33 0 -42 7 -42 43c0 33 9 39 42 39z" />
    <glyph glyph-name="Yacute" unicode="&#xdd;" horiz-adv-x="607" 
d="M340 335v-335h-73v335c-79 117 -170 237 -272 362h91c77 -95 151 -196 223 -305c76 96 149 198 220 305h83c-97 -139 -188 -259 -272 -362zM308 747h-67l134 129h92z" />
    <glyph glyph-name="Thorn" unicode="&#xde;" horiz-adv-x="650" 
d="M101 0v697h72v-117h239c132 0 198 -75 198 -226c0 -61 -16 -113 -47 -154s-79 -61 -146 -61h-244v-139h-72zM173 518v-315h238c79 0 119 59 119 152c0 104 -39 163 -114 163h-243z" />
    <glyph glyph-name="germandbls" unicode="&#xdf;" horiz-adv-x="616" 
d="M232 -11l6 60c22 -2 37 -3 45 -3c76 0 128 11 155 33s41 60 41 115s-13 94 -39 116c-26 23 -73 34 -140 34h-22v59h22c120 0 163 37 163 132c0 84 -44 118 -156 118c-107 0 -165 -40 -165 -116v-537h-66v537c0 57 21 101 64 131c43 31 99 46 167 46
c147 0 230 -59 230 -170c0 -49 -10 -89 -29 -118s-57 -46 -114 -51c121 -5 162 -75 162 -183c0 -152 -81 -206 -273 -206c-21 0 -38 1 -51 3z" />
    <glyph glyph-name="agrave" unicode="&#xe0;" horiz-adv-x="542" 
d="M466 323v-297c-59 -27 -127 -40 -204 -40c-74 0 -127 12 -158 37s-47 69 -47 133c0 66 17 110 51 133s84 34 149 34c45 0 93 -5 144 -16c0 61 -10 102 -30 121s-60 29 -119 29s-108 -8 -145 -24l-19 61c59 17 115 25 168 25c76 0 130 -14 162 -42s48 -79 48 -154zM401 68
v184c-35 9 -81 13 -136 13c-53 0 -89 -6 -108 -19c-18 -12 -27 -40 -27 -85c0 -49 9 -81 26 -95c18 -14 54 -21 109 -21c48 0 93 8 136 23zM229 697l119 -129h-69l-133 129h83z" />
    <glyph glyph-name="aacute" unicode="&#xe1;" horiz-adv-x="542" 
d="M466 323v-297c-59 -27 -127 -40 -204 -40c-74 0 -127 12 -158 37s-47 69 -47 133c0 66 17 110 51 133s84 34 149 34c45 0 93 -5 144 -16c0 61 -10 102 -30 121s-60 29 -119 29s-108 -8 -145 -24l-19 61c59 17 115 25 168 25c76 0 130 -14 162 -42s48 -79 48 -154zM401 68
v184c-35 9 -81 13 -136 13c-53 0 -89 -6 -108 -19c-18 -12 -27 -40 -27 -85c0 -49 9 -81 26 -95c18 -14 54 -21 109 -21c48 0 93 8 136 23zM401 697l-133 -129h-69l119 129h83z" />
    <glyph glyph-name="acircumflex" unicode="&#xe2;" horiz-adv-x="542" 
d="M466 323v-297c-59 -27 -127 -40 -204 -40c-74 0 -127 12 -158 37s-47 69 -47 133c0 66 17 110 51 133s84 34 149 34c45 0 93 -5 144 -16c0 61 -10 102 -30 121s-60 29 -119 29s-108 -8 -145 -24l-19 61c59 17 115 25 168 25c76 0 130 -14 162 -42s48 -79 48 -154zM401 68
v184c-35 9 -81 13 -136 13c-53 0 -89 -6 -108 -19c-18 -12 -27 -40 -27 -85c0 -49 9 -81 26 -95c18 -14 54 -21 109 -21c48 0 93 8 136 23zM436 568h-82l-81 86l-79 -86h-78l122 129h72z" />
    <glyph glyph-name="atilde" unicode="&#xe3;" horiz-adv-x="542" 
d="M466 323v-297c-59 -27 -127 -40 -204 -40c-74 0 -127 12 -158 37s-47 69 -47 133c0 66 17 110 51 133s84 34 149 34c45 0 93 -5 144 -16c0 61 -10 102 -30 121s-60 29 -119 29s-108 -8 -145 -24l-19 61c59 17 115 25 168 25c76 0 130 -14 162 -42s48 -79 48 -154zM401 68
v184c-35 9 -81 13 -136 13c-53 0 -89 -6 -108 -19c-18 -12 -27 -40 -27 -85c0 -49 9 -81 26 -95c18 -14 54 -21 109 -21c48 0 93 8 136 23zM398 689l41 -33c-21 -61 -56 -91 -105 -91c-18 0 -42 11 -71 33s-52 33 -67 33c-24 0 -44 -20 -60 -61l-36 35c32 57 60 82 103 82
c20 0 43 -11 70 -33s49 -33 64 -33c27 0 44 17 61 68z" />
    <glyph glyph-name="adieresis" unicode="&#xe4;" horiz-adv-x="542" 
d="M466 323v-297c-59 -27 -127 -40 -204 -40c-74 0 -127 12 -158 37s-47 69 -47 133c0 66 17 110 51 133s84 34 149 34c45 0 93 -5 144 -16c0 61 -10 102 -30 121s-60 29 -119 29s-108 -8 -145 -24l-19 61c59 17 115 25 168 25c76 0 130 -14 162 -42s48 -79 48 -154zM401 68
v184c-35 9 -81 13 -136 13c-53 0 -89 -6 -108 -19c-18 -12 -27 -40 -27 -85c0 -49 9 -81 26 -95c18 -14 54 -21 109 -21c48 0 93 8 136 23zM172 657c32 0 41 -6 41 -39c0 -36 -9 -43 -41 -43c-33 0 -42 7 -42 43c0 33 9 39 42 39zM361 657c32 0 41 -6 41 -39
c0 -36 -9 -43 -41 -43c-33 0 -42 7 -42 43c0 33 9 39 42 39z" />
    <glyph glyph-name="aring" unicode="&#xe5;" horiz-adv-x="542" 
d="M466 323v-297c-59 -27 -127 -40 -204 -40c-74 0 -127 12 -158 37s-47 69 -47 133c0 66 17 110 51 133s84 34 149 34c45 0 93 -5 144 -16c0 61 -10 102 -30 121s-60 29 -119 29s-108 -8 -145 -24l-19 61c59 17 115 25 168 25c76 0 130 -14 162 -42s48 -79 48 -154zM401 68
v184c-35 9 -81 13 -136 13c-53 0 -89 -6 -108 -19c-18 -12 -27 -40 -27 -85c0 -49 9 -81 26 -95c18 -14 54 -21 109 -21c48 0 93 8 136 23zM278 738c73 0 110 -31 110 -94s-37 -94 -110 -94s-109 31 -109 94c0 64 30 94 109 94zM278 693c-43 0 -57 -16 -57 -51
s19 -52 57 -52c39 0 59 17 59 52s-15 51 -59 51z" />
    <glyph glyph-name="ae" unicode="&#xe6;" horiz-adv-x="879" 
d="M623 519c74 0 127 -20 158 -59c32 -39 48 -110 48 -214h-361c1 -79 14 -132 39 -159c26 -27 70 -40 131 -40c48 0 96 9 145 27l15 -60c-61 -19 -116 -28 -166 -28c-76 0 -132 16 -167 47c-17 -15 -45 -27 -86 -35s-80 -12 -117 -12c-74 0 -127 12 -158 37s-47 69 -47 133
c0 66 17 110 51 133c35 23 84 34 149 34c45 0 93 -5 144 -16c0 62 -10 102 -29 121s-59 29 -120 29c-59 0 -108 -8 -145 -24l-19 61c59 17 115 25 168 25c109 0 162 -23 185 -88c28 64 83 88 182 88zM428 79c-19 43 -28 100 -28 173c-35 9 -80 13 -135 13
c-54 0 -90 -6 -108 -19c-18 -12 -27 -40 -27 -85c0 -47 8 -78 25 -93s53 -23 110 -23c68 0 122 11 163 34zM623 458c-53 0 -91 -10 -114 -31s-36 -61 -40 -122h286c-3 61 -13 102 -32 122c-19 21 -52 31 -100 31z" />
    <glyph glyph-name="ccedilla" unicode="&#xe7;" horiz-adv-x="466" 
d="M430 74l21 -60c-42 -19 -90 -28 -144 -28h-17v-33c47 0 78 -5 94 -15c17 -10 25 -30 25 -60c0 -61 -33 -81 -125 -81c-47 0 -82 7 -106 21l18 42c23 -11 52 -17 88 -17c44 0 57 6 57 34c0 29 -25 36 -121 31l31 81c-127 15 -188 90 -188 266c0 99 20 167 60 206
s101 58 184 58c53 0 101 -8 144 -25l-21 -61c-34 16 -75 24 -123 24c-118 0 -172 -32 -172 -204c0 -79 13 -133 39 -162c27 -29 71 -43 133 -43c43 0 84 9 123 26z" />
    <glyph glyph-name="egrave" unicode="&#xe8;" horiz-adv-x="546" 
d="M290 519c74 0 127 -20 158 -59c32 -39 48 -110 48 -214h-361c1 -79 14 -132 39 -159c26 -27 70 -40 131 -40c48 0 96 9 145 27l15 -60c-61 -19 -116 -28 -166 -28c-81 0 -140 20 -179 60c-38 40 -57 110 -57 209c0 192 71 264 227 264zM290 458c-54 0 -92 -11 -115 -33
c-22 -21 -35 -61 -39 -120h286c-3 61 -13 102 -32 122c-19 21 -52 31 -100 31zM258 697l119 -129h-69l-133 129h83z" />
    <glyph glyph-name="eacute" unicode="&#xe9;" horiz-adv-x="546" 
d="M290 519c74 0 127 -20 158 -59c32 -39 48 -110 48 -214h-361c1 -79 14 -132 39 -159c26 -27 70 -40 131 -40c48 0 96 9 145 27l15 -60c-61 -19 -116 -28 -166 -28c-81 0 -140 20 -179 60c-38 40 -57 110 -57 209c0 192 71 264 227 264zM290 458c-54 0 -92 -11 -115 -33
c-22 -21 -35 -61 -39 -120h286c-3 61 -13 102 -32 122c-19 21 -52 31 -100 31zM412 697l-133 -129h-69l119 129h83z" />
    <glyph glyph-name="ecircumflex" unicode="&#xea;" horiz-adv-x="546" 
d="M290 519c74 0 127 -20 158 -59c32 -39 48 -110 48 -214h-361c1 -79 14 -132 39 -159c26 -27 70 -40 131 -40c48 0 96 9 145 27l15 -60c-61 -19 -116 -28 -166 -28c-81 0 -140 20 -179 60c-38 40 -57 110 -57 209c0 192 71 264 227 264zM290 458c-54 0 -92 -11 -115 -33
c-22 -21 -35 -61 -39 -120h286c-3 61 -13 102 -32 122c-19 21 -52 31 -100 31zM453 568h-82l-81 86l-79 -86h-78l122 129h72z" />
    <glyph glyph-name="edieresis" unicode="&#xeb;" horiz-adv-x="546" 
d="M290 519c74 0 127 -20 158 -59c32 -39 48 -110 48 -214h-361c1 -79 14 -132 39 -159c26 -27 70 -40 131 -40c48 0 96 9 145 27l15 -60c-61 -19 -116 -28 -166 -28c-81 0 -140 20 -179 60c-38 40 -57 110 -57 209c0 192 71 264 227 264zM290 458c-54 0 -92 -11 -115 -33
c-22 -21 -35 -61 -39 -120h286c-3 61 -13 102 -32 122c-19 21 -52 31 -100 31zM195 657c32 0 41 -6 41 -39c0 -36 -9 -43 -41 -43c-33 0 -42 7 -42 43c0 33 9 39 42 39zM384 657c32 0 41 -6 41 -39c0 -36 -9 -43 -41 -43c-33 0 -42 7 -42 43c0 33 9 39 42 39z" />
    <glyph glyph-name="igrave" unicode="&#xec;" horiz-adv-x="217" 
d="M76 505h65v-505h-65v505zM42 697l119 -129h-69l-133 129h83z" />
    <glyph glyph-name="iacute" unicode="&#xed;" horiz-adv-x="217" 
d="M76 505h65v-505h-65v505zM253 697l-133 -129h-69l119 129h83z" />
    <glyph glyph-name="icircumflex" unicode="&#xee;" horiz-adv-x="217" 
d="M76 505h65v-505h-65v505zM269 568h-82l-81 86l-79 -86h-78l122 129h72z" />
    <glyph glyph-name="idieresis" unicode="&#xef;" horiz-adv-x="217" 
d="M76 505h65v-505h-65v505zM13 657c32 0 41 -6 41 -39c0 -36 -9 -43 -41 -43c-33 0 -42 7 -42 43c0 33 9 39 42 39zM202 657c32 0 41 -6 41 -39c0 -36 -9 -43 -41 -43c-33 0 -42 7 -42 43c0 33 9 39 42 39z" />
    <glyph glyph-name="eth" unicode="&#xf0;" horiz-adv-x="622" 
d="M351 545l-82 -55l-33 49l74 49c-33 33 -73 69 -121 109h100c28 -25 54 -49 77 -72l75 50l32 -49l-66 -44c104 -115 156 -233 156 -356c0 -96 -18 -161 -54 -194s-103 -49 -200 -49c-176 0 -250 67 -250 231c0 75 19 128 56 157s104 44 199 44c37 0 82 -3 135 -10
c-21 44 -54 91 -98 140zM489 238c0 36 -5 70 -15 102c-45 9 -99 13 -160 13c-71 0 -119 -10 -143 -29c-23 -19 -35 -59 -35 -118c0 -57 12 -99 35 -125c24 -25 70 -38 138 -38c56 0 85 2 117 17c45 21 63 72 63 178z" />
    <glyph glyph-name="ntilde" unicode="&#xf1;" horiz-adv-x="554" 
d="M141 440v-440h-65v479c27 12 59 22 98 29s74 11 106 11c75 0 126 -16 155 -49s44 -94 44 -185v-285h-65v272c0 76 -10 126 -30 149c-19 24 -58 36 -116 36c-48 0 -90 -6 -127 -17zM402 689l41 -33c-21 -61 -56 -91 -105 -91c-18 0 -42 11 -71 33s-52 33 -67 33
c-24 0 -44 -20 -60 -61l-36 35c32 57 60 82 103 82c20 0 43 -11 70 -33s49 -33 64 -33c27 0 44 17 61 68z" />
    <glyph glyph-name="ograve" unicode="&#xf2;" 
d="M63 255c0 100 18 169 53 207c36 38 95 57 176 57s140 -19 176 -57s54 -107 54 -207c0 -101 -18 -171 -54 -210s-95 -59 -176 -59s-140 20 -176 59c-35 39 -53 109 -53 210zM292 459c-61 0 -102 -13 -124 -40s-33 -82 -33 -166c0 -81 11 -135 33 -164
c23 -29 64 -43 124 -43c61 0 102 14 124 43c23 29 34 83 34 164c0 84 -11 139 -33 166s-64 40 -125 40zM266 697l119 -129h-69l-133 129h83z" />
    <glyph glyph-name="oacute" unicode="&#xf3;" 
d="M63 255c0 100 18 169 53 207c36 38 95 57 176 57s140 -19 176 -57s54 -107 54 -207c0 -101 -18 -171 -54 -210s-95 -59 -176 -59s-140 20 -176 59c-35 39 -53 109 -53 210zM292 459c-61 0 -102 -13 -124 -40s-33 -82 -33 -166c0 -81 11 -135 33 -164
c23 -29 64 -43 124 -43c61 0 102 14 124 43c23 29 34 83 34 164c0 84 -11 139 -33 166s-64 40 -125 40zM420 697l-133 -129h-69l119 129h83z" />
    <glyph glyph-name="ocircumflex" unicode="&#xf4;" 
d="M63 255c0 100 18 169 53 207c36 38 95 57 176 57s140 -19 176 -57s54 -107 54 -207c0 -101 -18 -171 -54 -210s-95 -59 -176 -59s-140 20 -176 59c-35 39 -53 109 -53 210zM292 459c-61 0 -102 -13 -124 -40s-33 -82 -33 -166c0 -81 11 -135 33 -164
c23 -29 64 -43 124 -43c61 0 102 14 124 43c23 29 34 83 34 164c0 84 -11 139 -33 166s-64 40 -125 40zM451 568h-82l-81 86l-79 -86h-78l122 129h72z" />
    <glyph glyph-name="otilde" unicode="&#xf5;" 
d="M63 255c0 100 18 169 53 207c36 38 95 57 176 57s140 -19 176 -57s54 -107 54 -207c0 -101 -18 -171 -54 -210s-95 -59 -176 -59s-140 20 -176 59c-35 39 -53 109 -53 210zM292 459c-61 0 -102 -13 -124 -40s-33 -82 -33 -166c0 -81 11 -135 33 -164
c23 -29 64 -43 124 -43c61 0 102 14 124 43c23 29 34 83 34 164c0 84 -11 139 -33 166s-64 40 -125 40zM419 689l41 -33c-21 -61 -56 -91 -105 -91c-18 0 -42 11 -71 33s-52 33 -67 33c-24 0 -44 -20 -60 -61l-36 35c32 57 60 82 103 82c20 0 43 -11 70 -33s49 -33 64 -33
c27 0 44 17 61 68z" />
    <glyph glyph-name="odieresis" unicode="&#xf6;" 
d="M63 255c0 100 18 169 53 207c36 38 95 57 176 57s140 -19 176 -57s54 -107 54 -207c0 -101 -18 -171 -54 -210s-95 -59 -176 -59s-140 20 -176 59c-35 39 -53 109 -53 210zM292 459c-61 0 -102 -13 -124 -40s-33 -82 -33 -166c0 -81 11 -135 33 -164
c23 -29 64 -43 124 -43c61 0 102 14 124 43c23 29 34 83 34 164c0 84 -11 139 -33 166s-64 40 -125 40zM197 657c32 0 41 -6 41 -39c0 -36 -9 -43 -41 -43c-33 0 -42 7 -42 43c0 33 9 39 42 39zM386 657c32 0 41 -6 41 -39c0 -36 -9 -43 -41 -43c-33 0 -42 7 -42 43
c0 33 9 39 42 39z" />
    <glyph glyph-name="divide" unicode="&#xf7;" horiz-adv-x="622" 
d="M71 328v60h479v-60h-479zM262 158c0 41 11 49 51 49c43 0 53 -8 53 -49c0 -45 -10 -54 -53 -54c-40 0 -51 10 -51 54zM262 560c0 41 11 49 51 49c43 0 53 -8 53 -49c0 -45 -10 -54 -53 -54c-40 0 -51 9 -51 54z" />
    <glyph glyph-name="oslash" unicode="&#xf8;" 
d="M445 482l20 23h76l-56 -67c25 -41 37 -102 37 -183c0 -101 -18 -171 -54 -210s-95 -59 -176 -59c-68 0 -119 13 -154 38l-20 -24h-74l56 67c-25 41 -37 104 -37 188c0 100 18 169 53 207c36 38 95 57 176 57c68 0 119 -12 153 -37zM292 457c-61 0 -103 -13 -125 -40
c-21 -26 -32 -81 -32 -164c0 -56 5 -98 14 -127l254 305c-21 17 -58 26 -111 26zM292 48c61 0 102 14 124 42c23 28 34 82 34 163c0 57 -5 99 -14 127l-254 -304c21 -19 58 -28 110 -28z" />
    <glyph glyph-name="ugrave" unicode="&#xf9;" horiz-adv-x="554" 
d="M414 66v439h65v-479c-60 -27 -128 -40 -204 -40c-74 0 -126 16 -155 49s-44 95 -44 185v285h65v-272c0 -75 10 -125 29 -149c20 -24 59 -36 116 -36c49 0 92 6 128 18zM248 697l119 -129h-69l-133 129h83z" />
    <glyph glyph-name="uacute" unicode="&#xfa;" horiz-adv-x="554" 
d="M414 66v439h65v-479c-60 -27 -128 -40 -204 -40c-74 0 -126 16 -155 49s-44 95 -44 185v285h65v-272c0 -75 10 -125 29 -149c20 -24 59 -36 116 -36c49 0 92 6 128 18zM410 697l-133 -129h-69l119 129h83z" />
    <glyph glyph-name="ucircumflex" unicode="&#xfb;" horiz-adv-x="554" 
d="M449 568h-82l-81 86l-79 -86h-78l122 129h72zM414 66v439h65v-479c-60 -27 -128 -40 -204 -40c-74 0 -126 16 -155 49s-44 95 -44 185v285h65v-272c0 -75 10 -125 29 -149c20 -24 59 -36 116 -36c49 0 92 6 128 18z" />
    <glyph glyph-name="udieresis" unicode="&#xfc;" horiz-adv-x="554" 
d="M414 66v439h65v-479c-60 -27 -128 -40 -204 -40c-74 0 -126 16 -155 49s-44 95 -44 185v285h65v-272c0 -75 10 -125 29 -149c20 -24 59 -36 116 -36c49 0 92 6 128 18zM194 657c32 0 41 -6 41 -39c0 -36 -9 -43 -41 -43c-33 0 -42 7 -42 43c0 33 9 39 42 39zM383 657
c32 0 41 -6 41 -39c0 -36 -9 -43 -41 -43c-33 0 -42 7 -42 43c0 33 9 39 42 39z" />
    <glyph glyph-name="yacute" unicode="&#xfd;" horiz-adv-x="509" 
d="M211 -24c-66 233 -128 410 -186 529h73c53 -119 105 -268 156 -447c71 171 124 320 159 447h71c-42 -140 -105 -308 -188 -505c-27 -65 -58 -129 -91 -192h-76c23 43 51 99 82 168zM399 697l-133 -129h-69l119 129h83z" />
    <glyph glyph-name="thorn" unicode="&#xfe;" horiz-adv-x="572" 
d="M280 -14c-57 0 -104 14 -139 42v-220h-65v914h65v-221c50 12 96 18 139 18c81 0 140 -19 175 -57c36 -38 54 -107 54 -207c0 -101 -18 -171 -54 -210c-35 -39 -94 -59 -175 -59zM280 457c-53 0 -100 -7 -139 -21v-316c0 -45 60 -72 139 -72c60 0 101 14 123 42
c23 28 34 82 34 163c0 83 -11 138 -33 164c-21 27 -63 40 -124 40z" />
    <glyph glyph-name="ydieresis" unicode="&#xff;" horiz-adv-x="509" 
d="M211 -24c-66 233 -128 410 -186 529h73c53 -119 105 -268 156 -447c71 171 124 320 159 447h71c-42 -140 -105 -308 -188 -505c-27 -65 -58 -129 -91 -192h-76c23 43 51 99 82 168zM161 657c32 0 41 -6 41 -39c0 -36 -9 -43 -41 -43c-33 0 -42 7 -42 43c0 33 9 39 42 39z
M350 657c32 0 41 -6 41 -39c0 -36 -9 -43 -41 -43c-33 0 -42 7 -42 43c0 33 9 39 42 39z" />
    <glyph glyph-name="Amacron" unicode="&#x100;" horiz-adv-x="668" 
d="M661 0h-81c-37 93 -65 164 -84 215h-340c-27 -77 -51 -148 -72 -215h-71c85 248 173 480 263 697h123c93 -278 181 -510 262 -697zM349 641h-29c-61 -150 -108 -272 -142 -366h296c-43 119 -85 241 -125 366zM458 770h-251v62h251v-62z" />
    <glyph glyph-name="amacron" unicode="&#x101;" horiz-adv-x="542" 
d="M466 323v-297c-59 -27 -127 -40 -204 -40c-74 0 -127 12 -158 37s-47 69 -47 133c0 66 17 110 51 133s84 34 149 34c45 0 93 -5 144 -16c0 61 -10 102 -30 121s-60 29 -119 29s-108 -8 -145 -24l-19 61c59 17 115 25 168 25c76 0 130 -14 162 -42s48 -79 48 -154zM401 68
v184c-35 9 -81 13 -136 13c-53 0 -89 -6 -108 -19c-18 -12 -27 -40 -27 -85c0 -49 9 -81 26 -95c18 -14 54 -21 109 -21c48 0 93 8 136 23zM394 586h-251v58h251v-58z" />
    <glyph glyph-name="Abreve" unicode="&#x102;" horiz-adv-x="668" 
d="M661 0h-81c-37 93 -65 164 -84 215h-340c-27 -77 -51 -148 -72 -215h-71c85 248 173 480 263 697h123c93 -278 181 -510 262 -697zM349 641h-29c-61 -150 -108 -272 -142 -366h296c-43 119 -85 241 -125 366zM200 871h54c0 -53 23 -69 79 -69s80 16 80 69h52
c0 -84 -44 -126 -133 -126c-88 0 -132 42 -132 126z" />
    <glyph glyph-name="abreve" unicode="&#x103;" horiz-adv-x="542" 
d="M466 323v-297c-59 -27 -127 -40 -204 -40c-74 0 -127 12 -158 37s-47 69 -47 133c0 66 17 110 51 133s84 34 149 34c45 0 93 -5 144 -16c0 61 -10 102 -30 121s-60 29 -119 29s-108 -8 -145 -24l-19 61c59 17 115 25 168 25c76 0 130 -14 162 -42s48 -79 48 -154zM401 68
v184c-35 9 -81 13 -136 13c-53 0 -89 -6 -108 -19c-18 -12 -27 -40 -27 -85c0 -49 9 -81 26 -95c18 -14 54 -21 109 -21c48 0 93 8 136 23zM135 697h54c0 -53 23 -69 79 -69s80 16 80 69h52c0 -84 -44 -126 -133 -126c-88 0 -132 42 -132 126z" />
    <glyph glyph-name="Aogonek" unicode="&#x104;" horiz-adv-x="668" 
d="M586 0h-6c-37 93 -65 164 -84 215h-340c-27 -77 -51 -148 -72 -215h-71c85 248 173 480 263 697h123c93 -278 181 -510 262 -697h-26c-60 -39 -75 -63 -75 -104c0 -32 15 -45 68 -45c37 0 67 10 92 30l29 -49c-30 -23 -72 -35 -126 -35c-95 0 -127 28 -127 89
c0 51 30 89 90 114zM349 641h-29c-61 -150 -108 -272 -142 -366h296c-43 119 -85 241 -125 366z" />
    <glyph glyph-name="aogonek" unicode="&#x105;" horiz-adv-x="542" 
d="M466 323v-297c-13 -6 -25 -11 -36 -14c-38 -23 -63 -42 -76 -58c-13 -17 -19 -36 -19 -58c0 -32 15 -45 68 -45c37 0 67 10 92 30l29 -49c-30 -23 -72 -35 -126 -35c-95 0 -127 28 -127 89c0 46 25 82 75 107c-34 -5 -62 -7 -84 -7c-74 0 -127 12 -158 37s-47 69 -47 133
c0 66 17 110 51 133s84 34 149 34c45 0 93 -5 144 -16c0 61 -10 102 -30 121s-60 29 -119 29s-108 -8 -145 -24l-19 61c59 17 115 25 168 25c76 0 130 -14 162 -42s48 -79 48 -154zM401 68v184c-35 9 -81 13 -136 13c-53 0 -89 -6 -108 -19c-18 -12 -27 -40 -27 -85
c0 -49 9 -81 26 -95c18 -14 54 -21 109 -21c48 0 93 8 136 23z" />
    <glyph glyph-name="Cacute" unicode="&#x106;" horiz-adv-x="602" 
d="M63 355c0 141 24 233 79 286c56 55 127 73 240 73c69 0 134 -9 195 -27l-23 -65c-45 18 -102 27 -171 27c-95 0 -144 -10 -187 -51c-41 -41 -55 -115 -55 -243c0 -85 8 -149 25 -193c17 -43 41 -73 74 -88s80 -22 143 -22c69 0 126 9 171 26l23 -64
c-59 -19 -124 -28 -195 -28c-112 0 -193 27 -244 81c-50 54 -75 150 -75 288zM327 747h-67l134 129h92z" />
    <glyph glyph-name="cacute" unicode="&#x107;" horiz-adv-x="466" 
d="M430 74l21 -60c-42 -19 -90 -28 -144 -28c-83 0 -144 20 -184 60s-60 110 -60 209s20 167 60 206s101 58 184 58c53 0 101 -8 144 -25l-21 -61c-34 16 -75 24 -123 24c-118 0 -172 -32 -172 -204c0 -79 13 -133 39 -162c27 -29 71 -43 133 -43c43 0 84 9 123 26zM412 697
l-133 -129h-69l119 129h83z" />
    <glyph glyph-name="Ccircumflex" unicode="&#x108;" horiz-adv-x="602" 
d="M457 747l-84 90l-81 -90h-76l122 129h72l126 -129h-79zM63 355c0 141 24 233 79 286c56 55 127 73 240 73c69 0 134 -9 195 -27l-23 -65c-45 18 -102 27 -171 27c-95 0 -144 -10 -187 -51c-41 -41 -55 -115 -55 -243c0 -85 8 -149 25 -193c17 -43 41 -73 74 -88
s80 -22 143 -22c69 0 126 9 171 26l23 -64c-59 -19 -124 -28 -195 -28c-112 0 -193 27 -244 81c-50 54 -75 150 -75 288z" />
    <glyph glyph-name="ccircumflex" unicode="&#x109;" horiz-adv-x="466" 
d="M430 74l21 -60c-42 -19 -90 -28 -144 -28c-83 0 -144 20 -184 60s-60 110 -60 209s20 167 60 206s101 58 184 58c53 0 101 -8 144 -25l-21 -61c-34 16 -75 24 -123 24c-118 0 -172 -32 -172 -204c0 -79 13 -133 39 -162c27 -29 71 -43 133 -43c43 0 84 9 123 26zM450 568
h-82l-81 86l-79 -86h-78l122 129h72z" />
    <glyph glyph-name="Cdotaccent" unicode="&#x10a;" horiz-adv-x="602" 
d="M63 355c0 141 24 233 79 286c56 55 127 73 240 73c69 0 134 -9 195 -27l-23 -65c-45 18 -102 27 -171 27c-95 0 -144 -10 -187 -51c-41 -41 -55 -115 -55 -243c0 -85 8 -149 25 -193c17 -43 41 -73 74 -88s80 -22 143 -22c69 0 126 9 171 26l23 -64
c-59 -19 -124 -28 -195 -28c-112 0 -193 27 -244 81c-50 54 -75 150 -75 288zM366 847c32 0 41 -6 41 -39c0 -36 -9 -43 -41 -43c-33 0 -42 7 -42 43c0 33 9 39 42 39z" />
    <glyph glyph-name="cdotaccent" unicode="&#x10b;" horiz-adv-x="466" 
d="M430 74l21 -60c-42 -19 -90 -28 -144 -28c-83 0 -144 20 -184 60s-60 110 -60 209s20 167 60 206s101 58 184 58c53 0 101 -8 144 -25l-21 -61c-34 16 -75 24 -123 24c-118 0 -172 -32 -172 -204c0 -79 13 -133 39 -162c27 -29 71 -43 133 -43c43 0 84 9 123 26zM301 657
c32 0 41 -6 41 -39c0 -36 -9 -43 -41 -43c-33 0 -42 7 -42 43c0 33 9 39 42 39z" />
    <glyph glyph-name="Ccaron" unicode="&#x10c;" horiz-adv-x="602" 
d="M279 876l84 -90l81 90h76l-122 -129h-72l-126 129h79zM63 355c0 141 24 233 79 286c56 55 127 73 240 73c69 0 134 -9 195 -27l-23 -65c-45 18 -102 27 -171 27c-95 0 -144 -10 -187 -51c-41 -41 -55 -115 -55 -243c0 -85 8 -149 25 -193c17 -43 41 -73 74 -88
s80 -22 143 -22c69 0 126 9 171 26l23 -64c-59 -19 -124 -28 -195 -28c-112 0 -193 27 -244 81c-50 54 -75 150 -75 288z" />
    <glyph glyph-name="ccaron" unicode="&#x10d;" horiz-adv-x="466" 
d="M430 74l21 -60c-42 -19 -90 -28 -144 -28c-83 0 -144 20 -184 60s-60 110 -60 209s20 167 60 206s101 58 184 58c53 0 101 -8 144 -25l-21 -61c-34 16 -75 24 -123 24c-118 0 -172 -32 -172 -204c0 -79 13 -133 39 -162c27 -29 71 -43 133 -43c43 0 84 9 123 26zM134 697
h82l81 -86l79 86h78l-122 -129h-72z" />
    <glyph glyph-name="Dcaron" unicode="&#x10e;" horiz-adv-x="703" 
d="M242 876l84 -90l81 90h76l-122 -129h-72l-126 129h79zM101 0v697h215c113 0 187 -20 243 -72s81 -142 81 -275c0 -130 -26 -221 -77 -273c-51 -51 -134 -77 -247 -77h-215zM563 350c0 121 -14 193 -57 234c-43 43 -94 53 -190 53h-143v-577h143c92 0 156 20 192 61
c37 41 55 117 55 229z" />
    <glyph glyph-name="dcaron" unicode="&#x10f;" horiz-adv-x="572" 
d="M292 519c59 0 105 -14 139 -41v244h65v-696c-27 -12 -59 -22 -98 -29s-74 -11 -106 -11c-81 0 -140 19 -176 57c-35 39 -53 108 -53 208s18 170 53 209c36 39 95 59 176 59zM292 48c54 0 100 7 139 21v317c0 44 -60 71 -139 71c-60 0 -101 -14 -124 -42
c-22 -28 -33 -82 -33 -163c4 -174 35 -201 157 -204zM527 530l22 192h73l-56 -192h-39z" />
    <glyph glyph-name="Dcroat" unicode="&#x110;" horiz-adv-x="703" 
d="M101 334h-54v55h54v308h215c113 0 187 -20 243 -72s81 -142 81 -275c0 -130 -26 -221 -77 -273c-51 -51 -134 -77 -247 -77h-215v334zM563 350c0 121 -14 193 -57 233c-43 41 -94 52 -190 52h-143v-246h162v-55h-162v-274h143c92 0 156 20 192 61c37 41 55 117 55 229z
" />
    <glyph glyph-name="dslash" unicode="&#x111;" horiz-adv-x="572" 
d="M431 588h-108v55h108v79h65v-79h45v-55h-45v-562c-27 -12 -59 -22 -98 -29s-74 -11 -106 -11c-81 0 -140 19 -176 57c-35 39 -53 108 -53 208s18 170 53 209c36 39 95 59 176 59c59 0 105 -14 139 -41v110zM292 48c54 0 100 7 139 21v317c0 44 -60 71 -139 71
c-60 0 -101 -14 -124 -42c-22 -28 -33 -82 -33 -163c4 -174 35 -201 157 -204z" />
    <glyph glyph-name="Emacron" unicode="&#x112;" horiz-adv-x="610" 
d="M101 0v697h477v-60h-405v-234h287v-60h-287v-283h405v-60h-477zM466 770h-251v62h251v-62z" />
    <glyph glyph-name="emacron" unicode="&#x113;" horiz-adv-x="546" 
d="M290 519c74 0 127 -20 158 -59c32 -39 48 -110 48 -214h-361c1 -79 14 -132 39 -159c26 -27 70 -40 131 -40c48 0 96 9 145 27l15 -60c-61 -19 -116 -28 -166 -28c-81 0 -140 20 -179 60c-38 40 -57 110 -57 209c0 192 71 264 227 264zM290 458c-54 0 -92 -11 -115 -33
c-22 -21 -35 -61 -39 -120h286c-3 61 -13 102 -32 122c-19 21 -52 31 -100 31zM414 586h-251v58h251v-58z" />
    <glyph glyph-name="Ebreve" unicode="&#x114;" horiz-adv-x="610" 
d="M101 0v697h477v-60h-405v-234h287v-60h-287v-283h405v-60h-477zM209 871h54c0 -53 23 -69 79 -69s80 16 80 69h52c0 -84 -44 -126 -133 -126c-88 0 -132 42 -132 126z" />
    <glyph glyph-name="ebreve" unicode="&#x115;" horiz-adv-x="546" 
d="M290 519c74 0 127 -20 158 -59c32 -39 48 -110 48 -214h-361c1 -79 14 -132 39 -159c26 -27 70 -40 131 -40c48 0 96 9 145 27l15 -60c-61 -19 -116 -28 -166 -28c-81 0 -140 20 -179 60c-38 40 -57 110 -57 209c0 192 71 264 227 264zM290 458c-54 0 -92 -11 -115 -33
c-22 -21 -35 -61 -39 -120h286c-3 61 -13 102 -32 122c-19 21 -52 31 -100 31zM152 697h54c0 -53 23 -69 79 -69s80 16 80 69h52c0 -84 -44 -126 -133 -126c-88 0 -132 42 -132 126z" />
    <glyph glyph-name="Edotaccent" unicode="&#x116;" horiz-adv-x="610" 
d="M101 0v697h477v-60h-405v-234h287v-60h-287v-283h405v-60h-477zM363 847c32 0 41 -6 41 -39c0 -36 -9 -43 -41 -43c-33 0 -42 7 -42 43c0 33 9 39 42 39z" />
    <glyph glyph-name="edotaccent" unicode="&#x117;" horiz-adv-x="546" 
d="M290 519c74 0 127 -20 158 -59c32 -39 48 -110 48 -214h-361c1 -79 14 -132 39 -159c26 -27 70 -40 131 -40c48 0 96 9 145 27l15 -60c-61 -19 -116 -28 -166 -28c-81 0 -140 20 -179 60c-38 40 -57 110 -57 209c0 192 71 264 227 264zM290 458c-54 0 -92 -11 -115 -33
c-22 -21 -35 -61 -39 -120h286c-3 61 -13 102 -32 122c-19 21 -52 31 -100 31zM285 657c32 0 41 -6 41 -39c0 -36 -9 -43 -41 -43c-33 0 -42 7 -42 43c0 33 9 39 42 39z" />
    <glyph glyph-name="Eogonek" unicode="&#x118;" horiz-adv-x="610" 
d="M101 0v697h477v-60h-405v-234h287v-60h-287v-283h405v-60h-30c-60 -39 -75 -63 -75 -104c0 -32 15 -45 68 -45c37 0 67 10 92 30l29 -49c-30 -23 -72 -35 -126 -35c-95 0 -127 28 -127 89c0 51 30 89 90 114h-398z" />
    <glyph glyph-name="eogonek" unicode="&#x119;" horiz-adv-x="546" 
d="M290 519c74 0 127 -20 158 -59c32 -39 48 -110 48 -214h-361c1 -79 14 -132 39 -159c26 -27 70 -40 131 -40c48 0 96 9 145 27l15 -60c-9 -3 -22 -7 -39 -10c-64 -40 -81 -65 -81 -108c0 -32 15 -45 68 -45c37 0 67 10 92 30l29 -49c-30 -23 -72 -35 -126 -35
c-95 0 -127 28 -127 89c0 44 23 79 70 104c-27 -3 -44 -4 -52 -4c-81 0 -140 20 -179 60c-38 40 -57 110 -57 209c0 192 71 264 227 264zM290 458c-54 0 -92 -11 -115 -33c-22 -21 -35 -61 -39 -120h286c-3 61 -13 102 -32 122c-19 21 -52 31 -100 31z" />
    <glyph glyph-name="Ecaron" unicode="&#x11a;" horiz-adv-x="610" 
d="M268 876l84 -90l81 90h76l-122 -129h-72l-126 129h79zM101 0v697h477v-60h-405v-234h287v-60h-287v-283h405v-60h-477z" />
    <glyph glyph-name="ecaron" unicode="&#x11b;" horiz-adv-x="546" 
d="M290 519c74 0 127 -20 158 -59c32 -39 48 -110 48 -214h-361c1 -79 14 -132 39 -159c26 -27 70 -40 131 -40c48 0 96 9 145 27l15 -60c-61 -19 -116 -28 -166 -28c-81 0 -140 20 -179 60c-38 40 -57 110 -57 209c0 192 71 264 227 264zM290 458c-54 0 -92 -11 -115 -33
c-22 -21 -35 -61 -39 -120h286c-3 61 -13 102 -32 122c-19 21 -52 31 -100 31zM126 697h82l81 -86l79 86h78l-122 -129h-72z" />
    <glyph glyph-name="Gcircumflex" unicode="&#x11c;" horiz-adv-x="677" 
d="M523 67v249h-182v58h254v-365c-49 -15 -120 -23 -213 -23c-112 0 -193 27 -244 81c-50 54 -75 150 -75 288c0 141 24 233 79 286c56 55 127 73 240 73c69 0 134 -9 195 -27l-23 -63c-45 17 -102 26 -171 26c-95 0 -144 -9 -187 -52c-41 -41 -55 -115 -55 -243
c0 -85 8 -149 25 -193s41 -74 74 -89s81 -23 143 -23c51 0 97 6 140 17zM452 747l-84 90l-81 -90h-76l122 129h72l126 -129h-79z" />
    <glyph glyph-name="gcircumflex" unicode="&#x11d;" horiz-adv-x="572" 
d="M496 479v-442c0 -89 -21 -152 -63 -187c-41 -35 -104 -53 -187 -53c-23 0 -51 3 -85 9c-34 5 -60 12 -78 20l19 62c17 -8 40 -15 69 -20c30 -6 55 -9 75 -9c127 0 185 41 185 169c-35 -28 -82 -42 -139 -42c-81 0 -140 20 -176 59c-35 39 -53 109 -53 210
c0 100 18 169 53 207c36 38 95 57 176 57c32 0 67 -4 106 -11s71 -17 98 -29zM431 120v316c-39 14 -85 21 -139 21c-61 0 -103 -13 -125 -40c-21 -26 -32 -81 -32 -164c0 -81 11 -135 33 -163c23 -28 64 -42 124 -42c79 0 139 27 139 72zM459 568h-82l-81 86l-79 -86h-78
l122 129h72z" />
    <glyph glyph-name="Gbreve" unicode="&#x11e;" horiz-adv-x="677" 
d="M523 67v249h-182v58h254v-365c-49 -15 -120 -23 -213 -23c-112 0 -193 27 -244 81c-50 54 -75 150 -75 288c0 141 24 233 79 286c56 55 127 73 240 73c69 0 134 -9 195 -27l-23 -63c-45 17 -102 26 -171 26c-95 0 -144 -9 -187 -52c-41 -41 -55 -115 -55 -243
c0 -85 8 -149 25 -193s41 -74 74 -89s81 -23 143 -23c51 0 97 6 140 17zM239 871h54c0 -53 23 -69 79 -69s80 16 80 69h52c0 -84 -44 -126 -133 -126c-88 0 -132 42 -132 126z" />
    <glyph glyph-name="gbreve" unicode="&#x11f;" horiz-adv-x="572" 
d="M496 479v-442c0 -89 -21 -152 -63 -187c-41 -35 -104 -53 -187 -53c-23 0 -51 3 -85 9c-34 5 -60 12 -78 20l19 62c17 -8 40 -15 69 -20c30 -6 55 -9 75 -9c127 0 185 41 185 169c-35 -28 -82 -42 -139 -42c-81 0 -140 20 -176 59c-35 39 -53 109 -53 210
c0 100 18 169 53 207c36 38 95 57 176 57c32 0 67 -4 106 -11s71 -17 98 -29zM431 120v316c-39 14 -85 21 -139 21c-61 0 -103 -13 -125 -40c-21 -26 -32 -81 -32 -164c0 -81 11 -135 33 -163c23 -28 64 -42 124 -42c79 0 139 27 139 72zM165 697h54c0 -53 23 -69 79 -69
s80 16 80 69h52c0 -84 -44 -126 -133 -126c-88 0 -132 42 -132 126z" />
    <glyph glyph-name="Gdotaccent" unicode="&#x120;" horiz-adv-x="677" 
d="M523 67v249h-182v58h254v-365c-49 -15 -120 -23 -213 -23c-112 0 -193 27 -244 81c-50 54 -75 150 -75 288c0 141 24 233 79 286c56 55 127 73 240 73c69 0 134 -9 195 -27l-23 -63c-45 17 -102 26 -171 26c-95 0 -144 -9 -187 -52c-41 -41 -55 -115 -55 -243
c0 -85 8 -149 25 -193s41 -74 74 -89s81 -23 143 -23c51 0 97 6 140 17zM373 847c32 0 41 -6 41 -39c0 -36 -9 -43 -41 -43c-33 0 -42 7 -42 43c0 33 9 39 42 39z" />
    <glyph glyph-name="gdotaccent" unicode="&#x121;" horiz-adv-x="572" 
d="M496 479v-442c0 -89 -21 -152 -63 -187c-41 -35 -104 -53 -187 -53c-23 0 -51 3 -85 9c-34 5 -60 12 -78 20l19 62c17 -8 40 -15 69 -20c30 -6 55 -9 75 -9c127 0 185 41 185 169c-35 -28 -82 -42 -139 -42c-81 0 -140 20 -176 59c-35 39 -53 109 -53 210
c0 100 18 169 53 207c36 38 95 57 176 57c32 0 67 -4 106 -11s71 -17 98 -29zM431 120v316c-39 14 -85 21 -139 21c-61 0 -103 -13 -125 -40c-21 -26 -32 -81 -32 -164c0 -81 11 -135 33 -163c23 -28 64 -42 124 -42c79 0 139 27 139 72zM293 657c32 0 41 -6 41 -39
c0 -36 -9 -43 -41 -43c-33 0 -42 7 -42 43c0 33 9 39 42 39z" />
    <glyph glyph-name="Gcommaaccent" unicode="&#x122;" horiz-adv-x="677" 
d="M523 67v249h-182v58h254v-365c-49 -15 -120 -23 -213 -23c-112 0 -193 27 -244 81c-50 54 -75 150 -75 288c0 141 24 233 79 286c56 55 127 73 240 73c69 0 134 -9 195 -27l-23 -63c-45 17 -102 26 -171 26c-95 0 -144 -9 -187 -52c-41 -41 -55 -115 -55 -243
c0 -85 8 -149 25 -193s41 -74 74 -89s81 -23 143 -23c51 0 97 6 140 17zM360 -51h79l-71 -167h-48z" />
    <glyph glyph-name="gcommaaccent" unicode="&#x123;" horiz-adv-x="572" 
d="M326 577h-79l71 167h48zM496 479v-442c0 -89 -21 -152 -63 -187c-41 -35 -104 -53 -187 -53c-23 0 -51 3 -85 9c-34 5 -60 12 -78 20l19 62c17 -8 40 -15 69 -20c30 -6 55 -9 75 -9c127 0 185 41 185 169c-35 -28 -82 -42 -139 -42c-81 0 -140 20 -176 59
c-35 39 -53 109 -53 210c0 100 18 169 53 207c36 38 95 57 176 57c32 0 67 -4 106 -11s71 -17 98 -29zM431 120v316c-39 14 -85 21 -139 21c-61 0 -103 -13 -125 -40c-21 -26 -32 -81 -32 -164c0 -81 11 -135 33 -163c23 -28 64 -42 124 -42c79 0 139 27 139 72z" />
    <glyph glyph-name="Hcircumflex" unicode="&#x124;" horiz-adv-x="714" 
d="M434 747l-84 90l-81 -90h-76l122 129h72l126 -129h-79zM543 341h-370v-341h-72v697h72v-291h370v291h71v-697h-71v341z" />
    <glyph glyph-name="hcircumflex" unicode="&#x125;" horiz-adv-x="554" 
d="M253 747l-84 90l-81 -90h-76l122 129h72l126 -129h-79zM288 519c70 0 119 -17 148 -50s43 -94 43 -184v-285h-65v272c0 75 -9 125 -28 149c-18 24 -53 36 -105 36c-76 0 -140 -27 -140 -71v-386h-65v722h65v-244c27 21 87 41 147 41z" />
    <glyph glyph-name="Hbar" unicode="&#x126;" horiz-adv-x="714" 
d="M101 539h-68v58h68v100h72v-100h370v100h71v-100h69v-58h-69v-539h-71v341h-370v-341h-72v539zM173 539v-133h370v133h-370z" />
    <glyph glyph-name="hbar" unicode="&#x127;" horiz-adv-x="554" 
d="M141 386v-386h-65v595h-64v52h64v75h65v-75h122v-52h-122v-117c27 21 87 41 147 41c70 0 119 -17 148 -50s43 -94 43 -184v-285h-65v272c0 75 -9 125 -28 149c-18 24 -53 36 -105 36c-76 0 -140 -27 -140 -71z" />
    <glyph glyph-name="Itilde" unicode="&#x128;" horiz-adv-x="273" 
d="M271 867l40 -32c-21 -61 -58 -91 -110 -91c-17 0 -42 11 -74 33c-32 23 -55 34 -70 34c-23 0 -43 -20 -58 -59l-35 34c31 55 57 79 100 79c19 0 45 -11 76 -32s54 -32 69 -32c27 0 47 22 62 66zM101 0v697h72v-697h-72z" />
    <glyph glyph-name="itilde" unicode="&#x129;" horiz-adv-x="217" 
d="M237 689l41 -33c-21 -61 -56 -91 -105 -91c-18 0 -42 11 -71 33s-52 33 -67 33c-24 0 -44 -20 -60 -61l-36 35c32 57 60 82 103 82c20 0 43 -11 70 -33s49 -33 64 -33c27 0 44 17 61 68zM76 505h65v-505h-65v505z" />
    <glyph glyph-name="Imacron" unicode="&#x12a;" horiz-adv-x="273" 
d="M101 0v697h72v-697h-72zM264 770h-251v62h251v-62z" />
    <glyph glyph-name="imacron" unicode="&#x12b;" horiz-adv-x="217" 
d="M76 505h65v-505h-65v505zM235 586h-251v58h251v-58z" />
    <glyph glyph-name="Ibreve" unicode="&#x12c;" horiz-adv-x="273" 
d="M7 871h54c0 -53 23 -69 79 -69s80 16 80 69h52c0 -84 -44 -126 -133 -126c-88 0 -132 42 -132 126zM101 0v697h72v-697h-72z" />
    <glyph glyph-name="ibreve" unicode="&#x12d;" horiz-adv-x="217" 
d="M-23 697h54c0 -53 23 -69 79 -69s80 16 80 69h52c0 -84 -44 -126 -133 -126c-88 0 -132 42 -132 126zM76 505h65v-505h-65v505z" />
    <glyph glyph-name="Iogonek" unicode="&#x12e;" horiz-adv-x="273" 
d="M101 1v696h72v-697h-27c-60 -39 -75 -63 -75 -104c0 -32 15 -45 68 -45c37 0 67 10 92 30l29 -49c-30 -23 -72 -35 -126 -35c-95 0 -127 28 -127 89c0 52 31 90 94 115z" />
    <glyph glyph-name="iogonek" unicode="&#x12f;" horiz-adv-x="217" 
d="M76 505h65v-505h-20c-60 -39 -75 -63 -75 -104c0 -32 15 -45 68 -45c37 0 67 10 92 30l29 -49c-30 -23 -72 -35 -126 -35c-95 0 -127 28 -127 89c0 52 31 90 94 115v504zM110 697c32 0 41 -6 41 -39c0 -36 -9 -43 -41 -43c-33 0 -42 7 -42 43c0 33 9 39 42 39z" />
    <glyph glyph-name="Idot" unicode="&#x130;" horiz-adv-x="273" 
d="M138 847c32 0 41 -6 41 -39c0 -36 -9 -43 -41 -43c-33 0 -42 7 -42 43c0 33 9 39 42 39zM101 0v697h72v-697h-72z" />
    <glyph glyph-name="dotlessi" unicode="&#x131;" horiz-adv-x="217" 
d="M76 505h65v-505h-65v505z" />
    <glyph glyph-name="IJ" unicode="&#x132;" horiz-adv-x="712" 
d="M537 697h74v-505c0 -83 -21 -140 -60 -168c-37 -28 -77 -38 -130 -38c-45 0 -90 10 -136 30l24 67c33 -17 71 -26 112 -26c77 0 116 45 116 135v505zM101 0v697h72v-697h-72z" />
    <glyph glyph-name="ij" unicode="&#x133;" horiz-adv-x="432" 
d="M76 505h65v-505h-65v505zM110 697c32 0 41 -6 41 -39c0 -36 -9 -43 -41 -43c-33 0 -42 7 -42 43c0 33 9 39 42 39zM323 697c32 0 41 -6 41 -39c0 -36 -9 -43 -41 -43c-33 0 -42 7 -42 43c0 33 9 39 42 39zM189 -203v60c36 0 62 7 77 22s23 46 23 93v533h65v-533
c0 -69 -14 -115 -43 -139c-28 -24 -69 -36 -122 -36z" />
    <glyph glyph-name="Jcircumflex" unicode="&#x134;" horiz-adv-x="440" 
d="M381 747l-84 90l-81 -90h-76l122 129h72l126 -129h-79zM265 697h74v-505c0 -83 -21 -140 -60 -168c-37 -28 -77 -38 -130 -38c-45 0 -90 10 -136 30l24 67c33 -17 71 -26 112 -26c77 0 116 45 116 135v505z" />
    <glyph glyph-name="jcircumflex" unicode="&#x135;" horiz-adv-x="217" 
d="M274 568h-82l-81 86l-79 -86h-78l122 129h72zM-24 -203v60c36 0 62 7 77 22s23 46 23 93v533h65v-533c0 -69 -14 -115 -43 -139c-28 -24 -69 -36 -122 -36z" />
    <glyph glyph-name="Kcommaaccent" unicode="&#x136;" horiz-adv-x="617" 
d="M101 697h72v-697h-72v697zM624 0h-97c-77 107 -149 192 -214 257s-111 102 -139 111c30 17 75 56 136 115s126 131 193 214h95c-70 -82 -134 -152 -192 -209s-100 -94 -126 -111c27 -15 72 -56 136 -123s133 -151 208 -254zM295 -51h79l-71 -167h-48z" />
    <glyph glyph-name="kcommaaccent" unicode="&#x137;" horiz-adv-x="478" 
d="M480 0h-84c-135 166 -220 255 -255 267v-267h-65v722h65v-455c39 26 118 105 237 238h84c-114 -126 -191 -202 -231 -229c33 -17 116 -109 249 -276zM231 -51h79l-71 -167h-48z" />
    <glyph glyph-name="Lacute" unicode="&#x139;" horiz-adv-x="546" 
d="M101 0v697h72v-634h360v-63h-432zM161 747h-67l134 129h92z" />
    <glyph glyph-name="lacute" unicode="&#x13a;" horiz-adv-x="222" 
d="M76 722h65v-592c0 -48 11 -72 48 -109l-50 -42c-45 43 -63 76 -63 147v596zM124 747h-67l134 129h92z" />
    <glyph glyph-name="Lcommaaccent" unicode="&#x13b;" horiz-adv-x="546" 
d="M101 0v697h72v-634h360v-63h-432zM287 -51h79l-71 -167h-48z" />
    <glyph glyph-name="lcommaaccent" unicode="&#x13c;" horiz-adv-x="222" 
d="M76 722h65v-592c0 -48 11 -72 48 -109l-50 -42c-45 43 -63 76 -63 147v596zM112 -51h79l-71 -167h-48z" />
    <glyph glyph-name="Lcaron" unicode="&#x13d;" horiz-adv-x="546" 
d="M101 0v697h72v-634h360v-63h-432zM254 530l22 192h73l-56 -192h-39z" />
    <glyph glyph-name="lcaron" unicode="&#x13e;" horiz-adv-x="222" 
d="M76 722h65v-592c0 -48 11 -72 48 -109l-50 -42c-45 43 -63 76 -63 147v596zM173 530l22 192h73l-56 -192h-39z" />
    <glyph glyph-name="Ldot" unicode="&#x13f;" horiz-adv-x="546" 
d="M101 0v697h72v-634h360v-63h-432zM314 421c32 0 41 -6 41 -39c0 -36 -9 -43 -41 -43c-33 0 -42 7 -42 43c0 33 9 39 42 39z" />
    <glyph glyph-name="ldot" unicode="&#x140;" horiz-adv-x="222" 
d="M222 434c32 0 41 -6 41 -39c0 -36 -9 -43 -41 -43c-33 0 -42 7 -42 43c0 33 9 39 42 39zM76 722h65v-592c0 -48 11 -72 48 -109l-50 -42c-45 43 -63 76 -63 147v596z" />
    <glyph glyph-name="Lslash" unicode="&#x141;" horiz-adv-x="546" 
d="M173 370l166 155v-76l-166 -154v-232h360v-63h-432v228l-74 -68v74l74 69v394h72v-327z" />
    <glyph glyph-name="lslash" unicode="&#x142;" horiz-adv-x="222" 
d="M76 722h65v-261l78 87v-76l-78 -86v-256c0 -48 11 -72 48 -109l-50 -42c-45 43 -63 76 -63 147v188l-73 -81v74l73 81v334z" />
    <glyph glyph-name="Nacute" unicode="&#x143;" horiz-adv-x="730" 
d="M173 624v-624h-72v697h98c115 -170 234 -367 357 -590v590h73v-697h-86c-113 209 -236 417 -370 624zM371 747h-67l134 129h92z" />
    <glyph glyph-name="nacute" unicode="&#x144;" horiz-adv-x="554" 
d="M141 440v-440h-65v479c27 12 59 22 98 29s74 11 106 11c75 0 126 -16 155 -49s44 -94 44 -185v-285h-65v272c0 76 -10 126 -30 149c-19 24 -58 36 -116 36c-48 0 -90 -6 -127 -17zM377 697l-133 -129h-69l119 129h83z" />
    <glyph glyph-name="Ncommaaccent" unicode="&#x145;" horiz-adv-x="730" 
d="M173 624v-624h-72v697h98c115 -170 234 -367 357 -590v590h73v-697h-86c-113 209 -236 417 -370 624zM334 -51h79l-71 -167h-48z" />
    <glyph glyph-name="ncommaaccent" unicode="&#x146;" horiz-adv-x="554" 
d="M141 440v-440h-65v479c27 12 59 22 98 29s74 11 106 11c75 0 126 -16 155 -49s44 -94 44 -185v-285h-65v272c0 76 -10 126 -30 149c-19 24 -58 36 -116 36c-48 0 -90 -6 -127 -17zM244 -51h79l-71 -167h-48z" />
    <glyph glyph-name="Ncaron" unicode="&#x147;" horiz-adv-x="730" 
d="M290 876l84 -90l81 90h76l-122 -129h-72l-126 129h79zM173 624v-624h-72v697h98c115 -170 234 -367 357 -590v590h73v-697h-86c-113 209 -236 417 -370 624z" />
    <glyph glyph-name="ncaron" unicode="&#x148;" horiz-adv-x="554" 
d="M114 697h82l81 -86l79 86h78l-122 -129h-72zM141 440v-440h-65v479c27 12 59 22 98 29s74 11 106 11c75 0 126 -16 155 -49s44 -94 44 -185v-285h-65v272c0 76 -10 126 -30 149c-19 24 -58 36 -116 36c-48 0 -90 -6 -127 -17z" />
    <glyph glyph-name="napostrophe" unicode="&#x149;" horiz-adv-x="554" 
d="M141 440v-440h-65v479c27 12 59 22 98 29s74 11 106 11c75 0 126 -16 155 -49s44 -94 44 -185v-285h-65v272c0 76 -10 126 -30 149c-19 24 -58 36 -116 36c-48 0 -90 -6 -127 -17zM100 714h79l-71 -167h-48z" />
    <glyph glyph-name="Eng" unicode="&#x14a;" horiz-adv-x="755" 
 />
    <glyph glyph-name="Omacron" unicode="&#x14c;" horiz-adv-x="759" 
d="M379 -14c-75 0 -135 10 -180 31c-88 41 -136 146 -136 335c0 93 12 167 35 220c47 107 130 142 281 142c75 0 135 -10 180 -31c89 -41 137 -144 137 -331c0 -95 -12 -169 -35 -223c-47 -108 -130 -143 -282 -143zM141 350c5 -246 56 -297 238 -301c93 0 147 14 187 59
c40 47 54 119 54 242c0 129 -14 203 -55 247c-40 45 -91 56 -186 56s-145 -11 -185 -56c-40 -44 -53 -118 -53 -247zM505 770h-251v62h251v-62z" />
    <glyph glyph-name="omacron" unicode="&#x14d;" 
d="M63 255c0 100 18 169 53 207c36 38 95 57 176 57s140 -19 176 -57s54 -107 54 -207c0 -101 -18 -171 -54 -210s-95 -59 -176 -59s-140 20 -176 59c-35 39 -53 109 -53 210zM292 459c-61 0 -102 -13 -124 -40s-33 -82 -33 -166c0 -81 11 -135 33 -164
c23 -29 64 -43 124 -43c61 0 102 14 124 43c23 29 34 83 34 164c0 84 -11 139 -33 166s-64 40 -125 40zM416 586h-251v58h251v-58z" />
    <glyph glyph-name="Obreve" unicode="&#x14e;" horiz-adv-x="759" 
d="M379 -14c-75 0 -135 10 -180 31c-88 41 -136 146 -136 335c0 93 12 167 35 220c47 107 130 142 281 142c75 0 135 -10 180 -31c89 -41 137 -144 137 -331c0 -95 -12 -169 -35 -223c-47 -108 -130 -143 -282 -143zM141 350c5 -246 56 -297 238 -301c93 0 147 14 187 59
c40 47 54 119 54 242c0 129 -14 203 -55 247c-40 45 -91 56 -186 56s-145 -11 -185 -56c-40 -44 -53 -118 -53 -247zM246 871h54c0 -53 23 -69 79 -69s80 16 80 69h52c0 -84 -44 -126 -133 -126c-88 0 -132 42 -132 126z" />
    <glyph glyph-name="obreve" unicode="&#x14f;" 
d="M63 255c0 100 18 169 53 207c36 38 95 57 176 57s140 -19 176 -57s54 -107 54 -207c0 -101 -18 -171 -54 -210s-95 -59 -176 -59s-140 20 -176 59c-35 39 -53 109 -53 210zM292 459c-61 0 -102 -13 -124 -40s-33 -82 -33 -166c0 -81 11 -135 33 -164
c23 -29 64 -43 124 -43c61 0 102 14 124 43c23 29 34 83 34 164c0 84 -11 139 -33 166s-64 40 -125 40zM159 697h54c0 -53 23 -69 79 -69s80 16 80 69h52c0 -84 -44 -126 -133 -126c-88 0 -132 42 -132 126z" />
    <glyph glyph-name="Ohungarumlaut" unicode="&#x150;" horiz-adv-x="759" 
d="M379 -14c-75 0 -135 10 -180 31c-88 41 -136 146 -136 335c0 93 12 167 35 220c47 107 130 142 281 142c75 0 135 -10 180 -31c89 -41 137 -144 137 -331c0 -95 -12 -169 -35 -223c-47 -108 -130 -143 -282 -143zM141 350c5 -246 56 -297 238 -301c93 0 147 14 187 59
c40 47 54 119 54 242c0 129 -14 203 -55 247c-40 45 -91 56 -186 56s-145 -11 -185 -56c-40 -44 -53 -118 -53 -247zM251 747l85 129h75l-107 -129h-53zM390 747l84 129h76l-106 -129h-54z" />
    <glyph glyph-name="ohungarumlaut" unicode="&#x151;" 
d="M63 255c0 100 18 169 53 207c36 38 95 57 176 57s140 -19 176 -57s54 -107 54 -207c0 -101 -18 -171 -54 -210s-95 -59 -176 -59s-140 20 -176 59c-35 39 -53 109 -53 210zM292 459c-61 0 -102 -13 -124 -40s-33 -82 -33 -166c0 -81 11 -135 33 -164
c23 -29 64 -43 124 -43c61 0 102 14 124 43c23 29 34 83 34 164c0 84 -11 139 -33 166s-64 40 -125 40zM166 568l85 129h75l-107 -129h-53zM305 568l84 129h76l-106 -129h-54z" />
    <glyph glyph-name="OE" unicode="&#x152;" horiz-adv-x="1110" 
d="M521 697h557v-60h-455c42 -47 66 -125 72 -234h225v-59h-224c-1 -137 -27 -231 -78 -284h460v-60h-568c-35 -9 -78 -14 -131 -14c-75 0 -135 10 -180 31c-88 41 -136 146 -136 335c0 93 12 167 35 220c47 107 130 142 281 142c57 0 104 -6 142 -17zM141 350
c5 -246 56 -297 238 -301c93 0 147 14 187 59c40 47 54 119 54 242c0 129 -14 203 -55 247c-40 45 -91 56 -186 56s-145 -11 -185 -56c-40 -44 -53 -118 -53 -247z" />
    <glyph glyph-name="oe" unicode="&#x153;" horiz-adv-x="931" 
d="M675 519c74 0 127 -20 158 -59c32 -39 48 -110 48 -214h-361c1 -79 14 -132 39 -159c26 -27 70 -40 131 -40c48 0 96 9 145 27l15 -60c-61 -19 -116 -28 -166 -28c-104 0 -166 25 -199 93c-31 -67 -90 -93 -193 -93c-81 0 -140 20 -176 59c-35 39 -53 109 -53 210
c0 100 18 169 53 207c36 38 95 57 176 57c100 0 160 -25 192 -89c33 59 97 89 191 89zM292 459c-61 0 -102 -13 -124 -40s-33 -82 -33 -166c0 -81 11 -135 33 -164c23 -29 64 -43 124 -43c61 0 102 14 124 43c23 29 34 83 34 164c0 84 -11 139 -33 166s-64 40 -125 40z
M675 458c-52 0 -90 -10 -113 -31s-37 -61 -41 -122h286c-3 61 -13 102 -32 122c-19 21 -52 31 -100 31z" />
    <glyph glyph-name="Racute" unicode="&#x154;" horiz-adv-x="675" 
d="M101 0v697h311c132 0 198 -67 198 -202c0 -109 -58 -184 -201 -184c47 -16 129 -120 244 -311h-90c-111 193 -203 302 -255 302h-135v-302h-72zM412 637h-239v-272h234c80 0 123 50 123 131c0 91 -42 141 -118 141zM309 747h-67l134 129h92z" />
    <glyph glyph-name="racute" unicode="&#x155;" horiz-adv-x="343" 
d="M283 519c19 0 36 -1 52 -3v-67c-20 3 -37 4 -52 4c-81 0 -142 -23 -142 -67v-386h-65v505h65v-36c21 27 75 50 142 50zM341 697l-133 -129h-69l119 129h83z" />
    <glyph glyph-name="Rcommaaccent" unicode="&#x156;" horiz-adv-x="675" 
d="M101 0v697h311c132 0 198 -67 198 -202c0 -109 -58 -184 -201 -184c47 -16 129 -120 244 -311h-90c-111 193 -203 302 -255 302h-135v-302h-72zM412 637h-239v-272h234c80 0 123 50 123 131c0 91 -42 141 -118 141zM314 -51h79l-71 -167h-48z" />
    <glyph glyph-name="rcommaaccent" unicode="&#x157;" horiz-adv-x="343" 
d="M283 519c19 0 36 -1 52 -3v-67c-20 3 -37 4 -52 4c-81 0 -142 -23 -142 -67v-386h-65v505h65v-36c21 27 75 50 142 50zM85 -51h79l-71 -167h-48z" />
    <glyph glyph-name="Rcaron" unicode="&#x158;" horiz-adv-x="675" 
d="M101 0v697h311c132 0 198 -67 198 -202c0 -109 -58 -184 -201 -184c47 -16 129 -120 244 -311h-90c-111 193 -203 302 -255 302h-135v-302h-72zM412 637h-239v-272h234c80 0 123 50 123 131c0 91 -42 141 -118 141zM258 876l84 -90l81 90h76l-122 -129h-72l-126 129h79z
" />
    <glyph glyph-name="rcaron" unicode="&#x159;" horiz-adv-x="343" 
d="M48 697h82l81 -86l79 86h78l-122 -129h-72zM283 519c19 0 36 -1 52 -3v-67c-20 3 -37 4 -52 4c-81 0 -142 -23 -142 -67v-386h-65v505h65v-36c21 27 75 50 142 50z" />
    <glyph glyph-name="Sacute" unicode="&#x15a;" horiz-adv-x="624" 
d="M343 714c67 0 131 -9 192 -27l-20 -65c-15 8 -40 14 -75 19c-34 5 -66 8 -96 8c-133 0 -203 -34 -203 -137c0 -73 45 -111 177 -120c168 -13 241 -74 241 -202c0 -136 -94 -204 -283 -204c-73 0 -139 9 -198 28l20 64c47 -17 106 -26 177 -26c135 0 208 36 208 137
c0 76 -47 126 -176 135c-172 12 -243 61 -243 186c0 136 93 204 279 204zM298 747h-67l134 129h92z" />
    <glyph glyph-name="sacute" unicode="&#x15b;" horiz-adv-x="504" 
d="M426 493l-22 -62c-48 19 -96 28 -144 28c-93 0 -129 -16 -129 -91c0 -51 35 -73 126 -78c132 -9 187 -52 187 -145c0 -59 -15 -100 -46 -124c-31 -23 -80 -35 -149 -35s-129 9 -182 27l20 61c17 -8 42 -15 74 -21c33 -5 62 -8 88 -8c89 0 124 18 124 94
c0 56 -29 80 -124 88c-129 9 -189 44 -189 135c0 115 64 157 200 157c49 0 104 -9 166 -26zM372 697l-133 -129h-69l119 129h83z" />
    <glyph glyph-name="Scircumflex" unicode="&#x15c;" horiz-adv-x="624" 
d="M343 714c67 0 131 -9 192 -27l-20 -65c-15 8 -40 14 -75 19c-34 5 -66 8 -96 8c-133 0 -203 -34 -203 -137c0 -73 45 -111 177 -120c168 -13 241 -74 241 -202c0 -136 -94 -204 -283 -204c-73 0 -139 9 -198 28l20 64c47 -17 106 -26 177 -26c135 0 208 36 208 137
c0 76 -47 126 -176 135c-172 12 -243 61 -243 186c0 136 93 204 279 204zM411 747l-84 90l-81 -90h-76l122 129h72l126 -129h-79z" />
    <glyph glyph-name="scircumflex" unicode="&#x15d;" horiz-adv-x="504" 
d="M426 493l-22 -62c-48 19 -96 28 -144 28c-93 0 -129 -16 -129 -91c0 -51 35 -73 126 -78c132 -9 187 -52 187 -145c0 -59 -15 -100 -46 -124c-31 -23 -80 -35 -149 -35s-129 9 -182 27l20 61c17 -8 42 -15 74 -21c33 -5 62 -8 88 -8c89 0 124 18 124 94
c0 56 -29 80 -124 88c-129 9 -189 44 -189 135c0 115 64 157 200 157c49 0 104 -9 166 -26zM418 568h-82l-81 86l-79 -86h-78l122 129h72z" />
    <glyph glyph-name="Scedilla" unicode="&#x15e;" horiz-adv-x="624" 
d="M343 714c67 0 131 -9 192 -27l-20 -65c-15 8 -40 14 -75 19c-34 5 -66 8 -96 8c-133 0 -203 -34 -203 -137c0 -73 45 -111 177 -120c168 -13 241 -74 241 -202c0 -124 -79 -191 -237 -202v-35c47 0 78 -5 94 -15c17 -10 25 -30 25 -60c0 -61 -33 -81 -125 -81
c-47 0 -82 7 -106 21l18 42c23 -11 52 -17 88 -17c44 0 57 6 57 34c0 29 -25 36 -121 31l30 78h-6c-73 0 -139 9 -198 28l20 64c47 -17 106 -26 177 -26c135 0 208 36 208 137c0 76 -47 126 -176 135c-172 12 -243 61 -243 186c0 136 93 204 279 204z" />
    <glyph glyph-name="Scedilla" unicode="&#xf6c1;" horiz-adv-x="624" 
d="M343 714c67 0 131 -9 192 -27l-20 -65c-15 8 -40 14 -75 19c-34 5 -66 8 -96 8c-133 0 -203 -34 -203 -137c0 -73 45 -111 177 -120c168 -13 241 -74 241 -202c0 -124 -79 -191 -237 -202v-35c47 0 78 -5 94 -15c17 -10 25 -30 25 -60c0 -61 -33 -81 -125 -81
c-47 0 -82 7 -106 21l18 42c23 -11 52 -17 88 -17c44 0 57 6 57 34c0 29 -25 36 -121 31l30 78h-6c-73 0 -139 9 -198 28l20 64c47 -17 106 -26 177 -26c135 0 208 36 208 137c0 76 -47 126 -176 135c-172 12 -243 61 -243 186c0 136 93 204 279 204z" />
    <glyph glyph-name="scedilla" unicode="&#x15f;" horiz-adv-x="504" 
d="M426 493l-22 -62c-48 19 -96 28 -144 28c-93 0 -129 -16 -129 -91c0 -51 35 -73 126 -78c132 -9 187 -52 187 -145c0 -116 -56 -158 -192 -159v-33c47 0 78 -5 94 -15c17 -10 25 -30 25 -60c0 -61 -33 -81 -125 -81c-47 0 -82 7 -106 21l18 42c23 -11 52 -17 88 -17
c44 0 57 6 57 34c0 29 -25 36 -121 31l31 79c-61 5 -109 14 -146 26l20 61c17 -8 42 -15 74 -21c33 -5 62 -8 88 -8c89 0 124 18 124 94c0 56 -29 80 -124 88c-129 9 -189 44 -189 135c0 115 64 157 200 157c49 0 104 -9 166 -26z" />
    <glyph glyph-name="scedilla" unicode="&#xf6c2;" horiz-adv-x="504" 
d="M426 493l-22 -62c-48 19 -96 28 -144 28c-93 0 -129 -16 -129 -91c0 -51 35 -73 126 -78c132 -9 187 -52 187 -145c0 -116 -56 -158 -192 -159v-33c47 0 78 -5 94 -15c17 -10 25 -30 25 -60c0 -61 -33 -81 -125 -81c-47 0 -82 7 -106 21l18 42c23 -11 52 -17 88 -17
c44 0 57 6 57 34c0 29 -25 36 -121 31l31 79c-61 5 -109 14 -146 26l20 61c17 -8 42 -15 74 -21c33 -5 62 -8 88 -8c89 0 124 18 124 94c0 56 -29 80 -124 88c-129 9 -189 44 -189 135c0 115 64 157 200 157c49 0 104 -9 166 -26z" />
    <glyph glyph-name="Scaron" unicode="&#x160;" horiz-adv-x="624" 
d="M343 714c67 0 131 -9 192 -27l-20 -65c-15 8 -40 14 -75 19c-34 5 -66 8 -96 8c-133 0 -203 -34 -203 -137c0 -73 45 -111 177 -120c168 -13 241 -74 241 -202c0 -136 -94 -204 -283 -204c-73 0 -139 9 -198 28l20 64c47 -17 106 -26 177 -26c135 0 208 36 208 137
c0 76 -47 126 -176 135c-172 12 -243 61 -243 186c0 136 93 204 279 204zM241 876l84 -90l81 90h76l-122 -129h-72l-126 129h79z" />
    <glyph glyph-name="scaron" unicode="&#x161;" horiz-adv-x="504" 
d="M426 493l-22 -62c-48 19 -96 28 -144 28c-93 0 -129 -16 -129 -91c0 -51 35 -73 126 -78c132 -9 187 -52 187 -145c0 -59 -15 -100 -46 -124c-31 -23 -80 -35 -149 -35s-129 9 -182 27l20 61c17 -8 42 -15 74 -21c33 -5 62 -8 88 -8c89 0 124 18 124 94
c0 56 -29 80 -124 88c-129 9 -189 44 -189 135c0 115 64 157 200 157c49 0 104 -9 166 -26zM93 697h82l81 -86l79 86h78l-122 -129h-72z" />
    <glyph glyph-name="Tcommaaccent" unicode="&#x162;" horiz-adv-x="568" 
d="M562 637h-241v-637h-73v637h-242v60h556v-60zM268 -51h79l-71 -167h-48z" />
    <glyph glyph-name="Tcommaaccent" unicode="&#x21a;" horiz-adv-x="568" 
d="M562 637h-241v-637h-73v637h-242v60h556v-60zM268 -51h79l-71 -167h-48z" />
    <glyph glyph-name="tcommaaccent" unicode="&#x163;" horiz-adv-x="393" 
d="M354 445h-187v-275c0 -88 25 -122 94 -122c37 0 69 5 96 15l15 -58c-37 -13 -74 -19 -111 -19c-59 0 -101 12 -124 37s-35 74 -35 146v276h-89v60h89v106l65 27v-133h187v-60zM178 -51h79l-71 -167h-48z" />
    <glyph glyph-name="tcommaaccent" unicode="&#x21b;" horiz-adv-x="393" 
d="M354 445h-187v-275c0 -88 25 -122 94 -122c37 0 69 5 96 15l15 -58c-37 -13 -74 -19 -111 -19c-59 0 -101 12 -124 37s-35 74 -35 146v276h-89v60h89v106l65 27v-133h187v-60zM178 -51h79l-71 -167h-48z" />
    <glyph glyph-name="Tcaron" unicode="&#x164;" horiz-adv-x="568" 
d="M205 876l84 -90l81 90h76l-122 -129h-72l-126 129h79zM562 637h-241v-637h-73v637h-242v60h556v-60z" />
    <glyph glyph-name="tcaron" unicode="&#x165;" horiz-adv-x="393" 
d="M354 445h-187v-275c0 -88 25 -122 94 -122c37 0 69 5 96 15l15 -58c-37 -13 -74 -19 -111 -19c-59 0 -101 12 -124 37s-35 74 -35 146v276h-89v60h89v106l65 27v-133h187v-60zM247 575l22 192h73l-56 -192h-39z" />
    <glyph glyph-name="Tbar" unicode="&#x166;" horiz-adv-x="568" 
d="M248 251h-94v62h94v320h-242v64h556v-64h-241v-320h84v-62h-84v-251h-73v251z" />
    <glyph glyph-name="tbar" unicode="&#x167;" horiz-adv-x="393" 
d="M102 228h-67v62h67v156h-89v59h89v106l65 27v-133h187v-59h-187v-156h119v-62h-119v-58c0 -88 25 -122 94 -122c37 0 69 5 96 15l15 -58c-37 -13 -74 -19 -111 -19c-59 0 -101 12 -124 37s-35 74 -35 146v59z" />
    <glyph glyph-name="Utilde" unicode="&#x168;" horiz-adv-x="738" 
d="M578 697h72v-455c0 -104 -22 -171 -73 -208c-51 -36 -111 -48 -208 -48c-96 0 -156 12 -207 48c-51 37 -74 104 -74 208v455h73v-456c0 -77 16 -128 48 -154c33 -25 86 -38 161 -38c74 0 127 13 159 39c33 27 49 78 49 153v456zM504 867l40 -32c-21 -61 -58 -91 -110 -91
c-17 0 -42 11 -74 33c-32 23 -55 34 -70 34c-23 0 -43 -20 -58 -59l-35 34c31 55 57 79 100 79c19 0 45 -11 76 -32s54 -32 69 -32c27 0 47 22 62 66z" />
    <glyph glyph-name="utilde" unicode="&#x169;" horiz-adv-x="554" 
d="M414 66v439h65v-479c-60 -27 -128 -40 -204 -40c-74 0 -126 16 -155 49s-44 95 -44 185v285h65v-272c0 -75 10 -125 29 -149c20 -24 59 -36 116 -36c49 0 92 6 128 18zM408 689l41 -33c-21 -61 -56 -91 -105 -91c-18 0 -42 11 -71 33s-52 33 -67 33
c-24 0 -44 -20 -60 -61l-36 35c32 57 60 82 103 82c20 0 43 -11 70 -33s49 -33 64 -33c27 0 44 17 61 68z" />
    <glyph glyph-name="Umacron" unicode="&#x16a;" horiz-adv-x="738" 
d="M578 697h72v-455c0 -104 -22 -171 -73 -208c-51 -36 -111 -48 -208 -48c-96 0 -156 12 -207 48c-51 37 -74 104 -74 208v455h73v-456c0 -77 16 -128 48 -154c33 -25 86 -38 161 -38c74 0 127 13 159 39c33 27 49 78 49 153v456zM492 770h-251v62h251v-62z" />
    <glyph glyph-name="umacron" unicode="&#x16b;" horiz-adv-x="554" 
d="M414 66v439h65v-479c-60 -27 -128 -40 -204 -40c-74 0 -126 16 -155 49s-44 95 -44 185v285h65v-272c0 -75 10 -125 29 -149c20 -24 59 -36 116 -36c49 0 92 6 128 18zM401 586h-251v58h251v-58z" />
    <glyph glyph-name="Ubreve" unicode="&#x16c;" horiz-adv-x="738" 
d="M578 697h72v-455c0 -104 -22 -171 -73 -208c-51 -36 -111 -48 -208 -48c-96 0 -156 12 -207 48c-51 37 -74 104 -74 208v455h73v-456c0 -77 16 -128 48 -154c33 -25 86 -38 161 -38c74 0 127 13 159 39c33 27 49 78 49 153v456zM238 871h54c0 -53 23 -69 79 -69
s80 16 80 69h52c0 -84 -44 -126 -133 -126c-88 0 -132 42 -132 126z" />
    <glyph glyph-name="ubreve" unicode="&#x16d;" horiz-adv-x="554" 
d="M414 66v439h65v-479c-60 -27 -128 -40 -204 -40c-74 0 -126 16 -155 49s-44 95 -44 185v285h65v-272c0 -75 10 -125 29 -149c20 -24 59 -36 116 -36c49 0 92 6 128 18zM145 697h54c0 -53 23 -69 79 -69s80 16 80 69h52c0 -84 -44 -126 -133 -126c-88 0 -132 42 -132 126z
" />
    <glyph glyph-name="Uring" unicode="&#x16e;" horiz-adv-x="738" 
d="M578 697h72v-455c0 -104 -22 -171 -73 -208c-51 -36 -111 -48 -208 -48c-96 0 -156 12 -207 48c-51 37 -74 104 -74 208v455h73v-456c0 -77 16 -128 48 -154c33 -25 86 -38 161 -38c74 0 127 13 159 39c33 27 49 78 49 153v456zM367 873c73 0 110 -31 110 -94
s-37 -94 -110 -94s-109 31 -109 94c0 64 30 94 109 94zM367 828c-43 0 -57 -16 -57 -51s19 -52 57 -52c39 0 59 17 59 52s-15 51 -59 51z" />
    <glyph glyph-name="uring" unicode="&#x16f;" horiz-adv-x="554" 
d="M284 738c73 0 110 -31 110 -94s-37 -94 -110 -94s-109 31 -109 94c0 64 30 94 109 94zM284 693c-43 0 -57 -16 -57 -51s19 -52 57 -52c39 0 59 17 59 52s-15 51 -59 51zM414 66v439h65v-479c-60 -27 -128 -40 -204 -40c-74 0 -126 16 -155 49s-44 95 -44 185v285h65v-272
c0 -75 10 -125 29 -149c20 -24 59 -36 116 -36c49 0 92 6 128 18z" />
    <glyph glyph-name="Uhungarumlaut" unicode="&#x170;" horiz-adv-x="738" 
d="M578 697h72v-455c0 -104 -22 -171 -73 -208c-51 -36 -111 -48 -208 -48c-96 0 -156 12 -207 48c-51 37 -74 104 -74 208v455h73v-456c0 -77 16 -128 48 -154c33 -25 86 -38 161 -38c74 0 127 13 159 39c33 27 49 78 49 153v456zM228 747l85 129h75l-107 -129h-53z
M367 747l84 129h76l-106 -129h-54z" />
    <glyph glyph-name="uhungarumlaut" unicode="&#x171;" horiz-adv-x="554" 
d="M414 66v439h65v-479c-60 -27 -128 -40 -204 -40c-74 0 -126 16 -155 49s-44 95 -44 185v285h65v-272c0 -75 10 -125 29 -149c20 -24 59 -36 116 -36c49 0 92 6 128 18zM148 568l85 129h75l-107 -129h-53zM287 568l84 129h76l-106 -129h-54z" />
    <glyph glyph-name="Uogonek" unicode="&#x172;" horiz-adv-x="738" 
d="M578 697h72v-455c0 -87 -17 -150 -51 -187c-33 -37 -86 -59 -157 -65c-45 -32 -59 -57 -59 -94c0 -32 15 -45 68 -45c37 0 67 10 92 30l29 -49c-30 -23 -72 -35 -126 -35c-95 0 -127 28 -127 89c0 41 21 75 63 100h-13c-96 0 -156 12 -207 48c-51 37 -74 104 -74 208v455
h73v-456c0 -77 16 -128 48 -154c33 -25 86 -38 161 -38c74 0 127 13 159 39c33 27 49 78 49 153v456z" />
    <glyph glyph-name="uogonek" unicode="&#x173;" horiz-adv-x="554" 
d="M414 66v439h65v-479c-13 -5 -30 -12 -53 -19c-69 -41 -87 -67 -87 -111c0 -32 15 -45 68 -45c37 0 67 10 92 30l29 -49c-30 -23 -72 -35 -126 -35c-95 0 -127 28 -127 89c0 44 24 79 73 106c-26 -4 -50 -6 -73 -6c-74 0 -126 16 -155 49s-44 95 -44 185v285h65v-272
c0 -75 10 -125 29 -149c20 -24 59 -36 116 -36c49 0 92 6 128 18z" />
    <glyph glyph-name="Wcircumflex" unicode="&#x174;" horiz-adv-x="905" 
d="M648 74c71 217 131 425 179 623h71c-63 -247 -131 -479 -206 -697h-93c-29 157 -75 355 -137 594c-24 -130 -77 -328 -158 -594h-91c-83 313 -152 545 -207 697h81c63 -191 122 -399 176 -623c77 259 131 466 162 623h74c3 -9 12 -46 29 -110c17 -63 28 -109 35 -138
l30 -121c27 -105 43 -183 55 -254zM542 747l-84 90l-81 -90h-76l122 129h72l126 -129h-79z" />
    <glyph glyph-name="wcircumflex" unicode="&#x175;" horiz-adv-x="813" 
d="M714 505h73c-47 -177 -104 -345 -172 -505h-92c-36 174 -73 317 -112 430c-36 -145 -79 -289 -130 -430h-92c-53 197 -108 366 -164 505h77c49 -129 95 -276 136 -443c22 61 47 138 74 230c27 93 46 164 57 213h83c38 -110 78 -258 120 -443c65 171 112 318 142 443z
M571 568h-82l-81 86l-79 -86h-78l122 129h72z" />
    <glyph glyph-name="Ycircumflex" unicode="&#x176;" horiz-adv-x="607" 
d="M340 335v-335h-73v335c-79 117 -170 237 -272 362h91c77 -95 151 -196 223 -305c76 96 149 198 220 305h83c-97 -139 -188 -259 -272 -362zM387 747l-84 90l-81 -90h-76l122 129h72l126 -129h-79z" />
    <glyph glyph-name="ycircumflex" unicode="&#x177;" horiz-adv-x="509" 
d="M211 -24c-66 233 -128 410 -186 529h73c53 -119 105 -268 156 -447c71 171 124 320 159 447h71c-42 -140 -105 -308 -188 -505c-27 -65 -58 -129 -91 -192h-76c23 43 51 99 82 168zM416 568h-82l-81 86l-79 -86h-78l122 129h72z" />
    <glyph glyph-name="Ydieresis" unicode="&#x178;" horiz-adv-x="607" 
d="M340 335v-335h-73v335c-79 117 -170 237 -272 362h91c77 -95 151 -196 223 -305c76 96 149 198 220 305h83c-97 -139 -188 -259 -272 -362zM215 847c32 0 41 -6 41 -39c0 -36 -9 -43 -41 -43c-33 0 -42 7 -42 43c0 33 9 39 42 39zM404 847c32 0 41 -6 41 -39
c0 -36 -9 -43 -41 -43c-33 0 -42 7 -42 43c0 33 9 39 42 39z" />
    <glyph glyph-name="Zacute" unicode="&#x179;" horiz-adv-x="609" 
d="M566 0h-545v29c171 212 324 415 459 608h-432v60h536v-26c-145 -213 -297 -417 -458 -611h440v-60zM295 747h-67l134 129h92z" />
    <glyph glyph-name="zacute" unicode="&#x17a;" horiz-adv-x="495" 
d="M454 0h-418v27c138 167 243 306 315 418h-299v60h401v-25c-45 -69 -99 -146 -162 -231s-112 -148 -147 -189h310v-60zM402 697l-133 -129h-69l119 129h83z" />
    <glyph glyph-name="Zdotaccent" unicode="&#x17b;" horiz-adv-x="609" 
d="M566 0h-545v29c171 212 324 415 459 608h-432v60h536v-26c-145 -213 -297 -417 -458 -611h440v-60zM309 847c32 0 41 -6 41 -39c0 -36 -9 -43 -41 -43c-33 0 -42 7 -42 43c0 33 9 39 42 39z" />
    <glyph glyph-name="zdotaccent" unicode="&#x17c;" horiz-adv-x="495" 
d="M454 0h-418v27c138 167 243 306 315 418h-299v60h401v-25c-45 -69 -99 -146 -162 -231s-112 -148 -147 -189h310v-60zM254 657c32 0 41 -6 41 -39c0 -36 -9 -43 -41 -43c-33 0 -42 7 -42 43c0 33 9 39 42 39z" />
    <glyph glyph-name="Zcaron" unicode="&#x17d;" horiz-adv-x="609" 
d="M238 876l84 -90l81 90h76l-122 -129h-72l-126 129h79zM566 0h-545v29c171 212 324 415 459 608h-432v60h536v-26c-145 -213 -297 -417 -458 -611h440v-60z" />
    <glyph glyph-name="zcaron" unicode="&#x17e;" horiz-adv-x="495" 
d="M454 0h-418v27c138 167 243 306 315 418h-299v60h401v-25c-45 -69 -99 -146 -162 -231s-112 -148 -147 -189h310v-60zM91 697h82l81 -86l79 86h78l-122 -129h-72z" />
    <glyph glyph-name="longs" unicode="&#x17f;" horiz-adv-x="226" 
d="M141 0h-65v552c0 71 18 118 51 139c35 21 65 28 113 28c41 0 79 -5 114 -16l-17 -57c-27 9 -60 13 -97 13c-48 0 -99 -8 -99 -107v-552z" />
    <glyph glyph-name="florin" unicode="&#x192;" horiz-adv-x="355" 
d="M229 552l-10 -47h180l-13 -59h-180l-100 -474c-15 -67 -40 -113 -75 -138s-77 -37 -126 -37c-44 0 -82 7 -113 22l33 61c26 -15 57 -23 92 -23c66 0 107 38 124 115l100 474h-89l13 59h89l10 47c15 71 43 118 80 139c39 21 71 28 119 28c41 0 78 -5 111 -16l-29 -57
c-25 9 -56 13 -94 13c-28 0 -46 -3 -70 -16s-43 -44 -52 -91z" />
    <glyph glyph-name="Ohorn" unicode="&#x1a0;" horiz-adv-x="759" 
d="M379 -14c-75 0 -135 10 -180 31c-88 41 -136 146 -136 335c0 93 12 167 35 220c47 107 130 142 281 142c75 0 135 -10 180 -31c89 -41 137 -144 137 -331c0 -95 -12 -169 -35 -223c-47 -108 -130 -143 -282 -143zM141 350c5 -246 56 -297 238 -301c93 0 147 14 187 59
c40 47 54 119 54 242c0 129 -14 203 -55 247c-40 45 -91 56 -186 56s-145 -11 -185 -56c-40 -44 -53 -118 -53 -247zM691 697h74l-1 -67c0 -18 -5 -38 -15 -61c-9 -22 -21 -38 -35 -47h-33c28 25 42 58 42 98h-32v77z" />
    <glyph glyph-name="ohorn" unicode="&#x1a1;" 
d="M63 255c0 100 18 169 53 207c36 38 95 57 176 57s140 -19 176 -57s54 -107 54 -207c0 -101 -18 -171 -54 -210s-95 -59 -176 -59s-140 20 -176 59c-35 39 -53 109 -53 210zM292 459c-61 0 -102 -13 -124 -40s-33 -82 -33 -166c0 -81 11 -135 33 -164
c23 -29 64 -43 124 -43c61 0 102 14 124 43c23 29 34 83 34 164c0 84 -11 139 -33 166s-64 40 -125 40zM529 505h74l-1 -67c0 -18 -5 -38 -15 -61c-9 -22 -21 -38 -35 -47h-33c28 25 42 58 42 98h-32v77z" />
    <glyph glyph-name="Uhorn" unicode="&#x1af;" horiz-adv-x="738" 
d="M578 697h72v-455c0 -104 -22 -171 -73 -208c-51 -36 -111 -48 -208 -48c-96 0 -156 12 -207 48c-51 37 -74 104 -74 208v455h73v-456c0 -77 16 -128 48 -154c33 -25 86 -38 161 -38c74 0 127 13 159 39c33 27 49 78 49 153v456zM702 697h74l-1 -67c0 -18 -5 -38 -15 -61
c-9 -22 -21 -38 -35 -47h-33c28 25 42 58 42 98h-32v77z" />
    <glyph glyph-name="uhorn" unicode="&#x1b0;" horiz-adv-x="554" 
d="M414 66v439h65v-479c-60 -27 -128 -40 -204 -40c-74 0 -126 16 -155 49s-44 95 -44 185v285h65v-272c0 -75 10 -125 29 -149c20 -24 59 -36 116 -36c49 0 92 6 128 18zM512 505h74l-1 -67c0 -18 -5 -38 -15 -61c-9 -22 -21 -38 -35 -47h-33c28 25 42 58 42 98h-32v77z
" />
    <glyph glyph-name="uni01CD" unicode="&#x1cd;" horiz-adv-x="668" 
d="M254 876l84 -90l81 90h76l-122 -129h-72l-126 129h79zM661 0h-81c-37 93 -65 164 -84 215h-340c-27 -77 -51 -148 -72 -215h-71c85 248 173 480 263 697h123c93 -278 181 -510 262 -697zM349 641h-29c-61 -150 -108 -272 -142 -366h296c-43 119 -85 241 -125 366z" />
    <glyph glyph-name="uni01CE" unicode="&#x1ce;" horiz-adv-x="542" 
d="M466 323v-297c-59 -27 -127 -40 -204 -40c-74 0 -127 12 -158 37s-47 69 -47 133c0 66 17 110 51 133s84 34 149 34c45 0 93 -5 144 -16c0 61 -10 102 -30 121s-60 29 -119 29s-108 -8 -145 -24l-19 61c59 17 115 25 168 25c76 0 130 -14 162 -42s48 -79 48 -154zM401 68
v184c-35 9 -81 13 -136 13c-53 0 -89 -6 -108 -19c-18 -12 -27 -40 -27 -85c0 -49 9 -81 26 -95c18 -14 54 -21 109 -21c48 0 93 8 136 23zM111 697h82l81 -86l79 86h78l-122 -129h-72z" />
    <glyph glyph-name="uni01CF" unicode="&#x1cf;" horiz-adv-x="273" 
d="M55 876l84 -90l81 90h76l-122 -129h-72l-126 129h79zM101 0v697h72v-697h-72z" />
    <glyph glyph-name="uni01D0" unicode="&#x1d0;" horiz-adv-x="217" 
d="M-51 697h82l81 -86l79 86h78l-122 -129h-72zM76 505h65v-505h-65v505z" />
    <glyph glyph-name="uni01D1" unicode="&#x1d1;" horiz-adv-x="759" 
d="M379 -14c-75 0 -135 10 -180 31c-88 41 -136 146 -136 335c0 93 12 167 35 220c47 107 130 142 281 142c75 0 135 -10 180 -31c89 -41 137 -144 137 -331c0 -95 -12 -169 -35 -223c-47 -108 -130 -143 -282 -143zM141 350c5 -246 56 -297 238 -301c93 0 147 14 187 59
c40 47 54 119 54 242c0 129 -14 203 -55 247c-40 45 -91 56 -186 56s-145 -11 -185 -56c-40 -44 -53 -118 -53 -247zM298 876l84 -90l81 90h76l-122 -129h-72l-126 129h79z" />
    <glyph glyph-name="uni01D2" unicode="&#x1d2;" 
d="M133 697h82l81 -86l79 86h78l-122 -129h-72zM63 255c0 100 18 169 53 207c36 38 95 57 176 57s140 -19 176 -57s54 -107 54 -207c0 -101 -18 -171 -54 -210s-95 -59 -176 -59s-140 20 -176 59c-35 39 -53 109 -53 210zM292 459c-61 0 -102 -13 -124 -40s-33 -82 -33 -166
c0 -81 11 -135 33 -164c23 -29 64 -43 124 -43c61 0 102 14 124 43c23 29 34 83 34 164c0 84 -11 139 -33 166s-64 40 -125 40z" />
    <glyph glyph-name="uni01D3" unicode="&#x1d3;" horiz-adv-x="738" 
d="M288 876l84 -90l81 90h76l-122 -129h-72l-126 129h79zM578 697h72v-455c0 -104 -22 -171 -73 -208c-51 -36 -111 -48 -208 -48c-96 0 -156 12 -207 48c-51 37 -74 104 -74 208v455h73v-456c0 -77 16 -128 48 -154c33 -25 86 -38 161 -38c74 0 127 13 159 39
c33 27 49 78 49 153v456z" />
    <glyph glyph-name="uni01D4" unicode="&#x1d4;" horiz-adv-x="554" 
d="M117 697h82l81 -86l79 86h78l-122 -129h-72zM414 66v439h65v-479c-60 -27 -128 -40 -204 -40c-74 0 -126 16 -155 49s-44 95 -44 185v285h65v-272c0 -75 10 -125 29 -149c20 -24 59 -36 116 -36c49 0 92 6 128 18z" />
    <glyph glyph-name="uni01D5" unicode="&#x1d5;" horiz-adv-x="738" 
d="M578 697h72v-455c0 -104 -22 -171 -73 -208c-51 -36 -111 -48 -208 -48c-96 0 -156 12 -207 48c-51 37 -74 104 -74 208v455h73v-456c0 -77 16 -128 48 -154c33 -25 86 -38 161 -38c74 0 127 13 159 39c33 27 49 78 49 153v456zM275 817c32 0 41 -6 41 -39
c0 -36 -9 -43 -41 -43c-33 0 -42 7 -42 43c0 33 9 39 42 39zM464 817c32 0 41 -6 41 -39c0 -36 -9 -43 -41 -43c-33 0 -42 7 -42 43c0 33 9 39 42 39zM495 840h-251v62h251v-62z" />
    <glyph glyph-name="uni01D6" unicode="&#x1d6;" horiz-adv-x="554" 
d="M183 647c32 0 41 -6 41 -39c0 -36 -9 -43 -41 -43c-33 0 -42 7 -42 43c0 33 9 39 42 39zM372 647c32 0 41 -6 41 -39c0 -36 -9 -43 -41 -43c-33 0 -42 7 -42 43c0 33 9 39 42 39zM414 66v439h65v-479c-60 -27 -128 -40 -204 -40c-74 0 -126 16 -155 49s-44 95 -44 185
v285h65v-272c0 -75 10 -125 29 -149c20 -24 59 -36 116 -36c49 0 92 6 128 18zM403 686h-251v58h251v-58z" />
    <glyph glyph-name="uni01D7" unicode="&#x1d7;" horiz-adv-x="738" 
d="M578 697h72v-455c0 -104 -22 -171 -73 -208c-51 -36 -111 -48 -208 -48c-96 0 -156 12 -207 48c-51 37 -74 104 -74 208v455h73v-456c0 -77 16 -128 48 -154c33 -25 86 -38 161 -38c74 0 127 13 159 39c33 27 49 78 49 153v456zM273 802c32 0 41 -6 41 -39
c0 -36 -9 -43 -41 -43c-33 0 -42 7 -42 43c0 33 9 39 42 39zM462 802c32 0 41 -6 41 -39c0 -36 -9 -43 -41 -43c-33 0 -42 7 -42 43c0 33 9 39 42 39zM337 820h-66l133 92h92z" />
    <glyph glyph-name="uni01D8" unicode="&#x1d8;" horiz-adv-x="554" 
d="M414 66v439h65v-479c-60 -27 -128 -40 -204 -40c-74 0 -126 16 -155 49s-44 95 -44 185v285h65v-272c0 -75 10 -125 29 -149c20 -24 59 -36 116 -36c49 0 92 6 128 18zM194 657c32 0 41 -6 41 -39c0 -36 -9 -43 -41 -43c-33 0 -42 7 -42 43c0 33 9 39 42 39zM383 657
c32 0 41 -6 41 -39c0 -36 -9 -43 -41 -43c-33 0 -42 7 -42 43c0 33 9 39 42 39zM241 747h-67l134 129h92z" />
    <glyph glyph-name="uni01D9" unicode="&#x1d9;" horiz-adv-x="738" 
d="M578 697h72v-455c0 -104 -22 -171 -73 -208c-51 -36 -111 -48 -208 -48c-96 0 -156 12 -207 48c-51 37 -74 104 -74 208v455h73v-456c0 -77 16 -128 48 -154c33 -25 86 -38 161 -38c74 0 127 13 159 39c33 27 49 78 49 153v456zM273 847c32 0 41 -6 41 -39
c0 -36 -9 -43 -41 -43c-33 0 -42 7 -42 43c0 33 9 39 42 39zM462 847c32 0 41 -6 41 -39c0 -36 -9 -43 -41 -43c-33 0 -42 7 -42 43c0 33 9 39 42 39z" />
    <glyph glyph-name="uni01DA" unicode="&#x1da;" horiz-adv-x="554" 
d="M414 66v439h65v-479c-60 -27 -128 -40 -204 -40c-74 0 -126 16 -155 49s-44 95 -44 185v285h65v-272c0 -75 10 -125 29 -149c20 -24 59 -36 116 -36c49 0 92 6 128 18zM194 657c32 0 41 -6 41 -39c0 -36 -9 -43 -41 -43c-33 0 -42 7 -42 43c0 33 9 39 42 39zM383 657
c32 0 41 -6 41 -39c0 -36 -9 -43 -41 -43c-33 0 -42 7 -42 43c0 33 9 39 42 39z" />
    <glyph glyph-name="uni01DB" unicode="&#x1db;" horiz-adv-x="738" 
d="M578 697h72v-455c0 -104 -22 -171 -73 -208c-51 -36 -111 -48 -208 -48c-96 0 -156 12 -207 48c-51 37 -74 104 -74 208v455h73v-456c0 -77 16 -128 48 -154c33 -25 86 -38 161 -38c74 0 127 13 159 39c33 27 49 78 49 153v456zM300 912l142 -93h-77l-155 93h90zM462 807
c32 0 41 -6 41 -39c0 -36 -9 -43 -41 -43c-33 0 -42 7 -42 43c0 33 9 39 42 39zM273 807c32 0 41 -6 41 -39c0 -36 -9 -43 -41 -43c-33 0 -42 7 -42 43c0 33 9 39 42 39z" />
    <glyph glyph-name="uni01DC" unicode="&#x1dc;" horiz-adv-x="554" 
d="M414 66v439h65v-479c-60 -27 -128 -40 -204 -40c-74 0 -126 16 -155 49s-44 95 -44 185v285h65v-272c0 -75 10 -125 29 -149c20 -24 59 -36 116 -36c49 0 92 6 128 18zM253 876l146 -129h-79l-160 129h93zM383 657c32 0 41 -6 41 -39c0 -36 -9 -43 -41 -43
c-33 0 -42 7 -42 43c0 33 9 39 42 39zM194 657c32 0 41 -6 41 -39c0 -36 -9 -43 -41 -43c-33 0 -42 7 -42 43c0 33 9 39 42 39z" />
    <glyph glyph-name="AEacute" unicode="&#x1fc;" horiz-adv-x="962" 
d="M380 697h550v-60h-405v-234h247v-59h-247v-284h405v-60h-477v215h-343c-57 -83 -105 -155 -143 -215h-85c167 246 333 478 498 697zM453 275v366h-34l-266 -366h300zM531 747h-67l134 129h92z" />
    <glyph glyph-name="aeacute" unicode="&#x1fd;" horiz-adv-x="879" 
d="M623 519c74 0 127 -20 158 -59c32 -39 48 -110 48 -214h-361c1 -79 14 -132 39 -159c26 -27 70 -40 131 -40c48 0 96 9 145 27l15 -60c-61 -19 -116 -28 -166 -28c-76 0 -132 16 -167 47c-17 -15 -45 -27 -86 -35s-80 -12 -117 -12c-74 0 -127 12 -158 37s-47 69 -47 133
c0 66 17 110 51 133c35 23 84 34 149 34c45 0 93 -5 144 -16c0 62 -10 102 -29 121s-59 29 -120 29c-59 0 -108 -8 -145 -24l-19 61c59 17 115 25 168 25c109 0 162 -23 185 -88c28 64 83 88 182 88zM428 79c-19 43 -28 100 -28 173c-35 9 -80 13 -135 13
c-54 0 -90 -6 -108 -19c-18 -12 -27 -40 -27 -85c0 -47 8 -78 25 -93s53 -23 110 -23c68 0 122 11 163 34zM623 458c-53 0 -91 -10 -114 -31s-36 -61 -40 -122h286c-3 61 -13 102 -32 122c-19 21 -52 31 -100 31zM540 697l-133 -129h-69l119 129h83z" />
    <glyph glyph-name="Oslashacute" unicode="&#x1fe;" horiz-adv-x="759" 
d="M602 655l35 42h76l-72 -85c37 -55 55 -142 55 -260c0 -95 -12 -169 -35 -223c-47 -108 -130 -143 -282 -143c-101 0 -175 19 -222 58l-37 -44h-74l73 86c-37 56 -56 145 -56 266c0 93 12 167 35 220c47 107 130 142 281 142c101 0 176 -20 223 -59zM379 653
c-95 0 -145 -11 -185 -56c-40 -44 -53 -118 -53 -247c0 -91 10 -159 29 -204l389 459c-32 32 -92 48 -180 48zM379 49c93 0 147 14 187 59c40 47 54 119 54 242c0 94 -9 162 -28 205l-389 -457c33 -33 92 -49 176 -49zM351 747h-67l134 129h92z" />
    <glyph glyph-name="oslashacute" unicode="&#x1ff;" 
d="M340 516l92 181h76l-100 -195c79 -31 114 -103 114 -247c0 -101 -18 -171 -54 -210s-95 -59 -176 -59c-57 0 -102 9 -135 27l-6 -13h-74l29 58c-29 41 -43 107 -43 197c0 100 18 169 53 207c36 38 95 57 176 57c17 0 33 -1 48 -3zM450 253c0 120 -19 172 -71 193
l-192 -375c22 -17 57 -25 105 -25c61 0 102 14 124 43c23 29 34 83 34 164zM292 459c-61 0 -102 -13 -124 -40s-33 -82 -33 -166c0 -51 4 -90 11 -117l164 322c-4 0 -14 1 -18 1zM393 697l-133 -129h-69l119 129h83z" />
    <glyph glyph-name="Scommaaccent" unicode="&#x218;" horiz-adv-x="624" 
d="M343 714c67 0 131 -9 192 -27l-20 -65c-15 8 -40 14 -75 19c-34 5 -66 8 -96 8c-133 0 -203 -34 -203 -137c0 -73 45 -111 177 -120c168 -13 241 -74 241 -202c0 -136 -94 -204 -283 -204c-73 0 -139 9 -198 28l20 64c47 -17 106 -26 177 -26c135 0 208 36 208 137
c0 76 -47 126 -176 135c-172 12 -243 61 -243 186c0 136 93 204 279 204zM289 -51h79l-71 -167h-48z" />
    <glyph glyph-name="scommaaccent" unicode="&#x219;" horiz-adv-x="504" 
d="M426 493l-22 -62c-48 19 -96 28 -144 28c-93 0 -129 -16 -129 -91c0 -51 35 -73 126 -78c132 -9 187 -52 187 -145c0 -59 -15 -100 -46 -124c-31 -23 -80 -35 -149 -35s-129 9 -182 27l20 61c17 -8 42 -15 74 -21c33 -5 62 -8 88 -8c89 0 124 18 124 94
c0 56 -29 80 -124 88c-129 9 -189 44 -189 135c0 115 64 157 200 157c49 0 104 -9 166 -26zM225 -51h79l-71 -167h-48z" />
    <glyph glyph-name="circumflex" unicode="&#x2c6;" horiz-adv-x="680" 
d="M509 568h-82l-81 86l-79 -86h-78l122 129h72z" />
    <glyph glyph-name="caron" unicode="&#x2c7;" horiz-adv-x="667" 
d="M189 697h82l81 -86l79 86h78l-122 -129h-72z" />
    <glyph glyph-name="breve" unicode="&#x2d8;" horiz-adv-x="537" 
d="M99 697h54c0 -53 23 -69 79 -69s80 16 80 69h52c0 -84 -44 -126 -133 -126c-88 0 -132 42 -132 126z" />
    <glyph glyph-name="dotaccent" unicode="&#x2d9;" horiz-adv-x="408" 
d="M110 657c32 0 41 -6 41 -39c0 -36 -9 -43 -41 -43c-33 0 -42 7 -42 43c0 33 9 39 42 39z" />
    <glyph glyph-name="ring" unicode="&#x2da;" horiz-adv-x="727" 
d="M360 738c73 0 110 -31 110 -94s-37 -94 -110 -94s-109 31 -109 94c0 64 30 94 109 94zM360 693c-43 0 -57 -16 -57 -51s19 -52 57 -52c39 0 59 17 59 52s-15 51 -59 51z" />
    <glyph glyph-name="ogonek" unicode="&#x2db;" horiz-adv-x="654" 
d="M438 12h34c-38 -23 -63 -42 -76 -58c-13 -17 -19 -36 -19 -58c0 -32 15 -45 68 -45c37 0 67 10 92 30l29 -49c-30 -23 -72 -35 -126 -35c-95 0 -127 28 -127 89c0 55 42 103 125 126z" />
    <glyph glyph-name="tilde" unicode="&#x2dc;" horiz-adv-x="728" 
d="M442 689l41 -33c-21 -61 -56 -91 -105 -91c-18 0 -42 11 -71 33s-52 33 -67 33c-24 0 -44 -20 -60 -61l-36 35c32 57 60 82 103 82c20 0 43 -11 70 -33s49 -33 64 -33c27 0 44 17 61 68z" />
    <glyph glyph-name="hungarumlaut" unicode="&#x2dd;" horiz-adv-x="631" 
d="M176 568l85 129h75l-107 -129h-53zM315 568l84 129h76l-106 -129h-54z" />
    <glyph glyph-name="gravecomb" unicode="&#x300;" horiz-adv-x="494" 
d="M185 697l119 -129h-69l-133 129h83z" />
    <glyph glyph-name="acutecomb" unicode="&#x301;" horiz-adv-x="494" 
d="M304 697l-133 -129h-69l119 129h83z" />
    <glyph glyph-name="tildecomb" unicode="&#x303;" horiz-adv-x="728" 
d="M442 689l41 -33c-21 -61 -56 -91 -105 -91c-18 0 -42 11 -71 33s-52 33 -67 33c-24 0 -44 -20 -60 -61l-36 35c32 57 60 82 103 82c20 0 43 -11 70 -33s49 -33 64 -33c27 0 44 17 61 68z" />
    <glyph glyph-name="hookabovecomb" unicode="&#x309;" horiz-adv-x="654" 
d="M370 568h-50c34 17 56 31 65 40s14 22 14 38c0 24 -12 33 -48 33c-32 0 -58 -7 -78 -22l-25 47c25 17 61 26 108 26c80 0 108 -20 108 -67c0 -41 -23 -68 -94 -95z" />
    <glyph glyph-name="uni031B" unicode="&#x31b;" horiz-adv-x="215" 
d="M107 505h74l-1 -67c0 -18 -5 -38 -15 -61c-9 -22 -21 -38 -35 -47h-33c28 25 42 58 42 98h-32v77z" />
    <glyph glyph-name="dotbelowcomb" unicode="&#x323;" horiz-adv-x="264" 
d="M179 -113c0 -39 -10 -48 -47 -48s-47 9 -47 48c0 37 10 45 47 45s47 -8 47 -45z" />
    <glyph glyph-name="tonos" unicode="&#x384;" horiz-adv-x="391" 
d="M183 560l-15 162h80l-26 -162h-39z" />
    <glyph glyph-name="dieresistonos" unicode="&#x385;" horiz-adv-x="469" 
d="M210 560l-8 162h73l-26 -162h-39zM110 657c32 0 41 -6 41 -39c0 -36 -9 -43 -41 -43c-33 0 -42 7 -42 43c0 33 9 39 42 39zM359 657c32 0 41 -6 41 -39c0 -36 -9 -43 -41 -43c-33 0 -42 7 -42 43c0 33 9 39 42 39z" />
    <glyph glyph-name="Alphatonos" unicode="&#x386;" horiz-adv-x="668" 
d="M661 0h-81c-37 93 -65 164 -84 215h-340c-27 -77 -51 -148 -72 -215h-71c85 248 173 480 263 697h123c93 -278 181 -510 262 -697zM349 641h-29c-61 -150 -108 -272 -142 -366h296c-43 119 -85 241 -125 366zM93 560l-15 162h80l-26 -162h-39z" />
    <glyph glyph-name="anoteleia" unicode="&#x387;" horiz-adv-x="264" 
d="M131 354c45 0 57 -9 57 -53c0 -48 -12 -58 -57 -58c-43 0 -55 10 -55 58c0 44 12 53 55 53z" />
    <glyph glyph-name="Epsilontonos" unicode="&#x388;" horiz-adv-x="610" 
d="M101 0v697h477v-60h-405v-234h287v-60h-287v-283h405v-60h-477zM-27 560l-15 162h80l-26 -162h-39z" />
    <glyph glyph-name="Etatonos" unicode="&#x389;" horiz-adv-x="714" 
d="M543 341h-370v-341h-72v697h72v-291h370v291h71v-697h-71v341zM-27 560l-15 162h80l-26 -162h-39z" />
    <glyph glyph-name="Iotatonos" unicode="&#x38a;" horiz-adv-x="273" 
d="M101 0v697h72v-697h-72zM-29 560l-15 162h80l-26 -162h-39z" />
    <glyph glyph-name="Omicrontonos" unicode="&#x38c;" horiz-adv-x="759" 
d="M379 -14c-75 0 -135 10 -180 31c-88 41 -136 146 -136 335c0 93 12 167 35 220c47 107 130 142 281 142c75 0 135 -10 180 -31c89 -41 137 -144 137 -331c0 -95 -12 -169 -35 -223c-47 -108 -130 -143 -282 -143zM141 350c5 -246 56 -297 238 -301c93 0 147 14 187 59
c40 47 54 119 54 242c0 129 -14 203 -55 247c-40 45 -91 56 -186 56s-145 -11 -185 -56c-40 -44 -53 -118 -53 -247zM-25 560l-15 162h80l-26 -162h-39z" />
    <glyph glyph-name="Upsilontonos" unicode="&#x38e;" horiz-adv-x="607" 
d="M-65 560l-15 162h80l-4 -25h90c77 -95 151 -196 223 -305c76 96 149 198 220 305h83c-97 -139 -188 -259 -272 -362v-335h-73v335c-79 115 -170 236 -271 361l-22 -136h-39z" />
    <glyph glyph-name="Omegatonos" unicode="&#x38f;" horiz-adv-x="776" 
d="M562 60h184v-60h-284v60c99 32 149 142 149 330c0 100 -17 169 -51 206c-33 38 -91 57 -172 57s-138 -19 -172 -57c-33 -37 -50 -106 -50 -206c0 -188 49 -298 148 -330v-60h-284v60h184c-81 53 -122 164 -122 332c0 120 24 204 71 251s122 71 225 71s178 -24 225 -71
c48 -47 72 -131 72 -251c0 -167 -41 -278 -123 -332zM3 560l-15 162h80l-26 -162h-39z" />
    <glyph glyph-name="iotadieresistonos" unicode="&#x390;" horiz-adv-x="233" 
d="M89 560l-8 162h73l-26 -162h-39zM-11 657c32 0 41 -6 41 -39c0 -36 -9 -43 -41 -43c-33 0 -42 7 -42 43c0 33 9 39 42 39zM238 657c32 0 41 -6 41 -39c0 -36 -9 -43 -41 -43c-33 0 -42 7 -42 43c0 33 9 39 42 39zM76 505h65v-375c0 -60 13 -77 72 -77l-9 -67
c-93 0 -128 44 -128 140v379z" />
    <glyph glyph-name="Alpha" unicode="&#x391;" horiz-adv-x="668" 
d="M661 0h-81c-37 93 -65 164 -84 215h-340c-27 -77 -51 -148 -72 -215h-71c85 248 173 480 263 697h123c93 -278 181 -510 262 -697zM349 641h-29c-61 -150 -108 -272 -142 -366h296c-43 119 -85 241 -125 366z" />
    <glyph glyph-name="Beta" unicode="&#x392;" horiz-adv-x="689" 
d="M173 60h273c65 0 98 46 98 138c0 89 -33 146 -102 146h-269v-284zM173 403h263c61 0 92 40 92 120c0 76 -23 114 -92 114h-263v-234zM464 375c61 -3 102 -19 124 -50s33 -73 33 -128c0 -129 -61 -197 -174 -197h-346v697h335c139 0 166 -78 166 -165
c0 -49 -9 -86 -27 -111c-17 -25 -54 -41 -111 -46z" />
    <glyph glyph-name="Gamma" unicode="&#x393;" horiz-adv-x="533" 
d="M173 637v-637h-72v697h432v-60h-360z" />
    <glyph glyph-name="increment" unicode="&#x394;" horiz-adv-x="639" 
d="M627 0h-620c84 253 172 486 263 697h95c84 -266 171 -498 262 -697zM314 642c-77 -179 -149 -373 -216 -582h422c-79 195 -148 389 -206 582z" />
    <glyph glyph-name="increment" unicode="&#x2206;" horiz-adv-x="639" 
d="M627 0h-620c84 253 172 486 263 697h95c84 -266 171 -498 262 -697zM314 642c-77 -179 -149 -373 -216 -582h422c-79 195 -148 389 -206 582z" />
    <glyph glyph-name="Epsilon" unicode="&#x395;" horiz-adv-x="610" 
d="M101 0v697h477v-60h-405v-234h287v-60h-287v-283h405v-60h-477z" />
    <glyph glyph-name="Zeta" unicode="&#x396;" horiz-adv-x="609" 
d="M566 0h-545v29c171 212 324 415 459 608h-432v60h536v-26c-145 -213 -297 -417 -458 -611h440v-60z" />
    <glyph glyph-name="Eta" unicode="&#x397;" horiz-adv-x="714" 
d="M543 341h-370v-341h-72v697h72v-291h370v291h71v-697h-71v341z" />
    <glyph glyph-name="Theta" unicode="&#x398;" horiz-adv-x="759" 
d="M379 -14c-75 0 -135 10 -180 31c-88 41 -136 146 -136 335c0 93 12 167 35 220c47 107 130 142 281 142c75 0 135 -10 180 -31c89 -41 137 -144 137 -331c0 -95 -12 -169 -35 -223c-47 -108 -130 -143 -282 -143zM141 350c5 -246 56 -297 238 -301c93 0 147 14 187 59
c40 47 54 119 54 242c0 129 -14 203 -55 247c-40 45 -91 56 -186 56s-145 -11 -185 -56c-40 -44 -53 -118 -53 -247zM505 342h-251v62h251v-62z" />
    <glyph glyph-name="Iota" unicode="&#x399;" horiz-adv-x="273" 
d="M101 0v697h72v-697h-72z" />
    <glyph glyph-name="Kappa" unicode="&#x39a;" horiz-adv-x="617" 
d="M101 697h72v-697h-72v697zM624 0h-97c-77 107 -149 192 -214 257s-111 102 -139 111c30 17 75 56 136 115s126 131 193 214h95c-70 -82 -134 -152 -192 -209s-100 -94 -126 -111c27 -15 72 -56 136 -123s133 -151 208 -254z" />
    <glyph glyph-name="Lambda" unicode="&#x39b;" horiz-adv-x="639" 
d="M313 642c-82 -193 -160 -407 -235 -642h-72c84 253 172 486 263 697h95c84 -266 171 -498 262 -697h-82c-90 215 -167 429 -231 642z" />
    <glyph glyph-name="Mu" unicode="&#x39c;" horiz-adv-x="869" 
d="M437 174c61 159 138 334 231 523h101v-697h-72v617l-238 -541h-53l-235 541v-617h-70v697h108c87 -183 163 -357 228 -523z" />
    <glyph glyph-name="Nu" unicode="&#x39d;" horiz-adv-x="730" 
d="M173 624v-624h-72v697h98c115 -170 234 -367 357 -590v590h73v-697h-86c-113 209 -236 417 -370 624z" />
    <glyph glyph-name="Xi" unicode="&#x39e;" horiz-adv-x="605" 
d="M40 0v60h525v-60h-525zM565 697v-60h-525v60h525zM473 342h-341v62h341v-62z" />
    <glyph glyph-name="Omicron" unicode="&#x39f;" horiz-adv-x="759" 
d="M379 -14c-75 0 -135 10 -180 31c-88 41 -136 146 -136 335c0 93 12 167 35 220c47 107 130 142 281 142c75 0 135 -10 180 -31c89 -41 137 -144 137 -331c0 -95 -12 -169 -35 -223c-47 -108 -130 -143 -282 -143zM141 350c5 -246 56 -297 238 -301c93 0 147 14 187 59
c40 47 54 119 54 242c0 129 -14 203 -55 247c-40 45 -91 56 -186 56s-145 -11 -185 -56c-40 -44 -53 -118 -53 -247z" />
    <glyph glyph-name="Pi" unicode="&#x3a0;" horiz-adv-x="714" 
d="M543 637h-370v-637h-72v697h513v-697h-71v637z" />
    <glyph glyph-name="Rho" unicode="&#x3a1;" horiz-adv-x="650" 
d="M173 637v-317h238c79 0 119 59 119 152c0 104 -39 165 -114 165h-243zM173 256v-256h-72v697h311c132 0 198 -75 198 -226c0 -61 -16 -113 -47 -154s-79 -61 -146 -61h-244z" />
    <glyph glyph-name="Sigma" unicode="&#x3a3;" horiz-adv-x="609" 
d="M566 0h-545v26c90 103 173 209 248 317c-73 93 -156 204 -248 333v21h545v-60h-428c71 -104 142 -200 215 -288l-52 -72l-57 -79c-13 -18 -30 -40 -51 -67c-20 -27 -39 -50 -56 -71h429v-60z" />
    <glyph glyph-name="Tau" unicode="&#x3a4;" horiz-adv-x="568" 
d="M562 637h-241v-637h-73v637h-242v60h556v-60z" />
    <glyph glyph-name="Upsilon" unicode="&#x3a5;" horiz-adv-x="607" 
d="M340 335v-335h-73v335c-79 117 -170 237 -272 362h91c77 -95 151 -196 223 -305c76 96 149 198 220 305h83c-97 -139 -188 -259 -272 -362z" />
    <glyph glyph-name="Phi" unicode="&#x3a6;" horiz-adv-x="741" 
d="M324 596v101h72v-101c110 -3 186 -24 227 -63c42 -39 63 -100 63 -183s-21 -145 -63 -184c-41 -39 -117 -60 -227 -63v-103h-72v103c-107 4 -182 25 -223 64s-61 100 -61 183s20 143 61 182s115 60 223 64zM616 349c0 46 -5 81 -15 105c-20 48 -80 78 -205 81v-371
c62 2 109 10 141 24c33 15 54 34 64 58s15 58 15 103zM110 349c0 -44 5 -78 14 -102c20 -48 79 -79 200 -83v371c-92 -4 -146 -17 -177 -50c-29 -32 -37 -68 -37 -136z" />
    <glyph glyph-name="Chi" unicode="&#x3a7;" horiz-adv-x="648" 
d="M330 412l211 285h84l-252 -340l262 -357h-87l-219 299l-232 -299h-84l274 353l-266 344h87z" />
    <glyph glyph-name="Psi" unicode="&#x3a8;" horiz-adv-x="708" 
d="M316 311v386h72v-386c95 4 150 19 181 73c10 17 18 40 24 71c12 61 15 127 15 242h70c0 -148 -11 -241 -36 -310c-42 -104 -115 -131 -254 -137v-250h-72v250c-93 3 -150 20 -197 57c-68 64 -86 174 -89 390h72c0 -57 1 -103 3 -140c4 -73 17 -139 34 -172
c31 -53 84 -70 177 -74z" />
    <glyph glyph-name="Omega" unicode="&#x3a9;" horiz-adv-x="776" 
d="M562 60h184v-60h-284v60c99 32 149 142 149 330c0 100 -17 169 -51 206c-33 38 -91 57 -172 57s-138 -19 -172 -57c-33 -37 -50 -106 -50 -206c0 -188 49 -298 148 -330v-60h-284v60h184c-81 53 -122 164 -122 332c0 120 24 204 71 251s122 71 225 71s178 -24 225 -71
c48 -47 72 -131 72 -251c0 -167 -41 -278 -123 -332z" />
    <glyph glyph-name="Omega" unicode="&#x2126;" horiz-adv-x="776" 
d="M562 60h184v-60h-284v60c99 32 149 142 149 330c0 100 -17 169 -51 206c-33 38 -91 57 -172 57s-138 -19 -172 -57c-33 -37 -50 -106 -50 -206c0 -188 49 -298 148 -330v-60h-284v60h184c-81 53 -122 164 -122 332c0 120 24 204 71 251s122 71 225 71s178 -24 225 -71
c48 -47 72 -131 72 -251c0 -167 -41 -278 -123 -332z" />
    <glyph glyph-name="Iotadieresis" unicode="&#x3aa;" horiz-adv-x="273" 
d="M101 0v697h72v-697h-72zM45 847c32 0 41 -6 41 -39c0 -36 -9 -43 -41 -43c-33 0 -42 7 -42 43c0 33 9 39 42 39zM234 847c32 0 41 -6 41 -39c0 -36 -9 -43 -41 -43c-33 0 -42 7 -42 43c0 33 9 39 42 39z" />
    <glyph glyph-name="Upsilondieresis" unicode="&#x3ab;" horiz-adv-x="607" 
d="M340 335v-335h-73v335c-79 117 -170 237 -272 362h91c77 -95 151 -196 223 -305c76 96 149 198 220 305h83c-97 -139 -188 -259 -272 -362zM215 847c32 0 41 -6 41 -39c0 -36 -9 -43 -41 -43c-33 0 -42 7 -42 43c0 33 9 39 42 39zM404 847c32 0 41 -6 41 -39
c0 -36 -9 -43 -41 -43c-33 0 -42 7 -42 43c0 33 9 39 42 39z" />
    <glyph glyph-name="alphatonos" unicode="&#x3ac;" horiz-adv-x="680" 
d="M565 505h77c-18 -68 -57 -166 -117 -295c24 -109 54 -156 114 -156l-8 -68c-80 0 -122 46 -151 147c-31 -58 -60 -97 -89 -117c-28 -20 -66 -30 -114 -30c-72 0 -126 20 -161 60s-53 110 -53 209c0 98 18 166 53 205s89 59 161 59s123 -17 153 -50c31 -33 55 -88 73 -167
c25 63 46 130 62 203zM277 47c40 0 72 11 97 32s54 65 85 132c-20 94 -36 153 -48 178c-17 37 -45 59 -83 66c-15 3 -32 4 -51 4c-101 0 -138 -35 -142 -206c0 -79 11 -134 33 -163s58 -43 109 -43zM303 560l-15 162h80l-26 -162h-39z" />
    <glyph glyph-name="epsilontonos" unicode="&#x3ad;" horiz-adv-x="473" 
d="M281 519c63 0 118 -7 163 -20l-21 -60c-36 13 -84 20 -145 20c-113 0 -150 -21 -150 -77c0 -60 41 -79 145 -79h75v-57h-75c-111 0 -154 -27 -154 -98c0 -39 11 -65 34 -80s66 -22 129 -22c60 0 109 7 146 20l15 -59c-43 -14 -98 -21 -165 -21c-159 0 -228 36 -228 147
c0 87 43 133 128 138c-85 8 -117 46 -117 113c0 85 71 135 220 135zM253 560l-15 162h80l-26 -162h-39z" />
    <glyph glyph-name="etatonos" unicode="&#x3ae;" horiz-adv-x="592" 
d="M173 439c53 53 112 80 177 80c56 0 90 -10 121 -43c32 -32 46 -95 46 -191v-477h-65v464c0 74 -8 123 -25 148c-16 25 -47 38 -92 38c-57 0 -109 -29 -156 -87v-371h-65v386c0 55 -13 71 -74 71l15 62c40 0 68 -6 84 -17s27 -32 34 -63zM303 560l-15 162h80l-26 -162h-39
z" />
    <glyph glyph-name="iotatonos" unicode="&#x3af;" horiz-adv-x="233" 
d="M76 505h65v-375c0 -60 13 -77 72 -77l-9 -67c-93 0 -128 44 -128 140v379zM89 560l-15 162h80l-26 -162h-39z" />
    <glyph glyph-name="upsilondieresistonos" unicode="&#x3b0;" horiz-adv-x="571" 
d="M40 457l15 62c85 0 124 -20 124 -80v-206c0 -77 8 -127 25 -150s55 -35 112 -35c104 2 132 29 136 185v272h65v-287c0 -87 -17 -147 -50 -181s-85 -51 -154 -51c-75 0 -127 16 -156 49s-43 94 -43 185v176c0 27 -4 43 -13 50s-29 11 -61 11zM300 560l-8 162h73l-26 -162
h-39zM200 657c32 0 41 -6 41 -39c0 -36 -9 -43 -41 -43c-33 0 -42 7 -42 43c0 33 9 39 42 39zM449 657c32 0 41 -6 41 -39c0 -36 -9 -43 -41 -43c-33 0 -42 7 -42 43c0 33 9 39 42 39z" />
    <glyph glyph-name="alpha" unicode="&#x3b1;" horiz-adv-x="680" 
d="M565 505h77c-18 -68 -57 -166 -117 -295c24 -109 54 -156 114 -156l-8 -68c-80 0 -122 46 -151 147c-31 -58 -60 -97 -89 -117c-28 -20 -66 -30 -114 -30c-72 0 -126 20 -161 60s-53 110 -53 209c0 98 18 166 53 205s89 59 161 59s123 -17 153 -50c31 -33 55 -88 73 -167
c25 63 46 130 62 203zM277 47c40 0 72 11 97 32s54 65 85 132c-20 94 -36 153 -48 178c-17 37 -45 59 -83 66c-15 3 -32 4 -51 4c-101 0 -138 -35 -142 -206c0 -79 11 -134 33 -163s58 -43 109 -43z" />
    <glyph glyph-name="beta" unicode="&#x3b2;" horiz-adv-x="599" 
d="M302 -14c-61 0 -115 9 -160 27v-205h-66v729c0 116 83 177 216 177c148 0 215 -48 215 -164c0 -93 -41 -144 -123 -153c131 -7 155 -101 155 -197c0 -152 -74 -214 -237 -214zM142 537v-462c51 -19 105 -29 160 -29c123 0 160 45 160 156c0 115 -41 164 -172 164h-42v59
h42c57 0 95 8 116 25s32 49 32 95c0 80 -35 108 -146 108c-104 0 -150 -39 -150 -116z" />
    <glyph glyph-name="gamma" unicode="&#x3b3;" horiz-adv-x="489" 
d="M204 -41c-71 251 -134 433 -189 546h73c53 -119 105 -268 156 -447c71 171 124 320 159 447h71c-39 -128 -108 -309 -207 -544c7 -47 7 -98 2 -153h-86c-1 30 6 80 21 151z" />
    <glyph glyph-name="delta" unicode="&#x3b4;" horiz-adv-x="582" 
d="M203 468c-70 19 -105 58 -105 116c0 92 76 130 223 130c59 0 116 -9 173 -27l-19 -63c-52 19 -110 29 -173 29c-96 0 -129 -20 -129 -65c0 -21 9 -37 26 -47s54 -22 111 -37c92 -24 146 -55 174 -104c15 -25 24 -50 28 -76c5 -25 7 -59 7 -100c0 -156 -79 -238 -231 -238
c-157 0 -225 76 -225 235c0 125 35 203 140 247zM448 221c0 64 -6 103 -30 143c-24 41 -72 67 -148 83c-54 -23 -90 -51 -109 -83c-18 -32 -27 -80 -27 -143c0 -121 50 -172 154 -172s160 40 160 172z" />
    <glyph glyph-name="epsilon" unicode="&#x3b5;" horiz-adv-x="473" 
d="M281 519c63 0 118 -7 163 -20l-21 -60c-36 13 -84 20 -145 20c-113 0 -150 -21 -150 -77c0 -60 41 -79 145 -79h75v-57h-75c-111 0 -154 -27 -154 -98c0 -39 11 -65 34 -80s66 -22 129 -22c60 0 109 7 146 20l15 -59c-43 -14 -98 -21 -165 -21c-159 0 -228 36 -228 147
c0 87 43 133 128 138c-85 8 -117 46 -117 113c0 85 71 135 220 135z" />
    <glyph glyph-name="zeta" unicode="&#x3b6;" horiz-adv-x="468" 
d="M374 637h-329v60h402v-65c-97 -89 -167 -159 -212 -208s-75 -89 -90 -121c-15 -31 -22 -67 -22 -107c0 -47 10 -79 30 -97c20 -17 61 -29 124 -34c99 -8 134 -32 134 -100c0 -39 -23 -92 -69 -157h-58c39 62 58 108 58 137c0 22 -9 38 -28 47c-18 9 -53 15 -106 19
c-107 8 -154 56 -154 173c0 59 13 104 36 149c12 23 32 50 60 81s58 63 89 94s76 74 135 129z" />
    <glyph glyph-name="eta" unicode="&#x3b7;" horiz-adv-x="592" 
d="M173 439c53 53 112 80 177 80c56 0 90 -10 121 -43c32 -32 46 -95 46 -191v-477h-65v464c0 74 -8 123 -25 148c-16 25 -47 38 -92 38c-57 0 -109 -29 -156 -87v-371h-65v386c0 55 -13 71 -74 71l15 62c40 0 68 -6 84 -17s27 -32 34 -63z" />
    <glyph glyph-name="theta" unicode="&#x3b8;" horiz-adv-x="622" 
d="M311 -14c-169 0 -243 86 -247 372c4 283 76 356 247 356c59 0 105 -10 139 -30c69 -39 108 -141 108 -326c0 -139 -20 -235 -59 -290s-101 -82 -188 -82zM310 48c63 0 108 21 134 62c27 42 40 119 41 232h-348c1 -112 14 -189 40 -231c27 -42 71 -63 133 -63zM310 656
c-121 -2 -161 -36 -172 -252h346c-2 71 -10 124 -23 161c-25 73 -66 91 -151 91z" />
    <glyph glyph-name="iota" unicode="&#x3b9;" horiz-adv-x="233" 
d="M76 505h65v-375c0 -60 13 -77 72 -77l-9 -67c-93 0 -128 44 -128 140v379z" />
    <glyph glyph-name="kappa" unicode="&#x3ba;" horiz-adv-x="478" 
d="M76 505h65v-260c65 53 145 139 238 260h83c-61 -75 -131 -152 -210 -231c33 -31 111 -122 234 -274h-84l-56 67l-49 61c-9 12 -21 26 -35 42c-27 32 -42 48 -55 60l-66 -60v-170h-65v505z" />
    <glyph glyph-name="lambda" unicode="&#x3bb;" horiz-adv-x="489" 
d="M88 0h-73c41 125 108 302 201 529c-17 51 -32 84 -45 97s-36 20 -71 20l8 68c51 0 88 -11 112 -33c25 -22 47 -67 66 -134c61 -205 124 -388 188 -547h-71c-61 154 -112 303 -154 446c-69 -154 -122 -303 -161 -446z" />
    <glyph glyph-name="nu" unicode="&#x3bd;" horiz-adv-x="489" 
d="M243 62c74 179 127 326 160 443h71c-41 -136 -104 -304 -188 -505h-92c-63 213 -122 378 -179 497l73 20c49 -115 101 -267 155 -455z" />
    <glyph glyph-name="xi" unicode="&#x3be;" horiz-adv-x="477" 
d="M126 163c0 -35 10 -60 29 -73s60 -21 122 -25c99 -7 143 -32 143 -91c0 -45 -23 -101 -69 -166h-58c41 65 58 103 58 148c0 21 -8 34 -24 40c-15 6 -52 11 -111 14c-112 5 -162 49 -162 136c0 96 71 151 216 199c-123 0 -178 29 -178 100c0 37 18 68 54 95
c37 27 105 60 205 97h-310v60h416v-65c-119 -46 -197 -81 -236 -104c-38 -23 -57 -47 -57 -73c2 -49 18 -57 214 -60v-58c-93 -29 -158 -57 -196 -84c-37 -27 -56 -57 -56 -90z" />
    <glyph glyph-name="omicron" unicode="&#x3bf;" 
d="M63 255c0 100 18 169 53 207c36 38 95 57 176 57s140 -19 176 -57s54 -107 54 -207c0 -101 -18 -171 -54 -210s-95 -59 -176 -59s-140 20 -176 59c-35 39 -53 109 -53 210zM292 459c-61 0 -102 -13 -124 -40s-33 -82 -33 -166c0 -81 11 -135 33 -164
c23 -29 64 -43 124 -43c61 0 102 14 124 43c23 29 34 83 34 164c0 84 -11 139 -33 166s-64 40 -125 40z" />
    <glyph glyph-name="pi" unicode="&#x3c0;" horiz-adv-x="618" 
d="M138 0v445h-128v60h598v-60h-123v-307c0 -63 20 -85 56 -98l-28 -57c-60 19 -93 59 -93 155v307h-217v-445h-65z" />
    <glyph glyph-name="rho" unicode="&#x3c1;" horiz-adv-x="572" 
d="M280 -14c-57 0 -104 14 -139 42v-220h-65v454c0 99 17 166 50 202c34 37 86 55 157 55c81 0 138 -19 173 -57s53 -107 53 -207c0 -101 -18 -171 -54 -210c-35 -39 -94 -59 -175 -59zM280 457c-53 0 -90 -13 -110 -39c-19 -26 -29 -81 -29 -164v-134c0 -45 60 -72 139 -72
c60 0 101 14 123 42c23 28 34 82 34 163c0 83 -11 138 -33 164c-21 27 -63 40 -124 40z" />
    <glyph glyph-name="sigma1" unicode="&#x3c2;" horiz-adv-x="466" 
d="M63 255c0 99 20 167 60 206s101 58 184 58c53 0 101 -8 144 -25l-21 -61c-34 16 -75 24 -123 24c-118 0 -172 -32 -172 -204c0 -67 9 -112 28 -135s56 -40 111 -51c97 -20 133 -46 133 -102c0 -39 -23 -92 -69 -157h-58c39 62 58 108 58 137c0 18 -7 31 -20 40
s-44 17 -94 26c-55 9 -95 32 -122 67c-26 36 -39 95 -39 177z" />
    <glyph glyph-name="sigma" unicode="&#x3c3;" horiz-adv-x="610" 
d="M63 255c0 100 18 169 53 207c36 38 95 57 176 57c14 0 49 -2 105 -7c57 -5 124 -7 203 -7v-60h-129c34 -45 51 -108 51 -190c0 -101 -18 -171 -54 -210s-95 -59 -176 -59s-140 20 -176 59c-35 39 -53 109 -53 210zM292 459c-61 0 -102 -13 -124 -40s-33 -82 -33 -166
c0 -81 11 -135 33 -164c23 -29 64 -43 124 -43c61 0 102 14 124 43c23 29 34 83 34 164c0 84 -11 139 -33 166s-64 40 -125 40z" />
    <glyph glyph-name="tau" unicode="&#x3c4;" horiz-adv-x="481" 
d="M197 129v316h-187v60h456v-60h-204v-316c0 -31 5 -52 16 -63c11 -10 31 -18 60 -24l-18 -57c-82 9 -123 57 -123 144z" />
    <glyph glyph-name="upsilon" unicode="&#x3c5;" horiz-adv-x="592" 
d="M40 457l15 62c85 0 124 -20 124 -80v-206c0 -77 8 -127 25 -150s55 -35 112 -35c104 2 132 29 136 185v272h65v-287c0 -87 -17 -147 -50 -181s-85 -51 -154 -51c-75 0 -127 16 -156 49s-43 94 -43 185v176c0 27 -4 43 -13 50s-29 11 -61 11z" />
    <glyph glyph-name="phi" unicode="&#x3c6;" horiz-adv-x="787" 
d="M361 697h65v-179c108 -3 185 -23 230 -62c45 -38 68 -105 68 -201c0 -97 -23 -166 -68 -205s-122 -60 -230 -63v-179h-65v179c-109 3 -186 24 -231 63s-67 108 -67 205c0 96 22 163 67 201c45 39 122 59 231 62v179zM135 253c0 -77 16 -130 47 -159
c31 -28 91 -43 179 -46v408c-89 -1 -149 -16 -180 -43s-46 -80 -46 -160zM652 253c0 80 -16 133 -47 160s-90 41 -179 43v-408c87 3 147 18 178 46c32 29 48 82 48 159z" />
    <glyph glyph-name="chi" unicode="&#x3c7;" horiz-adv-x="522" 
d="M264 89l-158 -281h-80c81 126 151 242 209 349c-45 99 -78 168 -99 206c-21 39 -38 64 -51 76s-31 18 -53 18l15 62c40 0 73 -18 100 -53s69 -115 126 -238c52 97 96 189 131 277h79c-43 -89 -104 -203 -181 -343c66 -150 108 -238 127 -265c15 -23 33 -36 54 -37
c4 -1 9 -1 14 -1l-15 -62c-40 0 -73 18 -99 53c-25 35 -65 115 -119 239z" />
    <glyph glyph-name="psi" unicode="&#x3c8;" horiz-adv-x="787" 
d="M724 291c0 -114 -21 -192 -63 -235s-120 -66 -235 -69v-179h-65v179c-113 4 -191 28 -234 71s-64 121 -64 233c0 95 10 168 30 221l67 -15c-19 -47 -29 -114 -29 -203c0 -104 9 -159 46 -196s87 -46 184 -50v649h65v-649c66 2 114 9 145 22s53 36 66 69s19 85 19 155
c0 89 -10 156 -29 203l67 15c20 -53 30 -126 30 -221z" />
    <glyph glyph-name="omega" unicode="&#x3c9;" horiz-adv-x="811" 
d="M375 369h65v-163c0 -109 31 -152 111 -152c89 0 126 41 129 240c0 89 -10 156 -29 203l67 15c20 -53 30 -126 30 -221c0 -113 -15 -192 -45 -237s-78 -68 -145 -68c-96 0 -146 42 -151 126c-5 -84 -56 -126 -154 -126c-67 0 -115 23 -145 68s-45 124 -45 237
c0 95 10 168 30 221l67 -15c-19 -47 -29 -114 -29 -203c3 -199 39 -240 129 -240c80 0 115 44 115 152v163z" />
    <glyph glyph-name="iotadieresis" unicode="&#x3ca;" horiz-adv-x="233" 
d="M23 657c32 0 41 -6 41 -39c0 -36 -9 -43 -41 -43c-33 0 -42 7 -42 43c0 33 9 39 42 39zM212 657c32 0 41 -6 41 -39c0 -36 -9 -43 -41 -43c-33 0 -42 7 -42 43c0 33 9 39 42 39zM76 505h65v-375c0 -60 13 -77 72 -77l-9 -67c-93 0 -128 44 -128 140v379z" />
    <glyph glyph-name="upsilondieresis" unicode="&#x3cb;" horiz-adv-x="592" 
d="M40 457l15 62c85 0 124 -20 124 -80v-206c0 -77 8 -127 25 -150s55 -35 112 -35c104 2 132 29 136 185v272h65v-287c0 -87 -17 -147 -50 -181s-85 -51 -154 -51c-75 0 -127 16 -156 49s-43 94 -43 185v176c0 27 -4 43 -13 50s-29 11 -61 11zM208 657c32 0 41 -6 41 -39
c0 -36 -9 -43 -41 -43c-33 0 -42 7 -42 43c0 33 9 39 42 39zM397 657c32 0 41 -6 41 -39c0 -36 -9 -43 -41 -43c-33 0 -42 7 -42 43c0 33 9 39 42 39z" />
    <glyph glyph-name="omicrontonos" unicode="&#x3cc;" 
d="M63 255c0 100 18 169 53 207c36 38 95 57 176 57s140 -19 176 -57s54 -107 54 -207c0 -101 -18 -171 -54 -210s-95 -59 -176 -59s-140 20 -176 59c-35 39 -53 109 -53 210zM292 459c-61 0 -102 -13 -124 -40s-33 -82 -33 -166c0 -81 11 -135 33 -164
c23 -29 64 -43 124 -43c61 0 102 14 124 43c23 29 34 83 34 164c0 84 -11 139 -33 166s-64 40 -125 40zM267 560l-15 162h80l-26 -162h-39z" />
    <glyph glyph-name="upsilontonos" unicode="&#x3cd;" horiz-adv-x="592" 
d="M40 457l15 62c85 0 124 -20 124 -80v-206c0 -77 8 -127 25 -150s55 -35 112 -35c104 2 132 29 136 185v272h65v-287c0 -87 -17 -147 -50 -181s-85 -51 -154 -51c-75 0 -127 16 -156 49s-43 94 -43 185v176c0 27 -4 43 -13 50s-29 11 -61 11zM281 560l-15 162h80l-26 -162
h-39z" />
    <glyph glyph-name="omegatonos" unicode="&#x3ce;" horiz-adv-x="811" 
d="M375 369h65v-163c0 -109 31 -152 111 -152c89 0 126 41 129 240c0 89 -10 156 -29 203l67 15c20 -53 30 -126 30 -221c0 -113 -15 -192 -45 -237s-78 -68 -145 -68c-96 0 -146 42 -151 126c-5 -84 -56 -126 -154 -126c-67 0 -115 23 -145 68s-45 124 -45 237
c0 95 10 168 30 221l67 -15c-19 -47 -29 -114 -29 -203c3 -199 39 -240 129 -240c80 0 115 44 115 152v163zM380 560l-15 162h80l-26 -162h-39z" />
    <glyph glyph-name="afii10023" unicode="&#x401;" horiz-adv-x="610" 
d="M240 847c32 0 41 -6 41 -39c0 -36 -9 -43 -41 -43c-33 0 -42 7 -42 43c0 33 9 39 42 39zM429 847c32 0 41 -6 41 -39c0 -36 -9 -43 -41 -43c-33 0 -42 7 -42 43c0 33 9 39 42 39zM101 0v697h477v-60h-405v-234h287v-60h-287v-283h405v-60h-477z" />
    <glyph glyph-name="afii10051" unicode="&#x402;" horiz-adv-x="727" 
d="M482 -170l-33 52c33 13 50 22 79 55c15 16 26 35 34 58c17 45 32 127 32 232c-5 203 -27 227 -133 230c-75 0 -137 -25 -140 -68v-389h-73v637h-242v60h556v-60h-241v-159c27 21 87 41 147 41c49 0 86 -7 113 -22c53 -29 83 -111 83 -270c0 -211 -61 -344 -182 -397z" />
    <glyph glyph-name="afii10052" unicode="&#x403;" horiz-adv-x="546" 
d="M173 637v-637h-72v697h432v-60h-360zM306 747h-67l134 129h92z" />
    <glyph glyph-name="afii10053" unicode="&#x404;" horiz-adv-x="609" 
d="M487 403v-59h-346c1 -81 9 -143 26 -186c35 -84 93 -106 216 -106c69 0 126 9 171 26l23 -64c-59 -19 -124 -28 -195 -28c-112 0 -193 27 -244 81c-50 54 -75 150 -75 288c0 141 24 233 79 286c56 55 127 73 240 73c69 0 134 -9 195 -27l-23 -65c-45 18 -102 27 -171 27
c-89 0 -135 -8 -178 -43c-41 -35 -59 -96 -63 -203h345z" />
    <glyph glyph-name="afii10054" unicode="&#x405;" horiz-adv-x="624" 
d="M343 714c67 0 131 -9 192 -27l-20 -65c-15 8 -40 14 -75 19c-34 5 -66 8 -96 8c-133 0 -203 -34 -203 -137c0 -73 45 -111 177 -120c168 -13 241 -74 241 -202c0 -136 -94 -204 -283 -204c-73 0 -139 9 -198 28l20 64c47 -17 106 -26 177 -26c135 0 208 36 208 137
c0 76 -47 126 -176 135c-172 12 -243 61 -243 186c0 136 93 204 279 204z" />
    <glyph glyph-name="afii10055" unicode="&#x406;" horiz-adv-x="273" 
d="M101 0v697h72v-697h-72z" />
    <glyph glyph-name="afii10056" unicode="&#x407;" horiz-adv-x="273" 
d="M42 847c32 0 41 -6 41 -39c0 -36 -9 -43 -41 -43c-33 0 -42 7 -42 43c0 33 9 39 42 39zM231 847c32 0 41 -6 41 -39c0 -36 -9 -43 -41 -43c-33 0 -42 7 -42 43c0 33 9 39 42 39zM101 0v697h72v-697h-72z" />
    <glyph glyph-name="afii10057" unicode="&#x408;" horiz-adv-x="440" 
d="M265 697h74v-505c0 -83 -21 -140 -60 -168c-37 -28 -77 -38 -130 -38c-45 0 -90 10 -136 30l24 67c33 -17 71 -26 112 -26c77 0 116 45 116 135v505z" />
    <glyph glyph-name="afii10058" unicode="&#x409;" horiz-adv-x="1022" 
d="M574 344v-284h233c65 0 98 46 98 138c0 89 -33 146 -102 146h-229zM213 697h361v-294h223c139 0 185 -73 185 -206c0 -129 -61 -197 -174 -197h-306v637h-219c-7 -179 -29 -331 -65 -454s-93 -197 -164 -197l-15 69c51 0 92 59 121 176c30 118 48 273 53 466z" />
    <glyph glyph-name="afii10059" unicode="&#x40a;" horiz-adv-x="1022" 
d="M503 403v294h71v-294h223c139 0 185 -73 185 -206c0 -129 -61 -197 -174 -197h-305v344h-330v-344h-72v697h72v-294h330zM574 344v-284h233c65 0 98 46 98 138c0 89 -33 146 -102 146h-229z" />
    <glyph glyph-name="afii10060" unicode="&#x40b;" horiz-adv-x="734" 
d="M468 519c70 0 119 -17 148 -50s43 -94 43 -184v-285h-65v272c0 75 -9 125 -28 149c-18 24 -53 36 -105 36c-75 0 -137 -25 -140 -68v-389h-73v637h-242v60h556v-60h-241v-159c27 21 87 41 147 41z" />
    <glyph glyph-name="afii10061" unicode="&#x40c;" horiz-adv-x="617" 
d="M611 0h-86c-63 144 -110 227 -167 275c-28 25 -56 41 -83 50s-61 15 -102 18v-343h-72v697h72v-339c36 27 85 71 146 133c62 63 123 131 184 206h95c-141 -165 -260 -281 -309 -314c30 -8 54 -17 72 -26c19 -9 41 -27 67 -52c53 -49 110 -146 183 -305zM337 747h-67
l134 129h92z" />
    <glyph glyph-name="afii10062" unicode="&#x40e;" horiz-adv-x="500" 
d="M239 168v2c-21 66 -56 153 -107 262c-50 109 -96 197 -137 265h82c89 -159 158 -309 208 -451c99 198 167 348 202 451h75c-45 -116 -100 -239 -165 -368c-64 -129 -125 -238 -183 -329l-87 -2c39 52 76 109 112 170zM163 871h54c0 -53 23 -69 79 -69s80 16 80 69h52
c0 -84 -44 -126 -133 -126c-88 0 -132 42 -132 126z" />
    <glyph glyph-name="afii10145" unicode="&#x40f;" horiz-adv-x="714" 
d="M103 697h72v-637h370v637h71v-697h-207l-21 -184h-53l-21 184h-211v697z" />
    <glyph glyph-name="afii10017" unicode="&#x410;" horiz-adv-x="668" 
d="M661 0h-81c-37 93 -65 164 -84 215h-340c-27 -77 -51 -148 -72 -215h-71c85 248 173 480 263 697h123c93 -278 181 -510 262 -697zM349 641h-29c-61 -150 -108 -272 -142 -366h296c-43 119 -85 241 -125 366z" />
    <glyph glyph-name="afii10018" unicode="&#x411;" horiz-adv-x="689" 
d="M173 60h273c65 0 98 46 98 138c0 89 -33 146 -102 146h-269v-284zM101 697h445v-60h-373v-234h263c139 0 185 -73 185 -206c0 -129 -61 -197 -174 -197h-346v697z" />
    <glyph glyph-name="afii10019" unicode="&#x412;" horiz-adv-x="689" 
d="M173 60h273c65 0 98 46 98 138c0 89 -33 146 -102 146h-269v-284zM173 403h263c61 0 92 40 92 120c0 76 -23 114 -92 114h-263v-234zM464 375c61 -3 102 -19 124 -50s33 -73 33 -128c0 -129 -61 -197 -174 -197h-346v697h335c139 0 166 -78 166 -165
c0 -49 -9 -86 -27 -111c-17 -25 -54 -41 -111 -46z" />
    <glyph glyph-name="afii10020" unicode="&#x413;" horiz-adv-x="533" 
d="M173 637v-637h-72v697h432v-60h-360z" />
    <glyph glyph-name="afii10021" unicode="&#x414;" horiz-adv-x="763" 
d="M187 60h377v577h-276c-13 -232 -47 -424 -101 -577zM635 697v-637h128l-20 -214h-61v154h-600v-154h-62l-20 214h103c68 160 108 372 119 637h413z" />
    <glyph glyph-name="afii10022" unicode="&#x415;" horiz-adv-x="610" 
d="M101 0v697h477v-60h-405v-234h287v-60h-287v-283h405v-60h-477z" />
    <glyph glyph-name="afii10024" unicode="&#x416;" horiz-adv-x="851" 
d="M84 0h-78c52 128 99 217 132 268c17 26 34 47 53 63s35 27 48 33c13 7 30 13 51 19c-44 33 -148 149 -273 314h86c52 -73 104 -139 157 -199s96 -104 129 -133v332h72v-332c33 28 76 72 129 132c53 61 106 127 158 200h86c-125 -165 -229 -281 -273 -314
c41 -12 61 -20 98 -52c19 -16 37 -37 54 -63c33 -51 80 -140 132 -268h-78c-36 94 -69 165 -100 214c-30 49 -60 82 -90 99c-30 18 -69 29 -116 32v-345h-72v345c-71 -5 -113 -20 -162 -71c-48 -49 -90 -131 -143 -274z" />
    <glyph glyph-name="afii10025" unicode="&#x417;" horiz-adv-x="636" 
d="M406 375c121 -5 162 -75 162 -183c0 -151 -90 -206 -283 -206c-71 0 -146 10 -223 29l17 58c57 -17 126 -26 206 -26c77 0 131 11 161 33s45 60 45 114c0 111 -49 150 -184 150h-100v59h100c127 0 168 36 168 132c0 44 -13 75 -39 92c-25 17 -76 26 -151 26
c-79 0 -145 -9 -198 -26l-18 60c84 18 156 27 216 27c189 0 264 -54 264 -170c0 -49 -10 -89 -29 -118s-57 -46 -114 -51z" />
    <glyph glyph-name="afii10026" unicode="&#x418;" horiz-adv-x="730" 
d="M101 697h72v-621c140 217 263 424 370 621h86v-697h-71v593c-123 -223 -243 -421 -359 -593h-98v697z" />
    <glyph glyph-name="afii10027" unicode="&#x419;" horiz-adv-x="730" 
d="M101 697h72v-621c140 217 263 424 370 621h86v-697h-71v593c-123 -223 -243 -421 -359 -593h-98v697zM237 871h54c0 -53 23 -69 79 -69s80 16 80 69h52c0 -84 -44 -126 -133 -126c-88 0 -132 42 -132 126z" />
    <glyph glyph-name="afii10028" unicode="&#x41a;" horiz-adv-x="617" 
d="M611 0h-86c-63 144 -110 227 -167 275c-28 25 -56 41 -83 50s-61 15 -102 18v-343h-72v697h72v-339c36 27 85 71 146 133c62 63 123 131 184 206h95c-141 -165 -260 -281 -309 -314c30 -8 54 -17 72 -26c19 -9 41 -27 67 -52c53 -49 110 -146 183 -305z" />
    <glyph glyph-name="afii10029" unicode="&#x41b;" horiz-adv-x="714" 
d="M543 0v637h-260c-7 -179 -29 -331 -65 -454s-93 -197 -164 -197l-15 69c51 0 92 59 121 176c30 118 48 273 53 466h401v-697h-71z" />
    <glyph glyph-name="afii10030" unicode="&#x41c;" horiz-adv-x="869" 
d="M437 174c61 159 138 334 231 523h101v-697h-72v617l-238 -541h-53l-235 541v-617h-70v697h108c87 -183 163 -357 228 -523z" />
    <glyph glyph-name="afii10031" unicode="&#x41d;" horiz-adv-x="714" 
d="M543 341h-370v-341h-72v697h72v-291h370v291h71v-697h-71v341z" />
    <glyph glyph-name="afii10032" unicode="&#x41e;" horiz-adv-x="759" 
d="M379 -14c-75 0 -135 10 -180 31c-88 41 -136 146 -136 335c0 93 12 167 35 220c47 107 130 142 281 142c75 0 135 -10 180 -31c89 -41 137 -144 137 -331c0 -95 -12 -169 -35 -223c-47 -108 -130 -143 -282 -143zM141 350c5 -246 56 -297 238 -301c93 0 147 14 187 59
c40 47 54 119 54 242c0 129 -14 203 -55 247c-40 45 -91 56 -186 56s-145 -11 -185 -56c-40 -44 -53 -118 -53 -247z" />
    <glyph glyph-name="afii10033" unicode="&#x41f;" horiz-adv-x="714" 
d="M543 637h-370v-637h-72v697h513v-697h-71v637z" />
    <glyph glyph-name="afii10034" unicode="&#x420;" horiz-adv-x="650" 
d="M173 637v-317h238c79 0 119 59 119 152c0 104 -39 165 -114 165h-243zM173 256v-256h-72v697h311c132 0 198 -75 198 -226c0 -61 -16 -113 -47 -154s-79 -61 -146 -61h-244z" />
    <glyph glyph-name="afii10035" unicode="&#x421;" horiz-adv-x="602" 
d="M63 355c0 141 24 233 79 286c56 55 127 73 240 73c69 0 134 -9 195 -27l-23 -65c-45 18 -102 27 -171 27c-95 0 -144 -10 -187 -51c-41 -41 -55 -115 -55 -243c0 -85 8 -149 25 -193c17 -43 41 -73 74 -88s80 -22 143 -22c69 0 126 9 171 26l23 -64
c-59 -19 -124 -28 -195 -28c-112 0 -193 27 -244 81c-50 54 -75 150 -75 288z" />
    <glyph glyph-name="afii10036" unicode="&#x422;" horiz-adv-x="568" 
d="M562 637h-241v-637h-73v637h-242v60h556v-60z" />
    <glyph glyph-name="afii10037" unicode="&#x423;" horiz-adv-x="557" 
d="M214 0h-85c41 55 78 112 111 170c-21 65 -56 152 -107 261c-50 109 -96 197 -138 266h82c89 -159 158 -309 208 -451c99 198 167 348 202 451h75c-45 -116 -100 -239 -165 -368c-64 -129 -125 -238 -183 -329z" />
    <glyph glyph-name="afii10038" unicode="&#x424;" horiz-adv-x="741" 
d="M324 596v101h72v-101c110 -3 186 -24 227 -63c42 -39 63 -100 63 -183s-21 -145 -63 -184c-41 -39 -117 -60 -227 -63v-103h-72v103c-107 4 -182 25 -223 64s-61 100 -61 183s20 143 61 182s115 60 223 64zM616 349c0 46 -5 81 -15 105c-20 48 -80 78 -205 81v-371
c62 2 109 10 141 24c33 15 54 34 64 58s15 58 15 103zM110 349c0 -44 5 -78 14 -102c20 -48 79 -79 200 -83v371c-92 -4 -146 -17 -177 -50c-29 -32 -37 -68 -37 -136z" />
    <glyph glyph-name="afii10039" unicode="&#x425;" horiz-adv-x="648" 
d="M330 412l211 285h84l-252 -340l262 -357h-87l-219 299l-232 -299h-84l274 353l-266 344h87z" />
    <glyph glyph-name="afii10040" unicode="&#x426;" horiz-adv-x="742" 
d="M101 697h72v-637h370v637h71v-637h128l-20 -214h-61v154h-560v697z" />
    <glyph glyph-name="afii10041" unicode="&#x427;" horiz-adv-x="601" 
d="M256 203c-88 0 -140 10 -188 42c-47 33 -68 95 -68 192v260h72v-247c0 -73 14 -122 41 -145c28 -23 76 -35 145 -35c47 0 87 6 120 19s50 30 50 52v356h72v-697h-72v244c-27 -21 -100 -41 -172 -41z" />
    <glyph glyph-name="afii10042" unicode="&#x428;" horiz-adv-x="905" 
d="M417 60v637h72v-637h244v637h71v-697h-703v697h72v-637h244z" />
    <glyph glyph-name="afii10043" unicode="&#x429;" horiz-adv-x="932" 
d="M417 60v637h72v-637h244v637h71v-637h128l-20 -214h-61v154h-750v697h72v-637h244z" />
    <glyph glyph-name="afii10044" unicode="&#x42a;" horiz-adv-x="679" 
d="M15 637v60h176v-294h263c139 0 185 -73 185 -206c0 -129 -61 -197 -174 -197h-346v637h-104zM191 344v-284h273c65 0 98 46 98 138c0 89 -33 146 -102 146h-269z" />
    <glyph glyph-name="afii10045" unicode="&#x42b;" horiz-adv-x="868" 
d="M173 344v-284h273c65 0 98 46 98 138c0 89 -33 146 -102 146h-269zM101 0v697h72v-294h263c139 0 185 -73 185 -206c0 -129 -61 -197 -174 -197h-346zM695 0v697h72v-697h-72z" />
    <glyph glyph-name="afii10046" unicode="&#x42c;" horiz-adv-x="661" 
d="M173 344v-284h273c65 0 98 46 98 138c0 89 -33 146 -102 146h-269zM101 0v697h72v-294h263c139 0 185 -73 185 -206c0 -129 -61 -197 -174 -197h-346z" />
    <glyph glyph-name="afii10047" unicode="&#x42d;" horiz-adv-x="609" 
d="M468 344h-346v59h345c-4 107 -21 168 -64 203c-41 35 -88 43 -177 43c-69 0 -126 -9 -171 -27l-23 65c61 18 126 27 195 27c113 0 184 -18 239 -73c56 -53 80 -145 80 -286c0 -138 -25 -234 -76 -288c-50 -54 -131 -81 -243 -81c-71 0 -136 9 -195 28l23 64
c45 -17 102 -26 171 -26c61 0 108 7 141 21c65 29 100 108 101 271z" />
    <glyph glyph-name="afii10048" unicode="&#x42e;" horiz-adv-x="922" 
d="M365 341h-192v-341h-72v697h72v-291h193c4 117 25 197 64 241c39 45 100 67 182 67c59 0 105 -10 139 -30c69 -39 108 -141 108 -326c0 -139 -20 -235 -59 -290s-101 -82 -188 -82c-85 0 -147 26 -186 78c-39 53 -60 145 -61 277zM611 656c-45 0 -79 -7 -102 -21
c-45 -28 -71 -108 -71 -277c3 -244 46 -308 173 -310c65 0 110 22 136 65c26 44 39 126 39 245c0 128 -10 202 -41 245c-29 43 -66 53 -134 53z" />
    <glyph glyph-name="afii10049" unicode="&#x42f;" horiz-adv-x="675" 
d="M263 697h311v-697h-72v302h-132c-51 0 -83 -10 -126 -51c-41 -40 -81 -122 -125 -251h-85c34 84 63 148 88 191c25 44 48 74 68 90c21 17 46 28 76 34c-143 0 -201 72 -201 180c0 135 66 202 198 202zM502 365v272h-239c-76 0 -118 -50 -118 -141c0 -81 43 -131 123 -131
h234z" />
    <glyph glyph-name="afii10065" unicode="&#x430;" horiz-adv-x="542" 
d="M466 323v-297c-59 -27 -127 -40 -204 -40c-74 0 -127 12 -158 37s-47 69 -47 133c0 66 17 110 51 133s84 34 149 34c45 0 93 -5 144 -16c0 61 -10 102 -30 121s-60 29 -119 29s-108 -8 -145 -24l-19 61c59 17 115 25 168 25c76 0 130 -14 162 -42s48 -79 48 -154zM401 68
v184c-35 9 -81 13 -136 13c-53 0 -89 -6 -108 -19c-18 -12 -27 -40 -27 -85c0 -49 9 -81 26 -95c18 -14 54 -21 109 -21c48 0 93 8 136 23z" />
    <glyph glyph-name="afii10066" unicode="&#x431;" horiz-adv-x="564" 
d="M470 718v-63c-38 -19 -97 -32 -178 -40c-60 -5 -100 -21 -119 -47c-19 -25 -33 -72 -42 -140c31 47 84 71 159 71c73 0 126 -19 160 -58s51 -106 51 -201s-18 -162 -54 -199s-94 -55 -175 -55c-72 0 -125 22 -159 67c-33 45 -50 120 -50 227c0 129 13 218 34 275
c38 90 96 112 195 122c77 7 136 21 178 41zM133 242c0 -129 46 -194 139 -194c61 0 102 13 124 38s33 77 33 156c0 75 -11 127 -32 154s-57 41 -109 41c-61 0 -103 -14 -124 -41s-31 -79 -31 -154z" />
    <glyph glyph-name="afii10067" unicode="&#x432;" horiz-adv-x="551" 
d="M141 60h200c57 0 78 25 78 85c0 65 -27 98 -81 98h-197v-183zM141 300h192c49 0 74 25 74 76c0 52 -17 69 -74 69h-192v-145zM376 273c77 -3 115 -46 115 -130c0 -95 -50 -143 -139 -143h-276v505h267c101 0 133 -47 133 -120c0 -69 -20 -105 -100 -112z" />
    <glyph glyph-name="afii10068" unicode="&#x433;" horiz-adv-x="400" 
d="M76 0v505h321v-60h-256v-445h-65z" />
    <glyph glyph-name="afii10069" unicode="&#x434;" horiz-adv-x="581" 
d="M25 -128l-17 188h83c47 149 74 297 81 445h307v-445h92l-17 -188h-49v128h-431v-128h-49zM414 60v385h-180c-11 -117 -36 -245 -75 -385h255z" />
    <glyph glyph-name="afii10070" unicode="&#x435;" horiz-adv-x="546" 
d="M290 519c74 0 127 -20 158 -59c32 -39 48 -110 48 -214h-361c1 -79 14 -132 39 -159c26 -27 70 -40 131 -40c48 0 96 9 145 27l15 -60c-61 -19 -116 -28 -166 -28c-81 0 -140 20 -179 60c-38 40 -57 110 -57 209c0 192 71 264 227 264zM290 458c-54 0 -92 -11 -115 -33
c-22 -21 -35 -61 -39 -120h286c-3 61 -13 102 -32 122c-19 21 -52 31 -100 31z" />
    <glyph glyph-name="afii10072" unicode="&#x436;" horiz-adv-x="677" 
d="M76 0h-76c59 111 103 181 139 217c19 18 33 30 43 36s23 13 40 20c-29 21 -98 98 -207 232h79c94 -115 165 -196 212 -241v241h65v-241c52 51 123 131 212 241h79c-109 -134 -178 -211 -207 -232c17 -7 30 -14 40 -20s24 -18 42 -36c37 -36 81 -106 140 -217h-76
c-45 89 -86 151 -122 185s-72 54 -108 61v-246h-65v246c-37 -7 -73 -27 -108 -61s-76 -96 -122 -185z" />
    <glyph glyph-name="afii10073" unicode="&#x437;" horiz-adv-x="500" 
d="M299 271c92 -4 138 -49 138 -134c0 -111 -73 -151 -232 -151c-67 0 -122 7 -165 21l19 59c37 -13 86 -20 146 -20c63 0 105 7 128 22s35 41 35 80c0 71 -43 98 -154 98h-75v57h75c103 0 141 19 141 79c0 56 -37 77 -150 77c-58 0 -105 -7 -141 -20l-18 60
c45 13 98 20 159 20c152 0 217 -40 217 -124c0 -71 -30 -116 -123 -124z" />
    <glyph glyph-name="afii10074" unicode="&#x438;" horiz-adv-x="555" 
d="M479 0h-65v397c-67 -116 -158 -248 -273 -397h-65v505h65v-411c84 110 175 247 273 411h65v-505z" />
    <glyph glyph-name="afii10075" unicode="&#x439;" horiz-adv-x="555" 
d="M479 0h-65v397c-67 -116 -158 -248 -273 -397h-65v505h65v-411c84 110 175 247 273 411h65v-505zM148 697h54c0 -53 23 -69 79 -69s80 16 80 69h52c0 -84 -44 -126 -133 -126c-88 0 -132 42 -132 126z" />
    <glyph glyph-name="afii10076" unicode="&#x43a;" horiz-adv-x="478" 
d="M478 0h-80c-51 91 -96 153 -136 186c-40 34 -80 54 -121 61v-247h-65v505h65v-243c49 41 128 122 237 243h84c-121 -134 -196 -211 -225 -230c17 -7 32 -13 43 -20s27 -19 46 -37c39 -36 87 -107 152 -218z" />
    <glyph glyph-name="afii10077" unicode="&#x43b;" horiz-adv-x="525" 
d="M384 0v445h-171c-4 -112 -18 -210 -45 -305c-27 -93 -76 -154 -139 -154l-8 68c35 0 65 43 89 128c24 86 38 194 41 323h298v-505h-65z" />
    <glyph glyph-name="afii10078" unicode="&#x43c;" horiz-adv-x="685" 
d="M346 130c43 116 96 241 158 375h105v-505h-65v447c-66 -142 -123 -279 -172 -411h-61c-67 171 -123 308 -170 411v-447h-65v505h109c66 -146 120 -271 161 -375z" />
    <glyph glyph-name="afii10079" unicode="&#x43d;" horiz-adv-x="555" 
d="M414 0v246h-273v-246h-65v505h65v-202h273v202h65v-505h-65z" />
    <glyph glyph-name="afii10080" unicode="&#x43e;" 
d="M63 255c0 100 18 169 53 207c36 38 95 57 176 57s140 -19 176 -57s54 -107 54 -207c0 -101 -18 -171 -54 -210s-95 -59 -176 -59s-140 20 -176 59c-35 39 -53 109 -53 210zM292 457c-61 0 -103 -13 -125 -40c-21 -26 -32 -81 -32 -164c0 -81 11 -135 33 -163
c23 -28 64 -42 124 -42c61 0 102 14 124 42c23 28 34 82 34 163c-5 174 -34 202 -158 204z" />
    <glyph glyph-name="afii10081" unicode="&#x43f;" horiz-adv-x="555" 
d="M414 0v445h-273v-445h-65v505h403v-505h-65z" />
    <glyph glyph-name="afii10082" unicode="&#x440;" horiz-adv-x="572" 
d="M280 -14c-57 0 -104 14 -139 42v-220h-65v671c27 12 59 22 98 29s74 11 106 11c81 0 140 -19 175 -57c36 -38 54 -107 54 -207c0 -101 -18 -171 -54 -210c-35 -39 -94 -59 -175 -59zM280 457c-53 0 -100 -7 -139 -21v-316c0 -45 60 -72 139 -72c60 0 101 14 123 42
c23 28 34 82 34 163c0 83 -11 138 -33 164c-21 27 -63 40 -124 40z" />
    <glyph glyph-name="afii10083" unicode="&#x441;" horiz-adv-x="466" 
d="M430 74l21 -60c-42 -19 -90 -28 -144 -28c-83 0 -144 20 -184 60s-60 110 -60 209s20 167 60 206s101 58 184 58c53 0 101 -8 144 -25l-21 -61c-34 16 -75 24 -123 24c-118 0 -172 -32 -172 -204c0 -79 13 -133 39 -162c27 -29 71 -43 133 -43c43 0 84 9 123 26z" />
    <glyph glyph-name="afii10084" unicode="&#x442;" horiz-adv-x="481" 
d="M471 445h-198v-445h-65v445h-198v60h461v-60z" />
    <glyph glyph-name="afii10085" unicode="&#x443;" horiz-adv-x="509" 
d="M211 -24c-66 233 -128 410 -186 529h73c53 -119 105 -268 156 -447c71 171 124 320 159 447h71c-42 -140 -105 -308 -188 -505c-27 -65 -58 -129 -91 -192h-76c23 43 51 99 82 168z" />
    <glyph glyph-name="afii10086" unicode="&#x444;" horiz-adv-x="787" 
d="M426 -13v-179h-65v179c-109 3 -186 24 -231 63s-67 108 -67 205c0 96 22 163 67 201c45 39 122 59 231 62v179h65v-179c108 -3 185 -23 230 -62c45 -38 68 -105 68 -201c0 -97 -23 -166 -68 -205s-122 -60 -230 -63zM135 253c0 -77 16 -130 47 -159
c31 -28 91 -43 179 -46v408c-89 -1 -149 -16 -180 -43s-46 -80 -46 -160zM652 253c0 80 -16 133 -47 160s-90 41 -179 43v-408c87 3 147 18 178 46c32 29 48 82 48 159z" />
    <glyph glyph-name="afii10087" unicode="&#x445;" horiz-adv-x="522" 
d="M489 0h-81c-42 67 -88 135 -137 203l-160 -203h-80c66 76 134 160 203 253c-61 83 -128 167 -203 252h90c64 -80 115 -146 152 -198c39 53 84 119 136 198h79c-56 -83 -115 -166 -177 -249c51 -69 110 -154 178 -256z" />
    <glyph glyph-name="afii10088" unicode="&#x446;" horiz-adv-x="581" 
d="M414 505h65v-445h92l-17 -188h-49v128h-429v505h65v-445h273v445z" />
    <glyph glyph-name="afii10089" unicode="&#x447;" horiz-adv-x="526" 
d="M238 166c-70 0 -119 16 -148 49s-43 95 -43 185v105h65v-92c0 -75 9 -125 27 -149c19 -24 54 -36 106 -36c76 0 140 27 140 71v206h65v-505h-65v207c-27 -21 -87 -41 -147 -41z" />
    <glyph glyph-name="afii10090" unicode="&#x448;" horiz-adv-x="787" 
d="M426 60h220v445h65v-505h-635v505h65v-445h220v445h65v-445z" />
    <glyph glyph-name="afii10091" unicode="&#x449;" horiz-adv-x="813" 
d="M786 -128h-49v128h-661v505h65v-445h220v445h65v-445h220v445h65v-445h92z" />
    <glyph glyph-name="afii10092" unicode="&#x44a;" horiz-adv-x="589" 
d="M0 445v60h189v-202h195c109 0 155 -46 155 -146c0 -109 -46 -157 -155 -157h-260v445h-124zM189 60h195c60 0 83 25 83 96c0 67 -24 90 -83 90h-195v-186z" />
    <glyph glyph-name="afii10093" unicode="&#x44b;" horiz-adv-x="701" 
d="M141 60h195c60 0 83 25 83 96c0 67 -24 90 -83 90h-195v-186zM141 505v-202h195c109 0 155 -46 155 -146c0 -109 -46 -157 -155 -157h-260v505h65zM560 505h65v-505h-65v505z" />
    <glyph glyph-name="afii10094" unicode="&#x44c;" horiz-adv-x="541" 
d="M141 60h195c60 0 83 25 83 96c0 67 -24 90 -83 90h-195v-186zM141 505v-202h195c109 0 155 -46 155 -146c0 -109 -46 -157 -155 -157h-260v505h65z" />
    <glyph glyph-name="afii10095" unicode="&#x44d;" horiz-adv-x="484" 
d="M33 14l21 60c39 -17 80 -26 123 -26c61 0 104 14 131 41c27 28 40 80 41 156h-234v60h232c-5 60 -20 100 -47 121c-26 21 -67 31 -123 31c-48 0 -89 -8 -123 -24l-21 61c43 17 91 25 144 25c83 0 144 -19 184 -58s60 -107 60 -206s-20 -169 -60 -209s-101 -60 -184 -60
c-54 0 -102 9 -144 28z" />
    <glyph glyph-name="afii10096" unicode="&#x44e;" horiz-adv-x="808" 
d="M525 -14c-75 0 -131 19 -166 57c-35 39 -52 106 -53 203h-165v-246h-65v505h65v-202h166c5 81 25 137 60 168c35 32 88 48 158 48c77 0 132 -19 167 -58c35 -38 53 -107 53 -206c0 -100 -18 -170 -53 -210c-35 -39 -90 -59 -167 -59zM376 253c0 -80 11 -135 33 -164
s61 -43 116 -43c56 0 95 14 117 43s33 84 33 164c0 83 -11 138 -33 165c-21 27 -60 41 -117 41s-96 -14 -117 -41s-32 -82 -32 -165z" />
    <glyph glyph-name="afii10097" unicode="&#x44f;" horiz-adv-x="550" 
d="M225 505h249v-505h-65v213h-94c-79 0 -122 -29 -205 -213h-74c29 61 55 108 76 141s39 55 53 66s30 18 49 21c-103 0 -147 53 -147 130c0 98 53 147 158 147zM229 269h180v176h-184c-63 0 -88 -22 -88 -86c0 -61 28 -90 92 -90z" />
    <glyph glyph-name="afii10071" unicode="&#x451;" horiz-adv-x="546" 
d="M290 519c74 0 127 -20 158 -59c32 -39 48 -110 48 -214h-361c1 -79 14 -132 39 -159c26 -27 70 -40 131 -40c48 0 96 9 145 27l15 -60c-61 -19 -116 -28 -166 -28c-81 0 -140 20 -179 60c-38 40 -57 110 -57 209c0 192 71 264 227 264zM290 458c-54 0 -92 -11 -115 -33
c-22 -21 -35 -61 -39 -120h286c-3 61 -13 102 -32 122c-19 21 -52 31 -100 31zM195 657c32 0 41 -6 41 -39c0 -36 -9 -43 -41 -43c-33 0 -42 7 -42 43c0 33 9 39 42 39zM384 657c32 0 41 -6 41 -39c0 -36 -9 -43 -41 -43c-33 0 -42 7 -42 43c0 33 9 39 42 39z" />
    <glyph glyph-name="afii10099" unicode="&#x452;" horiz-adv-x="547" 
d="M263 595h-122v-117c27 21 87 41 147 41c49 0 86 -7 113 -22c53 -29 83 -111 83 -270c0 -211 -61 -344 -182 -397l-33 52c33 13 50 22 79 55c15 16 26 35 34 58c17 45 32 127 32 232c-5 203 -27 227 -133 230c-75 0 -137 -25 -140 -68v-389h-65v595h-64v52h64v75h65v-75
h122v-52z" />
    <glyph glyph-name="afii10100" unicode="&#x453;" horiz-adv-x="400" 
d="M76 0v505h321v-59h-256v-446h-65zM382 697l-133 -129h-69l119 129h83z" />
    <glyph glyph-name="afii10101" unicode="&#x454;" horiz-adv-x="484" 
d="M430 74l21 -60c-42 -19 -90 -28 -144 -28c-83 0 -144 20 -184 60s-60 110 -60 209s20 167 60 206s101 58 184 58c53 0 101 -8 144 -25l-21 -61c-34 16 -75 24 -123 24c-56 0 -97 -10 -124 -31c-26 -21 -41 -61 -46 -121h232v-60h-234c1 -76 14 -128 41 -156
c27 -27 70 -41 131 -41c43 0 84 9 123 26z" />
    <glyph glyph-name="afii10102" unicode="&#x455;" horiz-adv-x="504" 
d="M426 493l-22 -62c-48 19 -96 28 -144 28c-93 0 -129 -16 -129 -91c0 -51 35 -73 126 -78c132 -9 187 -52 187 -145c0 -59 -15 -100 -46 -124c-31 -23 -80 -35 -149 -35s-129 9 -182 27l20 61c17 -8 42 -15 74 -21c33 -5 62 -8 88 -8c89 0 124 18 124 94
c0 56 -29 80 -124 88c-129 9 -189 44 -189 135c0 115 64 157 200 157c49 0 104 -9 166 -26z" />
    <glyph glyph-name="afii10103" unicode="&#x456;" horiz-adv-x="217" 
d="M76 505h65v-505h-65v505zM110 697c32 0 41 -6 41 -39c0 -36 -9 -43 -41 -43c-33 0 -42 7 -42 43c0 33 9 39 42 39z" />
    <glyph glyph-name="afii10104" unicode="&#x457;" horiz-adv-x="217" 
d="M14 657c32 0 41 -6 41 -39c0 -36 -9 -43 -41 -43c-33 0 -42 7 -42 43c0 33 9 39 42 39zM203 657c32 0 41 -6 41 -39c0 -36 -9 -43 -41 -43c-33 0 -42 7 -42 43c0 33 9 39 42 39zM76 505h65v-505h-65v505z" />
    <glyph glyph-name="afii10105" unicode="&#x458;" horiz-adv-x="217" 
d="M-24 -203v60c36 0 62 7 77 22s23 46 23 93v533h65v-533c0 -69 -14 -115 -43 -139c-28 -24 -69 -36 -122 -36zM110 697c32 0 41 -6 41 -39c0 -36 -9 -43 -41 -43c-33 0 -42 7 -42 43c0 33 9 39 42 39z" />
    <glyph glyph-name="afii10106" unicode="&#x459;" horiz-adv-x="854" 
d="M449 60h195c60 0 83 25 83 96c0 67 -24 90 -83 90h-195v-186zM151 505h298v-202h195c109 0 155 -46 155 -146c0 -109 -46 -157 -155 -157h-260v445h-171c-4 -112 -18 -210 -45 -305c-27 -93 -76 -154 -139 -154l-8 68c35 0 65 43 89 128c24 86 38 194 41 323z" />
    <glyph glyph-name="afii10107" unicode="&#x45a;" horiz-adv-x="884" 
d="M479 505v-202h195c109 0 155 -46 155 -146c0 -109 -46 -157 -155 -157h-260v246h-273v-246h-65v505h65v-202h273v202h65zM479 60h195c60 0 83 25 83 96c0 67 -24 90 -83 90h-195v-186z" />
    <glyph glyph-name="afii10108" unicode="&#x45b;" horiz-adv-x="554" 
d="M141 386v-386h-65v595h-64v52h64v75h65v-75h122v-52h-122v-117c27 21 87 41 147 41c70 0 119 -17 148 -50s43 -94 43 -184v-285h-65v272c0 75 -9 125 -28 149c-18 24 -53 36 -105 36c-76 0 -140 -27 -140 -71z" />
    <glyph glyph-name="afii10109" unicode="&#x45c;" horiz-adv-x="478" 
d="M478 0h-80c-51 91 -96 153 -136 186c-40 34 -80 54 -121 61v-247h-65v505h65v-243c49 41 128 122 237 243h84c-121 -134 -196 -211 -225 -230c17 -7 32 -13 43 -20s27 -19 46 -37c39 -36 87 -107 152 -218zM406 697l-133 -129h-69l119 129h83z" />
    <glyph glyph-name="afii10110" unicode="&#x45e;" horiz-adv-x="509" 
d="M211 -24c-66 233 -128 410 -186 529h73c53 -119 105 -268 156 -447c71 171 124 320 159 447h71c-42 -140 -105 -308 -188 -505c-27 -65 -58 -129 -91 -192h-76c23 43 51 99 82 168zM125 702h54c0 -53 23 -69 79 -69s80 16 80 69h52c0 -84 -44 -126 -133 -126
c-88 0 -132 42 -132 126z" />
    <glyph glyph-name="afii10193" unicode="&#x45f;" horiz-adv-x="555" 
d="M479 505v-505h-150l-21 -164h-53l-21 164h-158v505h65v-445h273v445h65z" />
    <glyph glyph-name="afii10050" unicode="&#x490;" horiz-adv-x="533" 
d="M101 0v697h356l23 164h53v-224h-360v-637h-72z" />
    <glyph glyph-name="afii10098" unicode="&#x491;" horiz-adv-x="400" 
d="M397 649v-204h-256v-445h-65v505h250l18 144h53z" />
    <glyph glyph-name="Wgrave" unicode="&#x1e80;" horiz-adv-x="905" 
d="M648 74c71 217 131 425 179 623h71c-63 -247 -131 -479 -206 -697h-93c-29 157 -75 355 -137 594c-24 -130 -77 -328 -158 -594h-91c-83 313 -152 545 -207 697h81c63 -191 122 -399 176 -623c77 259 131 466 162 623h74c3 -9 12 -46 29 -110c17 -63 28 -109 35 -138
l30 -121c27 -105 43 -183 55 -254zM403 876l146 -129h-79l-160 129h93z" />
    <glyph glyph-name="wgrave" unicode="&#x1e81;" horiz-adv-x="813" 
d="M714 505h73c-47 -177 -104 -345 -172 -505h-92c-36 174 -73 317 -112 430c-36 -145 -79 -289 -130 -430h-92c-53 197 -108 366 -164 505h77c49 -129 95 -276 136 -443c22 61 47 138 74 230c27 93 46 164 57 213h83c38 -110 78 -258 120 -443c65 171 112 318 142 443z
M388 697l119 -129h-69l-133 129h83z" />
    <glyph glyph-name="Wacute" unicode="&#x1e82;" horiz-adv-x="905" 
d="M648 74c71 217 131 425 179 623h71c-63 -247 -131 -479 -206 -697h-93c-29 157 -75 355 -137 594c-24 -130 -77 -328 -158 -594h-91c-83 313 -152 545 -207 697h81c63 -191 122 -399 176 -623c77 259 131 466 162 623h74c3 -9 12 -46 29 -110c17 -63 28 -109 35 -138
l30 -121c27 -105 43 -183 55 -254zM431 747h-67l134 129h92z" />
    <glyph glyph-name="wacute" unicode="&#x1e83;" horiz-adv-x="813" 
d="M714 505h73c-47 -177 -104 -345 -172 -505h-92c-36 174 -73 317 -112 430c-36 -145 -79 -289 -130 -430h-92c-53 197 -108 366 -164 505h77c49 -129 95 -276 136 -443c22 61 47 138 74 230c27 93 46 164 57 213h83c38 -110 78 -258 120 -443c65 171 112 318 142 443z
M527 697l-133 -129h-69l119 129h83z" />
    <glyph glyph-name="Wdieresis" unicode="&#x1e84;" horiz-adv-x="905" 
d="M648 74c71 217 131 425 179 623h71c-63 -247 -131 -479 -206 -697h-93c-29 157 -75 355 -137 594c-24 -130 -77 -328 -158 -594h-91c-83 313 -152 545 -207 697h81c63 -191 122 -399 176 -623c77 259 131 466 162 623h74c3 -9 12 -46 29 -110c17 -63 28 -109 35 -138
l30 -121c27 -105 43 -183 55 -254zM369 847c32 0 41 -6 41 -39c0 -36 -9 -43 -41 -43c-33 0 -42 7 -42 43c0 33 9 39 42 39zM558 847c32 0 41 -6 41 -39c0 -36 -9 -43 -41 -43c-33 0 -42 7 -42 43c0 33 9 39 42 39z" />
    <glyph glyph-name="wdieresis" unicode="&#x1e85;" horiz-adv-x="813" 
d="M714 505h73c-47 -177 -104 -345 -172 -505h-92c-36 174 -73 317 -112 430c-36 -145 -79 -289 -130 -430h-92c-53 197 -108 366 -164 505h77c49 -129 95 -276 136 -443c22 61 47 138 74 230c27 93 46 164 57 213h83c38 -110 78 -258 120 -443c65 171 112 318 142 443z
M312 657c32 0 41 -6 41 -39c0 -36 -9 -43 -41 -43c-33 0 -42 7 -42 43c0 33 9 39 42 39zM501 657c32 0 41 -6 41 -39c0 -36 -9 -43 -41 -43c-33 0 -42 7 -42 43c0 33 9 39 42 39z" />
    <glyph glyph-name="uni1EA0" unicode="&#x1ea0;" horiz-adv-x="668" 
d="M661 0h-81c-37 93 -65 164 -84 215h-340c-27 -77 -51 -148 -72 -215h-71c85 248 173 480 263 697h123c93 -278 181 -510 262 -697zM349 641h-29c-61 -150 -108 -272 -142 -366h296c-43 119 -85 241 -125 366zM381 -113c0 -39 -10 -48 -47 -48s-47 9 -47 48
c0 37 10 45 47 45s47 -8 47 -45z" />
    <glyph glyph-name="uni1EA1" unicode="&#x1ea1;" horiz-adv-x="542" 
d="M466 323v-297c-59 -27 -127 -40 -204 -40c-74 0 -127 12 -158 37s-47 69 -47 133c0 66 17 110 51 133s84 34 149 34c45 0 93 -5 144 -16c0 61 -10 102 -30 121s-60 29 -119 29s-108 -8 -145 -24l-19 61c59 17 115 25 168 25c76 0 130 -14 162 -42s48 -79 48 -154zM401 68
v184c-35 9 -81 13 -136 13c-53 0 -89 -6 -108 -19c-18 -12 -27 -40 -27 -85c0 -49 9 -81 26 -95c18 -14 54 -21 109 -21c48 0 93 8 136 23zM318 -113c0 -39 -10 -48 -47 -48s-47 9 -47 48c0 37 10 45 47 45s47 -8 47 -45z" />
    <glyph glyph-name="uni1EA2" unicode="&#x1ea2;" horiz-adv-x="668" 
d="M661 0h-81c-37 93 -65 164 -84 215h-340c-27 -77 -51 -148 -72 -215h-71c85 248 173 480 263 697h123c93 -278 181 -510 262 -697zM349 641h-29c-61 -150 -108 -272 -142 -366h296c-43 119 -85 241 -125 366zM349 728h-50c34 17 56 31 65 40s14 22 14 38
c0 24 -12 33 -48 33c-32 0 -58 -7 -78 -22l-25 47c25 17 61 26 108 26c80 0 108 -20 108 -67c0 -41 -23 -68 -94 -95z" />
    <glyph glyph-name="uni1EA3" unicode="&#x1ea3;" horiz-adv-x="542" 
d="M466 323v-297c-59 -27 -127 -40 -204 -40c-74 0 -127 12 -158 37s-47 69 -47 133c0 66 17 110 51 133s84 34 149 34c45 0 93 -5 144 -16c0 61 -10 102 -30 121s-60 29 -119 29s-108 -8 -145 -24l-19 61c59 17 115 25 168 25c76 0 130 -14 162 -42s48 -79 48 -154zM401 68
v184c-35 9 -81 13 -136 13c-53 0 -89 -6 -108 -19c-18 -12 -27 -40 -27 -85c0 -49 9 -81 26 -95c18 -14 54 -21 109 -21c48 0 93 8 136 23zM285 568h-50c34 17 56 31 65 40s14 22 14 38c0 24 -12 33 -48 33c-32 0 -58 -7 -78 -22l-25 47c25 17 61 26 108 26
c80 0 108 -20 108 -67c0 -41 -23 -68 -94 -95z" />
    <glyph glyph-name="uni1EA4" unicode="&#x1ea4;" horiz-adv-x="668" 
d="M661 0h-81c-37 93 -65 164 -84 215h-340c-27 -77 -51 -148 -72 -215h-71c85 248 173 480 263 697h123c93 -278 181 -510 262 -697zM349 641h-29c-61 -150 -108 -272 -142 -366h296c-43 119 -85 241 -125 366zM413 727l-81 56l-78 -56h-73l117 80h70l121 -80h-76zM284 820
h-66l133 92h92z" />
    <glyph glyph-name="uni1EA5" unicode="&#x1ea5;" horiz-adv-x="542" 
d="M466 323v-297c-59 -27 -127 -40 -204 -40c-74 0 -127 12 -158 37s-47 69 -47 133c0 66 17 110 51 133s84 34 149 34c45 0 93 -5 144 -16c0 61 -10 102 -30 121s-60 29 -119 29s-108 -8 -145 -24l-19 61c59 17 115 25 168 25c76 0 130 -14 162 -42s48 -79 48 -154zM401 68
v184c-35 9 -81 13 -136 13c-53 0 -89 -6 -108 -19c-18 -12 -27 -40 -27 -85c0 -49 9 -81 26 -95c18 -14 54 -21 109 -21c48 0 93 8 136 23zM436 568h-82l-81 86l-79 -86h-78l122 129h72zM251 747h-67l134 129h92z" />
    <glyph glyph-name="uni1EA6" unicode="&#x1ea6;" horiz-adv-x="668" 
d="M661 0h-81c-37 93 -65 164 -84 215h-340c-27 -77 -51 -148 -72 -215h-71c85 248 173 480 263 697h123c93 -278 181 -510 262 -697zM349 641h-29c-61 -150 -108 -272 -142 -366h296c-43 119 -85 241 -125 366zM413 727l-81 56l-78 -56h-73l117 80h70l121 -80h-76zM300 912
l142 -93h-77l-155 93h90z" />
    <glyph glyph-name="uni1EA7" unicode="&#x1ea7;" horiz-adv-x="542" 
d="M466 323v-297c-59 -27 -127 -40 -204 -40c-74 0 -127 12 -158 37s-47 69 -47 133c0 66 17 110 51 133s84 34 149 34c45 0 93 -5 144 -16c0 61 -10 102 -30 121s-60 29 -119 29s-108 -8 -145 -24l-19 61c59 17 115 25 168 25c76 0 130 -14 162 -42s48 -79 48 -154zM401 68
v184c-35 9 -81 13 -136 13c-53 0 -89 -6 -108 -19c-18 -12 -27 -40 -27 -85c0 -49 9 -81 26 -95c18 -14 54 -21 109 -21c48 0 93 8 136 23zM436 568h-82l-81 86l-79 -86h-78l122 129h72zM243 876l146 -129h-79l-160 129h93z" />
    <glyph glyph-name="uni1EA8" unicode="&#x1ea8;" horiz-adv-x="668" 
d="M661 0h-81c-37 93 -65 164 -84 215h-340c-27 -77 -51 -148 -72 -215h-71c85 248 173 480 263 697h123c93 -278 181 -510 262 -697zM349 641h-29c-61 -150 -108 -272 -142 -366h296c-43 119 -85 241 -125 366zM349 830h-51c34 14 56 25 65 32c10 7 15 17 15 30
c0 20 -12 27 -48 27c-33 0 -60 -6 -79 -18l-25 38c25 13 61 20 109 20c80 0 108 -16 108 -53c0 -33 -23 -53 -94 -76zM413 727l-81 56l-78 -56h-73l117 80h70l121 -80h-76z" />
    <glyph glyph-name="uni1EA9" unicode="&#x1ea9;" horiz-adv-x="542" 
d="M466 323v-297c-59 -27 -127 -40 -204 -40c-74 0 -127 12 -158 37s-47 69 -47 133c0 66 17 110 51 133s84 34 149 34c45 0 93 -5 144 -16c0 61 -10 102 -30 121s-60 29 -119 29s-108 -8 -145 -24l-19 61c59 17 115 25 168 25c76 0 130 -14 162 -42s48 -79 48 -154zM401 68
v184c-35 9 -81 13 -136 13c-53 0 -89 -6 -108 -19c-18 -12 -27 -40 -27 -85c0 -49 9 -81 26 -95c18 -14 54 -21 109 -21c48 0 93 8 136 23zM436 568h-82l-81 86l-79 -86h-78l122 129h72zM286 714h-50c34 17 56 31 65 40s14 22 14 38c0 24 -12 33 -48 33
c-32 0 -58 -7 -78 -22l-25 47c25 17 61 26 108 26c80 0 108 -20 108 -67c0 -41 -23 -68 -94 -95z" />
    <glyph glyph-name="uni1EAA" unicode="&#x1eaa;" horiz-adv-x="668" 
d="M661 0h-81c-37 93 -65 164 -84 215h-340c-27 -77 -51 -148 -72 -215h-71c85 248 173 480 263 697h123c93 -278 181 -510 262 -697zM349 641h-29c-61 -150 -108 -272 -142 -366h296c-43 119 -85 241 -125 366zM467 919l39 -26c-21 -49 -57 -74 -108 -74
c-17 0 -42 9 -73 27s-53 27 -68 27c-23 0 -42 -16 -57 -48l-35 28c31 44 57 64 98 64c19 0 44 -9 75 -26s53 -26 68 -26c26 0 46 18 61 54zM413 727l-81 56l-78 -56h-73l117 80h70l121 -80h-76z" />
    <glyph glyph-name="uni1EAB" unicode="&#x1eab;" horiz-adv-x="542" 
d="M466 323v-297c-59 -27 -127 -40 -204 -40c-74 0 -127 12 -158 37s-47 69 -47 133c0 66 17 110 51 133s84 34 149 34c45 0 93 -5 144 -16c0 61 -10 102 -30 121s-60 29 -119 29s-108 -8 -145 -24l-19 61c59 17 115 25 168 25c76 0 130 -14 162 -42s48 -79 48 -154zM401 68
v184c-35 9 -81 13 -136 13c-53 0 -89 -6 -108 -19c-18 -12 -27 -40 -27 -85c0 -49 9 -81 26 -95c18 -14 54 -21 109 -21c48 0 93 8 136 23zM436 568h-82l-81 86l-79 -86h-78l122 129h72zM421 867l40 -32c-21 -61 -58 -91 -110 -91c-17 0 -42 11 -74 33c-32 23 -55 34 -70 34
c-23 0 -43 -20 -58 -59l-35 34c31 55 57 79 100 79c19 0 45 -11 76 -32s54 -32 69 -32c27 0 47 22 62 66z" />
    <glyph glyph-name="uni1EAC" unicode="&#x1eac;" horiz-adv-x="668" 
d="M415 747l-84 90l-81 -90h-76l122 129h72l126 -129h-79zM661 0h-81c-37 93 -65 164 -84 215h-340c-27 -77 -51 -148 -72 -215h-71c85 248 173 480 263 697h123c93 -278 181 -510 262 -697zM349 641h-29c-61 -150 -108 -272 -142 -366h296c-43 119 -85 241 -125 366z
M381 -113c0 -39 -10 -48 -47 -48s-47 9 -47 48c0 37 10 45 47 45s47 -8 47 -45z" />
    <glyph glyph-name="uni1EAD" unicode="&#x1ead;" horiz-adv-x="542" 
d="M466 323v-297c-59 -27 -127 -40 -204 -40c-74 0 -127 12 -158 37s-47 69 -47 133c0 66 17 110 51 133s84 34 149 34c45 0 93 -5 144 -16c0 61 -10 102 -30 121s-60 29 -119 29s-108 -8 -145 -24l-19 61c59 17 115 25 168 25c76 0 130 -14 162 -42s48 -79 48 -154zM401 68
v184c-35 9 -81 13 -136 13c-53 0 -89 -6 -108 -19c-18 -12 -27 -40 -27 -85c0 -49 9 -81 26 -95c18 -14 54 -21 109 -21c48 0 93 8 136 23zM318 -113c0 -39 -10 -48 -47 -48s-47 9 -47 48c0 37 10 45 47 45s47 -8 47 -45zM431 568h-82l-81 86l-79 -86h-78l122 129h72z" />
    <glyph glyph-name="uni1EAE" unicode="&#x1eae;" horiz-adv-x="668" 
d="M661 0h-81c-37 93 -65 164 -84 215h-340c-27 -77 -51 -148 -72 -215h-71c85 248 173 480 263 697h123c93 -278 181 -510 262 -697zM349 641h-29c-61 -150 -108 -272 -142 -366h296c-43 119 -85 241 -125 366zM196 811h57c0 -36 24 -46 83 -46s85 11 85 46h54
c0 -55 -47 -83 -140 -83s-139 28 -139 83zM325 820h-66l133 92h92z" />
    <glyph glyph-name="uni1EAF" unicode="&#x1eaf;" horiz-adv-x="542" 
d="M466 323v-297c-59 -27 -127 -40 -204 -40c-74 0 -127 12 -158 37s-47 69 -47 133c0 66 17 110 51 133s84 34 149 34c45 0 93 -5 144 -16c0 61 -10 102 -30 121s-60 29 -119 29s-108 -8 -145 -24l-19 61c59 17 115 25 168 25c76 0 130 -14 162 -42s48 -79 48 -154zM401 68
v184c-35 9 -81 13 -136 13c-53 0 -89 -6 -108 -19c-18 -12 -27 -40 -27 -85c0 -49 9 -81 26 -95c18 -14 54 -21 109 -21c48 0 93 8 136 23zM135 697h54c0 -53 23 -69 79 -69s80 16 80 69h52c0 -84 -44 -126 -133 -126c-88 0 -132 42 -132 126zM241 747h-67l134 129h92z" />
    <glyph glyph-name="uni1EB0" unicode="&#x1eb0;" horiz-adv-x="668" 
d="M661 0h-81c-37 93 -65 164 -84 215h-340c-27 -77 -51 -148 -72 -215h-71c85 248 173 480 263 697h123c93 -278 181 -510 262 -697zM349 641h-29c-61 -150 -108 -272 -142 -366h296c-43 119 -85 241 -125 366zM196 811h57c0 -36 24 -46 83 -46s85 11 85 46h54
c0 -55 -47 -83 -140 -83s-139 28 -139 83zM280 912l142 -93h-77l-155 93h90z" />
    <glyph glyph-name="uni1EB1" unicode="&#x1eb1;" horiz-adv-x="542" 
d="M466 323v-297c-59 -27 -127 -40 -204 -40c-74 0 -127 12 -158 37s-47 69 -47 133c0 66 17 110 51 133s84 34 149 34c45 0 93 -5 144 -16c0 61 -10 102 -30 121s-60 29 -119 29s-108 -8 -145 -24l-19 61c59 17 115 25 168 25c76 0 130 -14 162 -42s48 -79 48 -154zM401 68
v184c-35 9 -81 13 -136 13c-53 0 -89 -6 -108 -19c-18 -12 -27 -40 -27 -85c0 -49 9 -81 26 -95c18 -14 54 -21 109 -21c48 0 93 8 136 23zM135 697h54c0 -53 23 -69 79 -69s80 16 80 69h52c0 -84 -44 -126 -133 -126c-88 0 -132 42 -132 126zM243 876l146 -129h-79
l-160 129h93z" />
    <glyph glyph-name="uni1EB2" unicode="&#x1eb2;" horiz-adv-x="668" 
d="M661 0h-81c-37 93 -65 164 -84 215h-340c-27 -77 -51 -148 -72 -215h-71c85 248 173 480 263 697h123c93 -278 181 -510 262 -697zM349 641h-29c-61 -150 -108 -272 -142 -366h296c-43 119 -85 241 -125 366zM349 830h-51c34 14 56 25 65 32c10 7 15 17 15 30
c0 20 -12 27 -48 27c-33 0 -60 -6 -79 -18l-25 38c25 13 61 20 109 20c80 0 108 -16 108 -53c0 -33 -23 -53 -94 -76zM196 811h57c0 -36 24 -46 83 -46s85 11 85 46h54c0 -55 -47 -83 -140 -83s-139 28 -139 83z" />
    <glyph glyph-name="uni1EB3" unicode="&#x1eb3;" horiz-adv-x="542" 
d="M466 323v-297c-59 -27 -127 -40 -204 -40c-74 0 -127 12 -158 37s-47 69 -47 133c0 66 17 110 51 133s84 34 149 34c45 0 93 -5 144 -16c0 61 -10 102 -30 121s-60 29 -119 29s-108 -8 -145 -24l-19 61c59 17 115 25 168 25c76 0 130 -14 162 -42s48 -79 48 -154zM401 68
v184c-35 9 -81 13 -136 13c-53 0 -89 -6 -108 -19c-18 -12 -27 -40 -27 -85c0 -49 9 -81 26 -95c18 -14 54 -21 109 -21c48 0 93 8 136 23zM135 697h54c0 -53 23 -69 79 -69s80 16 80 69h52c0 -84 -44 -126 -133 -126c-88 0 -132 42 -132 126zM279 708h-50
c34 17 56 31 65 40s14 22 14 38c0 24 -12 33 -48 33c-32 0 -58 -7 -78 -22l-25 47c25 17 61 26 108 26c80 0 108 -20 108 -67c0 -41 -23 -68 -94 -95z" />
    <glyph glyph-name="uni1EB4" unicode="&#x1eb4;" horiz-adv-x="668" 
d="M661 0h-81c-37 93 -65 164 -84 215h-340c-27 -77 -51 -148 -72 -215h-71c85 248 173 480 263 697h123c93 -278 181 -510 262 -697zM349 641h-29c-61 -150 -108 -272 -142 -366h296c-43 119 -85 241 -125 366zM467 919l39 -26c-21 -49 -57 -74 -108 -74
c-17 0 -42 9 -73 27s-53 27 -68 27c-23 0 -42 -16 -57 -48l-35 28c31 44 57 64 98 64c19 0 44 -9 75 -26s53 -26 68 -26c26 0 46 18 61 54zM196 811h57c0 -36 24 -46 83 -46s85 11 85 46h54c0 -55 -47 -83 -140 -83s-139 28 -139 83z" />
    <glyph glyph-name="uni1EB5" unicode="&#x1eb5;" horiz-adv-x="542" 
d="M466 323v-297c-59 -27 -127 -40 -204 -40c-74 0 -127 12 -158 37s-47 69 -47 133c0 66 17 110 51 133s84 34 149 34c45 0 93 -5 144 -16c0 61 -10 102 -30 121s-60 29 -119 29s-108 -8 -145 -24l-19 61c59 17 115 25 168 25c76 0 130 -14 162 -42s48 -79 48 -154zM401 68
v184c-35 9 -81 13 -136 13c-53 0 -89 -6 -108 -19c-18 -12 -27 -40 -27 -85c0 -49 9 -81 26 -95c18 -14 54 -21 109 -21c48 0 93 8 136 23zM135 697h54c0 -53 23 -69 79 -69s80 16 80 69h52c0 -84 -44 -126 -133 -126c-88 0 -132 42 -132 126zM411 867l40 -32
c-21 -61 -58 -91 -110 -91c-17 0 -42 11 -74 33c-32 23 -55 34 -70 34c-23 0 -43 -20 -58 -59l-35 34c31 55 57 79 100 79c19 0 45 -11 76 -32s54 -32 69 -32c27 0 47 22 62 66z" />
    <glyph glyph-name="uni1EB6" unicode="&#x1eb6;" horiz-adv-x="668" 
d="M661 0h-81c-37 93 -65 164 -84 215h-340c-27 -77 -51 -148 -72 -215h-71c85 248 173 480 263 697h123c93 -278 181 -510 262 -697zM349 641h-29c-61 -150 -108 -272 -142 -366h296c-43 119 -85 241 -125 366zM381 -113c0 -39 -10 -48 -47 -48s-47 9 -47 48
c0 37 10 45 47 45s47 -8 47 -45zM202 871h54c0 -53 23 -69 79 -69s80 16 80 69h52c0 -84 -44 -126 -133 -126c-88 0 -132 42 -132 126z" />
    <glyph glyph-name="uni1EB7" unicode="&#x1eb7;" horiz-adv-x="542" 
d="M466 323v-297c-59 -27 -127 -40 -204 -40c-74 0 -127 12 -158 37s-47 69 -47 133c0 66 17 110 51 133s84 34 149 34c45 0 93 -5 144 -16c0 61 -10 102 -30 121s-60 29 -119 29s-108 -8 -145 -24l-19 61c59 17 115 25 168 25c76 0 130 -14 162 -42s48 -79 48 -154zM401 68
v184c-35 9 -81 13 -136 13c-53 0 -89 -6 -108 -19c-18 -12 -27 -40 -27 -85c0 -49 9 -81 26 -95c18 -14 54 -21 109 -21c48 0 93 8 136 23zM318 -113c0 -39 -10 -48 -47 -48s-47 9 -47 48c0 37 10 45 47 45s47 -8 47 -45zM138 697h54c0 -53 23 -69 79 -69s80 16 80 69h52
c0 -84 -44 -126 -133 -126c-88 0 -132 42 -132 126z" />
    <glyph glyph-name="uni1EB8" unicode="&#x1eb8;" horiz-adv-x="610" 
d="M101 0v697h477v-60h-405v-234h287v-60h-287v-283h405v-60h-477zM372 -113c0 -39 -10 -48 -47 -48s-47 9 -47 48c0 37 10 45 47 45s47 -8 47 -45z" />
    <glyph glyph-name="uni1EB9" unicode="&#x1eb9;" horiz-adv-x="546" 
d="M290 519c74 0 127 -20 158 -59c32 -39 48 -110 48 -214h-361c1 -79 14 -132 39 -159c26 -27 70 -40 131 -40c48 0 96 9 145 27l15 -60c-61 -19 -116 -28 -166 -28c-81 0 -140 20 -179 60c-38 40 -57 110 -57 209c0 192 71 264 227 264zM290 458c-54 0 -92 -11 -115 -33
c-22 -21 -35 -61 -39 -120h286c-3 61 -13 102 -32 122c-19 21 -52 31 -100 31zM333 -113c0 -39 -10 -48 -47 -48s-47 9 -47 48c0 37 10 45 47 45s47 -8 47 -45z" />
    <glyph glyph-name="uni1EBA" unicode="&#x1eba;" horiz-adv-x="610" 
d="M101 0v697h477v-60h-405v-234h287v-60h-287v-283h405v-60h-477zM360 728h-50c34 17 56 31 65 40s14 22 14 38c0 24 -12 33 -48 33c-32 0 -58 -7 -78 -22l-25 47c25 17 61 26 108 26c80 0 108 -20 108 -67c0 -41 -23 -68 -94 -95z" />
    <glyph glyph-name="uni1EBB" unicode="&#x1ebb;" horiz-adv-x="546" 
d="M290 519c74 0 127 -20 158 -59c32 -39 48 -110 48 -214h-361c1 -79 14 -132 39 -159c26 -27 70 -40 131 -40c48 0 96 9 145 27l15 -60c-61 -19 -116 -28 -166 -28c-81 0 -140 20 -179 60c-38 40 -57 110 -57 209c0 192 71 264 227 264zM290 458c-54 0 -92 -11 -115 -33
c-22 -21 -35 -61 -39 -120h286c-3 61 -13 102 -32 122c-19 21 -52 31 -100 31zM298 568h-50c34 17 56 31 65 40s14 22 14 38c0 24 -12 33 -48 33c-32 0 -58 -7 -78 -22l-25 47c25 17 61 26 108 26c80 0 108 -20 108 -67c0 -41 -23 -68 -94 -95z" />
    <glyph glyph-name="uni1EBC" unicode="&#x1ebc;" horiz-adv-x="610" 
d="M101 0v697h477v-60h-405v-234h287v-60h-287v-283h405v-60h-477zM481 867l40 -32c-21 -61 -58 -91 -110 -91c-17 0 -42 11 -74 33c-32 23 -55 34 -70 34c-23 0 -43 -20 -58 -59l-35 34c31 55 57 79 100 79c19 0 45 -11 76 -32s54 -32 69 -32c27 0 47 22 62 66z" />
    <glyph glyph-name="uni1EBD" unicode="&#x1ebd;" horiz-adv-x="546" 
d="M290 519c74 0 127 -20 158 -59c32 -39 48 -110 48 -214h-361c1 -79 14 -132 39 -159c26 -27 70 -40 131 -40c48 0 96 9 145 27l15 -60c-61 -19 -116 -28 -166 -28c-81 0 -140 20 -179 60c-38 40 -57 110 -57 209c0 192 71 264 227 264zM290 458c-54 0 -92 -11 -115 -33
c-22 -21 -35 -61 -39 -120h286c-3 61 -13 102 -32 122c-19 21 -52 31 -100 31zM412 689l41 -33c-21 -61 -56 -91 -105 -91c-18 0 -42 11 -71 33s-52 33 -67 33c-24 0 -44 -20 -60 -61l-36 35c32 57 60 82 103 82c20 0 43 -11 70 -33s49 -33 64 -33c27 0 44 17 61 68z" />
    <glyph glyph-name="uni1EBE" unicode="&#x1ebe;" horiz-adv-x="610" 
d="M101 0v697h477v-60h-405v-234h287v-60h-287v-283h405v-60h-477zM424 727l-81 56l-78 -56h-73l117 80h70l121 -80h-76zM295 820h-66l133 92h92z" />
    <glyph glyph-name="uni1EBF" unicode="&#x1ebf;" horiz-adv-x="546" 
d="M290 519c74 0 127 -20 158 -59c32 -39 48 -110 48 -214h-361c1 -79 14 -132 39 -159c26 -27 70 -40 131 -40c48 0 96 9 145 27l15 -60c-61 -19 -116 -28 -166 -28c-81 0 -140 20 -179 60c-38 40 -57 110 -57 209c0 192 71 264 227 264zM290 458c-54 0 -92 -11 -115 -33
c-22 -21 -35 -61 -39 -120h286c-3 61 -13 102 -32 122c-19 21 -52 31 -100 31zM446 568h-82l-81 86l-79 -86h-78l122 129h72zM261 747h-67l134 129h92z" />
    <glyph glyph-name="uni1EC0" unicode="&#x1ec0;" horiz-adv-x="610" 
d="M101 0v697h477v-60h-405v-234h287v-60h-287v-283h405v-60h-477zM413 727l-81 56l-78 -56h-73l117 80h70l121 -80h-76zM300 912l142 -93h-77l-155 93h90z" />
    <glyph glyph-name="uni1EC1" unicode="&#x1ec1;" horiz-adv-x="546" 
d="M290 519c74 0 127 -20 158 -59c32 -39 48 -110 48 -214h-361c1 -79 14 -132 39 -159c26 -27 70 -40 131 -40c48 0 96 9 145 27l15 -60c-61 -19 -116 -28 -166 -28c-81 0 -140 20 -179 60c-38 40 -57 110 -57 209c0 192 71 264 227 264zM290 458c-54 0 -92 -11 -115 -33
c-22 -21 -35 -61 -39 -120h286c-3 61 -13 102 -32 122c-19 21 -52 31 -100 31zM453 568h-82l-81 86l-79 -86h-78l122 129h72zM253 876l146 -129h-79l-160 129h93z" />
    <glyph glyph-name="uni1EC2" unicode="&#x1ec2;" horiz-adv-x="610" 
d="M101 0v697h477v-60h-405v-234h287v-60h-287v-283h405v-60h-477zM349 830h-51c34 14 56 25 65 32c10 7 15 17 15 30c0 20 -12 27 -48 27c-33 0 -60 -6 -79 -18l-25 38c25 13 61 20 109 20c80 0 108 -16 108 -53c0 -33 -23 -53 -94 -76zM413 727l-81 56l-78 -56h-73l117 80
h70l121 -80h-76z" />
    <glyph glyph-name="uni1EC3" unicode="&#x1ec3;" horiz-adv-x="546" 
d="M290 519c74 0 127 -20 158 -59c32 -39 48 -110 48 -214h-361c1 -79 14 -132 39 -159c26 -27 70 -40 131 -40c48 0 96 9 145 27l15 -60c-61 -19 -116 -28 -166 -28c-81 0 -140 20 -179 60c-38 40 -57 110 -57 209c0 192 71 264 227 264zM290 458c-54 0 -92 -11 -115 -33
c-22 -21 -35 -61 -39 -120h286c-3 61 -13 102 -32 122c-19 21 -52 31 -100 31zM452 568h-82l-81 86l-79 -86h-78l122 129h72zM302 714h-50c34 17 56 31 65 40s14 22 14 38c0 24 -12 33 -48 33c-32 0 -58 -7 -78 -22l-25 47c25 17 61 26 108 26c80 0 108 -20 108 -67
c0 -41 -23 -68 -94 -95z" />
    <glyph glyph-name="uni1EC4" unicode="&#x1ec4;" horiz-adv-x="610" 
d="M101 0v697h477v-60h-405v-234h287v-60h-287v-283h405v-60h-477zM477 919l39 -26c-21 -49 -57 -74 -108 -74c-17 0 -42 9 -73 27s-53 27 -68 27c-23 0 -42 -16 -57 -48l-35 28c31 44 57 64 98 64c19 0 44 -9 75 -26s53 -26 68 -26c26 0 46 18 61 54zM423 727l-81 56
l-78 -56h-73l117 80h70l121 -80h-76z" />
    <glyph glyph-name="uni1EC5" unicode="&#x1ec5;" horiz-adv-x="546" 
d="M290 519c74 0 127 -20 158 -59c32 -39 48 -110 48 -214h-361c1 -79 14 -132 39 -159c26 -27 70 -40 131 -40c48 0 96 9 145 27l15 -60c-61 -19 -116 -28 -166 -28c-81 0 -140 20 -179 60c-38 40 -57 110 -57 209c0 192 71 264 227 264zM290 458c-54 0 -92 -11 -115 -33
c-22 -21 -35 -61 -39 -120h286c-3 61 -13 102 -32 122c-19 21 -52 31 -100 31zM441 568h-82l-81 86l-79 -86h-78l122 129h72zM426 867l40 -32c-21 -61 -58 -91 -110 -91c-17 0 -42 11 -74 33c-32 23 -55 34 -70 34c-23 0 -43 -20 -58 -59l-35 34c31 55 57 79 100 79
c19 0 45 -11 76 -32s54 -32 69 -32c27 0 47 22 62 66z" />
    <glyph glyph-name="uni1EC6" unicode="&#x1ec6;" horiz-adv-x="610" 
d="M419 747l-84 90l-81 -90h-76l122 129h72l126 -129h-79zM101 0v697h477v-60h-405v-234h287v-60h-287v-283h405v-60h-477zM392 -113c0 -39 -10 -48 -47 -48s-47 9 -47 48c0 37 10 45 47 45s47 -8 47 -45z" />
    <glyph glyph-name="uni1EC7" unicode="&#x1ec7;" horiz-adv-x="546" 
d="M290 519c74 0 127 -20 158 -59c32 -39 48 -110 48 -214h-361c1 -79 14 -132 39 -159c26 -27 70 -40 131 -40c48 0 96 9 145 27l15 -60c-61 -19 -116 -28 -166 -28c-81 0 -140 20 -179 60c-38 40 -57 110 -57 209c0 192 71 264 227 264zM290 458c-54 0 -92 -11 -115 -33
c-22 -21 -35 -61 -39 -120h286c-3 61 -13 102 -32 122c-19 21 -52 31 -100 31zM443 568h-82l-81 86l-79 -86h-78l122 129h72zM330 -113c0 -39 -10 -48 -47 -48s-47 9 -47 48c0 37 10 45 47 45s47 -8 47 -45z" />
    <glyph glyph-name="uni1EC8" unicode="&#x1ec8;" horiz-adv-x="273" 
d="M151 740h-50c34 17 56 31 65 40s14 22 14 38c0 24 -12 33 -48 33c-32 0 -58 -7 -78 -22l-25 47c25 17 61 26 108 26c80 0 108 -20 108 -67c0 -41 -23 -68 -94 -95zM101 0v697h72v-697h-72z" />
    <glyph glyph-name="uni1EC9" unicode="&#x1ec9;" horiz-adv-x="217" 
d="M123 568h-50c34 17 56 31 65 40s14 22 14 38c0 24 -12 33 -48 33c-32 0 -58 -7 -78 -22l-25 47c25 17 61 26 108 26c80 0 108 -20 108 -67c0 -41 -23 -68 -94 -95zM76 505h65v-505h-65v505z" />
    <glyph glyph-name="uni1ECA" unicode="&#x1eca;" horiz-adv-x="273" 
d="M183 -113c0 -39 -10 -48 -47 -48s-47 9 -47 48c0 37 10 45 47 45s47 -8 47 -45zM101 0v697h72v-697h-72z" />
    <glyph glyph-name="uni1ECB" unicode="&#x1ecb;" horiz-adv-x="217" 
d="M76 505h65v-505h-65v505zM110 697c32 0 41 -6 41 -39c0 -36 -9 -43 -41 -43c-33 0 -42 7 -42 43c0 33 9 39 42 39zM156 -113c0 -39 -10 -48 -47 -48s-47 9 -47 48c0 37 10 45 47 45s47 -8 47 -45z" />
    <glyph glyph-name="uni1ECC" unicode="&#x1ecc;" horiz-adv-x="759" 
d="M379 -14c-75 0 -135 10 -180 31c-88 41 -136 146 -136 335c0 93 12 167 35 220c47 107 130 142 281 142c75 0 135 -10 180 -31c89 -41 137 -144 137 -331c0 -95 -12 -169 -35 -223c-47 -108 -130 -143 -282 -143zM141 350c5 -246 56 -297 238 -301c93 0 147 14 187 59
c40 47 54 119 54 242c0 129 -14 203 -55 247c-40 45 -91 56 -186 56s-145 -11 -185 -56c-40 -44 -53 -118 -53 -247zM426 -113c0 -39 -10 -48 -47 -48s-47 9 -47 48c0 37 10 45 47 45s47 -8 47 -45z" />
    <glyph glyph-name="uni1ECD" unicode="&#x1ecd;" 
d="M63 255c0 100 18 169 53 207c36 38 95 57 176 57s140 -19 176 -57s54 -107 54 -207c0 -101 -18 -171 -54 -210s-95 -59 -176 -59s-140 20 -176 59c-35 39 -53 109 -53 210zM292 459c-61 0 -102 -13 -124 -40s-33 -82 -33 -166c0 -81 11 -135 33 -164
c23 -29 64 -43 124 -43c61 0 102 14 124 43c23 29 34 83 34 164c0 84 -11 139 -33 166s-64 40 -125 40zM339 -113c0 -39 -10 -48 -47 -48s-47 9 -47 48c0 37 10 45 47 45s47 -8 47 -45z" />
    <glyph glyph-name="uni1ECE" unicode="&#x1ece;" horiz-adv-x="759" 
d="M379 -14c-75 0 -135 10 -180 31c-88 41 -136 146 -136 335c0 93 12 167 35 220c47 107 130 142 281 142c75 0 135 -10 180 -31c89 -41 137 -144 137 -331c0 -95 -12 -169 -35 -223c-47 -108 -130 -143 -282 -143zM141 350c5 -246 56 -297 238 -301c93 0 147 14 187 59
c40 47 54 119 54 242c0 129 -14 203 -55 247c-40 45 -91 56 -186 56s-145 -11 -185 -56c-40 -44 -53 -118 -53 -247zM393 740h-50c34 17 56 31 65 40s14 22 14 38c0 24 -12 33 -48 33c-32 0 -58 -7 -78 -22l-25 47c25 17 61 26 108 26c80 0 108 -20 108 -67
c0 -41 -23 -68 -94 -95z" />
    <glyph glyph-name="uni1ECF" unicode="&#x1ecf;" 
d="M63 255c0 100 18 169 53 207c36 38 95 57 176 57s140 -19 176 -57s54 -107 54 -207c0 -101 -18 -171 -54 -210s-95 -59 -176 -59s-140 20 -176 59c-35 39 -53 109 -53 210zM292 459c-61 0 -102 -13 -124 -40s-33 -82 -33 -166c0 -81 11 -135 33 -164
c23 -29 64 -43 124 -43c61 0 102 14 124 43c23 29 34 83 34 164c0 84 -11 139 -33 166s-64 40 -125 40zM307 568h-50c34 17 56 31 65 40s14 22 14 38c0 24 -12 33 -48 33c-32 0 -58 -7 -78 -22l-25 47c25 17 61 26 108 26c80 0 108 -20 108 -67c0 -41 -23 -68 -94 -95z" />
    <glyph glyph-name="uni1ED0" unicode="&#x1ed0;" horiz-adv-x="759" 
d="M379 -14c-75 0 -135 10 -180 31c-88 41 -136 146 -136 335c0 93 12 167 35 220c47 107 130 142 281 142c75 0 135 -10 180 -31c89 -41 137 -144 137 -331c0 -95 -12 -169 -35 -223c-47 -108 -130 -143 -282 -143zM141 350c5 -246 56 -297 238 -301c93 0 147 14 187 59
c40 47 54 119 54 242c0 129 -14 203 -55 247c-40 45 -91 56 -186 56s-145 -11 -185 -56c-40 -44 -53 -118 -53 -247zM464 727l-81 56l-78 -56h-73l117 80h70l121 -80h-76zM335 820h-66l133 92h92z" />
    <glyph glyph-name="uni1ED1" unicode="&#x1ed1;" 
d="M63 255c0 100 18 169 53 207c36 38 95 57 176 57s140 -19 176 -57s54 -107 54 -207c0 -101 -18 -171 -54 -210s-95 -59 -176 -59s-140 20 -176 59c-35 39 -53 109 -53 210zM292 459c-61 0 -102 -13 -124 -40s-33 -82 -33 -166c0 -81 11 -135 33 -164
c23 -29 64 -43 124 -43c61 0 102 14 124 43c23 29 34 83 34 164c0 84 -11 139 -33 166s-64 40 -125 40zM451 568h-82l-81 86l-79 -86h-78l122 129h72zM266 747h-67l134 129h92z" />
    <glyph glyph-name="uni1ED2" unicode="&#x1ed2;" horiz-adv-x="759" 
d="M379 -14c-75 0 -135 10 -180 31c-88 41 -136 146 -136 335c0 93 12 167 35 220c47 107 130 142 281 142c75 0 135 -10 180 -31c89 -41 137 -144 137 -331c0 -95 -12 -169 -35 -223c-47 -108 -130 -143 -282 -143zM141 350c5 -246 56 -297 238 -301c93 0 147 14 187 59
c40 47 54 119 54 242c0 129 -14 203 -55 247c-40 45 -91 56 -186 56s-145 -11 -185 -56c-40 -44 -53 -118 -53 -247zM457 727l-81 56l-78 -56h-73l117 80h70l121 -80h-76zM344 912l142 -93h-77l-155 93h90z" />
    <glyph glyph-name="uni1ED3" unicode="&#x1ed3;" 
d="M449 568h-82l-81 86l-79 -86h-78l122 129h72zM63 255c0 100 18 169 53 207c36 38 95 57 176 57s140 -19 176 -57s54 -107 54 -207c0 -101 -18 -171 -54 -210s-95 -59 -176 -59s-140 20 -176 59c-35 39 -53 109 -53 210zM292 459c-61 0 -102 -13 -124 -40
s-33 -82 -33 -166c0 -81 11 -135 33 -164c23 -29 64 -43 124 -43c61 0 102 14 124 43c23 29 34 83 34 164c0 84 -11 139 -33 166s-64 40 -125 40zM256 876l146 -129h-79l-160 129h93z" />
    <glyph glyph-name="uni1ED4" unicode="&#x1ed4;" horiz-adv-x="759" 
d="M379 -14c-75 0 -135 10 -180 31c-88 41 -136 146 -136 335c0 93 12 167 35 220c47 107 130 142 281 142c75 0 135 -10 180 -31c89 -41 137 -144 137 -331c0 -95 -12 -169 -35 -223c-47 -108 -130 -143 -282 -143zM141 350c5 -246 56 -297 238 -301c93 0 147 14 187 59
c40 47 54 119 54 242c0 129 -14 203 -55 247c-40 45 -91 56 -186 56s-145 -11 -185 -56c-40 -44 -53 -118 -53 -247zM389 830h-51c34 14 56 25 65 32c10 7 15 17 15 30c0 20 -12 27 -48 27c-33 0 -60 -6 -79 -18l-25 38c25 13 61 20 109 20c80 0 108 -16 108 -53
c0 -33 -23 -53 -94 -76zM453 727l-81 56l-78 -56h-73l117 80h70l121 -80h-76z" />
    <glyph glyph-name="uni1ED5" unicode="&#x1ed5;" 
d="M455 568h-82l-81 86l-79 -86h-78l122 129h72zM63 255c0 100 18 169 53 207c36 38 95 57 176 57s140 -19 176 -57s54 -107 54 -207c0 -101 -18 -171 -54 -210s-95 -59 -176 -59s-140 20 -176 59c-35 39 -53 109 -53 210zM292 459c-61 0 -102 -13 -124 -40
s-33 -82 -33 -166c0 -81 11 -135 33 -164c23 -29 64 -43 124 -43c61 0 102 14 124 43c23 29 34 83 34 164c0 84 -11 139 -33 166s-64 40 -125 40zM305 714h-50c34 17 56 31 65 40s14 22 14 38c0 24 -12 33 -48 33c-32 0 -58 -7 -78 -22l-25 47c25 17 61 26 108 26
c80 0 108 -20 108 -67c0 -41 -23 -68 -94 -95z" />
    <glyph glyph-name="uni1ED6" unicode="&#x1ed6;" horiz-adv-x="759" 
d="M379 -14c-75 0 -135 10 -180 31c-88 41 -136 146 -136 335c0 93 12 167 35 220c47 107 130 142 281 142c75 0 135 -10 180 -31c89 -41 137 -144 137 -331c0 -95 -12 -169 -35 -223c-47 -108 -130 -143 -282 -143zM141 350c5 -246 56 -297 238 -301c93 0 147 14 187 59
c40 47 54 119 54 242c0 129 -14 203 -55 247c-40 45 -91 56 -186 56s-145 -11 -185 -56c-40 -44 -53 -118 -53 -247zM510 919l39 -26c-21 -49 -57 -74 -108 -74c-17 0 -42 9 -73 27s-53 27 -68 27c-23 0 -42 -16 -57 -48l-35 28c31 44 57 64 98 64c19 0 44 -9 75 -26
s53 -26 68 -26c26 0 46 18 61 54zM458 727l-81 56l-78 -56h-73l117 80h70l121 -80h-76z" />
    <glyph glyph-name="uni1ED7" unicode="&#x1ed7;" 
d="M452 568h-82l-81 86l-79 -86h-78l122 129h72zM63 255c0 100 18 169 53 207c36 38 95 57 176 57s140 -19 176 -57s54 -107 54 -207c0 -101 -18 -171 -54 -210s-95 -59 -176 -59s-140 20 -176 59c-35 39 -53 109 -53 210zM292 459c-61 0 -102 -13 -124 -40
s-33 -82 -33 -166c0 -81 11 -135 33 -164c23 -29 64 -43 124 -43c61 0 102 14 124 43c23 29 34 83 34 164c0 84 -11 139 -33 166s-64 40 -125 40zM426 867l40 -32c-21 -61 -58 -91 -110 -91c-17 0 -42 11 -74 33c-32 23 -55 34 -70 34c-23 0 -43 -20 -58 -59l-35 34
c31 55 57 79 100 79c19 0 45 -11 76 -32s54 -32 69 -32c27 0 47 22 62 66z" />
    <glyph glyph-name="uni1ED8" unicode="&#x1ed8;" horiz-adv-x="759" 
d="M379 -14c-75 0 -135 10 -180 31c-88 41 -136 146 -136 335c0 93 12 167 35 220c47 107 130 142 281 142c75 0 135 -10 180 -31c89 -41 137 -144 137 -331c0 -95 -12 -169 -35 -223c-47 -108 -130 -143 -282 -143zM141 350c5 -246 56 -297 238 -301c93 0 147 14 187 59
c40 47 54 119 54 242c0 129 -14 203 -55 247c-40 45 -91 56 -186 56s-145 -11 -185 -56c-40 -44 -53 -118 -53 -247zM460 747l-84 90l-81 -90h-76l122 129h72l126 -129h-79zM426 -113c0 -39 -10 -48 -47 -48s-47 9 -47 48c0 37 10 45 47 45s47 -8 47 -45z" />
    <glyph glyph-name="uni1ED9" unicode="&#x1ed9;" 
d="M63 255c0 100 18 169 53 207c36 38 95 57 176 57s140 -19 176 -57s54 -107 54 -207c0 -101 -18 -171 -54 -210s-95 -59 -176 -59s-140 20 -176 59c-35 39 -53 109 -53 210zM292 459c-61 0 -102 -13 -124 -40s-33 -82 -33 -166c0 -81 11 -135 33 -164
c23 -29 64 -43 124 -43c61 0 102 14 124 43c23 29 34 83 34 164c0 84 -11 139 -33 166s-64 40 -125 40zM339 -113c0 -39 -10 -48 -47 -48s-47 9 -47 48c0 37 10 45 47 45s47 -8 47 -45zM453 568h-82l-81 86l-79 -86h-78l122 129h72z" />
    <glyph glyph-name="uni1EDA" unicode="&#x1eda;" horiz-adv-x="759" 
d="M379 -14c-75 0 -135 10 -180 31c-88 41 -136 146 -136 335c0 93 12 167 35 220c47 107 130 142 281 142c75 0 135 -10 180 -31c89 -41 137 -144 137 -331c0 -95 -12 -169 -35 -223c-47 -108 -130 -143 -282 -143zM141 350c5 -246 56 -297 238 -301c93 0 147 14 187 59
c40 47 54 119 54 242c0 129 -14 203 -55 247c-40 45 -91 56 -186 56s-145 -11 -185 -56c-40 -44 -53 -118 -53 -247zM691 697h74l-1 -67c0 -18 -5 -38 -15 -61c-9 -22 -21 -38 -35 -47h-33c28 25 42 58 42 98h-32v77zM351 747h-67l134 129h92z" />
    <glyph glyph-name="uni1EDB" unicode="&#x1edb;" 
d="M519 505h74l-1 -67c0 -18 -5 -38 -15 -61c-9 -22 -21 -38 -35 -47h-24c3 -31 4 -56 4 -75c0 -101 -18 -171 -54 -210s-95 -59 -176 -59s-140 20 -176 59c-35 39 -53 109 -53 210c0 100 18 169 53 207c36 38 95 57 176 57c139 0 206 -47 225 -182c23 23 34 54 34 91h-32
v77zM292 459c-61 0 -102 -13 -124 -40s-33 -82 -33 -166c0 -81 11 -135 33 -164c23 -29 64 -43 124 -43c61 0 102 14 124 43c23 29 34 83 34 164c0 84 -11 139 -33 166s-64 40 -125 40zM413 697l-133 -129h-69l119 129h83z" />
    <glyph glyph-name="uni1EDC" unicode="&#x1edc;" horiz-adv-x="759" 
d="M379 -14c-75 0 -135 10 -180 31c-88 41 -136 146 -136 335c0 93 12 167 35 220c47 107 130 142 281 142c75 0 135 -10 180 -31c89 -41 137 -144 137 -331c0 -95 -12 -169 -35 -223c-47 -108 -130 -143 -282 -143zM141 350c5 -246 56 -297 238 -301c93 0 147 14 187 59
c40 47 54 119 54 242c0 129 -14 203 -55 247c-40 45 -91 56 -186 56s-145 -11 -185 -56c-40 -44 -53 -118 -53 -247zM343 876l146 -129h-79l-160 129h93zM691 697h74l-1 -67c0 -18 -5 -38 -15 -61c-9 -22 -21 -38 -35 -47h-33c28 25 42 58 42 98h-32v77z" />
    <glyph glyph-name="uni1EDD" unicode="&#x1edd;" 
d="M519 505h74l-1 -67c0 -18 -5 -38 -15 -61c-9 -22 -21 -38 -35 -47h-24c3 -31 4 -56 4 -75c0 -101 -18 -171 -54 -210s-95 -59 -176 -59s-140 20 -176 59c-35 39 -53 109 -53 210c0 100 18 169 53 207c36 38 95 57 176 57c139 0 206 -47 225 -182c23 23 34 54 34 91h-32
v77zM292 459c-61 0 -102 -13 -124 -40s-33 -82 -33 -166c0 -81 11 -135 33 -164c23 -29 64 -43 124 -43c61 0 102 14 124 43c23 29 34 83 34 164c0 84 -11 139 -33 166s-64 40 -125 40zM254 697l119 -129h-69l-133 129h83z" />
    </font>
</defs>
</svg>
