<?xml version="1.0" standalone="no"?>
<!DOCTYPE svg PUBLIC "-//W3C//DTD SVG 1.1//EN" "http://www.w3.org/Graphics/SVG/1.1/DTD/svg11.dtd" >
<svg xmlns="http://www.w3.org/2000/svg" xmlns:xlink="http://www.w3.org/1999/xlink" version="1.1">
<metadata>
Created by FontForge 20170910 at Fri Sep 25 20:51:49 2015
 By Jimmy Wärting
Copyright (c) 2015 by Fernando Haro. All rights reserved.
</metadata>
<defs>
<font id="TabarraNarrowLight" horiz-adv-x="514" >
  <font-face 
    font-family="Tabarra NarrowLight"
    font-weight="300"
    font-stretch="semi-condensed"
    units-per-em="1000"
    panose-1="2 11 5 3 4 0 0 2 0 3"
    ascent="774"
    descent="-226"
    x-height="531"
    cap-height="774"
    bbox="-69 -242.985 963 1013"
    underline-thickness="22"
    underline-position="-269"
    unicode-range="U+000D-F8FF"
  />
<missing-glyph horiz-adv-x="576" 
d="M155 532h229v-155h155v-229h-384v384zM299 425v56h-56v-56h56zM155 148v-155l-154 155h154z" />
    <glyph glyph-name=".notdef" horiz-adv-x="576" 
d="M155 532h229v-155h155v-229h-384v384zM299 425v56h-56v-56h56zM155 148v-155l-154 155h154z" />
    <glyph glyph-name="NULL" horiz-adv-x="0" 
 />
    <glyph glyph-name="NULL" horiz-adv-x="0" 
 />
    <glyph glyph-name="nonmarkingreturn" unicode="&#xd;" horiz-adv-x="250" 
 />
    <glyph glyph-name="space" unicode=" " horiz-adv-x="250" 
 />
    <glyph glyph-name="numbersign" unicode="#" horiz-adv-x="626" 
d="M552 472h-103l-20 -168h98v-60h-106l-29 -261h-58l29 261h-128l-32 -261h-57l32 261h-104v60h112l20 168h-107v61h114l30 241h59l-31 -241h128l28 241h58l-28 -241h95v-61zM264 472l-22 -168h130l19 168h-127z" />
    <glyph glyph-name="dollar" unicode="$" horiz-adv-x="493" 
d="M221 -19q-63 5 -110.5 33.5t-79.5 63.5l38 52q37 -40 73.5 -63.5t78.5 -29.5v324q-35 17 -66.5 34.5t-55.5 41.5t-38.5 57.5t-14.5 81.5q0 45 13 80.5t36 60.5t55 39.5t71 17.5v79h57v-80q48 -5 88.5 -26.5t76.5 -50.5l-39 -53q-34 29 -64.5 47.5t-61.5 26.5v-307
q34 -18 67 -36t59 -43t42 -60t16 -85q0 -90 -50.5 -144t-133.5 -61v-82h-57v82zM398 176q0 34 -9 58.5t-25 43t-38 32.5t-48 27v-301q54 5 87 39.5t33 100.5zM107 584q0 -29 7.5 -50.5t22 -38.5t35.5 -30.5t49 -27.5v283q-59 -5 -86.5 -43t-27.5 -93z" />
    <glyph glyph-name="percent" unicode="%" horiz-adv-x="782" 
d="M61 609q0 34 12 64.5t32 52.5t47 35t57 13q29 0 55.5 -12.5t46 -34.5t31 -52t11.5 -66t-11 -67.5t-30.5 -55.5t-46 -38t-56.5 -14q-32 0 -59 14t-46.5 37.5t-31 55.5t-11.5 68zM162 0l435 774h51l-435 -774h-51zM578 -17q-30 0 -57 13t-46.5 36t-31 54t-11.5 66t11.5 66
t31 54t46.5 36.5t57 13.5t56 -13.5t45 -37t30 -54.5t11 -65q0 -35 -11 -65.5t-30.5 -53.5t-45 -36.5t-55.5 -13.5zM209 481q21 0 38.5 10.5t30.5 28t20.5 40.5t7.5 49t-8 48t-21 37.5t-31 24t-37 8.5q-20 0 -37.5 -9t-31 -25t-21.5 -37.5t-8 -46.5q0 -26 7.5 -49t20.5 -40.5
t31 -28t39 -10.5zM673 152q0 25 -7.5 48t-20 40t-30 27t-37.5 10q-21 0 -39 -10t-31.5 -27t-21 -39.5t-7.5 -48.5q0 -27 8 -49.5t21.5 -39.5t31.5 -26.5t38 -9.5q21 0 38 10t30 27t20 39.5t7 48.5z" />
    <glyph glyph-name="ampersand" unicode="&#x26;" horiz-adv-x="589" 
d="M497 -8l-99 125q-10 -14 -29 -36.5t-45 -44t-57.5 -37t-66.5 -15.5q-31 0 -58 13t-47.5 37t-32.5 56.5t-12 71.5q0 38 11 69.5t28.5 58t39 49t42.5 42.5l20 20q-3 4 -5 7.5t-5 8.5q-10 15 -22.5 36.5t-24 47t-19 55.5t-7.5 62q0 36 10.5 65t28 49.5t41.5 31.5t51 11
t50.5 -10.5t41 -30t27.5 -46t10 -58.5q0 -45 -17.5 -85.5t-38.5 -72.5q-25 -38 -56 -71l140 -189q28 43 50.5 91.5t38.5 95.5l48 -27q-10 -27 -20.5 -51t-22.5 -48t-26.5 -50t-31.5 -57l107 -138zM220 358q-8 -7 -27.5 -25.5t-39.5 -45.5t-35 -60.5t-15 -70.5q0 -23 6.5 -44
t18.5 -37.5t29 -26t38 -9.5q29 0 57 16t50.5 37t38.5 42t21 30zM241 724q-17 0 -31.5 -9t-24.5 -24t-15.5 -35t-5.5 -42q0 -24 6.5 -48t16 -46t21.5 -41.5t23 -33.5q14 15 28.5 34.5t26.5 43t19.5 49t7.5 52.5q0 45 -20.5 72.5t-51.5 27.5z" />
    <glyph glyph-name="quotesingle" unicode="'" horiz-adv-x="197" 
d="M51 495v279h64v-279h-64z" />
    <glyph glyph-name="parenleft" unicode="(" horiz-adv-x="337" 
d="M266 -72q-35 39 -68.5 86.5t-59.5 103.5t-41.5 121.5t-15.5 139.5q0 80 16 147.5t42 124t59 103.5t68 86l36 -22q-30 -40 -58.5 -87.5t-51 -101.5t-36 -115t-13.5 -128q0 -71 13.5 -133t36 -116t51 -101.5t58.5 -87.5z" />
    <glyph glyph-name="parenright" unicode=")" horiz-adv-x="396" 
d="M124.992 -72q34.998 39 68.4961 86.5t59.4961 103.5q25.999 56 41.498 121.5t15.499 139.5q0 80 -15.999 147.5t-41.998 124q-25.998 56.5 -58.9961 103.5t-67.9961 86l-35.998 -22q29.999 -40 58.4971 -87.5t50.9971 -101.5q22.498 -54 35.9971 -115t13.499 -128
q0 -71 -13.499 -133t-35.9971 -116q-22.499 -54 -50.9971 -101.5t-58.4971 -87.5z" />
    <glyph glyph-name="asterisk" unicode="*" horiz-adv-x="392" 
d="M19 586l18 55l134 -53l-2 174h60l-4 -173l134 50l15 -55l-141 -50l90 -143l-41 -39l-88 144l-91 -144l-41 34l96 147z" />
    <glyph glyph-name="plus" unicode="+" horiz-adv-x="714" 
d="M111 368h221v253h50v-253h221v-50h-221v-254h-50v254h-221v50z" />
    <glyph glyph-name="comma" unicode="," horiz-adv-x="178" 
d="M0 -74l57 229h71l-70 -229h-58z" />
    <glyph glyph-name="hyphen" unicode="-" horiz-adv-x="370" 
d="M57 359h261v-67h-261v67z" />
    <glyph glyph-name="period" unicode="." horiz-adv-x="175" 
d="M31 39q0 23 13.5 39.5t33.5 16.5t33.5 -16.5t13.5 -39.5t-13.5 -39.5t-33.5 -16.5t-33.5 16.5t-13.5 39.5z" />
    <glyph glyph-name="slash" unicode="/" horiz-adv-x="299" 
d="M41 -16l188 790h48l-186 -790h-50z" />
    <glyph glyph-name="zero" unicode="0" 
d="M399 588q-1 37 -12 68t-30 53.5t-45 35.5t-56 13q-28 0 -53.5 -12.5t-44.5 -35t-30.5 -54t-11.5 -68.5q0 -36 10.5 -69t29.5 -57.5t44.5 -39t55.5 -14.5q31 0 57 14t44.5 38.5t29.5 57.5t12 70zM272 379v-16h181v-30h-181v-97l123 -236h-37l-103 203l-101 -203h-35
l123 236v97h-181v30h181v16q-34 4 -62.5 22t-49 46.5t-32 64.5t-11.5 76q0 42 12.5 78t35 62.5t53.5 42t68 15.5q36 0 67 -15t54 -41.5t36 -63t13 -78.5q0 -39 -11.5 -75.5t-32 -65t-48.5 -46.5t-62 -22z" />
    <glyph glyph-name="one" unicode="1" 
d="M399 588q-1 37 -12 68t-30 53.5t-45 35.5t-56 13q-28 0 -53.5 -12.5t-44.5 -35t-30.5 -54t-11.5 -68.5q0 -36 10.5 -69t29.5 -57.5t44.5 -39t55.5 -14.5q31 0 57 14t44.5 38.5t29.5 57.5t12 70zM272 379v-16h181v-30h-181v-97l123 -236h-37l-103 203l-101 -203h-35
l123 236v97h-181v30h181v16q-34 4 -62.5 22t-49 46.5t-32 64.5t-11.5 76q0 42 12.5 78t35 62.5t53.5 42t68 15.5q36 0 67 -15t54 -41.5t36 -63t13 -78.5q0 -39 -11.5 -75.5t-32 -65t-48.5 -46.5t-62 -22z" />
    <glyph glyph-name="two" unicode="2" 
d="M399 588q-1 37 -12 68t-30 53.5t-45 35.5t-56 13q-28 0 -53.5 -12.5t-44.5 -35t-30.5 -54t-11.5 -68.5q0 -36 10.5 -69t29.5 -57.5t44.5 -39t55.5 -14.5q31 0 57 14t44.5 38.5t29.5 57.5t12 70zM272 379v-16h181v-30h-181v-97l123 -236h-37l-103 203l-101 -203h-35
l123 236v97h-181v30h181v16q-34 4 -62.5 22t-49 46.5t-32 64.5t-11.5 76q0 42 12.5 78t35 62.5t53.5 42t68 15.5q36 0 67 -15t54 -41.5t36 -63t13 -78.5q0 -39 -11.5 -75.5t-32 -65t-48.5 -46.5t-62 -22z" />
    <glyph glyph-name="three" unicode="3" 
d="M399 588q-1 37 -12 68t-30 53.5t-45 35.5t-56 13q-28 0 -53.5 -12.5t-44.5 -35t-30.5 -54t-11.5 -68.5q0 -36 10.5 -69t29.5 -57.5t44.5 -39t55.5 -14.5q31 0 57 14t44.5 38.5t29.5 57.5t12 70zM272 379v-16h181v-30h-181v-97l123 -236h-37l-103 203l-101 -203h-35
l123 236v97h-181v30h181v16q-34 4 -62.5 22t-49 46.5t-32 64.5t-11.5 76q0 42 12.5 78t35 62.5t53.5 42t68 15.5q36 0 67 -15t54 -41.5t36 -63t13 -78.5q0 -39 -11.5 -75.5t-32 -65t-48.5 -46.5t-62 -22z" />
    <glyph glyph-name="four" unicode="4" 
d="M399 588q-1 37 -12 68t-30 53.5t-45 35.5t-56 13q-28 0 -53.5 -12.5t-44.5 -35t-30.5 -54t-11.5 -68.5q0 -36 10.5 -69t29.5 -57.5t44.5 -39t55.5 -14.5q31 0 57 14t44.5 38.5t29.5 57.5t12 70zM272 379v-16h181v-30h-181v-97l123 -236h-37l-103 203l-101 -203h-35
l123 236v97h-181v30h181v16q-34 4 -62.5 22t-49 46.5t-32 64.5t-11.5 76q0 42 12.5 78t35 62.5t53.5 42t68 15.5q36 0 67 -15t54 -41.5t36 -63t13 -78.5q0 -39 -11.5 -75.5t-32 -65t-48.5 -46.5t-62 -22z" />
    <glyph glyph-name="five" unicode="5" 
d="M399 588q-1 37 -12 68t-30 53.5t-45 35.5t-56 13q-28 0 -53.5 -12.5t-44.5 -35t-30.5 -54t-11.5 -68.5q0 -36 10.5 -69t29.5 -57.5t44.5 -39t55.5 -14.5q31 0 57 14t44.5 38.5t29.5 57.5t12 70zM272 379v-16h181v-30h-181v-97l123 -236h-37l-103 203l-101 -203h-35
l123 236v97h-181v30h181v16q-34 4 -62.5 22t-49 46.5t-32 64.5t-11.5 76q0 42 12.5 78t35 62.5t53.5 42t68 15.5q36 0 67 -15t54 -41.5t36 -63t13 -78.5q0 -39 -11.5 -75.5t-32 -65t-48.5 -46.5t-62 -22z" />
    <glyph glyph-name="six" unicode="6" 
d="M399 588q-1 37 -12 68t-30 53.5t-45 35.5t-56 13q-28 0 -53.5 -12.5t-44.5 -35t-30.5 -54t-11.5 -68.5q0 -36 10.5 -69t29.5 -57.5t44.5 -39t55.5 -14.5q31 0 57 14t44.5 38.5t29.5 57.5t12 70zM272 379v-16h181v-30h-181v-97l123 -236h-37l-103 203l-101 -203h-35
l123 236v97h-181v30h181v16q-34 4 -62.5 22t-49 46.5t-32 64.5t-11.5 76q0 42 12.5 78t35 62.5t53.5 42t68 15.5q36 0 67 -15t54 -41.5t36 -63t13 -78.5q0 -39 -11.5 -75.5t-32 -65t-48.5 -46.5t-62 -22z" />
    <glyph glyph-name="seven" unicode="7" 
d="M399 588q-1 37 -12 68t-30 53.5t-45 35.5t-56 13q-28 0 -53.5 -12.5t-44.5 -35t-30.5 -54t-11.5 -68.5q0 -36 10.5 -69t29.5 -57.5t44.5 -39t55.5 -14.5q31 0 57 14t44.5 38.5t29.5 57.5t12 70zM272 379v-16h181v-30h-181v-97l123 -236h-37l-103 203l-101 -203h-35
l123 236v97h-181v30h181v16q-34 4 -62.5 22t-49 46.5t-32 64.5t-11.5 76q0 42 12.5 78t35 62.5t53.5 42t68 15.5q36 0 67 -15t54 -41.5t36 -63t13 -78.5q0 -39 -11.5 -75.5t-32 -65t-48.5 -46.5t-62 -22z" />
    <glyph glyph-name="eight" unicode="8" 
d="M399 588q-1 37 -12 68t-30 53.5t-45 35.5t-56 13q-28 0 -53.5 -12.5t-44.5 -35t-30.5 -54t-11.5 -68.5q0 -36 10.5 -69t29.5 -57.5t44.5 -39t55.5 -14.5q31 0 57 14t44.5 38.5t29.5 57.5t12 70zM272 379v-16h181v-30h-181v-97l123 -236h-37l-103 203l-101 -203h-35
l123 236v97h-181v30h181v16q-34 4 -62.5 22t-49 46.5t-32 64.5t-11.5 76q0 42 12.5 78t35 62.5t53.5 42t68 15.5q36 0 67 -15t54 -41.5t36 -63t13 -78.5q0 -39 -11.5 -75.5t-32 -65t-48.5 -46.5t-62 -22z" />
    <glyph glyph-name="nine" unicode="9" 
d="M399 588q-1 37 -12 68t-30 53.5t-45 35.5t-56 13q-28 0 -53.5 -12.5t-44.5 -35t-30.5 -54t-11.5 -68.5q0 -36 10.5 -69t29.5 -57.5t44.5 -39t55.5 -14.5q31 0 57 14t44.5 38.5t29.5 57.5t12 70zM272 379v-16h181v-30h-181v-97l123 -236h-37l-103 203l-101 -203h-35
l123 236v97h-181v30h181v16q-34 4 -62.5 22t-49 46.5t-32 64.5t-11.5 76q0 42 12.5 78t35 62.5t53.5 42t68 15.5q36 0 67 -15t54 -41.5t36 -63t13 -78.5q0 -39 -11.5 -75.5t-32 -65t-48.5 -46.5t-62 -22z" />
    <glyph glyph-name="colon" unicode=":" horiz-adv-x="183" 
d="M31 39q0 23 15 39.5t35 16.5q22 0 37 -16.5t15 -39.5t-15 -39.5t-37 -16.5q-20 0 -35 16.5t-15 39.5zM31 358q0 23 15 39.5t35 16.5q22 0 37 -16.5t15 -39.5t-15 -39.5t-37 -16.5q-20 0 -35 16.5t-15 39.5z" />
    <glyph glyph-name="semicolon" unicode=";" horiz-adv-x="202" 
d="M0 -74l59 229h73l-74 -229h-58zM49 358q0 23 14.5 39.5t36.5 16.5q21 0 36.5 -16.5t15.5 -39.5t-15.5 -39.5t-36.5 -16.5q-22 0 -36.5 16.5t-14.5 39.5z" />
    <glyph glyph-name="less" unicode="&#x3c;" horiz-adv-x="597" 
d="M512 471l-380 -187l380 -181v-76l-450 226v64l450 225v-71z" />
    <glyph glyph-name="equal" unicode="=" horiz-adv-x="584" 
d="M58 479h468v-51h-468v51zM58 254h468v-51h-468v51z" />
    <glyph glyph-name="greater" unicode="&#x3e;" horiz-adv-x="714" 
d="M191.988 471l379.977 -187l-379.977 -181v-76l449.973 226v64l-449.973 225v-71z" />
    <glyph glyph-name="question" unicode="?" horiz-adv-x="477" 
d="M188 392h29q27 0 49 13t38 35.5t24.5 52.5t8.5 64q0 37 -10 67t-26.5 51t-38 32t-45.5 11q-32 0 -53 -18t-33.5 -43t-18 -50t-5.5 -38h-56v7q0 21 8 53.5t27.5 63.5t52 53.5t82.5 22.5q42 0 74 -17.5t54.5 -47.5t34 -70t11.5 -85q0 -58 -17 -97.5t-42 -63.5t-53 -35
t-50 -13l-8 -131h-47v167zM151 39q0 23 14.5 39.5t36.5 16.5t36.5 -16.5t14.5 -39.5t-14.5 -39.5t-36.5 -16.5t-36.5 16.5t-14.5 39.5z" />
    <glyph glyph-name="at" unicode="@" horiz-adv-x="841" 
d="M626 192q32 45 48 101.5t16 109.5q0 63 -21.5 119.5t-58 99t-85.5 67.5t-104 25q-60 0 -111.5 -29.5t-90 -80t-60.5 -117.5t-22 -141q0 -75 22.5 -140.5t61.5 -114t92 -76.5t114 -28q35 0 72.5 10t73 29t66.5 47t53 64l43 -39q-24 -39 -59 -70t-76.5 -52.5t-86 -33
t-86.5 -11.5q-74 0 -138.5 33.5t-113 91t-76.5 133.5t-28 162q0 87 28.5 163t77 132.5t113 89.5t136.5 33q62 0 118.5 -26t100.5 -71.5t72.5 -108t34.5 -134.5v-33q0 -62 -16.5 -116.5t-49.5 -105.5q-34 -50 -94 -50q-9 0 -15 4q-6 3 -10.5 10t-4.5 20v35q-12 -15 -27 -31.5
t-35 -30t-45 -22.5t-56 -9q-47 0 -85 21.5t-64.5 56.5t-40.5 81t-14 96q0 57 18 102.5t48 77t68.5 48.5t79.5 17q29 0 52 -7.5t41.5 -20t33 -28.5t26.5 -32l3 76h50v-387q0 -14 6 -14q1 0 5 5zM563 351q0 46 -13 83t-35 63.5t-51 40.5t-61 14q-33 0 -61.5 -14.5t-49 -40.5
t-32 -62t-11.5 -79q0 -42 11 -79.5t31.5 -65.5t49 -44t63.5 -16q32 0 61 14t50.5 40.5t34.5 63.5t13 82z" />
    <glyph glyph-name="A" unicode="A" horiz-adv-x="599" 
d="M173 298h255l-128 418zM19 0l249 774h70l242 -774h-62l-73 248h-288l-77 -248h-61z" />
    <glyph glyph-name="B" unicode="B" horiz-adv-x="545" 
d="M83 774h143q40 0 81.5 -6.5t75 -26t54.5 -56t21 -96.5q0 -41 -10 -70t-25 -50t-33 -35t-35 -24h-2q22 -6 47 -19.5t46 -37.5t35 -59t14 -84q0 -54 -17 -93.5t-44.5 -65.5t-62 -38.5t-70.5 -12.5h-218v774zM399 582q0 49 -17.5 77t-44 42t-57 17t-57.5 3h-79v-285h85
q33 0 64 6.5t54.5 23t37.5 45t14 71.5zM438 212q0 52 -18 85t-45.5 52t-59.5 26t-60 7h-111v-330h136q30 0 58.5 8.5t50.5 28t35.5 49.5t13.5 74z" />
    <glyph glyph-name="C" unicode="C" horiz-adv-x="683" 
d="M652 136q-46 -71 -114.5 -113.5t-149.5 -42.5q-71 0 -133 34t-107.5 92t-71.5 133.5t-26 158.5q0 84 27 157t73.5 126.5t107.5 84t130 30.5q75 0 140 -34.5t111 -94.5l-38 -43q-42 55 -97 86t-116 31q-57 0 -107.5 -26.5t-88.5 -72.5t-60.5 -109t-22.5 -136
q0 -71 21.5 -136.5t59 -115.5t89 -79.5t110.5 -29.5q66 0 122 36.5t97 98.5z" />
    <glyph glyph-name="D" unicode="D" horiz-adv-x="636" 
d="M83 774h154q64 0 126.5 -21t111.5 -66.5t79.5 -117.5t30.5 -174q0 -84 -22 -156t-63 -125.5t-101.5 -83.5t-136.5 -30h-179v774zM527 395q0 81 -23.5 142t-64 102t-94.5 61.5t-116 20.5h-86v-669h116q62 0 112 27t84.5 73.5t53 109t18.5 133.5z" />
    <glyph glyph-name="E" unicode="E" horiz-adv-x="513" 
d="M83 0v774h399v-53h-339v-300h226v-55h-226v-314h339v-52h-399z" />
    <glyph glyph-name="F" unicode="F" horiz-adv-x="494" 
d="M83 0v774h403v-53h-344v-284h228v-53h-228v-384h-59z" />
    <glyph glyph-name="G" unicode="G" horiz-adv-x="738" 
d="M593 601q-11 24 -30.5 48t-47.5 43.5t-63 31.5t-76 12q-63 0 -112.5 -27t-84.5 -74t-53.5 -110t-18.5 -135q0 -77 21 -141.5t57 -111.5t85 -73.5t106 -26.5q43 0 84.5 17t74 49.5t53 78t23.5 102.5h-182v53h239v-337h-57v114q-12 -23 -32 -46.5t-49 -42.5t-67 -30.5
t-85 -11.5q-70 0 -130 28t-104 80.5t-69 127.5t-25 168q0 89 23.5 163.5t66.5 128.5t104.5 84.5t136.5 30.5q51 0 93 -13t75 -34.5t56.5 -50t36.5 -59.5z" />
    <glyph glyph-name="H" unicode="H" horiz-adv-x="613" 
d="M83 774h59v-341h330v341h59v-774h-59v379h-330v-379h-59v774z" />
    <glyph glyph-name="I" unicode="I" horiz-adv-x="226" 
d="M83 0v774h61v-774h-61z" />
    <glyph glyph-name="J" unicode="J" horiz-adv-x="482" 
d="M213 -17q-74 0 -120 40t-74 102l40 46q29 -60 66.5 -96t88.5 -36q61 0 98.5 51.5t37.5 153.5v530h61v-525q0 -69 -16 -119.5t-44 -83.5q-50 -63 -138 -63z" />
    <glyph glyph-name="K" unicode="K" horiz-adv-x="604" 
d="M83 0v774h61v-409l332 409h63l-251 -307l297 -467h-69l-272 424l-100 -127v-297h-61z" />
    <glyph glyph-name="L" unicode="L" horiz-adv-x="477" 
d="M83 774h60v-722h315v-52h-375v774z" />
    <glyph glyph-name="M" unicode="M" horiz-adv-x="758" 
d="M83 774h73l224 -642l230 642h66v-774h-59v644l-220 -613h-40l-214 617v-648h-60v774z" />
    <glyph glyph-name="N" unicode="N" horiz-adv-x="617" 
d="M83 774h81l310 -639v639h60v-774h-57l-334 690v-690h-60v774z" />
    <glyph glyph-name="O" unicode="O" horiz-adv-x="765" 
d="M382 -19q-71 0 -133 34t-108 91t-72 132t-26 158q0 84 27.5 156.5t74 126t108 83.5t129.5 30t129.5 -30t108 -83.5t74 -126t27.5 -156.5q0 -83 -26.5 -158t-72 -132t-107.5 -91t-133 -34zM663 396q0 73 -22.5 135.5t-61 108t-89.5 71.5t-108 26t-107.5 -26t-88.5 -72
t-60.5 -108t-22.5 -135q0 -71 21.5 -136t59 -114.5t88.5 -79t110 -29.5q60 0 111 29.5t89 79t59.5 114.5t21.5 136z" />
    <glyph glyph-name="P" unicode="P" horiz-adv-x="529" 
d="M83 0v774h212q25 0 60 -9.5t66.5 -35t53.5 -70.5t22 -115q0 -61 -17.5 -105.5t-48 -73.5t-71 -43t-86.5 -14h-132v-308h-59zM442 537q0 56 -16 92t-40 56.5t-52.5 28t-53.5 7.5h-138v-361h111q32 0 65.5 6t61 24.5t45 53.5t17.5 93z" />
    <glyph glyph-name="Q" unicode="Q" horiz-adv-x="777" 
d="M388 -14q-71 0 -133 33.5t-107.5 90.5t-71.5 132t-26 158q0 85 27 157.5t73.5 125.5t107.5 83t130 30t130.5 -30t108 -83t73.5 -125.5t27 -157.5q0 -78 -23 -149t-65 -128l85 -105l-42 -50l-87 107q-42 -42 -94.5 -65.5t-112.5 -23.5zM670 400q0 73 -22.5 135.5
t-61.5 108t-90 71.5t-108 26t-107.5 -26t-88.5 -72t-60.5 -108t-22.5 -135q0 -71 21.5 -136t59 -114.5t88.5 -79t110 -29.5q49 0 93 20.5t79 55.5l-62 76l42 50l61 -76q31 48 50 108t19 125z" />
    <glyph glyph-name="R" unicode="R" horiz-adv-x="570" 
d="M83 774h196q45 0 71.5 -6t46.5 -18q40 -24 67 -72.5t27 -118.5q0 -41 -9.5 -76.5t-26 -63.5t-39.5 -47.5t-50 -28.5l154 -343h-64l-149 334h-167v-334h-57v774zM304 389q29 0 52.5 13t40.5 35.5t26 52.5t9 65q0 54 -19.5 92t-50.5 57q-13 6 -32.5 10.5t-52.5 4.5h-137
v-330h164z" />
    <glyph glyph-name="S" unicode="S" horiz-adv-x="530" 
d="M479 201q0 -48 -14.5 -88.5t-42.5 -70t-67.5 -46t-89.5 -16.5q-69 0 -123 28t-92 70l38 52q41 -44 85.5 -69.5t95.5 -25.5q67 0 107 42t40 114q0 40 -13 67.5t-35 48.5t-51.5 37t-63.5 32q-36 17 -70 35.5t-60.5 43.5t-42 59.5t-15.5 84.5q0 48 14.5 85.5t41 63.5
t63 39.5t80.5 13.5q63 0 109.5 -23.5t86.5 -56.5l-37 -52q-43 38 -84 58t-84 20q-33 0 -57.5 -11t-40 -30.5t-23.5 -45t-8 -53.5q0 -35 11 -60t32 -44.5t51.5 -36.5t69.5 -36q36 -17 70 -36t60.5 -45t42.5 -61.5t16 -86.5z" />
    <glyph glyph-name="T" unicode="T" horiz-adv-x="491" 
d="M8 774h475v-53h-208v-721h-60v721h-207v53z" />
    <glyph glyph-name="U" unicode="U" horiz-adv-x="590" 
d="M71 774h57v-465q0 -68 8.5 -119t28.5 -85t52.5 -51t79.5 -17q48 0 80 18t50.5 52.5t26.5 85.5t8 117v464h58v-470q0 -75 -11 -134.5t-37 -101t-69 -63.5t-106 -22t-106.5 21.5t-70.5 62.5t-38.5 100.5t-11.5 136.5z" />
    <glyph glyph-name="V" unicode="V" horiz-adv-x="496" 
d="M477 774l-202 -774h-55l-201 774h62l169 -647l169 647h58z" />
    <glyph glyph-name="W" unicode="W" horiz-adv-x="818" 
d="M799 774l-210 -774h-57l-125 657l-133 -657h-55l-200 774h60l165 -640l134 640h65l123 -642l175 642h58z" />
    <glyph glyph-name="X" unicode="X" horiz-adv-x="612" 
d="M583 774l-245 -379l255 -395h-64l-225 350l-221 -350h-64l253 395l-244 379h65l214 -335l213 335h63z" />
    <glyph glyph-name="Y" unicode="Y" horiz-adv-x="570" 
d="M254 306l-242 468h73l202 -402l201 402h69l-243 -467v-307h-60v306z" />
    <glyph glyph-name="Z" unicode="Z" horiz-adv-x="496" 
d="M31 0v50l367 670h-367v54h434v-47l-368 -675h367v-52h-433z" />
    <glyph glyph-name="bracketleft" unicode="[" horiz-adv-x="300" 
d="M83 775h186v-54h-129v-783h129v-54h-186v891z" />
    <glyph glyph-name="backslash" unicode="\" horiz-adv-x="301" 
d="M224 -61l-201 892h52l202 -892h-53z" />
    <glyph glyph-name="bracketright" unicode="]" horiz-adv-x="350" 
d="M266.983 775h-185.988v-54h128.992v-783h-128.992v-54h185.988v891z" />
    <glyph glyph-name="asciicircum" unicode="^" horiz-adv-x="328" 
d="M139 758h49l139 -227h-57l-107 171l-107 -171h-55z" />
    <glyph glyph-name="underscore" unicode="_" horiz-adv-x="561" 
d="M0 -43h560v-52h-560v52z" />
    <glyph glyph-name="grave" unicode="`" horiz-adv-x="262" 
d="M-32 757l90 13l55 -182h-48z" />
    <glyph glyph-name="a" unicode="a" horiz-adv-x="502" 
d="M374 41q-6 -7 -18 -17t-29.5 -19t-41 -15t-52.5 -6q-41 0 -74.5 15.5t-57.5 42.5t-37.5 63t-13.5 78q0 46 16 82t41.5 60.5t58.5 37t67 12.5q25 0 46.5 -6t38.5 -16t31 -21.5t25 -21.5v53q0 25 -10.5 48.5t-30 42t-47.5 30t-63 11.5q-20 0 -42 -3.5t-49 -14.5l-13 53
q13 4 28.5 7t32 5t32 3t27.5 1q48 0 84.5 -15.5t60.5 -43t36.5 -65t12.5 -82.5v-340h-56zM372 183q0 33 -12 58.5t-31.5 42.5t-43 25.5t-46.5 8.5q-25 0 -48.5 -9.5t-42 -27.5t-29.5 -43.5t-11 -57.5q0 -31 10.5 -57t28 -44.5t40.5 -29t49 -10.5q25 0 49.5 10.5t44 29t31 45
t11.5 59.5z" />
    <glyph glyph-name="b" unicode="b" horiz-adv-x="592" 
d="M81 774h59v-331q13 18 31.5 35.5t41 31.5t49.5 22.5t58 8.5q46 0 86.5 -20.5t70.5 -57t47.5 -88t17.5 -112.5q0 -59 -17 -109.5t-47 -87t-72 -57t-93 -20.5q-33 0 -60 8t-48 21.5t-37 31t-28 35.5l-3 -85h-56v774zM482 263q0 46 -11.5 86t-33.5 69.5t-52.5 46.5t-67.5 17
q-36 0 -67.5 -16t-54.5 -45.5t-36.5 -70.5t-13.5 -91q0 -48 12.5 -87.5t35 -67.5t53 -43t67.5 -15q39 0 70.5 16.5t53 45.5t33.5 68.5t12 86.5z" />
    <glyph glyph-name="c" unicode="c" horiz-adv-x="527" 
d="M495 126q-29 -63 -82.5 -100t-122.5 -37q-49 0 -92.5 19.5t-76.5 55.5t-52 87t-19 113t19.5 113t52.5 87.5t76.5 56.5t91.5 20q63 0 119.5 -33t86.5 -98l-48 -41q-23 51 -64.5 83t-92.5 32q-38 0 -70.5 -16.5t-57 -46t-38.5 -70t-14 -88.5q0 -51 15.5 -91.5t40.5 -68.5
t57.5 -43t65.5 -15q48 0 89.5 31t66.5 88z" />
    <glyph glyph-name="d" unicode="d" horiz-adv-x="592" 
d="M511 0h-56l-3 86q-12 -18 -28 -35.5t-37 -31t-48 -22t-60 -8.5q-51 0 -93 20.5t-72 57t-47 87t-17 109.5q0 61 17.5 112.5t47.5 88t70.5 57t86.5 20.5q31 0 58 -8.5t49.5 -22.5t40.5 -31.5t32 -35.5v331h59v-774zM110 263q0 -47 11.5 -86.5t33.5 -68.5t53.5 -45.5
t70.5 -16.5q37 0 67.5 15t53 43t35 67.5t12.5 87.5q0 50 -13.5 91t-36.5 70.5t-55 45.5t-68 16q-38 0 -68 -17t-51.5 -46.5t-33 -69.5t-11.5 -86z" />
    <glyph glyph-name="e" unicode="e" horiz-adv-x="571" 
d="M489 117q-10 -21 -27.5 -44.5t-42.5 -43t-58.5 -32.5t-75.5 -13q-55 0 -98.5 22.5t-74 61.5t-46.5 91t-16 110q0 65 19.5 116.5t52 87t76 54.5t91.5 19q57 0 100.5 -25.5t73 -65.5t44 -89t14.5 -97v-12.5t-1 -12.5h-409q1 -23 10 -57.5t29 -66.5t52.5 -54.5t81.5 -22.5
q32 0 57.5 10.5t45 27t34 35.5t23.5 36zM285 489q-46 0 -78.5 -20t-53 -49t-31 -61t-11.5 -57h351q-2 22 -11.5 54.5t-30.5 61.5t-54 50t-81 21z" />
    <glyph glyph-name="f" unicode="f" horiz-adv-x="291" 
d="M19 526h77v133q0 30 9 51.5t23.5 35.5t32.5 21t37 7h62v-51h-40q-32 0 -48 -14.5t-16 -58.5v-124h83v-54h-83v-472h-60v472h-77v54z" />
    <glyph glyph-name="g" unicode="g" horiz-adv-x="578" 
d="M134 -64q8 -14 21.5 -29.5t32.5 -29t42.5 -22.5t52.5 -9q42 0 73.5 17t52.5 46t31 67t10 81v31q-11 -15 -27.5 -32.5t-38 -32.5t-49 -24.5t-60.5 -9.5q-45 0 -86 20.5t-72 57t-49 86.5t-18 110t18.5 111t49 88t71.5 58t86 21q33 0 61 -10t50 -24.5t38 -30.5t26 -29l4 84
h54v-467q0 -54 -13 -103t-40 -86.5t-69 -59.5t-101 -22q-64 0 -106 24t-68 55zM447 271q0 46 -12.5 85.5t-34.5 68.5t-53 45.5t-67 16.5t-67 -16t-54 -44.5t-36.5 -68.5t-13.5 -88q0 -46 12.5 -86.5t35 -71t54 -48t69.5 -17.5q40 0 71 19t52.5 50.5t32.5 71.5t11 83z" />
    <glyph glyph-name="h" unicode="h" horiz-adv-x="533" 
d="M81 774h61v-330q16 19 34.5 37t40.5 32t48 22.5t57 8.5q52 0 81 -22.5t42.5 -54t16 -66.5t2.5 -60v-341h-59v313q0 37 -1.5 69.5t-9.5 57.5t-25.5 39.5t-49.5 14.5q-36 0 -66 -17t-52.5 -40.5t-37.5 -48t-21 -40.5v-348h-61v774z" />
    <glyph glyph-name="i" unicode="i" horiz-adv-x="224" 
d="M83 531h59v-531h-59v531zM81 773h62v-131h-62v131z" />
    <glyph glyph-name="j" unicode="j" horiz-adv-x="236" 
d="M4 -164q41 13 66.5 52.5t25.5 114.5v529h59v-539q0 -52 -12.5 -88.5t-33.5 -61t-48 -37.5t-57 -19v49zM96 772h59v-131h-59v131z" />
    <glyph glyph-name="k" unicode="k" horiz-adv-x="473" 
d="M417 531l-149 -175l192 -356h-64l-171 308l-83 -98v-210h-61v774h61v-476l199 233h76z" />
    <glyph glyph-name="l" unicode="l" horiz-adv-x="223" 
d="M81 774h61v-774h-61v774z" />
    <glyph glyph-name="m" unicode="m" horiz-adv-x="791" 
d="M81 0v531h57l4 -75q12 16 27.5 32.5t34.5 29t42 20.5t51 8t49 -8t36 -21.5t24.5 -30.5t14.5 -36q14 19 30 36t36 30.5t44 21.5t54 8q136 0 136 -184v-362h-58v322q0 38 -1.5 70t-9.5 55.5t-25 36.5t-48 13q-29 0 -51 -10.5t-39.5 -27t-30.5 -38t-25 -43.5v-378h-58v326
q0 34 -1.5 65t-9 55t-24 38t-46.5 14q-28 0 -51.5 -12t-42.5 -30.5t-33.5 -41t-24.5 -42.5v-372h-61z" />
    <glyph glyph-name="n" unicode="n" horiz-adv-x="530" 
d="M81 531h57l4 -86q13 17 30 35t38.5 32.5t48.5 24t61 9.5q43 0 70.5 -15.5t43 -40t21 -56t5.5 -63.5v-371h-59v365q0 19 -2 42t-11 43.5t-27 34t-50 13.5q-33 0 -60 -14.5t-48 -36t-36 -45.5t-25 -43v-359h-61v531z" />
    <glyph glyph-name="o" unicode="o" horiz-adv-x="575" 
d="M290 -14q-49 0 -92.5 19.5t-76.5 55.5t-52 87t-19 113t19.5 113t52.5 87t76.5 56t91.5 20q45 0 87.5 -17.5t75 -51t52.5 -84t20 -116.5q0 -60 -17.5 -112t-48.5 -89.5t-74 -59t-95 -21.5zM466 264q0 46 -13 85.5t-36 68.5t-55 46t-71 17q-38 0 -70.5 -16.5t-57 -46
t-38.5 -70t-14 -88.5q0 -51 15.5 -92t41 -69t57 -43t64.5 -15q35 0 67 16.5t56.5 46t39 70.5t14.5 90z" />
    <glyph glyph-name="p" unicode="p" horiz-adv-x="591" 
d="M81 531h55l3 -85q12 18 28.5 35t37.5 30.5t48 22t60 8.5q51 0 93 -20.5t72 -57t46.5 -87t16.5 -109.5q0 -62 -17 -113t-47 -87.5t-70.5 -57t-86.5 -20.5q-31 0 -58 8.5t-49.5 22.5t-41 31.5t-31.5 35.5v-302h-59v745zM482 269q0 46 -12 85.5t-33.5 68.5t-53 45.5
t-70.5 16.5q-37 0 -67.5 -15.5t-53 -43t-35 -67t-12.5 -87.5q0 -50 13 -91.5t36.5 -70.5t55 -45t67.5 -16q37 0 67.5 17t52.5 46.5t33.5 69.5t11.5 87z" />
    <glyph glyph-name="q" unicode="q" horiz-adv-x="591" 
d="M510 -214h-60v302q-13 -18 -31 -35.5t-40.5 -31.5t-49.5 -22.5t-57 -8.5q-46 0 -86.5 20.5t-70.5 57t-47.5 87.5t-17.5 113q0 59 17 109.5t47 87t72 57t92 20.5q33 0 60 -8.5t48.5 -22t37.5 -30.5t28 -35l3 85h55v-745zM110 269q0 -47 11.5 -87t33 -69.5t51.5 -46.5
t68 -17q36 0 67.5 16t55 45t36.5 70.5t13 91.5q0 48 -12.5 87.5t-34.5 67t-53 43t-68 15.5q-39 0 -70 -16.5t-53 -45.5t-33.5 -68.5t-11.5 -85.5z" />
    <glyph glyph-name="r" unicode="r" horiz-adv-x="297" 
d="M128 0h-59v531h55l3 -91q12 30 26 50.5t32 33t41 18t52 5.5v-64q-45 0 -74 -19t-46 -51t-23.5 -74.5t-6.5 -89.5v-249z" />
    <glyph glyph-name="s" unicode="s" horiz-adv-x="410" 
d="M219 -16q-50 0 -100.5 23t-87.5 58l33 51q38 -37 78.5 -56.5t76.5 -19.5q45 0 72.5 26.5t27.5 70.5q0 24 -8 40t-23 27t-35 19t-44 17q-28 10 -55.5 21.5t-49.5 29t-36 42.5t-14 62q0 33 11.5 60.5t31.5 47.5t48 31.5t61 11.5q42 0 85.5 -16.5t78.5 -45.5l-28 -54
q-33 28 -69 44.5t-68 16.5q-43 0 -67.5 -26.5t-24.5 -63.5q0 -23 9.5 -38.5t25 -27t37 -20t45.5 -17.5q29 -11 56 -23t47.5 -29t33 -42t12.5 -61t-12.5 -65.5t-34 -50.5t-50.5 -32t-63 -11z" />
    <glyph glyph-name="t" unicode="t" horiz-adv-x="273" 
d="M19 476v55h74v166h59v-166h82v-55h-82v-360q0 -46 6 -52q7 -7 18.5 -8.5t28.5 -1.5h37v-54h-37q-41 0 -66.5 6.5t-35.5 26.5q-7 13 -8.5 32.5t-1.5 66.5v344h-74z" />
    <glyph glyph-name="u" unicode="u" horiz-adv-x="522" 
d="M69 531h59v-349q0 -29 3.5 -55t12.5 -45.5t24 -31t38 -11.5q29 0 57 15.5t51 36.5t40.5 42.5t25.5 33.5v364h60v-531h-55l-4 91q-17 -19 -36 -37t-41 -32.5t-47.5 -23.5t-54.5 -9q-40 0 -65.5 16.5t-40.5 44.5t-21 64.5t-6 75.5v341z" />
    <glyph glyph-name="v" unicode="v" horiz-adv-x="449" 
d="M76 531l156 -440l144 440h54l-177 -531h-47l-187 531h57z" />
    <glyph glyph-name="w" unicode="w" horiz-adv-x="665" 
d="M75 531l128 -421l103 421h51l109 -428l131 428h49l-161 -531h-43l-111 424l-102 -424h-48l-162 531h56z" />
    <glyph glyph-name="x" unicode="x" horiz-adv-x="455" 
d="M227 312l143 219h60l-172 -259l178 -272h-60l-150 230q-38 -57 -74.5 -114.5t-74.5 -115.5h-58l177 271l-171 260h60z" />
    <glyph glyph-name="y" unicode="y" horiz-adv-x="445" 
d="M69 531l157 -441l146 441h54l-207 -618q-14 -41 -34 -66t-46 -38.5t-57 -18t-66 -4.5l10 47q33 0 56 4.5t40 16.5t29.5 33.5t23.5 55.5l22 66l-185 522h57z" />
    <glyph glyph-name="z" unicode="z" horiz-adv-x="459" 
d="M43 48l294 428h-287v55h361v-43l-297 -434h302v-54h-373v48z" />
    <glyph glyph-name="braceleft" unicode="{" horiz-adv-x="348" 
d="M310 -148q-35 9 -52.5 16t-30.5 15q-30 17 -49.5 37t-30 43.5t-14.5 51t-4 59.5v88q0 32 -5 58t-17.5 44.5t-33.5 28.5t-54 10v43q65 0 87.5 38t22.5 103v88q0 63 19.5 110t78.5 81q17 9 39 17t51 16v-41q-20 -6 -38 -14t-25 -11q-23 -12 -37 -28.5t-21 -36.5t-9 -45
t-2 -54v-84q0 -36 -7 -63t-20 -46t-31.5 -31.5t-40.5 -20.5q24 -9 42 -21.5t31 -31t19.5 -44.5t6.5 -63v-84q0 -29 2 -54t9 -45t21 -36.5t37 -28.5q5 -2 24 -10.5t39 -14.5v-39h-7z" />
    <glyph glyph-name="bar" unicode="|" horiz-adv-x="332" 
d="M138 774h57v-969h-57v969z" />
    <glyph glyph-name="braceright" unicode="}" horiz-adv-x="408" 
d="M97.9941 -148q34.998 9 52.4971 16t30.498 15q29.998 17 49.4971 37q19.498 20 29.998 43.5q10.499 23.5 14.499 51t4 59.5v88q0 32 4.99902 58q5 26 17.499 44.5t33.498 28.5t53.9971 10v43q-64.9961 0 -87.4951 38q-22.498 38 -22.498 103v88q0 63 -19.499 110
t-78.4951 81q-16.999 9 -38.998 17t-50.9971 16v-41q19.999 -6 37.998 -14t24.998 -11q22.999 -12 36.998 -28.5t20.999 -36.5q6.99902 -20 8.99902 -45t2 -54v-84q0 -36 7 -63q6.99902 -27 19.998 -46q13 -19 31.498 -31.5q18.499 -12.5 40.498 -20.5
q-23.999 -9 -41.998 -21.5q-17.998 -12.5 -30.998 -31q-12.999 -18.5 -19.498 -44.5q-6.5 -26 -6.5 -63v-84q0 -29 -2 -54t-8.99902 -45q-7 -20 -20.999 -36.5t-36.998 -28.5q-4.99902 -2 -23.998 -10.5t-38.998 -14.5v-39h7z" />
    <glyph glyph-name="asciitilde" unicode="~" horiz-adv-x="554" 
d="M472 339q-18 -57 -43.5 -90.5t-69.5 -33.5q-24 0 -45.5 13t-41 29t-38.5 29t-40 13q-17 0 -29.5 -22t-30.5 -73l-51 32q18 63 44 93.5t66 30.5q25 0 46 -13.5t40.5 -29t39 -29t40.5 -13.5q23 0 33.5 27t25.5 72z" />
    <glyph glyph-name="dagger" unicode="&#x2020;" horiz-adv-x="537" 
d="M300 515v-515h-59v515l-153 -19v70l152 -19v227h61v-227l153 19v-70z" />
    <glyph glyph-name="degree" unicode="&#xb0;" horiz-adv-x="339" 
d="M165 426q-30 0 -56.5 13.5t-46.5 37.5t-31.5 55.5t-11.5 67.5t11.5 67.5t31.5 55.5t46.5 37.5t56.5 13.5t56 -13.5t45.5 -37.5t30.5 -55.5t11 -67.5t-11 -67.5t-30.5 -55.5t-45.5 -37.5t-56 -13.5zM259 600q0 26 -7.5 49t-20.5 40.5t-30 27.5t-36 10q-20 0 -38 -10
t-31 -27.5t-20.5 -40.5t-7.5 -49t7.5 -48.5t20.5 -39.5t31 -27t38 -10q19 0 36 10t30 27t20.5 39.5t7.5 48.5z" />
    <glyph glyph-name="sterling" unicode="&#xa3;" horiz-adv-x="494" 
d="M368 546q2 11 2.5 18t0.5 15q0 29 -7 54.5t-20.5 44.5t-32 30t-42.5 11q-23 0 -44.5 -9.5t-38 -27.5t-27 -45t-10.5 -62q0 -20 5.5 -50t12.5 -58q8 -33 19 -68h102v-46h-93q3 -16 4.5 -27.5t2.5 -22t1.5 -21t0.5 -22.5q0 -61 -10.5 -100t-23.5 -62q-15 -27 -33 -41h191
q22 0 37.5 8.5t25 23t13.5 33.5t5 39h54v-22q0 -24 -7.5 -49t-23 -45t-38.5 -32.5t-54 -12.5h-282v69q45 7 68 49t23 116q0 23 -2.5 44.5t-5.5 38.5q-4 19 -7 36h-91v46h85q-4 21 -10 42t-11.5 43t-9.5 44.5t-4 45.5q0 44 13 80.5t36 63t53 41.5t65 15q34 0 64.5 -14.5
t53 -39.5t35.5 -58.5t13 -71.5q0 -23 -3 -44h-55z" />
    <glyph glyph-name="bullet" unicode="&#x2022;" horiz-adv-x="533" 
d="M198 387q0 34 20 57.5t48 23.5t48 -23.5t20 -57.5t-20 -57t-48 -23t-48 23t-20 57z" />
    <glyph glyph-name="paragraph" unicode="&#xb6;" horiz-adv-x="500" 
d="M259 246q-55 0 -97.5 19.5t-71.5 55t-44 84t-15 106.5q0 55 13 103t39.5 84t66.5 56.5t94 20.5h74v-989h-59v460zM360 774h57v-988h-57v988z" />
    <glyph glyph-name="germandbls" unicode="&#xdf;" horiz-adv-x="539" 
d="M89 541q0 45 5.5 90.5t24.5 82t54 59.5t95 23q39 0 71.5 -15.5t56 -42t36.5 -62.5t13 -78q0 -36 -9 -63t-23 -48t-30 -35.5t-30 -24.5q19 -8 42 -20t42 -34.5t32 -57t13 -85.5q0 -65 -19.5 -112t-52 -77t-74.5 -44.5t-86 -14.5l15 49q23 0 51 11t53 34t41.5 58.5
t16.5 84.5q0 54 -16 88t-41.5 54t-57 27.5t-63.5 7.5h-9v47h9q24 0 49 8.5t45 27.5t32.5 49t12.5 72q0 33 -9.5 60t-25.5 46.5t-38 30t-46 10.5q-45 0 -70 -21.5t-37 -54.5t-14 -74t-2 -80v-517h-57v541z" />
    <glyph glyph-name="acute" unicode="&#xb4;" horiz-adv-x="273" 
d="M162 588h-48l54 182l91 -13z" />
    <glyph glyph-name="dieresis" unicode="&#xa8;" horiz-adv-x="264" 
d="M19 691h87v-103h-87v103zM158 691h87v-103h-87v103z" />
    <glyph glyph-name="Oslash" unicode="&#xd8;" horiz-adv-x="743" 
d="M374 -19q-48 0 -91 15t-80 42l-54 -95h-48l70 121q-63 59 -99.5 146t-36.5 189q0 82 27 154t73.5 125t108 83.5t130.5 30.5q48 0 91.5 -15.5t81.5 -41.5l55 96h48l-69 -122q60 -54 95.5 -134.5t35.5 -175.5q0 -85 -26 -161t-72 -133t-107.5 -90.5t-132.5 -33.5zM94 399
q0 -86 28 -159.5t76 -123.5l324 570q-34 24 -71.5 37.5t-76.5 13.5q-57 0 -108 -26t-89 -72t-60.5 -107.5t-22.5 -132.5zM656 399q0 81 -27.5 148t-75.5 112l-324 -571q66 -51 145 -51q59 0 110.5 29t89.5 78.5t60 115.5t22 139z" />
    <glyph glyph-name="plusminus" unicode="&#xb1;" horiz-adv-x="600" 
d="M52 -66v50h494v-50h-494zM52 368h222v253h52v-253h220v-50h-220v-254h-52v254h-222v50z" />
    <glyph glyph-name="ordfeminine" unicode="&#xaa;" horiz-adv-x="360" 
d="M41 384h266v-32h-266v32zM224 477q-3 -4 -10.5 -10t-17.5 -11t-24 -8.5t-31 -3.5q-25 0 -44.5 9t-33.5 25t-22 37t-8 46q0 27 9 48.5t24.5 36t35 22t39.5 7.5q15 0 27.5 -3.5t22.5 -9.5t18.5 -13t14.5 -13v32q0 14 -6 28t-17.5 25t-28 18t-37.5 7q-12 0 -25 -2t-29 -9
l-8 31q8 3 17 4.5t19 3t19 2t16 0.5q29 0 50.5 -9t35.5 -25.5t21.5 -38.5t7.5 -49v-201h-33zM223 561q0 20 -7 35t-18.5 25t-25.5 15t-28 5t-28 -5.5t-25 -16t-17.5 -26t-6.5 -34.5q0 -18 6 -33.5t16.5 -26.5t24 -17t29.5 -6q14 0 28.5 6t26 17t18.5 27t7 35z" />
    <glyph glyph-name="ordmasculine" unicode="&#xba;" horiz-adv-x="352" 
d="M47 384h226v-32h-226v32zM162 446q-29 0 -55 11.5t-45.5 32.5t-31 52t-11.5 70q0 35 11.5 64.5t31 50.5t44.5 33t53 12t53.5 -10t45 -30.5t31.5 -50t12 -68.5q0 -36 -10.5 -66.5t-29 -53t-44 -35t-55.5 -12.5zM261 613q0 26 -7.5 48.5t-20.5 39.5t-31 27t-40 10
t-41 -10.5t-32.5 -27.5t-21.5 -39.5t-8 -46.5q0 -34 9 -59.5t23 -42t32.5 -25t38.5 -8.5q19 0 37 9.5t32 27.5t22 42.5t8 54.5z" />
    <glyph glyph-name="ae" unicode="&#xe6;" horiz-adv-x="854" 
d="M792 117q-10 -21 -28 -44.5t-43 -43t-57.5 -32.5t-71.5 -13q-48 0 -85.5 18t-63.5 40q-30 26 -52 58q-12 -21 -27.5 -41.5t-36.5 -37t-49 -27t-65 -10.5q-40 0 -73.5 15.5t-57.5 42.5t-37.5 63t-13.5 78q0 46 15.5 82t41.5 60.5t58.5 37t67.5 12.5q25 0 46.5 -6t38.5 -16
t30.5 -21.5t23.5 -21.5v53q0 25 -10 48.5t-29 42t-46.5 30t-61.5 11.5q-22 0 -44 -3.5t-51 -14.5l-12 53q13 4 29 7t32.5 5t32.5 3t29 1q67 0 110.5 -29.5t63.5 -80.5q32 53 82 81.5t104 28.5q63 0 108.5 -25.5t75 -65.5t43.5 -89.5t14 -97.5v-12t-1 -12h-408
q1 -23 10 -57.5t28.5 -66.5t52 -54.5t81.5 -22.5q32 0 57.5 10.5t45 27t34 35.5t23.5 36zM352 183q0 33 -12 58.5t-31 42.5t-43 25.5t-47 8.5q-25 0 -48.5 -9.5t-42 -27.5t-29.5 -43.5t-11 -57.5q0 -31 10.5 -57t28 -44.5t41 -29t49.5 -10.5q25 0 49.5 10.5t43.5 29t30.5 45
t11.5 59.5zM586 489q-45 0 -77.5 -20t-53 -49t-30.5 -61t-11 -57h350q-2 22 -11.5 54.5t-30.5 61.5t-54 50t-82 21z" />
    <glyph glyph-name="oslash" unicode="&#xf8;" horiz-adv-x="536" 
d="M65 -57l57 98q-42 37 -66.5 94t-24.5 131q0 59 19.5 108.5t52 85.5t76 56.5t91.5 20.5q62 0 112 -29l45 80h48l-59 -102q42 -35 66.5 -89.5t24.5 -128.5q0 -60 -17.5 -112t-48.5 -89.5t-74 -59t-95 -21.5q-65 0 -118 31l-41 -74h-48zM448 268q0 50 -16 92.5t-45 71.5
l-205 -363q41 -28 90 -28q35 0 67 16.5t56 46.5t38.5 71.5t14.5 92.5zM93 271q0 -60 16 -103.5t42 -72.5l205 362q-20 11 -40.5 17.5t-42.5 6.5q-39 0 -72 -18t-57 -47t-37.5 -67t-13.5 -78z" />
    <glyph glyph-name="questiondown" unicode="&#xbf;" horiz-adv-x="563" 
d="M374.978 162.99h-28.999q-26.998 0 -48.9971 -12.999q-21.998 -13 -37.9971 -35.498q-15.999 -22.499 -24.499 -52.4971q-8.49902 -29.998 -8.49902 -63.9961q0 -36.998 9.99902 -66.9961q10 -29.998 26.499 -50.9961q16.499 -20.999 37.9971 -31.998
q21.499 -11 45.4971 -11q31.998 0 52.9971 17.999t33.498 42.9971q12.499 24.999 17.999 49.9971q5.5 24.999 5.5 37.998h55.9961v-7q0 -20.998 -8 -53.4961q-7.99902 -32.498 -27.498 -63.4961t-51.9971 -53.4971q-32.4971 -22.499 -82.4941 -22.499
q-41.998 0 -73.9961 17.499t-54.4961 47.4971q-22.499 29.998 -33.998 69.9961q-11.499 39.9971 -11.499 84.9951q0 57.9961 16.998 97.4941q16.999 39.4971 41.998 63.4961q24.998 23.998 52.9961 34.9971q27.999 11 49.9971 13l8 130.991h46.9971v-166.989z
M411.975 515.969q0 -22.999 -14.499 -39.498t-36.498 -16.499q-21.998 0 -36.4971 16.499t-14.499 39.498q0 22.998 14.499 39.4971t36.4971 16.499q21.999 0 36.498 -16.499t14.499 -39.4971z" />
    <glyph glyph-name="exclamdown" unicode="&#xa1;" horiz-adv-x="316" 
d="M157 538.967q-23 0 -38 -17.499t-15 -41.4971q0 -25.998 16 -42.4971t37 -16.499q23 0 38.5 16.999t15.5 41.9971t-15.5 41.9971t-38.5 16.999zM111 -242.985h92l-19 605.963h-49z" />
    <glyph glyph-name="logicalnot" unicode="&#xac;" horiz-adv-x="494" 
d="M394 358h-375v66h444v-269h-69v203z" />
    <glyph glyph-name="florin" unicode="&#x192;" horiz-adv-x="460" 
d="M19 -163q3 0 8.5 -0.5t9.5 -0.5q6 -1 11.5 -1.5t11.5 -0.5q36 0 57.5 19.5t34.5 54t19.5 83t12.5 106.5l32 299h-110v52h116l2 25q4 38 12 90t26.5 99.5t51.5 80.5t86 33q12 0 24.5 -2.5t24.5 -7.5l-7 -56q-11 5 -21.5 8t-19.5 3q-34 0 -55 -22.5t-33.5 -56.5t-18.5 -75
t-10 -78l-4 -41h104v-52h-111q-7 -67 -14 -137.5t-15 -139.5q-7 -70 -16 -131t-28.5 -106.5t-54 -72t-91.5 -26.5q-8 0 -14 1l-12 2l-17 4z" />
    <glyph glyph-name="guillemotleft" unicode="&#xab;" horiz-adv-x="434" 
d="M145 449h72l-112 -185l112 -185h-72l-114 185zM330 449h73l-113 -185l113 -185h-73l-114 185z" />
    <glyph glyph-name="guillemotright" unicode="&#xbb;" horiz-adv-x="434" 
d="M288.982 449h-71.9961l111.993 -185l-111.993 -185h71.9961l113.993 185zM103.994 449h-72.9961l112.993 -185l-112.993 -185h72.9961l113.992 185z" />
    <glyph glyph-name="nonbreakingspace" unicode="&#xa0;" horiz-adv-x="638" 
 />
    <glyph glyph-name="oe" unicode="&#x153;" horiz-adv-x="883" 
d="M821 117q-10 -21 -27.5 -44.5t-42.5 -43t-58 -32.5t-75 -13q-57 0 -101 23t-74 62q-30 -39 -74.5 -61t-97.5 -22q-49 0 -92.5 19t-76.5 55t-52 88t-19 118q0 59 19 108.5t51.5 85.5t76 56.5t92.5 20.5q50 0 94.5 -19t78.5 -60q32 43 77.5 65.5t99.5 22.5
q57 0 100.5 -25.5t73 -65.5t44 -89t14.5 -97v-25h-409q1 -23 10 -57.5t29 -66.5t52.5 -54.5t80.5 -22.5q32 0 57.5 10.5t45 27t34 35.5t23.5 36zM271 41q40 0 77 23t62 63q-28 65 -28 142q0 74 27 134q-25 35 -60 56.5t-77 21.5q-39 0 -72 -18t-56.5 -47t-37 -67t-13.5 -78
q0 -58 15.5 -101.5t40.5 -72t57 -42.5t65 -14zM618 489q-47 0 -79.5 -20t-53 -49t-31 -61t-11.5 -57h350q-2 22 -11.5 54.5t-30 61.5t-53 50t-80.5 21z" />
    <glyph glyph-name="endash" unicode="&#x2013;" horiz-adv-x="573" 
d="M39 359h487v-67h-487v67z" />
    <glyph glyph-name="emdash" unicode="&#x2014;" horiz-adv-x="959" 
d="M39 359h881v-67h-881v67z" />
    <glyph glyph-name="quotedblleft" unicode="&#x201c;" horiz-adv-x="449" 
d="M245 531l73 243h47l-59 -243h-61zM96 531l71 243h48l-59 -243h-60z" />
    <glyph glyph-name="quotedblright" unicode="&#x201d;" horiz-adv-x="493" 
d="M214 774l-72 -243h-47l59 243h60zM363 774l-72 -243h-47l59 243h60z" />
    <glyph glyph-name="quoteleft" unicode="&#x2018;" horiz-adv-x="297" 
d="M86 531l72 243h47l-59 -243h-60z" />
    <glyph glyph-name="quoteright" unicode="&#x2019;" horiz-adv-x="297" 
d="M214 774l-72 -243h-47l59 243h60z" />
    <glyph glyph-name="divide" unicode="&#xf7;" horiz-adv-x="1111" 
d="M262 308v67h589v-67h-589zM494 110q0 23 13.5 39.5t33.5 16.5t33.5 -16.5t13.5 -39.5t-13.5 -39.5t-33.5 -16.5t-33.5 16.5t-13.5 39.5zM494 582q0 23 13.5 39.5t33.5 16.5t33.5 -16.5t13.5 -39.5t-13.5 -39.5t-33.5 -16.5t-33.5 16.5t-13.5 39.5z" />
    <glyph glyph-name="fraction" unicode="&#x2044;" horiz-adv-x="345" 
d="M416 774l-437 -774h-48l437 774h48z" />
    <glyph glyph-name="guilsinglleft" unicode="&#x2039;" horiz-adv-x="249" 
d="M145 449h72l-112 -185l112 -185h-72l-114 185z" />
    <glyph glyph-name="guilsinglright" unicode="&#x203a;" horiz-adv-x="249" 
d="M103.994 449h-71.9961l111.993 -185l-111.993 -185h71.9961l113.992 185z" />
    <glyph glyph-name="daggerdbl" unicode="&#x2021;" horiz-adv-x="537" 
d="M453 278v-71l-153 19v-226h-60v226l-152 -19v71l153 -19v256l-153 -19v70l152 -19v227h60v-227l153 19v-70l-154 19v-256z" />
    <glyph glyph-name="periodcentered" unicode="&#xb7;" horiz-adv-x="259" 
d="M83 290q0 23 13 39.5t33 16.5t33.5 -16.5t13.5 -39.5t-13.5 -39.5t-33.5 -16.5t-33 16.5t-13 39.5z" />
    <glyph glyph-name="quotesinglbase" unicode="&#x201a;" horiz-adv-x="252" 
d="M70 -71l73 235h47l-60 -235h-60z" />
    <glyph glyph-name="quotedblbase" unicode="&#x201e;" horiz-adv-x="425" 
d="M86 -71l71 235h47l-58 -235h-60zM220 -71l72 235h47l-59 -235h-60z" />
    <glyph glyph-name="perthousand" unicode="&#x2030;" horiz-adv-x="1025" 
d="M820 -17q-40 0 -71.5 20.5t-51.5 55.5q-19 -35 -50 -55.5t-69 -20.5q-30 0 -57 13t-46.5 36t-31 54t-11.5 66t11.5 66t31 54t46.5 36.5t57 13.5q38 0 69 -21t50 -56q20 35 51.5 56t71.5 21q30 0 56 -13.5t45.5 -37t30.5 -54.5t11 -65q0 -35 -11 -65.5t-30.5 -53.5
t-45.5 -36.5t-56 -13.5zM61 609q0 34 12 64.5t32 52.5t47 35t57 13q29 0 55.5 -12.5t46 -34.5t31 -52t11.5 -66t-11 -67.5t-30.5 -55.5t-46 -38t-56.5 -14q-32 0 -59 14t-46.5 37.5t-31 55.5t-11.5 68zM209 481q21 0 38.5 10.5t30.5 28t20.5 40.5t7.5 49t-8 48t-21 37.5
t-31 24t-37 8.5q-20 0 -37.5 -9t-31 -25t-21.5 -37.5t-8 -46.5q0 -26 7.5 -49t20.5 -40.5t31 -28t39 -10.5zM162 0l435 774h51l-435 -774h-51zM673 152q0 25 -7.5 48t-20 40t-30 27t-37.5 10q-21 0 -39 -10t-31.5 -27t-21 -39.5t-7.5 -48.5q0 -27 8 -49.5t21.5 -39.5
t31.5 -26.5t38 -9.5q21 0 38 10t30 27t20 39.5t7 48.5zM917 152q0 25 -7.5 48t-21 40t-31 27t-37.5 10q-21 0 -39 -10t-31.5 -27t-21 -39.5t-7.5 -48.5q0 -27 8 -49.5t21.5 -39.5t31.5 -26.5t38 -9.5q21 0 38.5 10t30.5 27t20.5 39.5t7.5 48.5z" />
    <glyph glyph-name="dotlessi" unicode="&#x131;" horiz-adv-x="224" 
d="M84 531h59v-531h-59v531z" />
    <glyph glyph-name="circumflex" unicode="&#x2c6;" horiz-adv-x="213" 
d="M85 724h44l80 -136h-50l-53 69l-54 -69h-48z" />
    <glyph glyph-name="tilde" unicode="&#x2dc;" horiz-adv-x="306" 
d="M205 598q-14 0 -28 7t-28 16q-13 8 -25.5 15t-22.5 7q-6 0 -12.5 -12t-16.5 -47l-42 16q10 58 28 79.5t43 21.5q14 0 27.5 -7t27.5 -15q14 -9 27 -16t21 -7t14.5 12t15.5 47l41 -16q-10 -57 -27 -79t-43 -22z" />
    <glyph glyph-name="macron" unicode="&#xaf;" horiz-adv-x="273" 
d="M26 588v54h222v-54h-222z" />
    <glyph glyph-name="breve" unicode="&#x2d8;" horiz-adv-x="302" 
d="M76 725q0 -48 21 -73.5t52 -25.5q32 0 57 26t25 73h46q0 -35 -10 -61.5t-27.5 -44t-40.5 -26.5t-48 -9q-55 0 -89 37.5t-34 103.5h48z" />
    <glyph glyph-name="dotaccent" unicode="&#x2d9;" horiz-adv-x="137" 
d="M26 691h87v-103h-87v103z" />
    <glyph glyph-name="ring" unicode="&#x2da;" horiz-adv-x="211" 
d="M-2 695q0 22 8.5 41.5t23 34t34 23t41.5 8.5t41.5 -8.5t34 -23t23 -34t8.5 -41.5t-8.5 -41.5t-23 -34t-34 -23t-41.5 -8.5t-41.5 8.5t-34 23t-23 34t-8.5 41.5zM37 695q0 -28 20 -48t48 -20t47.5 20t19.5 48q0 27 -19.5 47t-47.5 20t-48 -20t-20 -47z" />
    <glyph glyph-name="cedilla" unicode="&#xb8;" horiz-adv-x="277" 
d="M66 -65l37 79h46l-31 -60q13 -1 28 -5.5t27.5 -14t21 -23.5t8.5 -35t-9 -36t-23 -25t-31 -14.5t-34 -4.5q-23 0 -44.5 8t-45.5 22v42q6 -5 16 -11t22 -11.5t24 -9t22 -3.5q17 0 28.5 9.5t11.5 31.5q0 13 -5 21.5t-13 13t-17.5 6t-18.5 2.5z" />
    <glyph glyph-name="hungarumlaut" unicode="&#x2dd;" horiz-adv-x="292" 
d="M193 588h-48l55 182l90 -13zM50 588h-48l55 182l90 -13z" />
    <glyph glyph-name="ogonek" unicode="&#x2db;" horiz-adv-x="204" 
d="M180 -202q-21 -6 -43.5 -9.5t-37.5 -3.5q-43 0 -70 29.5t-27 69.5q0 24 9.5 43t24 33t32 24t32.5 16h62q-18 -10 -36 -22t-32 -26t-23 -29.5t-9 -31.5q0 -8 2.5 -17.5t9.5 -18t19.5 -14.5t31.5 -6q22 0 55 12v-49z" />
    <glyph glyph-name="caron" unicode="&#x2c7;" horiz-adv-x="294" 
d="M33 767h46l67 -119l75 119h45l-88 -179h-67z" />
    <glyph glyph-name="Euro" unicode="&#x20ac;" horiz-adv-x="513" 
d="M31 492h44q7 61 22.5 113t42 89.5t65 58.5t90.5 21q72 0 117 -37t70 -100l-45 -52q-20 63 -53.5 98t-88.5 35q-38 0 -65 -17t-46.5 -47t-31 -71.5t-17.5 -90.5h215l-10 -63h-208q-2 -12 -2 -24v-25v-26t2 -24h197l-10 -62h-183q6 -50 17.5 -92t30.5 -72.5t46 -47.5
t65 -17q48 0 80.5 28t52.5 79l44 -47q-26 -54 -69 -85t-109 -31q-52 0 -90 21.5t-64.5 59.5t-42 90t-22.5 114h-44v62h40q-1 12 -1 24.5v25.5v25t1 24h-40v63z" />
    <glyph glyph-name="Agrave" unicode="&#xc0;" horiz-adv-x="599" 
d="M173 298h255l-128 418zM19 0l249 774h70l242 -774h-62l-73 248h-288l-77 -248h-61zM179 1000l90 13l55 -182h-48z" />
    <glyph glyph-name="Aacute" unicode="&#xc1;" horiz-adv-x="599" 
d="M173 298h255l-128 418zM19 0l249 774h70l242 -774h-62l-73 248h-288l-77 -248h-61zM328 831h-48l54 182l91 -13z" />
    <glyph glyph-name="Acircumflex" unicode="&#xc2;" horiz-adv-x="599" 
d="M173 298h255l-128 418zM19 0l249 774h70l242 -774h-62l-73 248h-288l-77 -248h-61zM279 967h44l80 -136h-50l-53 69l-54 -69h-48z" />
    <glyph glyph-name="Atilde" unicode="&#xc3;" horiz-adv-x="599" 
d="M173 298h255l-128 418zM19 0l249 774h70l242 -774h-62l-73 248h-288l-77 -248h-61zM352 831q-14 0 -28 7t-28 16q-13 8 -25.5 15t-22.5 7q-6 0 -12.5 -12t-16.5 -47l-42 16q10 58 28 79.5t43 21.5q14 0 27.5 -7t27.5 -15q14 -9 27 -16t21 -7t14.5 12t15.5 47l41 -16
q-10 -57 -27 -79t-43 -22z" />
    <glyph glyph-name="Adieresis" unicode="&#xc4;" horiz-adv-x="599" 
d="M173 298h255l-128 418zM19 0l249 774h70l242 -774h-62l-73 248h-288l-77 -248h-61zM192 934h87v-103h-87v103zM331 934h87v-103h-87v103z" />
    <glyph glyph-name="Aring" unicode="&#xc5;" horiz-adv-x="599" 
d="M173 298h255l-128 418zM19 0l249 774h70l242 -774h-62l-73 248h-288l-77 -248h-61zM194 843q0 22 8.5 41.5t23 34t34 23t41.5 8.5t41.5 -8.5t34 -23t23 -34t8.5 -41.5t-8.5 -41.5t-23 -34t-34 -23t-41.5 -8.5t-41.5 8.5t-34 23t-23 34t-8.5 41.5zM233 843q0 -28 20 -48
t48 -20t47.5 20t19.5 48q0 27 -19.5 47t-47.5 20t-48 -20t-20 -47z" />
    <glyph glyph-name="atilde" unicode="&#xe3;" horiz-adv-x="502" 
d="M374 41q-6 -7 -18 -17t-29.5 -19t-41 -15t-52.5 -6q-41 0 -74.5 15.5t-57.5 42.5t-37.5 63t-13.5 78q0 46 16 82t41.5 60.5t58.5 37t67 12.5q25 0 46.5 -6t38.5 -16t31 -21.5t25 -21.5v53q0 25 -10.5 48.5t-30 42t-47.5 30t-63 11.5q-20 0 -42 -3.5t-49 -14.5l-13 53
q13 4 28.5 7t32 5t32 3t27.5 1q48 0 84.5 -15.5t60.5 -43t36.5 -65t12.5 -82.5v-340h-56zM372 183q0 33 -12 58.5t-31.5 42.5t-43 25.5t-46.5 8.5q-25 0 -48.5 -9.5t-42 -27.5t-29.5 -43.5t-11 -57.5q0 -31 10.5 -57t28 -44.5t40.5 -29t49 -10.5q25 0 49.5 10.5t44 29t31 45
t11.5 59.5zM300 588q-14 0 -28 7t-28 16q-13 8 -25.5 15t-22.5 7q-6 0 -12.5 -12t-16.5 -47l-42 16q10 58 28 79.5t43 21.5q14 0 27.5 -7t27.5 -15q14 -9 27 -16t21 -7t14.5 12t15.5 47l41 -16q-10 -57 -27 -79t-43 -22z" />
    <glyph glyph-name="agrave" unicode="&#xe0;" horiz-adv-x="502" 
d="M374 41q-6 -7 -18 -17t-29.5 -19t-41 -15t-52.5 -6q-41 0 -74.5 15.5t-57.5 42.5t-37.5 63t-13.5 78q0 46 16 82t41.5 60.5t58.5 37t67 12.5q25 0 46.5 -6t38.5 -16t31 -21.5t25 -21.5v53q0 25 -10.5 48.5t-30 42t-47.5 30t-63 11.5q-20 0 -42 -3.5t-49 -14.5l-13 53
q13 4 28.5 7t32 5t32 3t27.5 1q48 0 84.5 -15.5t60.5 -43t36.5 -65t12.5 -82.5v-340h-56zM372 183q0 33 -12 58.5t-31.5 42.5t-43 25.5t-46.5 8.5q-25 0 -48.5 -9.5t-42 -27.5t-29.5 -43.5t-11 -57.5q0 -31 10.5 -57t28 -44.5t40.5 -29t49 -10.5q25 0 49.5 10.5t44 29t31 45
t11.5 59.5zM155 757l90 13l55 -182h-48z" />
    <glyph glyph-name="aacute" unicode="&#xe1;" horiz-adv-x="502" 
d="M374 41q-6 -7 -18 -17t-29.5 -19t-41 -15t-52.5 -6q-41 0 -74.5 15.5t-57.5 42.5t-37.5 63t-13.5 78q0 46 16 82t41.5 60.5t58.5 37t67 12.5q25 0 46.5 -6t38.5 -16t31 -21.5t25 -21.5v53q0 25 -10.5 48.5t-30 42t-47.5 30t-63 11.5q-20 0 -42 -3.5t-49 -14.5l-13 53
q13 4 28.5 7t32 5t32 3t27.5 1q48 0 84.5 -15.5t60.5 -43t36.5 -65t12.5 -82.5v-340h-56zM372 183q0 33 -12 58.5t-31.5 42.5t-43 25.5t-46.5 8.5q-25 0 -48.5 -9.5t-42 -27.5t-29.5 -43.5t-11 -57.5q0 -31 10.5 -57t28 -44.5t40.5 -29t49 -10.5q25 0 49.5 10.5t44 29t31 45
t11.5 59.5zM248 588h-48l54 182l91 -13z" />
    <glyph glyph-name="acircumflex" unicode="&#xe2;" horiz-adv-x="502" 
d="M374 41q-6 -7 -18 -17t-29.5 -19t-41 -15t-52.5 -6q-41 0 -74.5 15.5t-57.5 42.5t-37.5 63t-13.5 78q0 46 16 82t41.5 60.5t58.5 37t67 12.5q25 0 46.5 -6t38.5 -16t31 -21.5t25 -21.5v53q0 25 -10.5 48.5t-30 42t-47.5 30t-63 11.5q-20 0 -42 -3.5t-49 -14.5l-13 53
q13 4 28.5 7t32 5t32 3t27.5 1q48 0 84.5 -15.5t60.5 -43t36.5 -65t12.5 -82.5v-340h-56zM372 183q0 33 -12 58.5t-31.5 42.5t-43 25.5t-46.5 8.5q-25 0 -48.5 -9.5t-42 -27.5t-29.5 -43.5t-11 -57.5q0 -31 10.5 -57t28 -44.5t40.5 -29t49 -10.5q25 0 49.5 10.5t44 29t31 45
t11.5 59.5zM230 724h44l80 -136h-50l-53 69l-54 -69h-48z" />
    <glyph glyph-name="adieresis" unicode="&#xe4;" horiz-adv-x="502" 
d="M374 41q-6 -7 -18 -17t-29.5 -19t-41 -15t-52.5 -6q-41 0 -74.5 15.5t-57.5 42.5t-37.5 63t-13.5 78q0 46 16 82t41.5 60.5t58.5 37t67 12.5q25 0 46.5 -6t38.5 -16t31 -21.5t25 -21.5v53q0 25 -10.5 48.5t-30 42t-47.5 30t-63 11.5q-20 0 -42 -3.5t-49 -14.5l-13 53
q13 4 28.5 7t32 5t32 3t27.5 1q48 0 84.5 -15.5t60.5 -43t36.5 -65t12.5 -82.5v-340h-56zM372 183q0 33 -12 58.5t-31.5 42.5t-43 25.5t-46.5 8.5q-25 0 -48.5 -9.5t-42 -27.5t-29.5 -43.5t-11 -57.5q0 -31 10.5 -57t28 -44.5t40.5 -29t49 -10.5q25 0 49.5 10.5t44 29t31 45
t11.5 59.5zM146 691h87v-103h-87v103zM285 691h87v-103h-87v103z" />
    <glyph glyph-name="aring" unicode="&#xe5;" horiz-adv-x="502" 
d="M374 41q-6 -7 -18 -17t-29.5 -19t-41 -15t-52.5 -6q-41 0 -74.5 15.5t-57.5 42.5t-37.5 63t-13.5 78q0 46 16 82t41.5 60.5t58.5 37t67 12.5q25 0 46.5 -6t38.5 -16t31 -21.5t25 -21.5v53q0 25 -10.5 48.5t-30 42t-47.5 30t-63 11.5q-20 0 -42 -3.5t-49 -14.5l-13 53
q13 4 28.5 7t32 5t32 3t27.5 1q48 0 84.5 -15.5t60.5 -43t36.5 -65t12.5 -82.5v-340h-56zM372 183q0 33 -12 58.5t-31.5 42.5t-43 25.5t-46.5 8.5q-25 0 -48.5 -9.5t-42 -27.5t-29.5 -43.5t-11 -57.5q0 -31 10.5 -57t28 -44.5t40.5 -29t49 -10.5q25 0 49.5 10.5t44 29t31 45
t11.5 59.5zM143 614q0 22 8.5 41.5t23 34t34 23t41.5 8.5t41.5 -8.5t34 -23t23 -34t8.5 -41.5t-8.5 -41.5t-23 -34t-34 -23t-41.5 -8.5t-41.5 8.5t-34 23t-23 34t-8.5 41.5zM182 614q0 -28 20 -48t48 -20t47.5 20t19.5 48q0 27 -19.5 47t-47.5 20t-48 -20t-20 -47z" />
    <glyph glyph-name="Ntilde" unicode="&#xd1;" horiz-adv-x="617" 
d="M83 774h81l310 -639v639h60v-774h-57l-334 690v-690h-60v774zM374 837q-14 0 -28 7t-28 16q-13 8 -25.5 15t-22.5 7q-6 0 -12.5 -12t-16.5 -47l-42 16q10 58 28 79.5t43 21.5q14 0 27.5 -7t27.5 -15q14 -9 27 -16t21 -7t14.5 12t15.5 47l41 -16q-10 -57 -27 -79t-43 -22z
" />
    <glyph glyph-name="ntilde" unicode="&#xf1;" horiz-adv-x="530" 
d="M81 531h57l4 -86q13 17 30 35t38.5 32.5t48.5 24t61 9.5q43 0 70.5 -15.5t43 -40t21 -56t5.5 -63.5v-371h-59v365q0 19 -2 42t-11 43.5t-27 34t-50 13.5q-33 0 -60 -14.5t-48 -36t-36 -45.5t-25 -43v-359h-61v531zM349 588q-14 0 -28 7t-28 16q-13 8 -25.5 15t-22.5 7
q-6 0 -12.5 -12t-16.5 -47l-42 16q10 58 28 79.5t43 21.5q14 0 27.5 -7t27.5 -15q14 -9 27 -16t21 -7t14.5 12t15.5 47l41 -16q-10 -57 -27 -79t-43 -22z" />
    <glyph glyph-name="scaron" unicode="&#x161;" horiz-adv-x="410" 
d="M219 -16q-50 0 -100.5 23t-87.5 58l33 51q38 -37 78.5 -56.5t76.5 -19.5q45 0 72.5 26.5t27.5 70.5q0 24 -8 40t-23 27t-35 19t-44 17q-28 10 -55.5 21.5t-49.5 29t-36 42.5t-14 62q0 33 11.5 60.5t31.5 47.5t48 31.5t61 11.5q42 0 85.5 -16.5t78.5 -45.5l-28 -54
q-33 28 -69 44.5t-68 16.5q-43 0 -67.5 -26.5t-24.5 -63.5q0 -23 9.5 -38.5t25 -27t37 -20t45.5 -17.5q29 -11 56 -23t47.5 -29t33 -42t12.5 -61t-12.5 -65.5t-34 -50.5t-50.5 -32t-63 -11zM94 767h46l67 -119l75 119h45l-88 -179h-67z" />
    <glyph glyph-name="Scaron" unicode="&#x160;" horiz-adv-x="530" 
d="M479 201q0 -48 -14.5 -88.5t-42.5 -70t-67.5 -46t-89.5 -16.5q-69 0 -123 28t-92 70l38 52q41 -44 85.5 -69.5t95.5 -25.5q67 0 107 42t40 114q0 40 -13 67.5t-35 48.5t-51.5 37t-63.5 32q-36 17 -70 35.5t-60.5 43.5t-42 59.5t-15.5 84.5q0 48 14.5 85.5t41 63.5
t63 39.5t80.5 13.5q63 0 109.5 -23.5t86.5 -56.5l-37 -52q-43 38 -84 58t-84 20q-33 0 -57.5 -11t-40 -30.5t-23.5 -45t-8 -53.5q0 -35 11 -60t32 -44.5t51.5 -36.5t69.5 -36q36 -17 70 -36t60.5 -45t42.5 -61.5t16 -86.5zM149 1010h46l67 -119l75 119h45l-88 -179h-67z" />
    <glyph glyph-name="Zcaron" unicode="&#x17d;" horiz-adv-x="496" 
d="M31 0v50l367 670h-367v54h434v-47l-368 -675h367v-52h-433zM136 1010h46l67 -119l75 119h45l-88 -179h-67z" />
    <glyph glyph-name="zcaron" unicode="&#x17e;" horiz-adv-x="459" 
d="M43 48l294 428h-287v55h361v-43l-297 -434h302v-54h-373v48zM119 767h46l67 -119l75 119h45l-88 -179h-67z" />
    <glyph glyph-name="Ydieresis" unicode="&#x178;" horiz-adv-x="570" 
d="M254 306l-242 468h73l202 -402l201 402h69l-243 -467v-307h-60v306zM174 934h87v-103h-87v103zM313 934h87v-103h-87v103z" />
    <glyph glyph-name="brokenbar" unicode="&#xa6;" horiz-adv-x="211" 
d="M79 774h56v-435h-56v435zM79 241h56v-435h-56v435z" />
    <glyph glyph-name="Ccedilla" unicode="&#xc7;" horiz-adv-x="683" 
d="M652 136q-46 -71 -114.5 -113.5t-149.5 -42.5q-71 0 -133 34t-107.5 92t-71.5 133.5t-26 158.5q0 84 27 157t73.5 126.5t107.5 84t130 30.5q75 0 140 -34.5t111 -94.5l-38 -43q-42 55 -97 86t-116 31q-57 0 -107.5 -26.5t-88.5 -72.5t-60.5 -109t-22.5 -136
q0 -71 21.5 -136.5t59 -115.5t89 -79.5t110.5 -29.5q66 0 122 36.5t97 98.5zM361 -65l37 79h46l-31 -60q13 -1 28 -5.5t27.5 -14t21 -23.5t8.5 -35t-9 -36t-23 -25t-31 -14.5t-34 -4.5q-23 0 -44.5 8t-45.5 22v42q6 -5 16 -11t22 -11.5t24 -9t22 -3.5q17 0 28.5 9.5
t11.5 31.5q0 13 -5 21.5t-13 13t-17.5 6t-18.5 2.5z" />
    <glyph glyph-name="OE" unicode="&#x152;" horiz-adv-x="913" 
d="M488 0q-23 -9 -48 -14t-51 -5q-71 0 -132.5 34t-107.5 91t-72 132t-26 158q0 84 27 156.5t73 126t107.5 83.5t129.5 30q27 0 52 -5t48 -13h394v-53h-340v-300h227v-55h-227v-314h340v-52h-394zM389 37q51 0 93 22v657q-21 10 -44.5 15.5t-49.5 5.5q-56 0 -106.5 -26
t-88.5 -72t-60.5 -108t-22.5 -135q0 -71 21.5 -136t59 -114.5t88.5 -79t110 -29.5z" />
    <glyph glyph-name="trademark" unicode="&#x2122;" horiz-adv-x="900" 
d="M15.3721 644.519h280.843v-31.3105h-122.979v-425.938h-35.4746v425.938h-122.389v31.3105zM249.994 644.785h43.1436l132.385 -379.425l135.931 379.425h39.0059v-457.438h-34.8691v380.606l-130.021 -362.285h-23.6396l-126.475 364.649v-382.971h-35.4609v457.438z
" />
    <glyph glyph-name="Egrave" unicode="&#xc8;" horiz-adv-x="513" 
d="M83 0v774h399v-53h-339v-300h226v-55h-226v-314h339v-52h-399zM193 1000l90 13l55 -182h-48z" />
    <glyph glyph-name="Eacute" unicode="&#xc9;" horiz-adv-x="513" 
d="M83 0v774h399v-53h-339v-300h226v-55h-226v-314h339v-52h-399zM271 831h-48l54 182l91 -13z" />
    <glyph glyph-name="Ecircumflex" unicode="&#xca;" horiz-adv-x="513" 
d="M83 0v774h399v-53h-339v-300h226v-55h-226v-314h339v-52h-399zM259 967h44l80 -136h-50l-53 69l-54 -69h-48z" />
    <glyph glyph-name="Edieresis" unicode="&#xcb;" horiz-adv-x="513" 
d="M83 0v774h399v-53h-339v-300h226v-55h-226v-314h339v-52h-399zM173 934h87v-103h-87v103zM312 934h87v-103h-87v103z" />
    <glyph glyph-name="ccedilla" unicode="&#xe7;" horiz-adv-x="527" 
d="M495 126q-29 -63 -82.5 -100t-122.5 -37q-49 0 -92.5 19.5t-76.5 55.5t-52 87t-19 113t19.5 113t52.5 87.5t76.5 56.5t91.5 20q63 0 119.5 -33t86.5 -98l-48 -41q-23 51 -64.5 83t-92.5 32q-38 0 -70.5 -16.5t-57 -46t-38.5 -70t-14 -88.5q0 -51 15.5 -91.5t40.5 -68.5
t57.5 -43t65.5 -15q48 0 89.5 31t66.5 88zM250 -65l37 79h46l-31 -60q13 -1 28 -5.5t27.5 -14t21 -23.5t8.5 -35t-9 -36t-23 -25t-31 -14.5t-34 -4.5q-23 0 -44.5 8t-45.5 22v42q6 -5 16 -11t22 -11.5t24 -9t22 -3.5q17 0 28.5 9.5t11.5 31.5q0 13 -5 21.5t-13 13t-17.5 6
t-18.5 2.5z" />
    <glyph glyph-name="Ograve" unicode="&#xd2;" horiz-adv-x="765" 
d="M382 -19q-71 0 -133 34t-108 91t-72 132t-26 158q0 84 27.5 156.5t74 126t108 83.5t129.5 30t129.5 -30t108 -83.5t74 -126t27.5 -156.5q0 -83 -26.5 -158t-72 -132t-107.5 -91t-133 -34zM663 396q0 73 -22.5 135.5t-61 108t-89.5 71.5t-108 26t-107.5 -26t-88.5 -72
t-60.5 -108t-22.5 -135q0 -71 21.5 -136t59 -114.5t88.5 -79t110 -29.5q60 0 111 29.5t89 79t59.5 114.5t21.5 136zM299 1000l90 13l55 -182h-48z" />
    <glyph glyph-name="Oacute" unicode="&#xd3;" horiz-adv-x="765" 
d="M382 -19q-71 0 -133 34t-108 91t-72 132t-26 158q0 84 27.5 156.5t74 126t108 83.5t129.5 30t129.5 -30t108 -83.5t74 -126t27.5 -156.5q0 -83 -26.5 -158t-72 -132t-107.5 -91t-133 -34zM663 396q0 73 -22.5 135.5t-61 108t-89.5 71.5t-108 26t-107.5 -26t-88.5 -72
t-60.5 -108t-22.5 -135q0 -71 21.5 -136t59 -114.5t88.5 -79t110 -29.5q60 0 111 29.5t89 79t59.5 114.5t21.5 136zM418 831h-48l54 182l91 -13z" />
    <glyph glyph-name="Ocircumflex" unicode="&#xd4;" horiz-adv-x="765" 
d="M382 -19q-71 0 -133 34t-108 91t-72 132t-26 158q0 84 27.5 156.5t74 126t108 83.5t129.5 30t129.5 -30t108 -83.5t74 -126t27.5 -156.5q0 -83 -26.5 -158t-72 -132t-107.5 -91t-133 -34zM663 396q0 73 -22.5 135.5t-61 108t-89.5 71.5t-108 26t-107.5 -26t-88.5 -72
t-60.5 -108t-22.5 -135q0 -71 21.5 -136t59 -114.5t88.5 -79t110 -29.5q60 0 111 29.5t89 79t59.5 114.5t21.5 136zM362 967h44l80 -136h-50l-53 69l-54 -69h-48z" />
    <glyph glyph-name="Otilde" unicode="&#xd5;" horiz-adv-x="765" 
d="M382 -19q-71 0 -133 34t-108 91t-72 132t-26 158q0 84 27.5 156.5t74 126t108 83.5t129.5 30t129.5 -30t108 -83.5t74 -126t27.5 -156.5q0 -83 -26.5 -158t-72 -132t-107.5 -91t-133 -34zM663 396q0 73 -22.5 135.5t-61 108t-89.5 71.5t-108 26t-107.5 -26t-88.5 -72
t-60.5 -108t-22.5 -135q0 -71 21.5 -136t59 -114.5t88.5 -79t110 -29.5q60 0 111 29.5t89 79t59.5 114.5t21.5 136zM437 831q-14 0 -28 7t-28 16q-13 8 -25.5 15t-22.5 7q-6 0 -12.5 -12t-16.5 -47l-42 16q10 58 28 79.5t43 21.5q14 0 27.5 -7t27.5 -15q14 -9 27 -16t21 -7
t14.5 12t15.5 47l41 -16q-10 -57 -27 -79t-43 -22z" />
    <glyph glyph-name="Odieresis" unicode="&#xd6;" horiz-adv-x="765" 
d="M382 -19q-71 0 -133 34t-108 91t-72 132t-26 158q0 84 27.5 156.5t74 126t108 83.5t129.5 30t129.5 -30t108 -83.5t74 -126t27.5 -156.5q0 -83 -26.5 -158t-72 -132t-107.5 -91t-133 -34zM663 396q0 73 -22.5 135.5t-61 108t-89.5 71.5t-108 26t-107.5 -26t-88.5 -72
t-60.5 -108t-22.5 -135q0 -71 21.5 -136t59 -114.5t88.5 -79t110 -29.5q60 0 111 29.5t89 79t59.5 114.5t21.5 136zM272 934h87v-103h-87v103zM411 934h87v-103h-87v103z" />
    <glyph glyph-name="multiply" unicode="&#xd7;" horiz-adv-x="592" 
d="M142 576l155 -190l146 179l32 -39l-145 -179l153 -190l-33 -40l-153 190l-148 -180l-32 39l147 180l-155 190z" />
    <glyph glyph-name="Ugrave" unicode="&#xd9;" horiz-adv-x="590" 
d="M71 774h57v-465q0 -68 8.5 -119t28.5 -85t52.5 -51t79.5 -17q48 0 80 18t50.5 52.5t26.5 85.5t8 117v464h58v-470q0 -75 -11 -134.5t-37 -101t-69 -63.5t-106 -22t-106.5 21.5t-70.5 62.5t-38.5 100.5t-11.5 136.5zM204 1000l90 13l55 -182h-48z" />
    <glyph glyph-name="Uacute" unicode="&#xda;" horiz-adv-x="590" 
d="M71 774h57v-465q0 -68 8.5 -119t28.5 -85t52.5 -51t79.5 -17q48 0 80 18t50.5 52.5t26.5 85.5t8 117v464h58v-470q0 -75 -11 -134.5t-37 -101t-69 -63.5t-106 -22t-106.5 21.5t-70.5 62.5t-38.5 100.5t-11.5 136.5zM307 831h-48l54 182l91 -13z" />
    <glyph glyph-name="Ucircumflex" unicode="&#xdb;" horiz-adv-x="590" 
d="M71 774h57v-465q0 -68 8.5 -119t28.5 -85t52.5 -51t79.5 -17q48 0 80 18t50.5 52.5t26.5 85.5t8 117v464h58v-470q0 -75 -11 -134.5t-37 -101t-69 -63.5t-106 -22t-106.5 21.5t-70.5 62.5t-38.5 100.5t-11.5 136.5zM278 967h44l80 -136h-50l-53 69l-54 -69h-48z" />
    <glyph glyph-name="Udieresis" unicode="&#xdc;" horiz-adv-x="590" 
d="M71 774h57v-465q0 -68 8.5 -119t28.5 -85t52.5 -51t79.5 -17q48 0 80 18t50.5 52.5t26.5 85.5t8 117v464h58v-470q0 -75 -11 -134.5t-37 -101t-69 -63.5t-106 -22t-106.5 21.5t-70.5 62.5t-38.5 100.5t-11.5 136.5zM183 934h87v-103h-87v103zM322 934h87v-103h-87v103z
" />
    <glyph glyph-name="Yacute" unicode="&#xdd;" horiz-adv-x="570" 
d="M254 306l-242 468h73l202 -402l201 402h69l-243 -467v-307h-60v306zM294 831h-48l54 182l91 -13z" />
    <glyph glyph-name="egrave" unicode="&#xe8;" horiz-adv-x="571" 
d="M489 117q-10 -21 -27.5 -44.5t-42.5 -43t-58.5 -32.5t-75.5 -13q-55 0 -98.5 22.5t-74 61.5t-46.5 91t-16 110q0 65 19.5 116.5t52 87t76 54.5t91.5 19q57 0 100.5 -25.5t73 -65.5t44 -89t14.5 -97v-12.5t-1 -12.5h-409q1 -23 10 -57.5t29 -66.5t52.5 -54.5t81.5 -22.5
q32 0 57.5 10.5t45 27t34 35.5t23.5 36zM285 489q-46 0 -78.5 -20t-53 -49t-31 -61t-11.5 -57h351q-2 22 -11.5 54.5t-30.5 61.5t-54 50t-81 21zM194 757l90 13l55 -182h-48z" />
    <glyph glyph-name="eacute" unicode="&#xe9;" horiz-adv-x="571" 
d="M489 117q-10 -21 -27.5 -44.5t-42.5 -43t-58.5 -32.5t-75.5 -13q-55 0 -98.5 22.5t-74 61.5t-46.5 91t-16 110q0 65 19.5 116.5t52 87t76 54.5t91.5 19q57 0 100.5 -25.5t73 -65.5t44 -89t14.5 -97v-12.5t-1 -12.5h-409q1 -23 10 -57.5t29 -66.5t52.5 -54.5t81.5 -22.5
q32 0 57.5 10.5t45 27t34 35.5t23.5 36zM285 489q-46 0 -78.5 -20t-53 -49t-31 -61t-11.5 -57h351q-2 22 -11.5 54.5t-30.5 61.5t-54 50t-81 21zM316 588h-48l54 182l91 -13z" />
    <glyph glyph-name="ecircumflex" unicode="&#xea;" horiz-adv-x="571" 
d="M489 117q-10 -21 -27.5 -44.5t-42.5 -43t-58.5 -32.5t-75.5 -13q-55 0 -98.5 22.5t-74 61.5t-46.5 91t-16 110q0 65 19.5 116.5t52 87t76 54.5t91.5 19q57 0 100.5 -25.5t73 -65.5t44 -89t14.5 -97v-12.5t-1 -12.5h-409q1 -23 10 -57.5t29 -66.5t52.5 -54.5t81.5 -22.5
q32 0 57.5 10.5t45 27t34 35.5t23.5 36zM285 489q-46 0 -78.5 -20t-53 -49t-31 -61t-11.5 -57h351q-2 22 -11.5 54.5t-30.5 61.5t-54 50t-81 21zM269 724h44l80 -136h-50l-53 69l-54 -69h-48z" />
    <glyph glyph-name="edieresis" unicode="&#xeb;" horiz-adv-x="571" 
d="M489 117q-10 -21 -27.5 -44.5t-42.5 -43t-58.5 -32.5t-75.5 -13q-55 0 -98.5 22.5t-74 61.5t-46.5 91t-16 110q0 65 19.5 116.5t52 87t76 54.5t91.5 19q57 0 100.5 -25.5t73 -65.5t44 -89t14.5 -97v-12.5t-1 -12.5h-409q1 -23 10 -57.5t29 -66.5t52.5 -54.5t81.5 -22.5
q32 0 57.5 10.5t45 27t34 35.5t23.5 36zM285 489q-46 0 -78.5 -20t-53 -49t-31 -61t-11.5 -57h351q-2 22 -11.5 54.5t-30.5 61.5t-54 50t-81 21zM178 691h87v-103h-87v103zM317 691h87v-103h-87v103z" />
    <glyph glyph-name="igrave" unicode="&#xec;" horiz-adv-x="224" 
d="M84 531h59v-531h-59v531zM-5 757l90 13l55 -182h-48z" />
    <glyph glyph-name="iacute" unicode="&#xed;" horiz-adv-x="224" 
d="M84 531h59v-531h-59v531zM132 588h-48l54 182l91 -13z" />
    <glyph glyph-name="icircumflex" unicode="&#xee;" horiz-adv-x="224" 
d="M84 531h59v-531h-59v531zM92 724h44l80 -136h-50l-53 69l-54 -69h-48z" />
    <glyph glyph-name="idieresis" unicode="&#xef;" horiz-adv-x="224" 
d="M84 531h59v-531h-59v531zM0 691h87v-103h-87v103zM139 691h87v-103h-87v103z" />
    <glyph glyph-name="ograve" unicode="&#xf2;" horiz-adv-x="575" 
d="M290 -14q-49 0 -92.5 19.5t-76.5 55.5t-52 87t-19 113t19.5 113t52.5 87t76.5 56t91.5 20q45 0 87.5 -17.5t75 -51t52.5 -84t20 -116.5q0 -60 -17.5 -112t-48.5 -89.5t-74 -59t-95 -21.5zM466 264q0 46 -13 85.5t-36 68.5t-55 46t-71 17q-38 0 -70.5 -16.5t-57 -46
t-38.5 -70t-14 -88.5q0 -51 15.5 -92t41 -69t57 -43t64.5 -15q35 0 67 16.5t56.5 46t39 70.5t14.5 90zM181 757l90 13l55 -182h-48z" />
    <glyph glyph-name="oacute" unicode="&#xf3;" horiz-adv-x="575" 
d="M290 -14q-49 0 -92.5 19.5t-76.5 55.5t-52 87t-19 113t19.5 113t52.5 87t76.5 56t91.5 20q45 0 87.5 -17.5t75 -51t52.5 -84t20 -116.5q0 -60 -17.5 -112t-48.5 -89.5t-74 -59t-95 -21.5zM466 264q0 46 -13 85.5t-36 68.5t-55 46t-71 17q-38 0 -70.5 -16.5t-57 -46
t-38.5 -70t-14 -88.5q0 -51 15.5 -92t41 -69t57 -43t64.5 -15q35 0 67 16.5t56.5 46t39 70.5t14.5 90zM309 588h-48l54 182l91 -13z" />
    <glyph glyph-name="ocircumflex" unicode="&#xf4;" horiz-adv-x="575" 
d="M290 -14q-49 0 -92.5 19.5t-76.5 55.5t-52 87t-19 113t19.5 113t52.5 87t76.5 56t91.5 20q45 0 87.5 -17.5t75 -51t52.5 -84t20 -116.5q0 -60 -17.5 -112t-48.5 -89.5t-74 -59t-95 -21.5zM466 264q0 46 -13 85.5t-36 68.5t-55 46t-71 17q-38 0 -70.5 -16.5t-57 -46
t-38.5 -70t-14 -88.5q0 -51 15.5 -92t41 -69t57 -43t64.5 -15q35 0 67 16.5t56.5 46t39 70.5t14.5 90zM269 724h44l80 -136h-50l-53 69l-54 -69h-48z" />
    <glyph glyph-name="otilde" unicode="&#xf5;" horiz-adv-x="575" 
d="M290 -14q-49 0 -92.5 19.5t-76.5 55.5t-52 87t-19 113t19.5 113t52.5 87t76.5 56t91.5 20q45 0 87.5 -17.5t75 -51t52.5 -84t20 -116.5q0 -60 -17.5 -112t-48.5 -89.5t-74 -59t-95 -21.5zM466 264q0 46 -13 85.5t-36 68.5t-55 46t-71 17q-38 0 -70.5 -16.5t-57 -46
t-38.5 -70t-14 -88.5q0 -51 15.5 -92t41 -69t57 -43t64.5 -15q35 0 67 16.5t56.5 46t39 70.5t14.5 90zM342 588q-14 0 -28 7t-28 16q-13 8 -25.5 15t-22.5 7q-6 0 -12.5 -12t-16.5 -47l-42 16q10 58 28 79.5t43 21.5q14 0 27.5 -7t27.5 -15q14 -9 27 -16t21 -7t14.5 12
t15.5 47l41 -16q-10 -57 -27 -79t-43 -22z" />
    <glyph glyph-name="odieresis" unicode="&#xf6;" horiz-adv-x="575" 
d="M290 -14q-49 0 -92.5 19.5t-76.5 55.5t-52 87t-19 113t19.5 113t52.5 87t76.5 56t91.5 20q45 0 87.5 -17.5t75 -51t52.5 -84t20 -116.5q0 -60 -17.5 -112t-48.5 -89.5t-74 -59t-95 -21.5zM466 264q0 46 -13 85.5t-36 68.5t-55 46t-71 17q-38 0 -70.5 -16.5t-57 -46
t-38.5 -70t-14 -88.5q0 -51 15.5 -92t41 -69t57 -43t64.5 -15q35 0 67 16.5t56.5 46t39 70.5t14.5 90zM180 691h87v-103h-87v103zM319 691h87v-103h-87v103z" />
    <glyph glyph-name="ugrave" unicode="&#xf9;" horiz-adv-x="522" 
d="M69 531h59v-349q0 -29 3.5 -55t12.5 -45.5t24 -31t38 -11.5q29 0 57 15.5t51 36.5t40.5 42.5t25.5 33.5v364h60v-531h-55l-4 91q-17 -19 -36 -37t-41 -32.5t-47.5 -23.5t-54.5 -9q-40 0 -65.5 16.5t-40.5 44.5t-21 64.5t-6 75.5v341zM153 757l90 13l55 -182h-48z" />
    <glyph glyph-name="uacute" unicode="&#xfa;" horiz-adv-x="522" 
d="M69 531h59v-349q0 -29 3.5 -55t12.5 -45.5t24 -31t38 -11.5q29 0 57 15.5t51 36.5t40.5 42.5t25.5 33.5v364h60v-531h-55l-4 91q-17 -19 -36 -37t-41 -32.5t-47.5 -23.5t-54.5 -9q-40 0 -65.5 16.5t-40.5 44.5t-21 64.5t-6 75.5v341zM273 588h-48l54 182l91 -13z" />
    <glyph glyph-name="ucircumflex" unicode="&#xfb;" horiz-adv-x="522" 
d="M69 531h59v-349q0 -29 3.5 -55t12.5 -45.5t24 -31t38 -11.5q29 0 57 15.5t51 36.5t40.5 42.5t25.5 33.5v364h60v-531h-55l-4 91q-17 -19 -36 -37t-41 -32.5t-47.5 -23.5t-54.5 -9q-40 0 -65.5 16.5t-40.5 44.5t-21 64.5t-6 75.5v341zM233 724h44l80 -136h-50l-53 69
l-54 -69h-48z" />
    <glyph glyph-name="udieresis" unicode="&#xfc;" horiz-adv-x="522" 
d="M69 531h59v-349q0 -29 3.5 -55t12.5 -45.5t24 -31t38 -11.5q29 0 57 15.5t51 36.5t40.5 42.5t25.5 33.5v364h60v-531h-55l-4 91q-17 -19 -36 -37t-41 -32.5t-47.5 -23.5t-54.5 -9q-40 0 -65.5 16.5t-40.5 44.5t-21 64.5t-6 75.5v341zM132 691h87v-103h-87v103zM271 691
h87v-103h-87v103z" />
    <glyph glyph-name="yacute" unicode="&#xfd;" horiz-adv-x="445" 
d="M69 531l157 -441l146 441h54l-207 -618q-14 -41 -34 -66t-46 -38.5t-57 -18t-66 -4.5l10 47q33 0 56 4.5t40 16.5t29.5 33.5t23.5 55.5l22 66l-185 522h57zM222 588h-48l54 182l91 -13z" />
    <glyph glyph-name="ydieresis" unicode="&#xff;" horiz-adv-x="445" 
d="M69 531l157 -441l146 441h54l-207 -618q-14 -41 -34 -66t-46 -38.5t-57 -18t-66 -4.5l10 47q33 0 56 4.5t40 16.5t29.5 33.5t23.5 55.5l22 66l-185 522h57zM114 691h87v-103h-87v103zM253 691h87v-103h-87v103z" />
    <glyph glyph-name="Igrave" unicode="&#xcc;" horiz-adv-x="226" 
d="M83 0v774h61v-774h-61zM-10 1000l90 13l55 -182h-48z" />
    <glyph glyph-name="Iacute" unicode="&#xcd;" horiz-adv-x="226" 
d="M83 0v774h61v-774h-61zM136 831h-48l54 182l91 -13z" />
    <glyph glyph-name="Icircumflex" unicode="&#xce;" horiz-adv-x="226" 
d="M83 0v774h61v-774h-61zM91 967h44l80 -136h-50l-53 69l-54 -69h-48z" />
    <glyph glyph-name="Idieresis" unicode="&#xcf;" horiz-adv-x="226" 
d="M83 0v774h61v-774h-61zM0 934h87v-103h-87v103zM139 934h87v-103h-87v103z" />
    <glyph glyph-name="registered" unicode="&#xae;" horiz-adv-x="576" 
d="M280 282q-54 0 -101 20.5t-81.5 56t-54.5 82.5t-20 100q0 52 20 99t55 82t82 56t102 21q54 0 101 -20.5t81.5 -56t54.5 -82.5t20 -99q0 -53 -20 -100t-55 -82t-82 -56t-102 -21zM280 314q48 0 89.5 18t72 49.5t47.5 73t17 88.5t-17 88.5t-47 72t-71 48.5t-89 18
t-89.5 -18t-72 -49.5t-47.5 -73t-17 -88.5t17 -88.5t47 -72t71 -48.5t89 -18zM194 727h93q22 0 34.5 -3t21.5 -8q19 -12 32 -35t13 -56q0 -19 -4.5 -36t-12.5 -30.5t-19 -22.5t-23 -13l73 -163h-31l-70 158h-80v-158h-27v367zM299 544q14 0 25 6.5t19 17t12.5 25t4.5 30.5
q0 26 -9.5 44t-23.5 27q-6 3 -15.5 5t-25.5 2h-65v-157h78z" />
    <glyph glyph-name="copyright" unicode="&#xa9;" horiz-adv-x="576" 
d="M280 282q-54 0 -101 20.5t-81.5 56t-54.5 82.5t-20 100q0 52 20 99t55 82t82 56t102 21q54 0 101 -20.5t81.5 -56t54.5 -82.5t20 -99q0 -53 -20 -100t-55 -82t-82 -56t-102 -21zM280 314q48 0 89.5 18t72 49.5t47.5 73t17 88.5t-17 88.5t-47 72t-71 48.5t-89 18
t-89.5 -18t-72 -49.5t-47.5 -73t-17 -88.5t17 -88.5t47 -72t71 -48.5t89 -18zM395 431q-20 -31 -50 -49.5t-65 -18.5q-31 0 -58.5 15t-47 40.5t-31 58.5t-11.5 69q0 37 11.5 69t32 55t47 36.5t57.5 13.5q32 0 60.5 -15t48.5 -41l-16 -19q-19 24 -43 37.5t-50 13.5
q-25 0 -47 -11.5t-39 -31.5t-26.5 -48t-9.5 -59t9 -60t25.5 -50.5t39 -34.5t48.5 -13q29 0 53.5 16t42.5 43z" />
    <glyph glyph-name="commaaccent" unicode="&#xf6c3;" horiz-adv-x="226" 
d="M62 -176l47 119h71l-62 -119h-56z" />
    <glyph glyph-name="AE" unicode="&#xc6;" horiz-adv-x="774" 
d="M19 0l249 774h352v-53h-267l95 -301h211v-55h-194l98 -313h203v-52h-248l-73 248h-288l-77 -248h-61zM173 298h255q-32 106 -64 209t-64 209z" />
    <glyph glyph-name="onesuperior" unicode="&#xb9;" horiz-adv-x="146" 
d="M73 478v414l-43 -23l-7 31l51 25h34v-447h-35z" />
    <glyph glyph-name="twosuperior" unicode="&#xb2;" horiz-adv-x="302" 
d="M231.291 628.969q-0.59082 21.8311 -7.08105 40.1221q-6.49023 18.29 -17.7002 31.5664q-11.2109 13.2754 -26.5518 20.9453q-15.3408 7.6709 -33.041 7.6709q-16.5215 0 -31.5664 -7.37598q-15.0459 -7.375 -26.2568 -20.6504q-11.21 -13.2754 -17.9951 -31.8613
q-6.78613 -18.5859 -6.78613 -40.417q0 -21.2412 6.19531 -40.7119t17.4062 -33.9268q11.2109 -14.4551 26.2559 -23.0107q15.0459 -8.55566 32.7471 -8.55566q18.29 0 33.6309 8.26074q15.3408 8.25977 26.2568 22.7158q10.915 14.4561 17.4053 33.9268t7.08105 41.3018z
M156.357 505.653v-9.44043h106.795v-17.7012h-106.795v-57.2324l72.5732 -139.246h-21.8311l-60.7734 119.775l-59.5918 -119.775h-20.6514l72.5732 139.246v57.2324h-106.795v17.7012h106.795v9.44043q-20.0605 2.35938 -36.877 12.9805q-16.8154 10.6201 -28.9111 27.4365
q-12.0957 16.8154 -18.8809 38.0566q-6.78516 21.2402 -6.78516 44.8418q0 24.7812 7.375 46.0215q7.37598 21.2412 20.6514 36.877t31.5664 24.7812t40.1221 9.14551q21.2402 0 39.5312 -8.85059t31.8613 -24.4863q13.5713 -15.6357 21.2412 -37.1709
q7.6709 -21.5361 7.6709 -46.3174q0 -23.0107 -6.78613 -44.5469q-6.78516 -21.5361 -18.8809 -38.3516q-12.0947 -16.8164 -28.6162 -27.4365q-16.5205 -10.6211 -36.5811 -12.9805z" />
    <glyph glyph-name="threesuperior" unicode="&#xb3;" horiz-adv-x="309" 
d="M237.781 628.969q-0.59082 21.8311 -7.08105 40.1221q-6.49023 18.29 -17.7002 31.5664q-11.2109 13.2754 -26.5518 20.9453q-15.3408 7.6709 -33.041 7.6709q-16.5205 0 -31.5664 -7.37598q-15.0459 -7.375 -26.2568 -20.6504q-11.21 -13.2754 -17.9951 -31.8613
q-6.78613 -18.5859 -6.78613 -40.417q0 -21.2412 6.19531 -40.7119t17.4062 -33.9268q11.2109 -14.4551 26.2559 -23.0107q15.0459 -8.55566 32.7471 -8.55566q18.291 0 33.6309 8.26074q15.3408 8.25977 26.2568 22.7158q10.915 14.4561 17.4053 33.9268t7.08105 41.3018z
M162.848 505.653v-9.44043h106.795v-17.7012h-106.795v-57.2324l72.5732 -139.246h-21.8311l-60.7725 119.775l-59.5928 -119.775h-20.6514l72.5732 139.246v57.2324h-106.795v17.7012h106.795v9.44043q-20.0605 2.35938 -36.877 12.9805q-16.8154 10.6201 -28.9111 27.4365
q-12.0957 16.8154 -18.8809 38.0566q-6.78516 21.2402 -6.78516 44.8418q0 24.7812 7.375 46.0215q7.37598 21.2412 20.6514 36.877t31.5664 24.7812t40.1221 9.14551q21.2412 0 39.5312 -8.85059q18.291 -8.85059 31.8613 -24.4863q13.5713 -15.6357 21.2412 -37.1709
q7.6709 -21.5361 7.6709 -46.3174q0 -23.0107 -6.78613 -44.5469q-6.78516 -21.5361 -18.8809 -38.3516q-12.0947 -16.8164 -28.6162 -27.4365q-16.5205 -10.6211 -36.5811 -12.9805z" />
    <glyph glyph-name="cent" unicode="&#xa2;" horiz-adv-x="510" 
d="M478 279q-26 -58 -74 -94.5t-109 -41.5v-76h-56v76q-43 5 -80.5 26.5t-66 57.5t-45 85.5t-16.5 110.5q0 54 16.5 101t45 82t66.5 57.5t80 27.5v67h56v-66q57 -5 106.5 -37.5t76.5 -91.5l-46 -41q-22 46 -57 76.5t-80 35.5v-434q42 5 76.5 36t57.5 81zM93 427
q0 -52 12 -91.5t32 -68t46.5 -45t55.5 -21.5v431q-32 -7 -59 -26.5t-46.5 -47.5t-30 -61.5t-10.5 -69.5z" />
    <glyph glyph-name="onehalf" unicode="&#xbd;" horiz-adv-x="752" 
d="M637 774l-528 -774h-48l528 774h48zM167 327v414l-43 -23l-7 31l51 25h34v-447h-35zM654 347q0 22 -6.5 40t-18 31.5t-26.5 21t-33 7.5q-16 0 -31.5 -7.5t-26.5 -20.5t-18 -31.5t-7 -40.5q0 -21 6.5 -40.5t17.5 -34t26 -23t33 -8.5t33.5 8t26.5 22.5t17.5 34t6.5 41.5z
M579 224v-10h107v-18h-107v-57l73 -139h-22l-61 120l-59 -120h-21l73 139v57h-107v18h107v10q-20 2 -37 12.5t-29 27.5t-19 38t-7 45q0 25 7.5 46t21 36.5t31.5 25t40 9.5q21 0 39.5 -9t32 -24.5t21 -37t7.5 -46.5q0 -23 -6.5 -44.5t-18.5 -38.5t-28.5 -27.5t-37.5 -12.5z
" />
    <glyph glyph-name="onequarter" unicode="&#xbc;" horiz-adv-x="728" 
d="M637 774l-528 -774h-48l528 774h48zM143 327v414l-43 -23l-7 31l51 25h34v-447h-35zM607 339q0 22 -6.5 40t-18 31.5t-26.5 21t-33 7.5q-16 0 -31.5 -7.5t-26.5 -20.5t-18 -31.5t-7 -40.5q0 -21 6.5 -40.5t17.5 -34t26 -23t33 -8.5t33.5 8t26.5 22.5t17.5 34t6.5 41.5z
M532 216v-10h107v-18h-107v-57l73 -139h-22l-61 120l-59 -120h-21l73 139v57h-107v18h107v10q-20 2 -37 12.5t-29 27.5t-19 38t-7 45q0 25 7.5 46t21 36.5t31.5 25t40 9.5q21 0 39.5 -9t32 -24.5t21 -37t7.5 -46.5q0 -23 -6.5 -44.5t-18.5 -38.5t-28.5 -27.5t-37.5 -12.5z
" />
    <glyph glyph-name="threequarters" unicode="&#xbe;" horiz-adv-x="786" 
d="M710 774l-527 -774h-48l527 774h48zM277 674q0 22 -6.5 40t-18 31.5t-26.5 21t-33 7.5q-16 0 -31.5 -7.5t-26.5 -20.5t-18 -31.5t-7 -40.5q0 -21 6.5 -40.5t17.5 -34t26 -23t33 -8.5t33.5 8t26.5 22.5t17.5 34t6.5 41.5zM202 551v-10h107v-18h-107v-57l73 -139h-22
l-61 120l-59 -120h-21l73 139v57h-107v18h107v10q-20 2 -37 12.5t-29 27.5t-19 38t-7 45q0 25 7.5 46t21 36.5t31.5 25t40 9.5q21 0 39.5 -9t32 -24.5t21 -37t7.5 -46.5q0 -23 -6.5 -44.5t-18.5 -38.5t-28.5 -27.5t-37.5 -12.5zM665 339q0 22 -6.5 40t-18 31.5t-26.5 21
t-33 7.5q-16 0 -31.5 -7.5t-26.5 -20.5t-18 -31.5t-7 -40.5q0 -21 6.5 -40.5t17.5 -34t26 -23t33 -8.5t33.5 8t26.5 22.5t17.5 34t6.5 41.5zM590 216v-10h107v-18h-107v-57l73 -139h-22l-61 120l-59 -120h-21l73 139v57h-107v18h107v10q-20 2 -37 12.5t-29 27.5t-19 38
t-7 45q0 25 7.5 46t21 36.5t31.5 25t40 9.5q21 0 39.5 -9t32 -24.5t21 -37t7.5 -46.5q0 -23 -6.5 -44.5t-18.5 -38.5t-28.5 -27.5t-37.5 -12.5z" />
    <glyph glyph-name="section" unicode="&#xa7;" horiz-adv-x="450" 
d="M400 385q0 -42 -16 -74.5t-45 -52.5q28 -19 44.5 -46t16.5 -69q0 -36 -12.5 -65.5t-34.5 -50.5t-51 -32t-63 -11q-51 0 -101.5 23t-87.5 58l33 51q38 -37 78.5 -56.5t77.5 -19.5q45 0 73 26.5t28 70.5q0 24 -8 40t-23 27t-35.5 19t-44.5 17q-28 10 -56 21.5t-50.5 29
t-36.5 42.5t-14 62q0 40 18 72.5t48 53.5q-29 18 -47.5 45.5t-18.5 70.5q0 33 11.5 60.5t32 47.5t49 31.5t61.5 11.5q42 0 86 -16.5t79 -45.5l-29 -54q-33 28 -69 44.5t-68 16.5q-44 0 -68.5 -26.5t-24.5 -63.5q0 -23 9.5 -38.5t25.5 -27t37.5 -20t45.5 -17.5q29 -11 56 -23
t48 -29t33.5 -42t12.5 -61zM206 489q-36 -5 -55 -30t-19 -58q0 -23 9 -38.5t25 -27t37.5 -20t46.5 -17.5l4 -3q6 -2 12 -3.5t12 -3.5q29 8 45.5 31.5t16.5 58.5q0 24 -8.5 40.5t-23.5 27.5t-35 19.5t-44 16.5z" />
    <glyph glyph-name="mu" unicode="&#xb5;" horiz-adv-x="515" 
d="M70 531h59v-349q0 -33 4 -59t14 -45t27.5 -29t44.5 -10q23 0 49 15.5t49.5 36.5t42 42.5t25.5 33.5v364h60v-531h-57l-3 93q-13 -15 -31.5 -33t-41 -33.5t-47.5 -26.5t-52 -11q-29 0 -50 6.5t-36 17.5v-226h-57v744z" />
    <glyph glyph-name="eth" unicode="&#xf0;" horiz-adv-x="556" 
d="M245 601l91 42q-26 34 -60.5 53.5t-78.5 21.5v56q66 -4 113.5 -32.5t79.5 -73.5l112 51v-50l-87 -41q32 -63 47 -136t15 -142q0 -74 -15.5 -140t-45.5 -115.5t-73.5 -78.5t-99.5 -29q-40 0 -77 15.5t-65 46.5t-45 77.5t-17 109.5q0 59 15.5 106t43 79.5t66 50t85.5 17.5
q20 0 42 -3.5t44 -11.5t42 -21t36 -32q-5 51 -18.5 98t-33.5 85l-116 -53v50zM414 283q0 35 -14.5 63t-38 47.5t-53 29.5t-58.5 10q-69 0 -109.5 -52t-40.5 -144q0 -89 38.5 -142t100.5 -53q45 0 78 27t54.5 65.5t32 79.5t10.5 69z" />
    <glyph glyph-name="Thorn" unicode="&#xde;" horiz-adv-x="609" 
d="M93 0v774h61v-169h234q36 0 69.5 -15t59 -43t41 -68t15.5 -90t-15.5 -91.5t-41 -70.5t-59 -45t-69.5 -16h-234v-166h-61zM154 546v-321h241q26 0 48 13t38.5 35t26 52t9.5 64t-9.5 63t-26 50t-38.5 32.5t-48 11.5h-241z" />
    <glyph glyph-name="thorn" unicode="&#xfe;" horiz-adv-x="547" 
d="M85 774h57v-328q12 18 27.5 35.5t37.5 31t50.5 21.5t64.5 8q47 0 87.5 -20.5t70.5 -57t47.5 -85.5t17.5 -106q0 -66 -17.5 -118t-47.5 -89t-71.5 -56.5t-89.5 -19.5q-28 0 -54.5 8.5t-49 22.5t-41.5 31.5t-32 35.5v-237h-57v923zM485 268q0 46 -11.5 85.5t-33.5 69
t-54 46t-72 16.5q-36 0 -67 -16t-53 -43.5t-34.5 -65t-12.5 -79.5q0 -57 14 -100t37 -72.5t54 -44.5t66 -15q39 0 69.5 17t52.5 46.5t33.5 69.5t11.5 86z" />
    <glyph glyph-name="currency" unicode="&#xa4;" horiz-adv-x="557" 
d="M54 507l31 39l63 -79q28 26 56.5 37.5t66.5 13.5h11q38 0 67 -10t60 -36l67 75l31 -39l-62 -79q24 -37 36.5 -75t12.5 -86t-13 -86.5t-37 -73.5l63 -77l-30 -35l-64 80q-26 -26 -58 -41t-73 -16h-5q-41 0 -71 12.5t-60 40.5l-62 -78l-34 38l64 78q-21 32 -34.5 71.5
t-13.5 87.5v4q1 48 14 85.5t36 70.5zM439 266q0 41 -12 78t-33.5 64.5t-51 43.5t-63.5 16q-32 0 -60.5 -15.5t-50 -42.5t-34 -63.5t-12.5 -77.5q0 -43 12.5 -79.5t34.5 -63t51 -41.5t61 -15t60.5 15.5t50 42t34.5 62t13 76.5z" />
    <glyph glyph-name="apple" unicode="&#xf8ff;" 
d="M399 588q-1 37 -12 68t-30 53.5t-45 35.5t-56 13q-28 0 -53.5 -12.5t-44.5 -35t-30.5 -54t-11.5 -68.5q0 -36 10.5 -69t29.5 -57.5t44.5 -39t55.5 -14.5q31 0 57 14t44.5 38.5t29.5 57.5t12 70zM272 379v-16h181v-30h-181v-97l123 -236h-37l-103 203l-101 -203h-35
l123 236v97h-181v30h181v16q-34 4 -62.5 22t-49 46.5t-32 64.5t-11.5 76q0 42 12.5 78t35 62.5t53.5 42t68 15.5q36 0 67 -15t54 -41.5t36 -63t13 -78.5q0 -39 -11.5 -75.5t-32 -65t-48.5 -46.5t-62 -22z" />
    <glyph glyph-name="Eth" unicode="&#xd0;" horiz-adv-x="639" 
d="M23 424h58v350h156q64 0 126 -21t111 -66.5t79.5 -117.5t30.5 -175q0 -84 -22 -156t-63 -125t-101.5 -83t-136.5 -30h-180v363h-58v61zM527 392q0 81 -23.5 142.5t-64.5 103t-95.5 62.5t-116.5 21h-85v-297h139v-61h-139v-311h117q62 0 111.5 27t84.5 73.5t53.5 108
t18.5 131.5z" />
    <glyph glyph-name="ellipsis" unicode="&#x2026;" horiz-adv-x="589" 
d="M50 39q0 23 13.5 39.5t33.5 16.5t33.5 -16.5t13.5 -39.5t-13.5 -39.5t-33.5 -16.5t-33.5 16.5t-13.5 39.5zM232 39q0 23 13.5 39.5t33.5 16.5q19 0 32 -16.5t13 -39.5t-13 -39.5t-32 -16.5q-20 0 -33.5 16.5t-13.5 39.5zM413 39q0 23 13 39.5t33 16.5t33.5 -16.5
t13.5 -39.5t-13.5 -39.5t-33.5 -16.5t-33 16.5t-13 39.5z" />
    <glyph glyph-name="yen" unicode="&#xa5;" horiz-adv-x="521" 
d="M37 340h172l-190 418h72l171 -400l171 400h69l-190 -418h176v-51h-197v-89h166v-52h-166v-148h-60v148h-163v52h163v89h-194v51z" />
    <glyph glyph-name="quotedbl" unicode="&#x22;" horiz-adv-x="289" 
d="M51 550v224h62v-224h-62zM147 550v224h59v-224h-59z" />
    <glyph glyph-name="exclam" unicode="!" horiz-adv-x="316" 
d="M157 -7q-23 0 -38 17.5t-15 41.5q0 26 16 42.5t37 16.5q23 0 38.5 -17t15.5 -42t-15.5 -42t-38.5 -17zM111 775h92l-19 -606h-49z" />
    </font>
</defs>
</svg>
