<?xml version="1.0" standalone="no"?>
<!DOCTYPE svg PUBLIC "-//W3C//DTD SVG 1.1//EN" "http://www.w3.org/Graphics/SVG/1.1/DTD/svg11.dtd" >
<svg xmlns="http://www.w3.org/2000/svg" xmlns:xlink="http://www.w3.org/1999/xlink" version="1.1">
<metadata>
Created by FontForge 20170910 at Fri Sep 25 20:52:03 2015
 By Jimmy Wärting
Copyright (c) 2015 by Fernando Haro. All rights reserved.
</metadata>
<defs>
<font id="TabarraLight" horiz-adv-x="714" >
  <font-face 
    font-family="Tabarra Light"
    font-weight="300"
    font-stretch="normal"
    units-per-em="1000"
    panose-1="2 11 5 3 4 0 0 2 0 3"
    ascent="774"
    descent="-226"
    x-height="531"
    cap-height="774"
    bbox="-59 -242.985 1140 1012"
    underline-thickness="22"
    underline-position="-269"
    unicode-range="U+000D-F8FF"
  />
<missing-glyph horiz-adv-x="576" 
d="M155 532h229v-155h155v-229h-384v384zM299 425v56h-56v-56h56zM155 148v-155l-154 155h154z" />
    <glyph glyph-name=".notdef" horiz-adv-x="576" 
d="M155 532h229v-155h155v-229h-384v384zM299 425v56h-56v-56h56zM155 148v-155l-154 155h154z" />
    <glyph glyph-name="NULL" horiz-adv-x="0" 
 />
    <glyph glyph-name="NULL" horiz-adv-x="0" 
 />
    <glyph glyph-name="nonmarkingreturn" unicode="&#xd;" horiz-adv-x="312" 
 />
    <glyph glyph-name="space" unicode=" " horiz-adv-x="312" 
 />
    <glyph glyph-name="numbersign" unicode="#" horiz-adv-x="744" 
d="M656 472h-124l-25 -168h119v-60h-128q-8 -65 -17.5 -130.5t-17.5 -130.5h-58l35 261h-167q-9 -66 -19.5 -130.5t-19.5 -130.5h-57l39 261h-127v60h136l25 168h-130v61h139l35 241h59l-36 -241h166l34 241h58l-34 -241h115v-61zM308 472l-27 -168h169l24 168h-166z" />
    <glyph glyph-name="dollar" unicode="$" horiz-adv-x="584" 
d="M268 -17q-78 5 -135 33.5t-95 63.5l42 48q44 -39 88.5 -61.5t99.5 -28.5v325q-42 16 -80.5 33.5t-67.5 41.5t-46 58t-17 83q0 45 15.5 80.5t43 60t66.5 39t86 17.5v79h56v-80q61 -5 109.5 -26.5t91.5 -50.5l-43 -49q-40 29 -78 46.5t-80 24.5v-307q42 -17 82 -35.5
t71 -43.5t50 -60t19 -86q0 -45 -15.5 -81t-44.5 -62.5t-70 -42.5t-92 -19v-82h-56v82zM482 178q0 34 -12 59t-33 44t-50 33t-63 28v-305q71 5 114.5 39.5t43.5 101.5zM119 586q0 -30 10 -51.5t28.5 -38.5t46.5 -31t64 -29v287q-77 -4 -113 -42.5t-36 -94.5z" />
    <glyph glyph-name="percent" unicode="%" horiz-adv-x="946" 
d="M61 609q0 34 14 64.5t37.5 52.5t54.5 35t66 13q34 0 65 -12.5t54 -34.5t37 -52t14 -66t-13 -67.5t-36 -55.5t-54 -38t-67 -14t-67.5 14t-55 37.5t-36.5 55.5t-13 68zM182 0l525 774h52l-526 -774h-51zM679 -17q-35 0 -66.5 13t-54.5 36t-36.5 54t-13.5 66t13.5 66
t36.5 54t54.5 36.5t66.5 13.5t65.5 -13.5t53 -37t35.5 -54.5t13 -65q0 -35 -13 -65.5t-35.5 -53.5t-53 -36.5t-65.5 -13.5zM233 481q27 0 49.5 10.5t39 28t26 40.5t9.5 49t-10 48t-27 37.5t-39.5 24t-47.5 8.5t-47.5 -9t-39 -25t-26.5 -37.5t-10 -46.5q0 -26 9.5 -49
t26 -40.5t39 -28t48.5 -10.5zM802 152q0 25 -9.5 48t-26.5 40t-39.5 27t-47.5 10q-26 0 -48.5 -10t-39.5 -27t-27 -39.5t-10 -48.5q0 -27 10 -49.5t27 -39.5t39.5 -26.5t48.5 -9.5q27 0 49.5 10t39 27t25.5 39.5t9 48.5z" />
    <glyph glyph-name="ampersand" unicode="&#x26;" horiz-adv-x="704" 
d="M597 -4l-121 127q-11 -13 -33.5 -36.5t-54 -46t-70.5 -39.5t-82 -17q-36 0 -68 13t-55.5 37t-37.5 56.5t-14 71.5q0 44 17 79t42 63.5t54.5 52t55.5 44.5q-10 13 -26.5 35t-32.5 49.5t-27.5 61t-11.5 71.5q0 36 12 65t32.5 49.5t48 31.5t58.5 11t58.5 -10.5t48 -30
t32.5 -46t12 -58.5q0 -45 -21 -86t-46 -73q-30 -38 -67 -70l174 -195q35 45 64 94t47 96l49 -22q-12 -28 -25 -52.5t-27.5 -49t-31.5 -50.5t-38 -56l130 -138zM262 361q-42 -28 -75 -61q-28 -29 -51 -65.5t-23 -78.5q0 -23 8 -44t23.5 -37.5t37.5 -26t49 -9.5q36 0 70.5 16
t62.5 37t47.5 42t25.5 30zM285 724q-22 0 -40.5 -9t-31.5 -24t-20 -35t-7 -42q0 -24 8.5 -49t21 -47.5t28 -42t29.5 -33.5q18 15 37 35t34 43.5t25 50t10 53.5q0 45 -26.5 72.5t-67.5 27.5z" />
    <glyph glyph-name="quotesingle" unicode="'" horiz-adv-x="225" 
d="M61 495v279h65v-279h-65z" />
    <glyph glyph-name="parenleft" unicode="(" horiz-adv-x="396" 
d="M317 -72q-42 38 -81.5 84.5t-70 102.5t-49 121.5t-18.5 140.5q0 81 18.5 148t49 123.5t70 102.5t81.5 84l36 -18q-37 -41 -72 -88.5t-62 -101.5t-43.5 -115t-16.5 -128q0 -70 16.5 -132t43.5 -117t62 -102.5t72 -88.5z" />
    <glyph glyph-name="parenright" unicode=")" horiz-adv-x="396" 
d="M73.9951 -72q41.998 38 81.4951 84.5q39.498 46.5 69.9961 102.5t48.9971 121.5t18.499 140.5q0 81 -18.499 148t-48.9971 123.5t-69.9961 102.5q-39.4971 46 -81.4951 84l-35.9971 -18q36.9971 -41 71.9951 -88.5t61.9961 -101.5q26.999 -54 43.498 -115t16.499 -128
q0 -70 -16.499 -132t-43.498 -117q-26.998 -55 -61.9961 -102.5t-71.9951 -88.5z" />
    <glyph glyph-name="asterisk" unicode="*" horiz-adv-x="472" 
d="M23 581l22 53l167 -54l-2 177h59l-3 -176l164 51l18 -53l-173 -49l113 -144l-45 -34l-110 146l-115 -146l-42 28l119 149z" />
    <glyph glyph-name="plus" unicode="+" 
d="M64 368h268v253h49v-253h268v-50h-268v-254h-49v254h-268v50z" />
    <glyph glyph-name="comma" unicode="," horiz-adv-x="211" 
d="M0 -74l72 229h77l-90 -229h-59z" />
    <glyph glyph-name="hyphen" unicode="-" horiz-adv-x="370" 
d="M38 359h299v-67h-299v67z" />
    <glyph glyph-name="period" unicode="." horiz-adv-x="211" 
d="M38 39q0 23 16 39.5t40 16.5q23 0 39 -16.5t16 -39.5t-16 -39.5t-39 -16.5q-24 0 -40 16.5t-16 39.5z" />
    <glyph glyph-name="slash" unicode="/" horiz-adv-x="350" 
d="M50 -16l227 790h46l-224 -790h-49z" />
    <glyph glyph-name="zero" unicode="0" horiz-adv-x="575" 
d="M464 591q0 37 -14 68t-37.5 54t-55.5 36t-69 13q-36 0 -68 -13t-55.5 -36t-37 -54t-13.5 -68t13 -70t36.5 -58t55 -39.5t69.5 -14.5q37 0 69 14.5t55.5 39t37.5 57.5t14 71zM303 381v-15h181v-32h-181v-95l150 -239h-40l-126 209l-128 -209h-36l149 237v97h-181v32h181
v15q-40 3 -74 20.5t-59 45.5t-39.5 65t-14.5 79t15.5 78.5t42.5 63.5t64 42.5t81 15.5q42 0 79 -15t64.5 -42t43.5 -63.5t16 -79.5q0 -41 -14 -77.5t-39 -65t-59.5 -46.5t-75.5 -21z" />
    <glyph glyph-name="one" unicode="1" horiz-adv-x="575" 
d="M464 591q0 37 -14 68t-37.5 54t-55.5 36t-69 13q-36 0 -68 -13t-55.5 -36t-37 -54t-13.5 -68t13 -70t36.5 -58t55 -39.5t69.5 -14.5q37 0 69 14.5t55.5 39t37.5 57.5t14 71zM303 381v-15h181v-32h-181v-95l150 -239h-40l-126 209l-128 -209h-36l149 237v97h-181v32h181
v15q-40 3 -74 20.5t-59 45.5t-39.5 65t-14.5 79t15.5 78.5t42.5 63.5t64 42.5t81 15.5q42 0 79 -15t64.5 -42t43.5 -63.5t16 -79.5q0 -41 -14 -77.5t-39 -65t-59.5 -46.5t-75.5 -21z" />
    <glyph glyph-name="two" unicode="2" horiz-adv-x="575" 
d="M464 591q0 37 -14 68t-37.5 54t-55.5 36t-69 13q-36 0 -68 -13t-55.5 -36t-37 -54t-13.5 -68t13 -70t36.5 -58t55 -39.5t69.5 -14.5q37 0 69 14.5t55.5 39t37.5 57.5t14 71zM303 381v-15h181v-32h-181v-95l150 -239h-40l-126 209l-128 -209h-36l149 237v97h-181v32h181
v15q-40 3 -74 20.5t-59 45.5t-39.5 65t-14.5 79t15.5 78.5t42.5 63.5t64 42.5t81 15.5q42 0 79 -15t64.5 -42t43.5 -63.5t16 -79.5q0 -41 -14 -77.5t-39 -65t-59.5 -46.5t-75.5 -21z" />
    <glyph glyph-name="three" unicode="3" horiz-adv-x="575" 
d="M464 591q0 37 -14 68t-37.5 54t-55.5 36t-69 13q-36 0 -68 -13t-55.5 -36t-37 -54t-13.5 -68t13 -70t36.5 -58t55 -39.5t69.5 -14.5q37 0 69 14.5t55.5 39t37.5 57.5t14 71zM303 381v-15h181v-32h-181v-95l150 -239h-40l-126 209l-128 -209h-36l149 237v97h-181v32h181
v15q-40 3 -74 20.5t-59 45.5t-39.5 65t-14.5 79t15.5 78.5t42.5 63.5t64 42.5t81 15.5q42 0 79 -15t64.5 -42t43.5 -63.5t16 -79.5q0 -41 -14 -77.5t-39 -65t-59.5 -46.5t-75.5 -21z" />
    <glyph glyph-name="four" unicode="4" horiz-adv-x="575" 
d="M464 591q0 37 -14 68t-37.5 54t-55.5 36t-69 13q-36 0 -68 -13t-55.5 -36t-37 -54t-13.5 -68t13 -70t36.5 -58t55 -39.5t69.5 -14.5q37 0 69 14.5t55.5 39t37.5 57.5t14 71zM303 381v-15h181v-32h-181v-95l150 -239h-40l-126 209l-128 -209h-36l149 237v97h-181v32h181
v15q-40 3 -74 20.5t-59 45.5t-39.5 65t-14.5 79t15.5 78.5t42.5 63.5t64 42.5t81 15.5q42 0 79 -15t64.5 -42t43.5 -63.5t16 -79.5q0 -41 -14 -77.5t-39 -65t-59.5 -46.5t-75.5 -21z" />
    <glyph glyph-name="five" unicode="5" horiz-adv-x="575" 
d="M464 591q0 37 -14 68t-37.5 54t-55.5 36t-69 13q-36 0 -68 -13t-55.5 -36t-37 -54t-13.5 -68t13 -70t36.5 -58t55 -39.5t69.5 -14.5q37 0 69 14.5t55.5 39t37.5 57.5t14 71zM303 381v-15h181v-32h-181v-95l150 -239h-40l-126 209l-128 -209h-36l149 237v97h-181v32h181
v15q-40 3 -74 20.5t-59 45.5t-39.5 65t-14.5 79t15.5 78.5t42.5 63.5t64 42.5t81 15.5q42 0 79 -15t64.5 -42t43.5 -63.5t16 -79.5q0 -41 -14 -77.5t-39 -65t-59.5 -46.5t-75.5 -21z" />
    <glyph glyph-name="six" unicode="6" horiz-adv-x="575" 
d="M464 591q0 37 -14 68t-37.5 54t-55.5 36t-69 13q-36 0 -68 -13t-55.5 -36t-37 -54t-13.5 -68t13 -70t36.5 -58t55 -39.5t69.5 -14.5q37 0 69 14.5t55.5 39t37.5 57.5t14 71zM303 381v-15h181v-32h-181v-95l150 -239h-40l-126 209l-128 -209h-36l149 237v97h-181v32h181
v15q-40 3 -74 20.5t-59 45.5t-39.5 65t-14.5 79t15.5 78.5t42.5 63.5t64 42.5t81 15.5q42 0 79 -15t64.5 -42t43.5 -63.5t16 -79.5q0 -41 -14 -77.5t-39 -65t-59.5 -46.5t-75.5 -21z" />
    <glyph glyph-name="seven" unicode="7" horiz-adv-x="575" 
d="M464 591q0 37 -14 68t-37.5 54t-55.5 36t-69 13q-36 0 -68 -13t-55.5 -36t-37 -54t-13.5 -68t13 -70t36.5 -58t55 -39.5t69.5 -14.5q37 0 69 14.5t55.5 39t37.5 57.5t14 71zM303 381v-15h181v-32h-181v-95l150 -239h-40l-126 209l-128 -209h-36l149 237v97h-181v32h181
v15q-40 3 -74 20.5t-59 45.5t-39.5 65t-14.5 79t15.5 78.5t42.5 63.5t64 42.5t81 15.5q42 0 79 -15t64.5 -42t43.5 -63.5t16 -79.5q0 -41 -14 -77.5t-39 -65t-59.5 -46.5t-75.5 -21z" />
    <glyph glyph-name="eight" unicode="8" horiz-adv-x="575" 
d="M464 591q0 37 -14 68t-37.5 54t-55.5 36t-69 13q-36 0 -68 -13t-55.5 -36t-37 -54t-13.5 -68t13 -70t36.5 -58t55 -39.5t69.5 -14.5q37 0 69 14.5t55.5 39t37.5 57.5t14 71zM303 381v-15h181v-32h-181v-95l150 -239h-40l-126 209l-128 -209h-36l149 237v97h-181v32h181
v15q-40 3 -74 20.5t-59 45.5t-39.5 65t-14.5 79t15.5 78.5t42.5 63.5t64 42.5t81 15.5q42 0 79 -15t64.5 -42t43.5 -63.5t16 -79.5q0 -41 -14 -77.5t-39 -65t-59.5 -46.5t-75.5 -21z" />
    <glyph glyph-name="nine" unicode="9" horiz-adv-x="575" 
d="M464 591q0 37 -14 68t-37.5 54t-55.5 36t-69 13q-36 0 -68 -13t-55.5 -36t-37 -54t-13.5 -68t13 -70t36.5 -58t55 -39.5t69.5 -14.5q37 0 69 14.5t55.5 39t37.5 57.5t14 71zM303 381v-15h181v-32h-181v-95l150 -239h-40l-126 209l-128 -209h-36l149 237v97h-181v32h181
v15q-40 3 -74 20.5t-59 45.5t-39.5 65t-14.5 79t15.5 78.5t42.5 63.5t64 42.5t81 15.5q42 0 79 -15t64.5 -42t43.5 -63.5t16 -79.5q0 -41 -14 -77.5t-39 -65t-59.5 -46.5t-75.5 -21z" />
    <glyph glyph-name="colon" unicode=":" horiz-adv-x="211" 
d="M38 39q0 23 16 39.5t40 16.5q23 0 39 -16.5t16 -39.5t-16 -39.5t-39 -16.5q-24 0 -40 16.5t-16 39.5zM38 358q0 23 16 39.5t40 16.5q23 0 39 -16.5t16 -39.5t-16 -39.5t-39 -16.5q-24 0 -40 16.5t-16 39.5z" />
    <glyph glyph-name="semicolon" unicode=";" horiz-adv-x="234" 
d="M0 -74l72 229h77l-90 -229h-59zM61 358q0 23 16.5 39.5t39.5 16.5t39.5 -16.5t16.5 -39.5t-16.5 -39.5t-39.5 -16.5t-39.5 16.5t-16.5 39.5z" />
    <glyph glyph-name="less" unicode="&#x3c;" 
d="M611 466l-459 -185l459 -181v-73l-535 221v66l535 221v-69z" />
    <glyph glyph-name="equal" unicode="=" 
d="M70 479h573v-51h-573v51zM70 254h573v-51h-573v51z" />
    <glyph glyph-name="greater" unicode="&#x3e;" 
d="M92.9941 466l458.973 -185l-458.973 -181v-73l534.968 221v66l-534.968 221v-69z" />
    <glyph glyph-name="question" unicode="?" horiz-adv-x="563" 
d="M226 392h30q34 0 62 13t47.5 35.5t30.5 52.5t11 64q0 37 -12 67t-33 51t-48.5 32t-57.5 11q-40 0 -67 -18t-43 -43t-23 -50t-7 -38h-55v7q0 21 9.5 53.5t32.5 63.5t61 53.5t96 22.5q49 0 87 -17.5t64 -47.5t39.5 -70t13.5 -85q0 -58 -20 -97.5t-50 -63.5t-64 -35t-61 -13
l-9 -131h-45v168zM182 39q0 23 16 39.5t39 16.5q24 0 40 -16.5t16 -39.5t-16 -39.5t-40 -16.5q-23 0 -39 16.5t-16 39.5z" />
    <glyph glyph-name="at" unicode="@" horiz-adv-x="1003" 
d="M754 192q40 45 59.5 102t19.5 109q0 63 -26.5 119.5t-71.5 99t-105 67.5t-127 25q-74 0 -137.5 -29.5t-111 -80t-74.5 -117.5t-27 -141q0 -75 27.5 -140.5t76 -114t113.5 -76.5t140 -28q42 0 84.5 9.5t81.5 28t72.5 46t59.5 62.5l45 -34q-29 -40 -67.5 -71t-83.5 -52.5
t-94.5 -33t-99.5 -11.5q-87 0 -164 33.5t-134.5 91t-90.5 133.5t-33 162q0 87 34 163t91.5 132.5t134 89.5t161.5 33q75 0 142.5 -25.5t120 -70.5t85.5 -107.5t39 -136.5q1 -8 1 -16.5v-16.5q0 -63 -19 -117t-60 -105q-40 -50 -108 -50q-9 0 -15 4q-6 3 -10.5 10t-4.5 20v47
q-14 -16 -32.5 -34.5t-43 -34t-56 -26t-71.5 -10.5q-56 0 -100 21.5t-75.5 56.5t-48 81t-16.5 96q0 57 21.5 102.5t56.5 77t80.5 48.5t93.5 17q37 0 66 -9t52 -23.5t40.5 -32.5t32.5 -35l4 88h48v-387q0 -14 14 -14q7 0 10 5zM680 351q0 46 -16.5 83t-44 63.5t-64 40.5
t-76.5 14q-41 0 -76 -14.5t-60.5 -40.5t-40 -62t-14.5 -79q0 -42 14 -79.5t39.5 -65.5t61 -44t78.5 -16q40 0 76 14t63.5 40.5t43.5 63.5t16 82z" />
    <glyph glyph-name="A" unicode="A" 
d="M197 298h321l-160 433zM23 0l300 774h74l293 -774h-62l-89 248h-361l-92 -248h-63z" />
    <glyph glyph-name="B" unicode="B" horiz-adv-x="647" 
d="M99 774h169q47 0 95.5 -6.5t88 -26t64.5 -56t25 -96.5q0 -41 -11.5 -70.5t-29.5 -50.5t-39.5 -34.5t-41.5 -23.5q25 -6 54.5 -19.5t54 -37.5t41 -59t16.5 -84q0 -54 -20 -93.5t-52 -65.5t-72.5 -38.5t-82.5 -12.5h-259v774zM483 582q0 49 -22 77t-55 42t-71.5 17t-71.5 3
h-102v-285h109q41 0 79.5 6.5t68 23t47.5 45t18 71.5zM530 212q0 52 -22.5 85t-57 52t-74.5 26t-74 7h-141v-330h170q38 0 74 8.5t63.5 28t44.5 49.5t17 74z" />
    <glyph glyph-name="C" unicode="C" horiz-adv-x="816" 
d="M778 137q-55 -72 -136.5 -114.5t-177.5 -42.5q-85 0 -158.5 34t-128 92t-85.5 133.5t-31 158.5q0 84 32.5 157t87.5 126.5t128 84t155 30.5q88 0 165 -34.5t134 -94.5l-42 -38q-48 52 -115 82t-142 30q-70 0 -132.5 -26.5t-109.5 -72.5t-74.5 -109t-27.5 -136
q0 -71 26.5 -136.5t73 -115.5t109.5 -79.5t136 -29.5q81 0 149.5 35.5t116.5 95.5z" />
    <glyph glyph-name="D" unicode="D" horiz-adv-x="756" 
d="M99 774h182q76 0 150.5 -21t133 -66.5t94.5 -117.5t36 -174q0 -84 -26 -156t-75.5 -125.5t-121 -83.5t-162.5 -30h-211v774zM638 395q0 81 -29 142t-79 102t-117 61.5t-143 20.5h-111v-669h148q76 0 137.5 27t104.5 73.5t66 109t23 133.5z" />
    <glyph glyph-name="E" unicode="E" horiz-adv-x="608" 
d="M99 0v774h471v-53h-411v-300h275v-55h-275v-314h411v-52h-471z" />
    <glyph glyph-name="F" unicode="F" horiz-adv-x="584" 
d="M99 0v774h476v-53h-417v-284h277v-53h-277v-384h-59z" />
    <glyph glyph-name="G" unicode="G" horiz-adv-x="880" 
d="M715 604q-13 24 -37 47.5t-58 42t-77 30.5t-95 12q-77 0 -138 -27t-104 -74t-65.5 -110t-22.5 -135q0 -77 25.5 -141.5t70 -111.5t105 -73.5t129.5 -26.5q54 0 106 16.5t92.5 48.5t65.5 77.5t27 104.5h-219v53h275v-337h-56v136q-10 -24 -33 -51t-58.5 -49.5t-84.5 -37.5
t-111 -15q-83 0 -154.5 28t-124 80.5t-82.5 127.5t-30 168q0 89 28 163.5t79.5 128.5t124.5 84.5t163 30.5q59 0 109 -13t89 -34.5t67.5 -50.5t44.5 -60z" />
    <glyph glyph-name="H" unicode="H" horiz-adv-x="728" 
d="M99 774h59v-341h412v341h59v-774h-59v379h-412v-379h-59v774z" />
    <glyph glyph-name="I" unicode="I" horiz-adv-x="260" 
d="M99 0v774h62v-774h-62z" />
    <glyph glyph-name="J" unicode="J" horiz-adv-x="572" 
d="M253 -17q-86 0 -141 40t-89 103l43 39q33 -57 78 -91.5t110 -34.5q78 0 125 51.5t47 153.5v530h61v-525q0 -69 -19.5 -120t-51.5 -83q-60 -63 -163 -63z" />
    <glyph glyph-name="K" unicode="K" horiz-adv-x="720" 
d="M99 0v774h62v-421l412 421h67l-303 -307l360 -467h-75l-332 429l-129 -132v-297h-62z" />
    <glyph glyph-name="L" unicode="L" horiz-adv-x="565" 
d="M99 774h60v-722h383v-52h-443v774z" />
    <glyph glyph-name="M" unicode="M" horiz-adv-x="903" 
d="M99 774h77l277 -656l284 656h67v-774h-59v671l-278 -640h-37l-271 645v-676h-60v774z" />
    <glyph glyph-name="N" unicode="N" horiz-adv-x="733" 
d="M99 774h87l387 -659v659h60v-774h-58l-416 709v-709h-60v774z" />
    <glyph glyph-name="O" unicode="O" horiz-adv-x="911" 
d="M455 -19q-85 0 -158.5 34t-128 91t-85.5 132t-31 158q0 84 32.5 156.5t87.5 126t128 83.5t155 30q81 0 154.5 -30t129 -83.5t88 -126t32.5 -156.5q0 -83 -31.5 -158t-86 -132t-128.5 -91t-158 -34zM802 396q0 73 -28 135.5t-75.5 108t-110.5 71.5t-133 26t-132.5 -26
t-109.5 -72t-74.5 -108t-27.5 -135q0 -71 26.5 -136t73 -114.5t109 -79t135.5 -29.5t136.5 29.5t110 79t73.5 114.5t27 136z" />
    <glyph glyph-name="P" unicode="P" horiz-adv-x="627" 
d="M99 0v774h252q30 0 70.5 -9.5t78 -35t63.5 -70.5t26 -115q0 -61 -21 -105.5t-57 -73.5t-84.5 -43t-102.5 -14h-166v-308h-59zM533 537q0 56 -20 92t-50 56.5t-65.5 28t-66.5 7.5h-173v-361h142q39 0 80.5 6t75.5 24.5t55.5 53.5t21.5 93z" />
    <glyph glyph-name="Q" unicode="Q" horiz-adv-x="929" 
d="M464 -19q-85 0 -158.5 34t-128 91t-85.5 132t-31 158q0 84 32.5 156.5t87.5 126t128 83.5t155 30q81 0 154.5 -30t128.5 -83.5t87.5 -126t32.5 -156.5q0 -79 -28 -150t-77 -128l103 -105l-45 -45l-105 106q-51 -44 -115 -68.5t-136 -24.5zM811 396q0 73 -28 135.5
t-75.5 108t-110.5 71.5t-133 26t-132.5 -26t-109.5 -72t-74.5 -108t-27.5 -135q0 -71 26.5 -136t73 -114.5t109 -79t135.5 -29.5q60 0 114 20.5t98 55.5l-75 75l46 46l74 -76q42 49 66 110t24 128z" />
    <glyph glyph-name="R" unicode="R" horiz-adv-x="678" 
d="M99 774h231q54 0 85.5 -6t55.5 -18q48 -23 79 -71.5t31 -119.5q0 -41 -11 -77t-31.5 -64t-48 -47t-60.5 -28l187 -343h-67l-181 334h-212v-334h-58v774zM361 389q36 0 65.5 13t50.5 35.5t32.5 52.5t11.5 65q0 54 -24.5 91.5t-62.5 57.5q-16 6 -40 10.5t-66 4.5h-171v-330
h204z" />
    <glyph glyph-name="S" unicode="S" horiz-adv-x="622" 
d="M561 200q0 -47 -17.5 -86.5t-49.5 -68.5t-78 -45.5t-104 -16.5q-79 0 -142.5 28t-108.5 69l43 47q45 -42 97.5 -65.5t115.5 -23.5q82 0 130.5 40.5t48.5 112.5q0 37 -15.5 64t-42.5 47.5t-62.5 36.5t-75.5 32q-41 16 -80.5 34.5t-70.5 43.5t-50 59t-19 82q0 47 17 84
t47.5 62.5t73 38.5t93.5 13q72 0 126.5 -23t103.5 -55l-44 -49q-48 35 -96 54.5t-101 19.5q-40 0 -69.5 -11t-49 -30t-29 -43.5t-9.5 -52.5q0 -34 13 -58t38 -43t61.5 -35t83.5 -35q43 -17 83 -35.5t71 -44.5t49.5 -61.5t18.5 -85.5z" />
    <glyph glyph-name="T" unicode="T" horiz-adv-x="580" 
d="M9 774h562v-53h-251v-721h-60v721h-251v53z" />
    <glyph glyph-name="U" unicode="U" horiz-adv-x="700" 
d="M86 774h57v-465q0 -68 10.5 -119t35 -85t64.5 -51t99 -17q60 0 99.5 18t63 52.5t33 85.5t9.5 117v464h58v-470q0 -75 -13 -134.5t-43.5 -101t-81.5 -63.5t-126 -22q-74 0 -125 21.5t-82.5 62.5t-45 100.5t-13.5 136.5z" />
    <glyph glyph-name="V" unicode="V" horiz-adv-x="590" 
d="M566 774l-244 -774h-56l-243 774h64l210 -665l210 665h59z" />
    <glyph glyph-name="W" unicode="W" horiz-adv-x="979" 
d="M956 774l-256 -774h-57l-156 682l-167 -682h-55l-242 774h62l206 -661l166 661h67l155 -664l219 664h58z" />
    <glyph glyph-name="X" unicode="X" horiz-adv-x="731" 
d="M697 774l-297 -379l308 -395h-68l-275 357l-275 -357h-67l307 395l-295 379h68l264 -341l263 341h67z" />
    <glyph glyph-name="Y" unicode="Y" horiz-adv-x="678" 
d="M309 306l-295 468h77l250 -411l250 411h72l-294 -467v-307h-60v306z" />
    <glyph glyph-name="Z" unicode="Z" horiz-adv-x="589" 
d="M38 0v51l444 669h-444v54h513v-48l-444 -674h443v-52h-512z" />
    <glyph glyph-name="bracketleft" unicode="[" horiz-adv-x="350" 
d="M99 775h213v-54h-155v-783h155v-54h-213v891z" />
    <glyph glyph-name="backslash" unicode="\" horiz-adv-x="350" 
d="M270 -61l-242 892h50l243 -892h-51z" />
    <glyph glyph-name="bracketright" unicode="]" horiz-adv-x="350" 
d="M250.984 775h-212.986v-54h154.99v-783h-154.99v-54h212.986v891z" />
    <glyph glyph-name="asciicircum" unicode="^" horiz-adv-x="404" 
d="M177 758h49l177 -227h-60l-142 179l-143 -179h-57z" />
    <glyph glyph-name="underscore" unicode="_" horiz-adv-x="636" 
d="M0 -43h636v-52h-636v52z" />
    <glyph glyph-name="grave" unicode="`" horiz-adv-x="334" 
d="M-27 758l104 11l71 -181h-47z" />
    <glyph glyph-name="a" unicode="a" horiz-adv-x="599" 
d="M454 51q-17 -19 -43 -34q-22 -13 -55.5 -23t-78.5 -10q-48 0 -88 15.5t-68.5 42.5t-44 63t-15.5 78q0 46 18.5 82t49 60.5t69.5 37t80 12.5q33 0 59.5 -7.5t48 -18.5t38.5 -24t30 -24v62q0 25 -13 48.5t-37.5 42t-60 30t-79.5 11.5q-23 0 -49.5 -3.5t-56.5 -12.5l-14 52
q14 4 32.5 6.5t37.5 4.5t37.5 3t32.5 1q57 0 100 -15.5t72 -43t43.5 -65t14.5 -82.5v-340h-56zM453 183q0 33 -15.5 58.5t-40 42.5t-55 25.5t-59.5 8.5q-31 0 -60.5 -9.5t-53 -27.5t-37.5 -43.5t-14 -57.5q0 -31 13 -57t35.5 -44.5t52 -29t62.5 -10.5q32 0 63 10.5t55 29
t39 45t15 59.5z" />
    <glyph glyph-name="b" unicode="b" horiz-adv-x="705" 
d="M99 774h59v-344q16 19 38 39t50 36t62 26t73 10q54 0 102 -20.5t83.5 -57t56 -88t20.5 -112.5q0 -59 -19.5 -109.5t-55 -87t-85 -57t-109.5 -20.5q-43 0 -77 10t-61 26t-46 35.5t-32 39.5l-3 -100h-56v774zM583 263q0 46 -14.5 86t-41 69.5t-64.5 46.5t-85 17
q-45 0 -84 -16t-68 -45.5t-45.5 -70.5t-16.5 -91q0 -48 15.5 -87.5t43.5 -67.5t66.5 -43t84.5 -15q48 0 87 16.5t66 45.5t41.5 68.5t14.5 86.5z" />
    <glyph glyph-name="c" unicode="c" horiz-adv-x="630" 
d="M591 127q-35 -63 -98.5 -100.5t-145.5 -37.5q-59 0 -111 19.5t-91 55.5t-61.5 87t-22.5 113t23 113t62 87.5t91 56.5t110 20q37 0 73 -8.5t68 -25t59 -41t45 -57.5l-50 -35q-27 49 -77.5 79.5t-116.5 30.5q-47 0 -88 -16.5t-71.5 -46t-48 -70t-17.5 -88.5q0 -51 19 -91.5
t50.5 -68.5t72 -43t82.5 -15q60 0 112 30t81 84z" />
    <glyph glyph-name="d" unicode="d" horiz-adv-x="705" 
d="M605 0h-54l-5 100q-12 -20 -31.5 -39.5t-46 -35.5t-60.5 -26t-77 -10q-60 0 -109.5 20.5t-85 57t-55.5 87t-20 109.5q0 61 20.5 112.5t56 88t83.5 57t102 20.5q39 0 73 -10t62.5 -26t50.5 -36t37 -39v344h59v-774zM122 263q0 -47 14.5 -86.5t41.5 -68.5t66 -45.5
t87 -16.5q46 0 84.5 15t66.5 43t43.5 67.5t15.5 87.5q0 50 -16.5 91t-45.5 70.5t-68 45.5t-84 16q-47 0 -85 -17t-64.5 -46.5t-41 -69.5t-14.5 -86z" />
    <glyph glyph-name="e" unicode="e" horiz-adv-x="683" 
d="M584 118q-12 -22 -33 -45.5t-51 -43t-69.5 -32.5t-89.5 -13q-65 0 -117 22.5t-88 61.5t-55.5 91t-19.5 110q0 65 23 116.5t62 87t90.5 54.5t108.5 19q73 0 127 -28.5t88.5 -73t49.5 -98t10 -102.5h-497q1 -23 11.5 -57t35.5 -66t66 -55t103 -23q41 0 72.5 10.5t55.5 26
t41 34t28 34.5zM341 489q-59 0 -100 -20t-67 -49t-38 -61.5t-13 -56.5h439q-1 22 -13 54t-38 61.5t-67.5 50.5t-102.5 21z" />
    <glyph glyph-name="f" unicode="f" horiz-adv-x="341" 
d="M23 526h94v133q0 30 10.5 51.5t27 35.5t37.5 21t43 7h68v-51h-43q-41 0 -62 -14.5t-21 -58.5v-124h101v-54h-101v-472h-60v472h-94v54z" />
    <glyph glyph-name="g" unicode="g" horiz-adv-x="688" 
d="M158 -74q9 -12 24.5 -26t38 -26t52 -20t65.5 -8q52 0 91 17t65 46t38.5 67t12.5 81v46q-11 -15 -29.5 -35t-46 -37.5t-63 -29.5t-78.5 -12q-54 0 -102.5 20.5t-85 57t-58 86.5t-21.5 110t21.5 111t58.5 88t85 58t102 21q43 0 79 -12.5t64 -29.5t46.5 -35t27.5 -28l4 95
h54v-467q0 -54 -15 -103t-47 -86.5t-82 -59.5t-119 -22q-75 0 -125 24t-80 54zM542 271q0 46 -15.5 85.5t-43.5 68.5t-66.5 45.5t-83.5 16.5q-44 0 -83 -16t-68 -44.5t-45.5 -68.5t-16.5 -88q0 -46 15.5 -86.5t43.5 -71t67 -48t87 -17.5q49 0 88 19t66 50.5t41 71.5t14 83z
" />
    <glyph glyph-name="h" unicode="h" horiz-adv-x="634" 
d="M99 774h60v-341q20 21 43 40.5t51 35.5t60.5 25.5t71.5 9.5q40 0 68 -10.5t46.5 -27.5t28.5 -38.5t15 -44t6 -44t1 -38.5v-341h-59v313q0 37 -2 69.5t-12.5 57.5t-33 39.5t-63.5 14.5q-45 0 -82 -17t-65 -40.5t-46.5 -48t-27.5 -40.5v-348h-60v774z" />
    <glyph glyph-name="i" unicode="i" horiz-adv-x="260" 
d="M100 531h59v-531h-59v531zM99 773h62v-131h-62v131z" />
    <glyph glyph-name="j" unicode="j" horiz-adv-x="274" 
d="M6 -164q48 13 79 52t31 114v529h59v-539q0 -52 -14 -89t-37.5 -61t-54 -37t-63.5 -18v49zM116 770h59v-130h-59v130z" />
    <glyph glyph-name="k" unicode="k" horiz-adv-x="561" 
d="M495 531l-182 -175l233 -356h-68l-209 313l-110 -103v-210h-60v774h60v-486l252 243h84z" />
    <glyph glyph-name="l" unicode="l" horiz-adv-x="259" 
d="M99 774h60v-774h-60v774z" />
    <glyph glyph-name="m" unicode="m" horiz-adv-x="951" 
d="M99 0v531h56l4 -87q16 18 35 36t43 32.5t53 24t65 9.5q34 0 59.5 -9t43.5 -24t29 -33.5t17 -37.5q17 19 37 37.5t45 33.5t54.5 24t66.5 9q159 0 159 -184v-362h-58v322q0 38 -2 70t-12.5 55.5t-33 36.5t-62.5 13q-37 0 -64.5 -10.5t-49.5 -27t-38.5 -38t-31.5 -43.5v-378
h-58v326q0 34 -1.5 65t-11.5 55t-31 38t-60 14q-37 0 -66.5 -12t-53.5 -30.5t-42 -41t-31 -42.5v-372h-60z" />
    <glyph glyph-name="n" unicode="n" horiz-adv-x="632" 
d="M99 531h56l4 -97q17 18 38.5 37.5t48.5 36t61 27.5t77 11q50 0 82 -15.5t50 -40t24.5 -56t6.5 -63.5v-371h-59v365q0 19 -2.5 42t-14 43.5t-35 34t-64.5 13.5q-42 0 -76 -14.5t-60 -36t-45 -45.5t-32 -43v-359h-60v531z" />
    <glyph glyph-name="o" unicode="o" horiz-adv-x="688" 
d="M347 -14q-59 0 -111 19.5t-91 55.5t-61.5 87t-22.5 113t23 113t62 87t91 56t110 20q53 0 103.5 -17.5t89.5 -51t63 -84t24 -116.5q0 -60 -20.5 -112t-58 -89.5t-89 -59t-112.5 -21.5zM568 264q0 46 -16.5 85.5t-45.5 68.5t-69.5 46t-88.5 17q-47 0 -88 -16.5t-71.5 -46
t-48 -70t-17.5 -88.5q0 -51 19.5 -92t51 -69t71.5 -43t81 -15q44 0 84 16.5t71 46t49 70.5t18 90z" />
    <glyph glyph-name="p" unicode="p" horiz-adv-x="705" 
d="M99 531h55l4 -101q13 20 32 40t46 36t61 26t77 10q60 0 109.5 -20.5t85 -57t55 -87t19.5 -109.5q0 -62 -20.5 -113t-56 -87.5t-83.5 -57t-102 -20.5q-39 0 -73 10t-62 26t-50 35.5t-38 38.5v-314h-59v745zM583 269q0 46 -14.5 85.5t-41.5 68.5t-66 45.5t-87 16.5
q-46 0 -84.5 -15.5t-66.5 -43t-43.5 -67t-15.5 -87.5q0 -50 16.5 -91.5t45.5 -70.5t68 -45t84 -16q47 0 85 17t64.5 46.5t41 69.5t14.5 87z" />
    <glyph glyph-name="q" unicode="q" horiz-adv-x="705" 
d="M605 -214h-59v314q-15 -19 -37 -38.5t-50.5 -35.5t-62.5 -26t-73 -10q-54 0 -102 20.5t-83.5 57t-56 87.5t-20.5 113q0 59 20 109.5t55.5 87t85 57t109.5 20.5q43 0 77 -10t60.5 -26t46 -36t31.5 -40l5 101h54v-745zM122 269q0 -47 14.5 -87t41 -69.5t64.5 -46.5t85 -17
q45 0 84 16t68 45t45.5 70.5t16.5 91.5q0 48 -15.5 87.5t-43.5 67t-66.5 43t-84.5 15.5q-48 0 -87 -16.5t-66 -45.5t-41.5 -68.5t-14.5 -85.5z" />
    <glyph glyph-name="r" unicode="r" horiz-adv-x="350" 
d="M144 0h-59v531h54l5 -103l5 -1q14 33 31 56t38 37t47.5 20.5t61.5 6.5v-64q-54 0 -89.5 -19t-56.5 -51t-29 -74.5t-8 -89.5v-249z" />
    <glyph glyph-name="s" unicode="s" horiz-adv-x="488" 
d="M261 -16q-59 0 -119 22.5t-104 57.5l36 47q45 -34 93 -52.5t94 -18.5q58 0 93 26.5t35 70.5q0 24 -10 39.5t-28.5 26.5t-44 19.5t-55.5 17.5q-33 9 -66 20.5t-59.5 29t-43 42.5t-16.5 63q0 33 13.5 60.5t37.5 47.5t57 31.5t72 11.5q49 0 100.5 -16.5t93.5 -44.5l-32 -50
q-38 25 -80 40.5t-84 15.5q-55 0 -86.5 -26.5t-31.5 -63.5q0 -23 11.5 -38.5t31 -26.5t46.5 -20t57 -18q35 -11 67.5 -22.5t57 -29t39 -42t14.5 -61.5q0 -36 -14.5 -65.5t-40 -50.5t-60 -32t-74.5 -11z" />
    <glyph glyph-name="t" unicode="t" horiz-adv-x="319" 
d="M23 476v55h90v166h59v-166h100v-55h-100v-360q0 -23 2 -35t9 -17q8 -7 22.5 -8.5t37.5 -1.5h38v-54h-38q-47 0 -77 6.5t-42 26.5q-3 6 -5.5 13.5t-3.5 18.5t-1.5 27t-0.5 40v344h-90z" />
    <glyph glyph-name="u" unicode="u" horiz-adv-x="624" 
d="M85 531h59v-349q0 -29 4.5 -55t16.5 -45.5t31.5 -31t49.5 -11.5q37 0 72 15.5t64 36.5t50.5 42.5t32.5 33.5v364h60v-531h-56l-4 101q-21 -20 -45 -40t-52 -36t-59.5 -26t-67.5 -10q-47 0 -77 16.5t-47.5 44.5t-24.5 64.5t-7 75.5v341z" />
    <glyph glyph-name="v" unicode="v" horiz-adv-x="536" 
d="M81 531l197 -454l181 454h54l-215 -531h-46l-229 531h58z" />
    <glyph glyph-name="w" unicode="w" horiz-adv-x="799" 
d="M80 531l163 -440l131 440h50l139 -446l165 446h48l-196 -531h-41l-141 444l-132 -444h-45l-198 531h57z" />
    <glyph glyph-name="x" unicode="x" horiz-adv-x="546" 
d="M273 306l180 225h62l-209 -259l217 -272h-64l-187 236l-187 -236h-62l217 271l-209 260h64z" />
    <glyph glyph-name="y" unicode="y" horiz-adv-x="527" 
d="M72 531l197 -454l181 454h54l-251 -618q-17 -42 -40.5 -67.5t-53 -38.5t-64.5 -17t-76 -4l12 47q40 0 68 4.5t48.5 16.5t35.5 33.5t29 55.5l27 66l-225 522h58z" />
    <glyph glyph-name="z" unicode="z" horiz-adv-x="546" 
d="M52 50l357 426h-349v55h428v-45l-361 -432h367v-54h-442v50z" />
    <glyph glyph-name="braceleft" unicode="{" horiz-adv-x="408" 
d="M370 -148q-41 9 -61.5 16t-37.5 15q-36 16 -58 36t-34.5 43.5t-17 51.5t-4.5 60v88q0 32 -6 58t-21.5 44.5t-41.5 28.5t-65 10v43q39 0 65 10t41.5 28.5t21.5 44.5t6 58v88q0 32 4.5 60t17 51.5t34.5 43.5t58 36q22 10 45.5 17t53.5 14v-40q-22 -6 -42.5 -13.5
t-28.5 -10.5q-30 -13 -47 -29.5t-26 -36.5t-11.5 -44.5t-2.5 -53.5v-84q0 -37 -8.5 -63.5t-23.5 -45.5t-36.5 -31.5t-47.5 -20.5q56 -17 86 -51.5t30 -108.5v-84q0 -29 2.5 -53.5t11.5 -44.5t26 -36.5t47 -29.5q6 -2 27 -10t44 -14v-40v0z" />
    <glyph glyph-name="bar" unicode="|" horiz-adv-x="332" 
d="M138 774h57v-969h-57v969z" />
    <glyph glyph-name="braceright" unicode="}" horiz-adv-x="408" 
d="M37.998 -148q40.9971 9 61.4961 16q20.498 7 37.4971 15q35.998 16 57.9971 36q21.998 20 34.498 43.5q12.499 23.5 16.999 51.5q4.49902 28 4.49902 60v88q0 32 6 58t21.499 44.5t41.4971 28.5t64.9961 10v43q-38.998 0 -64.9961 10t-41.4971 28.5t-21.499 44.5t-6 58
v88q0 32 -4.49902 60q-4.5 28 -16.999 51.5q-12.5 23.5 -34.498 43.5q-21.999 20 -57.9971 36q-21.998 10 -45.4971 17q-23.498 7 -53.4961 14v-40q21.998 -6 42.4971 -13.5t28.498 -10.5q29.998 -13 46.9971 -29.5t25.999 -36.5q8.99902 -20 11.499 -44.5t2.5 -53.5v-84
q0 -37 8.49902 -63.5q8.5 -26.5 23.499 -45.5t36.4971 -31.5q21.499 -12.5 47.4971 -20.5q-55.9961 -17 -85.9941 -51.5t-29.998 -108.5v-84q0 -29 -2.5 -53.5t-11.499 -44.5q-9 -20 -25.999 -36.5t-46.9971 -29.5q-5.99902 -2 -26.998 -10t-43.9971 -14v-40v0z" />
    <glyph glyph-name="asciitilde" unicode="~" horiz-adv-x="704" 
d="M604 337q-24 -58 -56.5 -92t-84.5 -34q-33 0 -61 13t-53.5 28.5t-50 28.5t-49.5 13q-29 0 -50.5 -21t-44.5 -69l-55 26q26 63 59 94.5t81 31.5q34 0 61 -13.5t52 -29t49.5 -29t53.5 -13.5q19 0 32 6.5t23.5 18.5t19 29t17.5 38z" />
    <glyph glyph-name="dagger" unicode="&#x2020;" horiz-adv-x="638" 
d="M350 516v-516h-59v516l-185 -19v68l184 -19v228h61v-228l185 19v-68z" />
    <glyph glyph-name="degree" unicode="&#xb0;" horiz-adv-x="406" 
d="M197 426q-36 0 -67.5 13.5t-55.5 37.5t-37.5 55.5t-13.5 67.5t13.5 67.5t37.5 55.5t55.5 37.5t67.5 13.5t67 -13.5t54 -37.5t36.5 -55.5t13.5 -67.5t-13.5 -67.5t-36.5 -55.5t-54 -37.5t-67 -13.5zM321 600q0 26 -10 49t-26.5 40.5t-39.5 27.5t-48 10q-26 0 -49.5 -10
t-40.5 -27.5t-27 -40.5t-10 -49t10 -48.5t27 -39.5t40.5 -27t49.5 -10q25 0 48 10t39.5 27t26.5 39.5t10 48.5z" />
    <glyph glyph-name="sterling" unicode="&#xa3;" horiz-adv-x="584" 
d="M444 546q2 11 3 18t1 15q0 29 -9 54.5t-25.5 44.5t-41 30t-54.5 11q-28 0 -55 -9.5t-48 -27.5t-34 -45t-13 -62q0 -20 4 -37.5t10.5 -36.5t14 -41.5t13.5 -50.5l2 -10h122v-46h-111q2 -12 4 -22t3.5 -20.5t2.5 -22.5t1 -28q0 -64 -12.5 -103t-26.5 -62q-18 -26 -39 -38
h233q29 0 49 8.5t32 23t17.5 33.5t6.5 39h52v-22q0 -24 -8.5 -49t-26 -45t-44 -32.5t-62.5 -12.5h-336v70q54 7 83 48.5t29 115.5q0 38 -7 69.5t-13 49.5h-109v46h102q-8 33 -15.5 56.5t-13.5 42.5t-10 37t-4 39q0 44 15.5 80.5t42.5 63t62.5 41.5t76.5 15q40 0 76 -14.5
t62 -39.5t41.5 -58.5t15.5 -71.5q0 -13 -1.5 -23t-3.5 -21h-54z" />
    <glyph glyph-name="bullet" unicode="&#x2022;" horiz-adv-x="640" 
d="M240 387q0 34 23 57.5t57 23.5t57.5 -23.5t23.5 -57.5t-23.5 -57t-57.5 -23t-57 23t-23 57z" />
    <glyph glyph-name="paragraph" unicode="&#xb6;" horiz-adv-x="591" 
d="M312 246h-6q-65 0 -115 19.5t-84 55t-51.5 84t-17.5 106.5q0 55 15.5 103t46.5 84t78 56.5t111 20.5h82v-989h-59v460zM435 774h57v-988h-57v988z" />
    <glyph glyph-name="germandbls" unicode="&#xdf;" horiz-adv-x="640" 
d="M108 541q0 45 6.5 90.5t28.5 82t63.5 59.5t111.5 23q46 0 84.5 -15.5t66 -42t42.5 -62.5t15 -78q0 -36 -10.5 -64t-26.5 -48.5t-34.5 -34.5t-34.5 -24q22 -8 48.5 -20t49 -34t38 -56.5t15.5 -86.5q0 -65 -23 -112t-60.5 -77t-86 -44.5t-99.5 -14.5l19 49q27 0 61 11
t64 34t50.5 58.5t20.5 84.5q0 54 -19.5 88t-51 54t-71.5 27.5t-80 7.5h-5v47h5q31 0 62 8.5t56 27.5t40.5 49t15.5 72q0 33 -11.5 60t-32 46.5t-48 30t-58.5 10.5q-57 0 -88 -21.5t-45.5 -54.5t-17.5 -74t-3 -80v-517h-57v541z" />
    <glyph glyph-name="acute" unicode="&#xb4;" horiz-adv-x="334" 
d="M188 588h-46l71 181l104 -11z" />
    <glyph glyph-name="dieresis" unicode="&#xa8;" horiz-adv-x="371" 
d="M23 691h104v-103h-104v103zM244 691h104v-103h-104v103z" />
    <glyph glyph-name="Oslash" unicode="&#xd8;" horiz-adv-x="884" 
d="M444 -19q-58 0 -111 15.5t-98 44.5l-67 -98h-48l83 121q-75 57 -118.5 144.5t-43.5 190.5q0 82 32.5 154t87.5 125t128 83.5t155 30.5q58 0 111.5 -16t101.5 -45l68 100h48l-83 -122q72 -54 114.5 -134t42.5 -176q0 -85 -31.5 -161t-86 -133t-128 -90.5t-157.5 -33.5z
M100 399q0 -88 36.5 -162.5t98.5 -125.5l391 575q-41 24 -86.5 37.5t-95.5 13.5q-70 0 -132.5 -26t-109.5 -72t-74.5 -107.5t-27.5 -132.5zM791 399q0 81 -36 149.5t-96 114.5l-393 -575q80 -51 178 -51q73 0 136.5 29t110 78.5t73.5 115.5t27 139z" />
    <glyph glyph-name="plusminus" unicode="&#xb1;" 
d="M64 -66v50h585v-50h-585zM64 368h268v253h49v-253h268v-50h-268v-254h-49v254h-268v50z" />
    <glyph glyph-name="ordfeminine" unicode="&#xaa;" horiz-adv-x="360" 
d="M41 384h266v-32h-266v32zM271 483q-10 -11 -25 -20q-13 -8 -33 -13.5t-46 -5.5q-29 0 -52.5 9t-40.5 25t-26 37t-9 46q0 27 11 48.5t29 36t41 22t47 7.5q20 0 35.5 -4.5t28.5 -11t23 -14.5t17 -14v37q0 14 -7.5 28t-22 25t-35.5 18t-47 7q-14 0 -29.5 -2t-33.5 -8l-8 31
q8 2 19 3.5t22.5 3t22.5 2t19 0.5q34 0 59 -9t42.5 -25.5t26 -38.5t8.5 -49v-201h-33zM271 561q0 20 -9.5 35t-24 25t-32.5 15t-35 5q-18 0 -35.5 -5.5t-31.5 -16t-22 -26t-8 -34.5q0 -18 7.5 -33.5t21 -26.5t31 -17t36.5 -6t37.5 6t32.5 17t23 27t9 35z" />
    <glyph glyph-name="ordmasculine" unicode="&#xba;" horiz-adv-x="418" 
d="M57 384h265v-32h-265v32zM192 446q-35 0 -65.5 11.5t-53.5 32.5t-36.5 52t-13.5 70q0 35 13.5 64.5t36.5 50.5t53 33t64 12q33 0 63 -10t53 -30.5t37 -50t14 -68.5q0 -36 -12.5 -66.5t-34 -53t-52 -35t-66.5 -12.5zM321 613q0 26 -9.5 48.5t-26.5 39.5t-41 27t-52 10
q-29 0 -53.5 -10.5t-42 -27.5t-27.5 -39.5t-10 -46.5q0 -34 11.5 -59.5t30 -42t42.5 -25t49 -8.5t48.5 9.5t41.5 27.5t28.5 42.5t10.5 54.5z" />
    <glyph glyph-name="ae" unicode="&#xe6;" horiz-adv-x="1027" 
d="M952 118q-12 -22 -33.5 -45.5t-51.5 -43t-68.5 -32.5t-84.5 -13q-68 0 -114 19.5t-75 42.5q-33 27 -54 63q-15 -22 -34 -44t-44.5 -40t-59.5 -29.5t-80 -11.5q-48 0 -87.5 15.5t-68 42.5t-44 63t-15.5 78q0 46 18.5 82t48.5 60.5t69 37t80 12.5q33 0 59.5 -7.5
t48.5 -18.5t38.5 -24t29.5 -24v62q0 25 -13 48.5t-37 42t-58.5 30t-77.5 11.5q-26 0 -52.5 -3.5t-56.5 -12.5l-15 52q14 4 32.5 6.5t38 4.5t38.5 3t34 1q82 0 135 -33t76 -87q38 58 100 89t128 31q79 0 135 -28.5t91 -72.5t49.5 -97.5t10.5 -103.5h-497q1 -23 11.5 -57
t35.5 -66t66 -55t104 -23q40 0 71.5 10.5t55.5 26t41 34t28 34.5zM429 183q0 33 -15.5 58.5t-40 42.5t-54.5 25.5t-59 8.5q-32 0 -61.5 -9.5t-52.5 -27.5t-37 -43.5t-14 -57.5q0 -31 13 -57t35.5 -44.5t52 -29t62.5 -10.5q32 0 62.5 10.5t54.5 29t39 45t15 59.5zM708 489
q-58 0 -99 -20t-66.5 -49t-38 -61.5t-13.5 -56.5h439q-1 22 -13 54t-38 61.5t-68 50.5t-103 21z" />
    <glyph glyph-name="oslash" unicode="&#xf8;" horiz-adv-x="638" 
d="M77 -57l67 98q-49 36 -77.5 93t-28.5 132q0 59 22.5 108.5t61.5 85.5t90.5 56.5t108.5 20.5q75 0 139 -32l56 83h48l-69 -102q49 -33 78.5 -88t29.5 -130q0 -60 -20.5 -112t-58 -89.5t-89 -59t-112.5 -21.5q-78 0 -146 34l-52 -77h-48zM544 268q0 51 -22 95t-62 73
l-249 -367q26 -14 54.5 -21t57.5 -7q43 0 83 16.5t71 46.5t49 71.5t18 92.5zM99 271q0 -63 21.5 -107.5t56.5 -73.5l250 367q-23 11 -48.5 17.5t-54.5 6.5q-49 0 -90 -18t-71 -47t-47 -67t-17 -78z" />
    <glyph glyph-name="questiondown" unicode="&#xbf;" horiz-adv-x="563" 
d="M336.979 162.99h-29.998q-33.998 0 -61.9961 -12.999q-27.999 -13 -47.4971 -35.498q-19.499 -22.499 -30.498 -52.4971q-11 -29.998 -11 -63.9961q0 -36.998 12 -66.9961q11.999 -29.998 32.9971 -50.9961q20.999 -20.999 48.4971 -31.998q27.499 -11 57.4971 -11
q39.9971 0 66.9961 17.999q26.998 17.999 42.9971 42.9971q15.999 24.999 22.998 49.9971q7 24.999 7 37.998h54.9971v-7q0 -20.998 -9.5 -53.4961q-9.49902 -32.498 -32.498 -63.4961q-22.998 -30.998 -60.9961 -53.4971t-95.9941 -22.499q-48.9971 0 -86.9951 17.499
q-37.9971 17.499 -63.9961 47.4971q-25.998 29.998 -39.4971 69.9961q-13.499 39.9971 -13.499 84.9951q0 57.9961 19.999 97.4941q19.998 39.4971 49.9961 63.4961q29.999 23.998 63.9961 34.9971q33.998 11 60.9971 13l8.99902 130.991h44.9971v-167.989zM380.977 515.969
q0 -22.999 -15.999 -39.498t-38.9971 -16.499q-23.999 0 -39.998 16.499t-15.999 39.498q0 22.998 15.999 39.4971t39.998 16.499q22.998 0 38.9971 -16.499t15.999 -39.4971z" />
    <glyph glyph-name="exclamdown" unicode="&#xa1;" horiz-adv-x="316" 
d="M158 538.967q-25 0 -42 -17.499t-17 -41.4971q0 -25.998 18 -42.4971t41 -16.499q25 0 41.5 16.999t16.5 41.9971t-16.5 41.9971t-41.5 16.999zM108 -242.985h99l-23 605.963h-47z" />
    <glyph glyph-name="logicalnot" unicode="&#xac;" horiz-adv-x="604" 
d="M494 358h-471v66h543v-269h-72v203z" />
    <glyph glyph-name="florin" unicode="&#x192;" horiz-adv-x="544" 
d="M23 -163l22 -2t22 -1q46 0 73 19.5t43 54t23.5 83t15.5 106.5l39 299h-133v52h140l3 25q3 25 8 57t13.5 66t23 66t36 57.5t52.5 41t73 15.5q14 0 27 -2.5t27 -6.5l-9 -55q-11 4 -22 6.5t-22 2.5q-50 0 -78 -29t-42.5 -71.5t-20 -89.5t-11.5 -83h124v-52h-132l-35 -277
q-9 -72 -19 -133.5t-32.5 -106.5t-63 -70.5t-109.5 -25.5q-12 0 -23 2t-23 4z" />
    <glyph glyph-name="guillemotleft" unicode="&#xab;" horiz-adv-x="523" 
d="M177 449h79l-139 -185l139 -185h-79l-139 185zM406 449h79l-139 -185l139 -185h-79l-140 185z" />
    <glyph glyph-name="guillemotright" unicode="&#xbb;" horiz-adv-x="523" 
d="M345.979 449h-78.9951l138.992 -185l-138.992 -185h78.9951l138.992 185zM116.993 449h-78.9951l138.991 -185l-138.991 -185h78.9951l139.991 185z" />
    <glyph glyph-name="nonbreakingspace" unicode="&#xa0;" horiz-adv-x="638" 
 />
    <glyph glyph-name="oe" unicode="&#x153;" horiz-adv-x="1064" 
d="M988 118q-13 -22 -33.5 -45.5t-50.5 -43t-69.5 -32.5t-89.5 -13q-69 0 -122.5 24.5t-89.5 66.5q-38 -42 -91.5 -65.5t-118.5 -23.5q-59 0 -110.5 19t-90.5 55t-61.5 88t-22.5 118q0 59 22.5 108.5t61.5 85.5t90.5 56.5t108.5 20.5q60 0 115 -20.5t96 -62.5q39 45 95 68.5
t121 23.5q73 0 127 -28.5t88.5 -73t50 -98t10.5 -102.5h-498q1 -23 12 -57t36 -66t66 -55t103 -23q41 0 72.5 10.5t55.5 26t41 34t28 34.5zM323 41q51 0 97.5 23t77.5 63q-33 63 -33 142q0 75 31 134q-30 35 -74 56.5t-98 21.5q-49 0 -90 -18t-71 -47t-47 -67t-17 -78
q0 -58 19.5 -101.5t51 -72t72 -42.5t81.5 -14zM745 489q-59 0 -100 -20t-67 -49t-38.5 -61.5t-13.5 -56.5h440q-2 22 -14 54t-38 61.5t-67.5 50.5t-101.5 21z" />
    <glyph glyph-name="endash" unicode="&#x2013;" horiz-adv-x="638" 
d="M39 359h563v-67h-563v67z" />
    <glyph glyph-name="emdash" unicode="&#x2014;" horiz-adv-x="1111" 
d="M39 359h1033v-67h-1033v67z" />
    <glyph glyph-name="quotedblleft" unicode="&#x201c;" horiz-adv-x="543" 
d="M306 531l91 243h45l-75 -243h-61zM116 531l91 243h45l-75 -243h-61z" />
    <glyph glyph-name="quotedblright" unicode="&#x201d;" horiz-adv-x="597" 
d="M251 774l-92 -243h-44l75 243h61zM440 774l-91 -243h-45l75 243h61z" />
    <glyph glyph-name="quoteleft" unicode="&#x2018;" horiz-adv-x="350" 
d="M104 531l91 243h45l-75 -243h-61z" />
    <glyph glyph-name="quoteright" unicode="&#x2019;" horiz-adv-x="350" 
d="M251 774l-92 -243h-44l75 243h61z" />
    <glyph glyph-name="divide" unicode="&#xf7;" horiz-adv-x="1111" 
d="M262 308v67h589v-67h-589zM501 110q0 23 16 39.5t40 16.5q23 0 39 -16.5t16 -39.5t-16 -39.5t-39 -16.5q-24 0 -40 16.5t-16 39.5zM501 582q0 23 16 39.5t40 16.5q23 0 39 -16.5t16 -39.5t-16 -39.5t-39 -16.5q-24 0 -40 16.5t-16 39.5z" />
    <glyph glyph-name="fraction" unicode="&#x2044;" horiz-adv-x="455" 
d="M516 774l-527 -774h-48l527 774h48z" />
    <glyph glyph-name="guilsinglleft" unicode="&#x2039;" horiz-adv-x="294" 
d="M177 449h79l-139 -185l139 -185h-79l-139 185z" />
    <glyph glyph-name="guilsinglright" unicode="&#x203a;" horiz-adv-x="294" 
d="M116.993 449h-78.9951l138.991 -185l-138.991 -185h78.9951l138.991 185z" />
    <glyph glyph-name="daggerdbl" unicode="&#x2021;" horiz-adv-x="638" 
d="M535 277v-68l-185 18v-227h-60v227l-184 -18v68l185 -19v258l-185 -19v68l184 -19v228h60v-228l185 19v-68l-186 19v-258z" />
    <glyph glyph-name="periodcentered" unicode="&#xb7;" horiz-adv-x="310" 
d="M99 290q0 23 16.5 39.5t39.5 16.5t39.5 -16.5t16.5 -39.5t-16.5 -39.5t-39.5 -16.5t-39.5 16.5t-16.5 39.5z" />
    <glyph glyph-name="quotesinglbase" unicode="&#x201a;" horiz-adv-x="297" 
d="M85 -71l91 235h45l-75 -235h-61z" />
    <glyph glyph-name="quotedblbase" unicode="&#x201e;" horiz-adv-x="514" 
d="M104 -71l91 235h45l-75 -235h-61zM274 -71l92 235h44l-74 -235h-62z" />
    <glyph glyph-name="perthousand" unicode="&#x2030;" horiz-adv-x="1239" 
d="M972 -17q-48 0 -87 23.5t-61 61.5q-22 -38 -60 -61.5t-85 -23.5q-35 0 -66.5 13t-54.5 36t-36.5 54t-13.5 66t13.5 66t36.5 54t54.5 36.5t66.5 13.5q47 0 85 -24t60 -62q22 39 61 62.5t87 23.5q35 0 66 -13.5t53.5 -37t35.5 -54.5t13 -65q0 -35 -13 -65.5t-36 -53.5
t-53.5 -36.5t-65.5 -13.5zM61 609q0 34 14 64.5t37.5 52.5t54.5 35t66 13q34 0 65 -12.5t54 -34.5t37 -52t14 -66t-13 -67.5t-36 -55.5t-54 -38t-67 -14t-67.5 14t-55 37.5t-36.5 55.5t-13 68zM233 481q27 0 49.5 10.5t39 28t26 40.5t9.5 49t-10 48t-27 37.5t-39.5 24
t-47.5 8.5t-47.5 -9t-39 -25t-26.5 -37.5t-10 -46.5q0 -26 9.5 -49t26 -40.5t39 -28t48.5 -10.5zM182 0l525 774h52l-526 -774h-51zM802 152q0 25 -9.5 48t-26.5 40t-39.5 27t-47.5 10q-26 0 -48.5 -10t-39.5 -27t-27 -39.5t-10 -48.5q0 -27 10 -49.5t27 -39.5t39.5 -26.5
t48.5 -9.5q27 0 49.5 10t39 27t25.5 39.5t9 48.5zM1095 152q0 25 -9.5 48t-26.5 40t-39.5 27t-47.5 10q-26 0 -48.5 -10t-39.5 -27t-27 -39.5t-10 -48.5q0 -27 10 -49.5t27 -39.5t39.5 -26.5t48.5 -9.5q27 0 49.5 10t39 27t25.5 39.5t9 48.5z" />
    <glyph glyph-name="dotlessi" unicode="&#x131;" horiz-adv-x="258" 
d="M100 531h59v-531h-59v531z" />
    <glyph glyph-name="circumflex" unicode="&#x2c6;" horiz-adv-x="279" 
d="M117 724h45l111 -136h-52l-83 75l-82 -75h-50z" />
    <glyph glyph-name="tilde" unicode="&#x2dc;" horiz-adv-x="406" 
d="M278 594q-17 0 -36 7t-38.5 16t-39 16t-35.5 7q-17 0 -28.5 -11t-24.5 -45l-38 10q15 59 37.5 81.5t52.5 22.5q16 0 35.5 -7t39 -16t38.5 -16t36 -7t28.5 11t24.5 45l38 -10q-15 -59 -37.5 -81.5t-52.5 -22.5z" />
    <glyph glyph-name="macron" unicode="&#xaf;" horiz-adv-x="348" 
d="M30 588v54h288v-54h-288z" />
    <glyph glyph-name="breve" unicode="&#x2d8;" horiz-adv-x="388" 
d="M78 725q0 -48 32.5 -73.5t80.5 -25.5q23 0 45 6.5t39.5 19.5t28 31.5t10.5 41.5h42q0 -35 -13 -61.5t-35.5 -44t-52 -26.5t-62.5 -9q-71 0 -114.5 37.5t-43.5 103.5h43z" />
    <glyph glyph-name="dotaccent" unicode="&#x2d9;" horiz-adv-x="165" 
d="M31 691h104v-103h-104v103z" />
    <glyph glyph-name="ring" unicode="&#x2da;" horiz-adv-x="253" 
d="M126 581q-24 0 -45.5 9.5t-37.5 26t-25 38t-9 45.5q0 25 9.5 46.5t25 38t37 26t45.5 9.5t45.5 -9.5t37.5 -26t25.5 -38.5t9.5 -46t-9 -45.5t-25 -38t-37.5 -26t-46.5 -9.5zM195 700q0 29 -20.5 50.5t-48.5 21.5t-48 -21.5t-20 -50.5t20 -50t49 -21t48.5 21.5t19.5 49.5z
" />
    <glyph glyph-name="cedilla" unicode="&#xb8;" horiz-adv-x="334" 
d="M83 -66l47 80h46l-40 -60q16 -1 34.5 -5t34.5 -13t27 -24t11 -36t-10.5 -36t-27 -25t-37.5 -14.5t-41 -4.5q-28 0 -53 7.5t-54 20.5v37q6 -4 17.5 -8.5t25 -9t28.5 -7.5t29 -3q25 0 42.5 9.5t17.5 31.5q0 13 -7 21.5t-18 13t-23.5 6t-24.5 2.5z" />
    <glyph glyph-name="hungarumlaut" unicode="&#x2dd;" horiz-adv-x="367" 
d="M236 588h-46l71 181l104 -11zM49 588h-47l72 181l103 -11z" />
    <glyph glyph-name="ogonek" unicode="&#x2db;" horiz-adv-x="243" 
d="M213 -203q-23 -5 -49.5 -8.5t-44.5 -3.5q-26 0 -47.5 8t-37 21.5t-24 31.5t-8.5 38q0 25 12.5 43.5t32 32.5t43 24t44.5 16h59q-24 -10 -47 -22.5t-41 -26t-29.5 -29t-11.5 -31.5q0 -8 3.5 -17.5t13 -18t27 -14.5t44.5 -6q31 0 61 9v-47z" />
    <glyph glyph-name="caron" unicode="&#x2c7;" horiz-adv-x="367" 
d="M41 767h46l94 -129l106 129h45l-116 -179h-72z" />
    <glyph glyph-name="Euro" unicode="&#x20ac;" horiz-adv-x="610" 
d="M38 492h53q7 63 25.5 114.5t50 89t77 58t107.5 20.5q85 0 138.5 -37t82.5 -101l-46 -44q-22 59 -63.5 92.5t-111.5 33.5q-48 0 -82.5 -16.5t-58.5 -46t-38 -71t-20 -92.5h259l-11 -63h-253q-1 -12 -1 -24v-25v-26t1 -24h239l-11 -62h-222q6 -51 20 -93t37.5 -72.5t58 -47
t82.5 -16.5q62 0 101.5 26.5t62.5 74.5l45 -40q-32 -54 -82 -85.5t-128 -31.5q-62 0 -107 21t-76 58.5t-49.5 90t-26.5 115.5h-53v62h49q-1 12 -1 24.5v25.5v25t1 24h-49v63z" />
    <glyph glyph-name="Agrave" unicode="&#xc0;" 
d="M197 298h321l-160 433zM23 0l300 774h74l293 -774h-62l-89 248h-361l-92 -248h-63zM208 1001l104 11l71 -181h-47z" />
    <glyph glyph-name="Aacute" unicode="&#xc1;" 
d="M197 298h321l-160 433zM23 0l300 774h74l293 -774h-62l-89 248h-361l-92 -248h-63zM391 831h-46l71 181l104 -11z" />
    <glyph glyph-name="Acircumflex" unicode="&#xc2;" 
d="M197 298h321l-160 433zM23 0l300 774h74l293 -774h-62l-89 248h-361l-92 -248h-63zM336 967h45l111 -136h-52l-83 75l-82 -75h-50z" />
    <glyph glyph-name="Atilde" unicode="&#xc3;" 
d="M197 298h321l-160 433zM23 0l300 774h74l293 -774h-62l-89 248h-361l-92 -248h-63zM434 830q-17 0 -36 7t-38.5 16t-39 16t-35.5 7q-17 0 -28.5 -11t-24.5 -45l-38 10q15 59 37.5 81.5t52.5 22.5q16 0 35.5 -7t39 -16t38.5 -16t36 -7t28.5 11t24.5 45l38 -10
q-15 -59 -37.5 -81.5t-52.5 -22.5z" />
    <glyph glyph-name="Adieresis" unicode="&#xc4;" 
d="M197 298h321l-160 433zM23 0l300 774h74l293 -774h-62l-89 248h-361l-92 -248h-63zM196 934h104v-103h-104v103zM417 934h104v-103h-104v103z" />
    <glyph glyph-name="Aring" unicode="&#xc5;" 
d="M197 298h321l-160 433zM23 0l300 774h74l293 -774h-62l-89 248h-361l-92 -248h-63zM357 732q-24 0 -45.5 9.5t-37.5 26t-25 38t-9 45.5q0 25 9.5 46.5t25 38t37 26t45.5 9.5t45.5 -9.5t37.5 -26t25.5 -38.5t9.5 -46t-9 -45.5t-25 -38t-37.5 -26t-46.5 -9.5zM426 851
q0 29 -20.5 50.5t-48.5 21.5t-48 -21.5t-20 -50.5t20 -50t49 -21t48.5 21.5t19.5 49.5z" />
    <glyph glyph-name="atilde" unicode="&#xe3;" horiz-adv-x="599" 
d="M454 51q-17 -19 -43 -34q-22 -13 -55.5 -23t-78.5 -10q-48 0 -88 15.5t-68.5 42.5t-44 63t-15.5 78q0 46 18.5 82t49 60.5t69.5 37t80 12.5q33 0 59.5 -7.5t48 -18.5t38.5 -24t30 -24v62q0 25 -13 48.5t-37.5 42t-60 30t-79.5 11.5q-23 0 -49.5 -3.5t-56.5 -12.5l-14 52
q14 4 32.5 6.5t37.5 4.5t37.5 3t32.5 1q57 0 100 -15.5t72 -43t43.5 -65t14.5 -82.5v-340h-56zM453 183q0 33 -15.5 58.5t-40 42.5t-55 25.5t-59.5 8.5q-31 0 -60.5 -9.5t-53 -27.5t-37.5 -43.5t-14 -57.5q0 -31 13 -57t35.5 -44.5t52 -29t62.5 -10.5q32 0 63 10.5t55 29
t39 45t15 59.5zM383 594q-17 0 -36 7t-38.5 16t-39 16t-35.5 7q-17 0 -28.5 -11t-24.5 -45l-38 10q15 59 37.5 81.5t52.5 22.5q16 0 35.5 -7t39 -16t38.5 -16t36 -7t28.5 11t24.5 45l38 -10q-15 -59 -37.5 -81.5t-52.5 -22.5z" />
    <glyph glyph-name="agrave" unicode="&#xe0;" horiz-adv-x="599" 
d="M454 51q-17 -19 -43 -34q-22 -13 -55.5 -23t-78.5 -10q-48 0 -88 15.5t-68.5 42.5t-44 63t-15.5 78q0 46 18.5 82t49 60.5t69.5 37t80 12.5q33 0 59.5 -7.5t48 -18.5t38.5 -24t30 -24v62q0 25 -13 48.5t-37.5 42t-60 30t-79.5 11.5q-23 0 -49.5 -3.5t-56.5 -12.5l-14 52
q14 4 32.5 6.5t37.5 4.5t37.5 3t32.5 1q57 0 100 -15.5t72 -43t43.5 -65t14.5 -82.5v-340h-56zM453 183q0 33 -15.5 58.5t-40 42.5t-55 25.5t-59.5 8.5q-31 0 -60.5 -9.5t-53 -27.5t-37.5 -43.5t-14 -57.5q0 -31 13 -57t35.5 -44.5t52 -29t62.5 -10.5q32 0 63 10.5t55 29
t39 45t15 59.5zM190 758l104 11l71 -181h-47z" />
    <glyph glyph-name="aacute" unicode="&#xe1;" horiz-adv-x="599" 
d="M454 51q-17 -19 -43 -34q-22 -13 -55.5 -23t-78.5 -10q-48 0 -88 15.5t-68.5 42.5t-44 63t-15.5 78q0 46 18.5 82t49 60.5t69.5 37t80 12.5q33 0 59.5 -7.5t48 -18.5t38.5 -24t30 -24v62q0 25 -13 48.5t-37.5 42t-60 30t-79.5 11.5q-23 0 -49.5 -3.5t-56.5 -12.5l-14 52
q14 4 32.5 6.5t37.5 4.5t37.5 3t32.5 1q57 0 100 -15.5t72 -43t43.5 -65t14.5 -82.5v-340h-56zM453 183q0 33 -15.5 58.5t-40 42.5t-55 25.5t-59.5 8.5q-31 0 -60.5 -9.5t-53 -27.5t-37.5 -43.5t-14 -57.5q0 -31 13 -57t35.5 -44.5t52 -29t62.5 -10.5q32 0 63 10.5t55 29
t39 45t15 59.5zM320 588h-46l71 181l104 -11z" />
    <glyph glyph-name="acircumflex" unicode="&#xe2;" horiz-adv-x="599" 
d="M454 51q-17 -19 -43 -34q-22 -13 -55.5 -23t-78.5 -10q-48 0 -88 15.5t-68.5 42.5t-44 63t-15.5 78q0 46 18.5 82t49 60.5t69.5 37t80 12.5q33 0 59.5 -7.5t48 -18.5t38.5 -24t30 -24v62q0 25 -13 48.5t-37.5 42t-60 30t-79.5 11.5q-23 0 -49.5 -3.5t-56.5 -12.5l-14 52
q14 4 32.5 6.5t37.5 4.5t37.5 3t32.5 1q57 0 100 -15.5t72 -43t43.5 -65t14.5 -82.5v-340h-56zM453 183q0 33 -15.5 58.5t-40 42.5t-55 25.5t-59.5 8.5q-31 0 -60.5 -9.5t-53 -27.5t-37.5 -43.5t-14 -57.5q0 -31 13 -57t35.5 -44.5t52 -29t62.5 -10.5q32 0 63 10.5t55 29
t39 45t15 59.5zM285 725h45l111 -136h-52l-83 75l-82 -75h-50z" />
    <glyph glyph-name="adieresis" unicode="&#xe4;" horiz-adv-x="599" 
d="M454 51q-17 -19 -43 -34q-22 -13 -55.5 -23t-78.5 -10q-48 0 -88 15.5t-68.5 42.5t-44 63t-15.5 78q0 46 18.5 82t49 60.5t69.5 37t80 12.5q33 0 59.5 -7.5t48 -18.5t38.5 -24t30 -24v62q0 25 -13 48.5t-37.5 42t-60 30t-79.5 11.5q-23 0 -49.5 -3.5t-56.5 -12.5l-14 52
q14 4 32.5 6.5t37.5 4.5t37.5 3t32.5 1q57 0 100 -15.5t72 -43t43.5 -65t14.5 -82.5v-340h-56zM453 183q0 33 -15.5 58.5t-40 42.5t-55 25.5t-59.5 8.5q-31 0 -60.5 -9.5t-53 -27.5t-37.5 -43.5t-14 -57.5q0 -31 13 -57t35.5 -44.5t52 -29t62.5 -10.5q32 0 63 10.5t55 29
t39 45t15 59.5zM148 691h104v-103h-104v103zM369 691h104v-103h-104v103z" />
    <glyph glyph-name="aring" unicode="&#xe5;" horiz-adv-x="599" 
d="M454 51q-17 -19 -43 -34q-22 -13 -55.5 -23t-78.5 -10q-48 0 -88 15.5t-68.5 42.5t-44 63t-15.5 78q0 46 18.5 82t49 60.5t69.5 37t80 12.5q33 0 59.5 -7.5t48 -18.5t38.5 -24t30 -24v62q0 25 -13 48.5t-37.5 42t-60 30t-79.5 11.5q-23 0 -49.5 -3.5t-56.5 -12.5l-14 52
q14 4 32.5 6.5t37.5 4.5t37.5 3t32.5 1q57 0 100 -15.5t72 -43t43.5 -65t14.5 -82.5v-340h-56zM453 183q0 33 -15.5 58.5t-40 42.5t-55 25.5t-59.5 8.5q-31 0 -60.5 -9.5t-53 -27.5t-37.5 -43.5t-14 -57.5q0 -31 13 -57t35.5 -44.5t52 -29t62.5 -10.5q32 0 63 10.5t55 29
t39 45t15 59.5zM298 500q-24 0 -45.5 9.5t-37.5 26t-25 38t-9 45.5q0 25 9.5 46.5t25 38t37 26t45.5 9.5t45.5 -9.5t37.5 -26t25.5 -38.5t9.5 -46t-9 -45.5t-25 -38t-37.5 -26t-46.5 -9.5zM367 619q0 29 -20.5 50.5t-48.5 21.5t-48 -21.5t-20 -50.5t20 -50t49 -21t48.5 21.5
t19.5 49.5z" />
    <glyph glyph-name="Ntilde" unicode="&#xd1;" horiz-adv-x="733" 
d="M99 774h87l387 -659v659h60v-774h-58l-416 709v-709h-60v774zM447 833q-17 0 -36 7t-38.5 16t-39 16t-35.5 7q-17 0 -28.5 -11t-24.5 -45l-38 10q15 59 37.5 81.5t52.5 22.5q16 0 35.5 -7t39 -16t38.5 -16t36 -7t28.5 11t24.5 45l38 -10q-15 -59 -37.5 -81.5t-52.5 -22.5
z" />
    <glyph glyph-name="ntilde" unicode="&#xf1;" horiz-adv-x="632" 
d="M99 531h56l4 -97q17 18 38.5 37.5t48.5 36t61 27.5t77 11q50 0 82 -15.5t50 -40t24.5 -56t6.5 -63.5v-371h-59v365q0 19 -2.5 42t-14 43.5t-35 34t-64.5 13.5q-42 0 -76 -14.5t-60 -36t-45 -45.5t-32 -43v-359h-60v531zM417 587q-17 0 -36 7t-38.5 16t-39 16t-35.5 7
q-17 0 -28.5 -11t-24.5 -45l-38 10q15 59 37.5 81.5t52.5 22.5q16 0 35.5 -7t39 -16t38.5 -16t36 -7t28.5 11t24.5 45l38 -10q-15 -59 -37.5 -81.5t-52.5 -22.5z" />
    <glyph glyph-name="scaron" unicode="&#x161;" horiz-adv-x="488" 
d="M261 -16q-59 0 -119 22.5t-104 57.5l36 47q45 -34 93 -52.5t94 -18.5q58 0 93 26.5t35 70.5q0 24 -10 39.5t-28.5 26.5t-44 19.5t-55.5 17.5q-33 9 -66 20.5t-59.5 29t-43 42.5t-16.5 63q0 33 13.5 60.5t37.5 47.5t57 31.5t72 11.5q49 0 100.5 -16.5t93.5 -44.5l-32 -50
q-38 25 -80 40.5t-84 15.5q-55 0 -86.5 -26.5t-31.5 -63.5q0 -23 11.5 -38.5t31 -26.5t46.5 -20t57 -18q35 -11 67.5 -22.5t57 -29t39 -42t14.5 -61.5q0 -36 -14.5 -65.5t-40 -50.5t-60 -32t-74.5 -11zM102 767h46l94 -129l106 129h45l-116 -179h-72z" />
    <glyph glyph-name="Scaron" unicode="&#x160;" horiz-adv-x="631" 
d="M567 200q0 -47 -17.5 -86.5t-49.5 -68.5t-78 -45.5t-104 -16.5q-79 0 -142.5 28t-108.5 69l43 47q45 -42 97.5 -65.5t115.5 -23.5q82 0 130.5 40.5t48.5 112.5q0 37 -15.5 64t-42.5 47.5t-62.5 36.5t-75.5 32q-41 16 -80.5 34.5t-70.5 43.5t-50 59t-19 82q0 47 17 84
t47.5 62.5t73 38.5t93.5 13q72 0 126.5 -23t103.5 -55l-44 -49q-48 35 -96 54.5t-101 19.5q-40 0 -69.5 -11t-49 -30t-29 -43.5t-9.5 -52.5q0 -34 13 -58t38 -43t61.5 -35t83.5 -35q43 -17 83 -35.5t71 -44.5t49.5 -61.5t18.5 -85.5zM169 1010h46l94 -129l106 129h45
l-116 -179h-72z" />
    <glyph glyph-name="Zcaron" unicode="&#x17d;" horiz-adv-x="589" 
d="M38 0v51l444 669h-444v54h513v-48l-444 -674h443v-52h-512zM148 1010h46l94 -129l106 129h45l-116 -179h-72z" />
    <glyph glyph-name="zcaron" unicode="&#x17e;" horiz-adv-x="546" 
d="M52 50l357 426h-349v55h428v-45l-361 -432h367v-54h-442v50zM130 767h46l94 -129l106 129h45l-116 -179h-72z" />
    <glyph glyph-name="Ydieresis" unicode="&#x178;" horiz-adv-x="678" 
d="M309 306l-295 468h77l250 -411l250 411h72l-294 -467v-307h-60v306zM177 934h104v-103h-104v103zM398 934h104v-103h-104v103z" />
    <glyph glyph-name="brokenbar" unicode="&#xa6;" horiz-adv-x="242" 
d="M95 774h56v-435h-56v435zM95 241h56v-435h-56v435z" />
    <glyph glyph-name="Ccedilla" unicode="&#xc7;" horiz-adv-x="816" 
d="M778 137q-55 -72 -136.5 -114.5t-177.5 -42.5q-85 0 -158.5 34t-128 92t-85.5 133.5t-31 158.5q0 84 32.5 157t87.5 126.5t128 84t155 30.5q88 0 165 -34.5t134 -94.5l-42 -38q-48 52 -115 82t-142 30q-70 0 -132.5 -26.5t-109.5 -72.5t-74.5 -109t-27.5 -136
q0 -71 26.5 -136.5t73 -115.5t109.5 -79.5t136 -29.5q81 0 149.5 35.5t116.5 95.5zM397 -66l47 80h46l-40 -60q16 -1 34.5 -5t34.5 -13t27 -24t11 -36t-10.5 -36t-27 -25t-37.5 -14.5t-41 -4.5q-28 0 -53 7.5t-54 20.5v37q6 -4 17.5 -8.5t25 -9t28.5 -7.5t29 -3
q25 0 42.5 9.5t17.5 31.5q0 13 -7 21.5t-18 13t-23.5 6t-24.5 2.5z" />
    <glyph glyph-name="OE" unicode="&#x152;" horiz-adv-x="1090" 
d="M582 0q-29 -9 -58 -14t-60 -5q-85 0 -158.5 34t-128 91t-85.5 132t-31 158q0 84 32.5 156.5t87.5 126t128 83.5t154 30q32 0 61 -5t58 -13h471v-53h-411v-300h275v-55h-275v-314h411v-52h-471zM464 37q32 0 61 5.5t57 16.5v657q-29 10 -58 15.5t-61 5.5q-69 0 -131.5 -26
t-109.5 -72t-74.5 -108t-27.5 -135q0 -71 26.5 -136t73 -114.5t109 -79t135.5 -29.5z" />
    <glyph glyph-name="trademark" unicode="&#x2122;" horiz-adv-x="900" 
d="M15.9639 644.519h332.281v-31.3105h-148.403v-425.938h-35.4746v425.938h-148.403v31.3105zM259.45 644.785h45.5078l163.708 -387.698l167.845 387.698h39.5967v-457.438h-34.8691v396.563l-164.299 -378.242h-21.8672l-160.161 381.197v-399.519h-35.4609v457.438z" />
    <glyph glyph-name="Egrave" unicode="&#xc8;" horiz-adv-x="608" 
d="M99 0v774h471v-53h-411v-300h275v-55h-275v-314h411v-52h-471zM185 1001l104 11l71 -181h-47z" />
    <glyph glyph-name="Eacute" unicode="&#xc9;" horiz-adv-x="608" 
d="M99 0v774h471v-53h-411v-300h275v-55h-275v-314h411v-52h-471zM335 831h-46l71 181l104 -11z" />
    <glyph glyph-name="Ecircumflex" unicode="&#xca;" horiz-adv-x="608" 
d="M99 0v774h471v-53h-411v-300h275v-55h-275v-314h411v-52h-471zM291 967h45l111 -136h-52l-83 75l-82 -75h-50z" />
    <glyph glyph-name="Edieresis" unicode="&#xcb;" horiz-adv-x="608" 
d="M99 0v774h471v-53h-411v-300h275v-55h-275v-314h411v-52h-471zM176 934h104v-103h-104v103zM397 934h104v-103h-104v103z" />
    <glyph glyph-name="ccedilla" unicode="&#xe7;" horiz-adv-x="630" 
d="M591 127q-35 -63 -98.5 -100.5t-145.5 -37.5q-59 0 -111 19.5t-91 55.5t-61.5 87t-22.5 113t23 113t62 87.5t91 56.5t110 20q37 0 73 -8.5t68 -25t59 -41t45 -57.5l-50 -35q-27 49 -77.5 79.5t-116.5 30.5q-47 0 -88 -16.5t-71.5 -46t-48 -70t-17.5 -88.5q0 -51 19 -91.5
t50.5 -68.5t72 -43t82.5 -15q60 0 112 30t81 84zM267 -66l47 80h46l-40 -60q16 -1 34.5 -5t34.5 -13t27 -24t11 -36t-10.5 -36t-27 -25t-37.5 -14.5t-41 -4.5q-28 0 -53 7.5t-54 20.5v37q6 -4 17.5 -8.5t25 -9t28.5 -7.5t29 -3q25 0 42.5 9.5t17.5 31.5q0 13 -7 21.5t-18 13
t-23.5 6t-24.5 2.5z" />
    <glyph glyph-name="Ograve" unicode="&#xd2;" horiz-adv-x="911" 
d="M455 -19q-85 0 -158.5 34t-128 91t-85.5 132t-31 158q0 84 32.5 156.5t87.5 126t128 83.5t155 30q81 0 154.5 -30t129 -83.5t88 -126t32.5 -156.5q0 -83 -31.5 -158t-86 -132t-128.5 -91t-158 -34zM802 396q0 73 -28 135.5t-75.5 108t-110.5 71.5t-133 26t-132.5 -26
t-109.5 -72t-74.5 -108t-27.5 -135q0 -71 26.5 -136t73 -114.5t109 -79t135.5 -29.5t136.5 29.5t110 79t73.5 114.5t27 136zM322 1001l104 11l71 -181h-47z" />
    <glyph glyph-name="Oacute" unicode="&#xd3;" horiz-adv-x="911" 
d="M455 -19q-85 0 -158.5 34t-128 91t-85.5 132t-31 158q0 84 32.5 156.5t87.5 126t128 83.5t155 30q81 0 154.5 -30t129 -83.5t88 -126t32.5 -156.5q0 -83 -31.5 -158t-86 -132t-128.5 -91t-158 -34zM802 396q0 73 -28 135.5t-75.5 108t-110.5 71.5t-133 26t-132.5 -26
t-109.5 -72t-74.5 -108t-27.5 -135q0 -71 26.5 -136t73 -114.5t109 -79t135.5 -29.5t136.5 29.5t110 79t73.5 114.5t27 136zM490 831h-46l71 181l104 -11z" />
    <glyph glyph-name="Ocircumflex" unicode="&#xd4;" horiz-adv-x="911" 
d="M455 -19q-85 0 -158.5 34t-128 91t-85.5 132t-31 158q0 84 32.5 156.5t87.5 126t128 83.5t155 30q81 0 154.5 -30t129 -83.5t88 -126t32.5 -156.5q0 -83 -31.5 -158t-86 -132t-128.5 -91t-158 -34zM802 396q0 73 -28 135.5t-75.5 108t-110.5 71.5t-133 26t-132.5 -26
t-109.5 -72t-74.5 -108t-27.5 -135q0 -71 26.5 -136t73 -114.5t109 -79t135.5 -29.5t136.5 29.5t110 79t73.5 114.5t27 136zM435 967h45l111 -136h-52l-83 75l-82 -75h-50z" />
    <glyph glyph-name="Otilde" unicode="&#xd5;" horiz-adv-x="911" 
d="M455 -19q-85 0 -158.5 34t-128 91t-85.5 132t-31 158q0 84 32.5 156.5t87.5 126t128 83.5t155 30q81 0 154.5 -30t129 -83.5t88 -126t32.5 -156.5q0 -83 -31.5 -158t-86 -132t-128.5 -91t-158 -34zM802 396q0 73 -28 135.5t-75.5 108t-110.5 71.5t-133 26t-132.5 -26
t-109.5 -72t-74.5 -108t-27.5 -135q0 -71 26.5 -136t73 -114.5t109 -79t135.5 -29.5t136.5 29.5t110 79t73.5 114.5t27 136zM530 837q-17 0 -36 7t-38.5 16t-39 16t-35.5 7q-17 0 -28.5 -11t-24.5 -45l-38 10q15 59 37.5 81.5t52.5 22.5q16 0 35.5 -7t39 -16t38.5 -16t36 -7
t28.5 11t24.5 45l38 -10q-15 -59 -37.5 -81.5t-52.5 -22.5z" />
    <glyph glyph-name="Odieresis" unicode="&#xd6;" horiz-adv-x="911" 
d="M455 -19q-85 0 -158.5 34t-128 91t-85.5 132t-31 158q0 84 32.5 156.5t87.5 126t128 83.5t155 30q81 0 154.5 -30t129 -83.5t88 -126t32.5 -156.5q0 -83 -31.5 -158t-86 -132t-128.5 -91t-158 -34zM802 396q0 73 -28 135.5t-75.5 108t-110.5 71.5t-133 26t-132.5 -26
t-109.5 -72t-74.5 -108t-27.5 -135q0 -71 26.5 -136t73 -114.5t109 -79t135.5 -29.5t136.5 29.5t110 79t73.5 114.5t27 136zM291 934h104v-103h-104v103zM512 934h104v-103h-104v103z" />
    <glyph glyph-name="multiply" unicode="&#xd7;" 
d="M167 568l190 -191l179 179l35 -34l-179 -180l189 -189l-36 -36l-188 190l-181 -180l-34 35l180 179l-190 191z" />
    <glyph glyph-name="Ugrave" unicode="&#xd9;" horiz-adv-x="700" 
d="M86 774h57v-465q0 -68 10.5 -119t35 -85t64.5 -51t99 -17q60 0 99.5 18t63 52.5t33 85.5t9.5 117v464h58v-470q0 -75 -13 -134.5t-43.5 -101t-81.5 -63.5t-126 -22q-74 0 -125 21.5t-82.5 62.5t-45 100.5t-13.5 136.5zM237 1001l104 11l71 -181h-47z" />
    <glyph glyph-name="Uacute" unicode="&#xda;" horiz-adv-x="700" 
d="M86 774h57v-465q0 -68 10.5 -119t35 -85t64.5 -51t99 -17q60 0 99.5 18t63 52.5t33 85.5t9.5 117v464h58v-470q0 -75 -13 -134.5t-43.5 -101t-81.5 -63.5t-126 -22q-74 0 -125 21.5t-82.5 62.5t-45 100.5t-13.5 136.5zM354 831h-46l71 181l104 -11z" />
    <glyph glyph-name="Ucircumflex" unicode="&#xdb;" horiz-adv-x="700" 
d="M86 774h57v-465q0 -68 10.5 -119t35 -85t64.5 -51t99 -17q60 0 99.5 18t63 52.5t33 85.5t9.5 117v464h58v-470q0 -75 -13 -134.5t-43.5 -101t-81.5 -63.5t-126 -22q-74 0 -125 21.5t-82.5 62.5t-45 100.5t-13.5 136.5zM329 967h45l111 -136h-52l-83 75l-82 -75h-50z" />
    <glyph glyph-name="Udieresis" unicode="&#xdc;" horiz-adv-x="700" 
d="M86 774h57v-465q0 -68 10.5 -119t35 -85t64.5 -51t99 -17q60 0 99.5 18t63 52.5t33 85.5t9.5 117v464h58v-470q0 -75 -13 -134.5t-43.5 -101t-81.5 -63.5t-126 -22q-74 0 -125 21.5t-82.5 62.5t-45 100.5t-13.5 136.5zM187 934h104v-103h-104v103zM408 934h104v-103h-104
v103z" />
    <glyph glyph-name="Yacute" unicode="&#xdd;" horiz-adv-x="678" 
d="M309 306l-295 468h77l250 -411l250 411h72l-294 -467v-307h-60v306zM320 831h-46l71 181l104 -11z" />
    <glyph glyph-name="egrave" unicode="&#xe8;" horiz-adv-x="683" 
d="M584 118q-12 -22 -33 -45.5t-51 -43t-69.5 -32.5t-89.5 -13q-65 0 -117 22.5t-88 61.5t-55.5 91t-19.5 110q0 65 23 116.5t62 87t90.5 54.5t108.5 19q73 0 127 -28.5t88.5 -73t49.5 -98t10 -102.5h-497q1 -23 11.5 -57t35.5 -66t66 -55t103 -23q41 0 72.5 10.5t55.5 26
t41 34t28 34.5zM341 489q-59 0 -100 -20t-67 -49t-38 -61.5t-13 -56.5h439q-1 22 -13 54t-38 61.5t-67.5 50.5t-102.5 21zM205 758l104 11l71 -181h-47z" />
    <glyph glyph-name="eacute" unicode="&#xe9;" horiz-adv-x="683" 
d="M584 118q-12 -22 -33 -45.5t-51 -43t-69.5 -32.5t-89.5 -13q-65 0 -117 22.5t-88 61.5t-55.5 91t-19.5 110q0 65 23 116.5t62 87t90.5 54.5t108.5 19q73 0 127 -28.5t88.5 -73t49.5 -98t10 -102.5h-497q1 -23 11.5 -57t35.5 -66t66 -55t103 -23q41 0 72.5 10.5t55.5 26
t41 34t28 34.5zM341 489q-59 0 -100 -20t-67 -49t-38 -61.5t-13 -56.5h439q-1 22 -13 54t-38 61.5t-67.5 50.5t-102.5 21zM355 588h-46l71 181l104 -11z" />
    <glyph glyph-name="ecircumflex" unicode="&#xea;" horiz-adv-x="683" 
d="M584 118q-12 -22 -33 -45.5t-51 -43t-69.5 -32.5t-89.5 -13q-65 0 -117 22.5t-88 61.5t-55.5 91t-19.5 110q0 65 23 116.5t62 87t90.5 54.5t108.5 19q73 0 127 -28.5t88.5 -73t49.5 -98t10 -102.5h-497q1 -23 11.5 -57t35.5 -66t66 -55t103 -23q41 0 72.5 10.5t55.5 26
t41 34t28 34.5zM341 489q-59 0 -100 -20t-67 -49t-38 -61.5t-13 -56.5h439q-1 22 -13 54t-38 61.5t-67.5 50.5t-102.5 21zM323 724h45l111 -136h-52l-83 75l-82 -75h-50z" />
    <glyph glyph-name="edieresis" unicode="&#xeb;" horiz-adv-x="683" 
d="M584 118q-12 -22 -33 -45.5t-51 -43t-69.5 -32.5t-89.5 -13q-65 0 -117 22.5t-88 61.5t-55.5 91t-19.5 110q0 65 23 116.5t62 87t90.5 54.5t108.5 19q73 0 127 -28.5t88.5 -73t49.5 -98t10 -102.5h-497q1 -23 11.5 -57t35.5 -66t66 -55t103 -23q41 0 72.5 10.5t55.5 26
t41 34t28 34.5zM341 489q-59 0 -100 -20t-67 -49t-38 -61.5t-13 -56.5h439q-1 22 -13 54t-38 61.5t-67.5 50.5t-102.5 21zM180 691h104v-103h-104v103zM401 691h104v-103h-104v103z" />
    <glyph glyph-name="igrave" unicode="&#xec;" horiz-adv-x="258" 
d="M100 531h59v-531h-59v531zM-26 758l104 11l71 -181h-47z" />
    <glyph glyph-name="iacute" unicode="&#xed;" horiz-adv-x="258" 
d="M100 531h59v-531h-59v531zM158 588h-46l71 181l104 -11z" />
    <glyph glyph-name="icircumflex" unicode="&#xee;" horiz-adv-x="258" 
d="M100 531h59v-531h-59v531zM106 724h45l111 -136h-52l-83 75l-82 -75h-50z" />
    <glyph glyph-name="idieresis" unicode="&#xef;" horiz-adv-x="258" 
d="M100 531h59v-531h-59v531zM-33 691h104v-103h-104v103zM188 691h104v-103h-104v103z" />
    <glyph glyph-name="ograve" unicode="&#xf2;" horiz-adv-x="688" 
d="M347 -14q-59 0 -111 19.5t-91 55.5t-61.5 87t-22.5 113t23 113t62 87t91 56t110 20q53 0 103.5 -17.5t89.5 -51t63 -84t24 -116.5q0 -60 -20.5 -112t-58 -89.5t-89 -59t-112.5 -21.5zM568 264q0 46 -16.5 85.5t-45.5 68.5t-69.5 46t-88.5 17q-47 0 -88 -16.5t-71.5 -46
t-48 -70t-17.5 -88.5q0 -51 19.5 -92t51 -69t71.5 -43t81 -15q44 0 84 16.5t71 46t49 70.5t18 90zM227 758l104 11l71 -181h-47z" />
    <glyph glyph-name="oacute" unicode="&#xf3;" horiz-adv-x="688" 
d="M347 -14q-59 0 -111 19.5t-91 55.5t-61.5 87t-22.5 113t23 113t62 87t91 56t110 20q53 0 103.5 -17.5t89.5 -51t63 -84t24 -116.5q0 -60 -20.5 -112t-58 -89.5t-89 -59t-112.5 -21.5zM568 264q0 46 -16.5 85.5t-45.5 68.5t-69.5 46t-88.5 17q-47 0 -88 -16.5t-71.5 -46
t-48 -70t-17.5 -88.5q0 -51 19.5 -92t51 -69t71.5 -43t81 -15q44 0 84 16.5t71 46t49 70.5t18 90zM362 588h-46l71 181l104 -11z" />
    <glyph glyph-name="ocircumflex" unicode="&#xf4;" horiz-adv-x="688" 
d="M347 -14q-59 0 -111 19.5t-91 55.5t-61.5 87t-22.5 113t23 113t62 87t91 56t110 20q53 0 103.5 -17.5t89.5 -51t63 -84t24 -116.5q0 -60 -20.5 -112t-58 -89.5t-89 -59t-112.5 -21.5zM568 264q0 46 -16.5 85.5t-45.5 68.5t-69.5 46t-88.5 17q-47 0 -88 -16.5t-71.5 -46
t-48 -70t-17.5 -88.5q0 -51 19.5 -92t51 -69t71.5 -43t81 -15q44 0 84 16.5t71 46t49 70.5t18 90zM327 724h45l111 -136h-52l-83 75l-82 -75h-50z" />
    <glyph glyph-name="otilde" unicode="&#xf5;" horiz-adv-x="688" 
d="M347 -14q-59 0 -111 19.5t-91 55.5t-61.5 87t-22.5 113t23 113t62 87t91 56t110 20q53 0 103.5 -17.5t89.5 -51t63 -84t24 -116.5q0 -60 -20.5 -112t-58 -89.5t-89 -59t-112.5 -21.5zM568 264q0 46 -16.5 85.5t-45.5 68.5t-69.5 46t-88.5 17q-47 0 -88 -16.5t-71.5 -46
t-48 -70t-17.5 -88.5q0 -51 19.5 -92t51 -69t71.5 -43t81 -15q44 0 84 16.5t71 46t49 70.5t18 90zM424 594q-17 0 -36 7t-38.5 16t-39 16t-35.5 7q-17 0 -28.5 -11t-24.5 -45l-38 10q15 59 37.5 81.5t52.5 22.5q16 0 35.5 -7t39 -16t38.5 -16t36 -7t28.5 11t24.5 45l38 -10
q-15 -59 -37.5 -81.5t-52.5 -22.5z" />
    <glyph glyph-name="odieresis" unicode="&#xf6;" horiz-adv-x="688" 
d="M347 -14q-59 0 -111 19.5t-91 55.5t-61.5 87t-22.5 113t23 113t62 87t91 56t110 20q53 0 103.5 -17.5t89.5 -51t63 -84t24 -116.5q0 -60 -20.5 -112t-58 -89.5t-89 -59t-112.5 -21.5zM568 264q0 46 -16.5 85.5t-45.5 68.5t-69.5 46t-88.5 17q-47 0 -88 -16.5t-71.5 -46
t-48 -70t-17.5 -88.5q0 -51 19.5 -92t51 -69t71.5 -43t81 -15q44 0 84 16.5t71 46t49 70.5t18 90zM185 691h104v-103h-104v103zM406 691h104v-103h-104v103z" />
    <glyph glyph-name="ugrave" unicode="&#xf9;" horiz-adv-x="624" 
d="M85 531h59v-349q0 -29 4.5 -55t16.5 -45.5t31.5 -31t49.5 -11.5q37 0 72 15.5t64 36.5t50.5 42.5t32.5 33.5v364h60v-531h-56l-4 101q-21 -20 -45 -40t-52 -36t-59.5 -26t-67.5 -10q-47 0 -77 16.5t-47.5 44.5t-24.5 64.5t-7 75.5v341zM171 758l104 11l71 -181h-47z" />
    <glyph glyph-name="uacute" unicode="&#xfa;" horiz-adv-x="624" 
d="M85 531h59v-349q0 -29 4.5 -55t16.5 -45.5t31.5 -31t49.5 -11.5q37 0 72 15.5t64 36.5t50.5 42.5t32.5 33.5v364h60v-531h-56l-4 101q-21 -20 -45 -40t-52 -36t-59.5 -26t-67.5 -10q-47 0 -77 16.5t-47.5 44.5t-24.5 64.5t-7 75.5v341zM307 588h-46l71 181l104 -11z" />
    <glyph glyph-name="ucircumflex" unicode="&#xfb;" horiz-adv-x="624" 
d="M85 531h59v-349q0 -29 4.5 -55t16.5 -45.5t31.5 -31t49.5 -11.5q37 0 72 15.5t64 36.5t50.5 42.5t32.5 33.5v364h60v-531h-56l-4 101q-21 -20 -45 -40t-52 -36t-59.5 -26t-67.5 -10q-47 0 -77 16.5t-47.5 44.5t-24.5 64.5t-7 75.5v341zM281 724h45l111 -136h-52l-83 75
l-82 -75h-50z" />
    <glyph glyph-name="udieresis" unicode="&#xfc;" horiz-adv-x="624" 
d="M85 531h59v-349q0 -29 4.5 -55t16.5 -45.5t31.5 -31t49.5 -11.5q37 0 72 15.5t64 36.5t50.5 42.5t32.5 33.5v364h60v-531h-56l-4 101q-21 -20 -45 -40t-52 -36t-59.5 -26t-67.5 -10q-47 0 -77 16.5t-47.5 44.5t-24.5 64.5t-7 75.5v341zM133 691h104v-103h-104v103z
M354 691h104v-103h-104v103z" />
    <glyph glyph-name="yacute" unicode="&#xfd;" horiz-adv-x="527" 
d="M72 531l197 -454l181 454h54l-251 -618q-17 -42 -40.5 -67.5t-53 -38.5t-64.5 -17t-76 -4l12 47q40 0 68 4.5t48.5 16.5t35.5 33.5t29 55.5l27 66l-225 522h58zM260 588h-46l71 181l104 -11z" />
    <glyph glyph-name="ydieresis" unicode="&#xff;" horiz-adv-x="527" 
d="M72 531l197 -454l181 454h54l-251 -618q-17 -42 -40.5 -67.5t-53 -38.5t-64.5 -17t-76 -4l12 47q40 0 68 4.5t48.5 16.5t35.5 33.5t29 55.5l27 66l-225 522h58zM97 691h104v-103h-104v103zM318 691h104v-103h-104v103z" />
    <glyph glyph-name="Igrave" unicode="&#xcc;" horiz-adv-x="260" 
d="M99 0v774h62v-774h-62zM-23 1001l104 11l71 -181h-47z" />
    <glyph glyph-name="Iacute" unicode="&#xcd;" horiz-adv-x="260" 
d="M99 0v774h62v-774h-62zM153 831h-46l71 181l104 -11z" />
    <glyph glyph-name="Icircumflex" unicode="&#xce;" horiz-adv-x="260" 
d="M99 0v774h62v-774h-62zM108 967h45l111 -136h-52l-83 75l-82 -75h-50z" />
    <glyph glyph-name="Idieresis" unicode="&#xcf;" horiz-adv-x="260" 
d="M99 0v774h62v-774h-62zM-31 934h104v-103h-104v103zM190 934h104v-103h-104v103z" />
    <glyph glyph-name="registered" unicode="&#xae;" horiz-adv-x="576" 
d="M280 282q-54 0 -101 20.5t-81.5 56t-54.5 82.5t-20 100q0 52 20 99t55 82t82 56t102 21q54 0 101 -20.5t81.5 -56t54.5 -82.5t20 -99q0 -53 -20 -100t-55 -82t-82 -56t-102 -21zM280 314q48 0 89.5 18t72 49.5t47.5 73t17 88.5t-17 88.5t-47 72t-71 48.5t-89 18
t-89.5 -18t-72 -49.5t-47.5 -73t-17 -88.5t17 -88.5t47 -72t71 -48.5t89 -18zM180 714h103q23 0 37 -3t25 -8q21 -10 35 -31.5t14 -53.5q0 -18 -5 -34t-14 -28.5t-21 -21t-27 -12.5l83 -152h-30l-80 148h-94v-148h-26v344zM296 543q16 0 29 5.5t22.5 15.5t14.5 23.5t5 28.5
q0 24 -10.5 41t-27.5 25q-7 3 -18 5t-29 2h-76v-146h90z" />
    <glyph glyph-name="copyright" unicode="&#xa9;" horiz-adv-x="576" 
d="M280 282q-54 0 -101 20.5t-81.5 56t-54.5 82.5t-20 100q0 52 20 99t55 82t82 56t102 21q54 0 101 -20.5t81.5 -56t54.5 -82.5t20 -99q0 -53 -20 -100t-55 -82t-82 -56t-102 -21zM280 314q48 0 89.5 18t72 49.5t47.5 73t17 88.5t-17 88.5t-47 72t-71 48.5t-89 18
t-89.5 -18t-72 -49.5t-47.5 -73t-17 -88.5t17 -88.5t47 -72t71 -48.5t89 -18zM412 440q-23 -29 -56.5 -46.5t-73.5 -17.5q-35 0 -65 14t-52.5 37.5t-35.5 55t-13 65.5t13.5 64t36 52t52.5 34.5t64 12.5q36 0 68 -14t55 -39l-17 -15q-20 21 -47.5 33.5t-58.5 12.5
q-29 0 -54.5 -11t-45 -30t-31 -45t-11.5 -56q0 -29 11 -56t30.5 -47.5t45.5 -32.5t56 -12q33 0 61 14.5t48 39.5z" />
    <glyph glyph-name="commaaccent" unicode="&#xf6c3;" horiz-adv-x="284" 
d="M77 -176l69 119h80l-90 -119h-59z" />
    <glyph glyph-name="AE" unicode="&#xc6;" horiz-adv-x="924" 
d="M23 0l300 774h415v-53h-321l114 -301h254v-55h-233l118 -313h245v-52h-287l-89 248h-361l-92 -248h-63zM197 298h321l-160 433z" />
    <glyph glyph-name="onesuperior" unicode="&#xb9;" horiz-adv-x="233" 
d="M32 508h53v387l-52 -24l-9 30l61 24h35v-417h52v-30h-140v30z" />
    <glyph glyph-name="twosuperior" unicode="&#xb2;" horiz-adv-x="359" 
d="M268.462 630.738q0 21.8311 -8.25977 40.1221q-8.26074 18.291 -22.126 31.8613q-13.8662 13.5713 -32.7471 21.2412t-40.7119 7.66992q-21.2402 0 -40.1211 -7.66992t-32.7471 -21.2412q-13.8652 -13.5703 -21.8311 -31.8613q-7.96484 -18.291 -7.96484 -40.1221
q0 -21.8301 7.66992 -41.3018q7.6709 -19.4707 21.5361 -34.2217q13.8652 -14.75 32.4512 -23.3057t41.0068 -8.55566q21.8311 0 40.7119 8.55566t32.7471 23.0107q13.8652 14.4561 22.126 33.9268q8.25977 19.4707 8.25977 41.8916zM173.468 506.833v-8.85059h106.795
v-18.8809h-106.795v-56.0527l88.5039 -141.016h-23.6006l-74.3438 123.315l-75.5234 -123.315h-21.2412l87.9141 139.836v57.2324h-106.795v18.8809h106.795v8.85059q-23.6006 1.77051 -43.6621 12.0957q-20.0605 10.3252 -34.8115 26.8457q-14.75 16.5215 -23.3057 38.3525
t-8.55566 46.6113q0 24.7812 9.14551 46.3174t25.0762 37.4668t37.7617 25.0762t47.792 9.14551q24.7812 0 46.6123 -8.85059t38.0566 -24.7812t25.666 -37.4668t9.44043 -46.9072q0 -24.1904 -8.25977 -45.7266q-8.26074 -21.5361 -23.0117 -38.3516
q-14.75 -16.8164 -35.1064 -27.4365q-20.3555 -10.6201 -44.5469 -12.3906z" />
    <glyph glyph-name="threesuperior" unicode="&#xb3;" horiz-adv-x="366" 
d="M276.133 630.738q0 21.8311 -8.26074 40.1221t-22.126 31.8613q-13.8652 13.5713 -32.7461 21.2412t-40.7119 7.66992q-21.2412 0 -40.1221 -7.66992t-32.7461 -21.2412q-13.8662 -13.5703 -21.8311 -31.8613q-7.96582 -18.291 -7.96582 -40.1221
q0 -21.8301 7.6709 -41.3018q7.66992 -19.4707 21.5352 -34.2217q13.8662 -14.75 32.4521 -23.3057t41.0068 -8.55566q21.8311 0 40.7119 8.55566t32.7461 23.0107q13.8652 14.4561 22.126 33.9268t8.26074 41.8916zM181.139 506.833v-8.85059h106.795v-18.8809h-106.795
v-56.0527l88.5039 -141.016h-23.6016l-74.3428 123.315l-75.5234 -123.315h-21.2412l87.9141 139.836v57.2324h-106.795v18.8809h106.795v8.85059q-23.6016 1.77051 -43.6621 12.0957t-34.8115 26.8457q-14.751 16.5215 -23.3066 38.3525q-8.55469 21.8311 -8.55469 46.6113
q0 24.7812 9.14551 46.3174q9.14453 21.5361 25.0762 37.4668q15.9307 15.9307 37.7617 25.0762q21.8301 9.14551 47.792 9.14551q24.7812 0 46.6123 -8.85059q21.8301 -8.85059 38.0566 -24.7812q16.2256 -15.9307 25.666 -37.4668t9.44043 -46.9072
q0 -24.1904 -8.26074 -45.7266q-8.25977 -21.5361 -23.0107 -38.3516q-14.751 -16.8164 -35.1064 -27.4365q-20.3564 -10.6201 -44.5469 -12.3906z" />
    <glyph glyph-name="cent" unicode="&#xa2;" horiz-adv-x="607" 
d="M568 280q-33 -59 -90 -95.5t-132 -41.5v-76h-57v76q-53 5 -99 26.5t-79.5 57.5t-53 85.5t-19.5 110.5q0 54 20 101t54 82t79.5 57.5t97.5 27.5v67h57v-66q69 -5 128.5 -37.5t94.5 -92.5l-51 -36q-25 45 -69.5 75t-102.5 35v-438q54 5 99 35.5t71 78.5zM99 427
q0 -52 16 -92t42.5 -68.5t60.5 -45t71 -21.5v433q-42 -6 -77 -25.5t-60 -47.5t-39 -62.5t-14 -70.5z" />
    <glyph glyph-name="onehalf" unicode="&#xbd;" horiz-adv-x="818" 
d="M637 774l-528 -774h-48l528 774h48zM76 357h53v387l-52 -24l-9 30l61 24h35v-417h52v-30h-140v30zM672 349q0 22 -8.5 40t-22 31.5t-32.5 21.5t-41 8q-21 0 -40 -8t-33 -21.5t-22 -31.5t-8 -40t8 -41.5t21.5 -34.5t32 -23.5t41.5 -8.5q22 0 41 8.5t32.5 23t22 34
t8.5 42.5zM577 225v-9h107v-19h-107v-56l88 -141h-23l-75 123l-75 -123h-21l87 140v57h-106v19h106v9q-23 2 -43 12t-35 26.5t-23.5 38.5t-8.5 47q0 24 9 46t25 37.5t38 25t48 9.5q25 0 46.5 -9t38 -25t26 -37.5t9.5 -46.5t-8.5 -46.5t-23 -38t-35 -27t-44.5 -12.5z" />
    <glyph glyph-name="onequarter" unicode="&#xbc;" horiz-adv-x="825" 
d="M641 774l-527 -774h-48l527 774h48zM70 357h53v387l-52 -24l-9 30l61 24h35v-417h52v-30h-140v30zM651 341q0 22 -8.5 40t-22 31.5t-32.5 21.5t-41 8q-21 0 -40 -8t-33 -21.5t-22 -31.5t-8 -40t8 -41.5t21.5 -34.5t32 -23.5t41.5 -8.5q22 0 41 8.5t32.5 23t22 34
t8.5 42.5zM556 217v-9h107v-19h-107v-56l88 -141h-23l-75 123l-75 -123h-21l87 140v57h-106v19h106v9q-23 2 -43 12t-35 26.5t-23.5 38.5t-8.5 47q0 24 9 46t25 37.5t38 25t48 9.5q25 0 46.5 -9t38 -25t26 -37.5t9.5 -46.5t-8.5 -46.5t-23 -38t-35 -27t-44.5 -12.5z" />
    <glyph glyph-name="threequarters" unicode="&#xbe;" horiz-adv-x="917" 
d="M727 774l-527 -774h-48l527 774h48zM313 676q0 22 -8.5 40t-22 31.5t-32.5 21.5t-41 8q-21 0 -40 -8t-33 -21.5t-22 -31.5t-8 -40t8 -41.5t21.5 -34.5t32 -23.5t41.5 -8.5q22 0 41 8.5t32.5 23t22 34t8.5 42.5zM218 552v-9h107v-19h-107v-56l88 -141h-23l-75 123
l-75 -123h-21l87 140v57h-106v19h106v9q-23 2 -43 12t-35 26.5t-23.5 38.5t-8.5 47q0 24 9 46t25 37.5t38 25t48 9.5q25 0 46.5 -9t38 -25t26 -37.5t9.5 -46.5t-8.5 -46.5t-23 -38t-35 -27t-44.5 -12.5zM742 341q0 22 -8.5 40t-22 31.5t-32.5 21.5t-41 8q-21 0 -40 -8
t-33 -21.5t-22 -31.5t-8 -40t8 -41.5t21.5 -34.5t32 -23.5t41.5 -8.5q22 0 41 8.5t32.5 23t22 34t8.5 42.5zM647 217v-9h107v-19h-107v-56l88 -141h-23l-75 123l-75 -123h-21l87 140v57h-106v19h106v9q-23 2 -43 12t-35 26.5t-23.5 38.5t-8.5 47q0 24 9 46t25 37.5t38 25
t48 9.5q25 0 46.5 -9t38 -25t26 -37.5t9.5 -46.5t-8.5 -46.5t-23 -38t-35 -27t-44.5 -12.5z" />
    <glyph glyph-name="section" unicode="&#xa7;" horiz-adv-x="535" 
d="M474 385q0 -42 -19.5 -74.5t-51.5 -52.5q32 -18 51.5 -45t19.5 -70q0 -36 -15 -65.5t-40.5 -50.5t-60 -32t-74.5 -11q-59 0 -119 22.5t-104 57.5l36 47q45 -34 93 -52.5t94 -18.5q58 0 93.5 26.5t35.5 70.5q0 24 -10 39.5t-28.5 26.5t-44 19.5t-56.5 17.5q-33 9 -66 20.5
t-59.5 29t-43 42.5t-16.5 63q0 41 21 73.5t56 52.5q-33 17 -55 44.5t-22 71.5q0 33 13.5 60.5t37.5 47.5t57.5 31.5t72.5 11.5q48 0 100 -16.5t94 -44.5l-32 -50q-38 25 -80.5 40.5t-83.5 15.5q-56 0 -87.5 -26.5t-31.5 -63.5q0 -23 11.5 -38.5t31 -26.5t46.5 -20t57 -18
q35 -11 67.5 -22.5t57 -29t39.5 -42t15 -61.5zM274 482q-2 1 -11.5 3t-16.5 4q-46 -5 -71.5 -30t-25.5 -58q0 -23 11.5 -38.5t31 -26.5t46.5 -20t57 -18q9 -3 18 -5.5t17 -5.5q38 9 60.5 32.5t22.5 58.5q0 24 -10.5 40t-29.5 27.5t-44 19.5t-55 17z" />
    <glyph glyph-name="mu" unicode="&#xb5;" horiz-adv-x="610" 
d="M85 531h59v-349q0 -33 5 -59t17.5 -45t34.5 -29t57 -10q29 0 61.5 15.5t62 36.5t52 42.5t31.5 33.5v364h60v-531h-56l-4 101q-14 -14 -37 -33t-51 -36.5t-60.5 -30t-65.5 -12.5q-72 0 -109 31v-233h-57v744z" />
    <glyph glyph-name="eth" unicode="&#xf0;" horiz-adv-x="660" 
d="M295 602l109 41q-32 34 -72.5 53.5t-94.5 21.5v56q75 -4 130.5 -33t94.5 -75l132 50v-48l-105 -40q40 -62 57.5 -135t17.5 -143q0 -74 -18.5 -140t-53.5 -115.5t-87 -78.5t-118 -29q-47 0 -90.5 15.5t-76.5 46.5t-53 77.5t-20 109.5q0 59 18 106t50.5 79.5t78 50
t100.5 17.5q26 0 54.5 -4t56 -14t52 -25.5t43.5 -37.5q-5 54 -21.5 105.5t-44.5 93.5l-139 -53v48zM500 283q0 35 -18.5 63t-47.5 47.5t-66 29.5t-73 10q-42 0 -76.5 -13.5t-59 -39t-38 -61.5t-13.5 -82q0 -44 13 -80t36 -61.5t55 -39.5t70 -14q57 0 98 27t67.5 65.5
t39.5 79.5t13 69z" />
    <glyph glyph-name="Thorn" unicode="&#xde;" horiz-adv-x="725" 
d="M113 0v774h61v-169h290q43 0 82 -15t69 -43t48 -68t18 -90t-18 -91.5t-48 -70.5t-69 -45t-82 -16h-290v-166h-61zM174 546v-321h298q33 0 61 13t49 35t33 52t12 64t-12 63t-33 50t-49 32.5t-61 11.5h-298z" />
    <glyph glyph-name="thorn" unicode="&#xfe;" horiz-adv-x="650" 
d="M103 774h56v-344q13 20 32.5 40t46.5 36t63 26t83 10q55 0 103 -20.5t83.5 -57t56 -85.5t20.5 -106q0 -66 -20.5 -118t-56.5 -89t-85 -56.5t-106 -19.5q-36 0 -69 10t-61.5 26t-51.5 35.5t-38 38.5v-249h-56v923zM585 268q0 46 -14.5 85.5t-41.5 69t-66 46t-89 16.5
q-45 0 -83.5 -16t-66 -43.5t-43 -65t-15.5 -79.5q0 -57 17 -100t46 -72.5t67.5 -44.5t81.5 -15q48 0 86.5 17t65 46.5t41 69.5t14.5 86z" />
    <glyph glyph-name="currency" unicode="&#xa4;" horiz-adv-x="671" 
d="M66 503l33 34l76 -78q36 27 70 40t81 15h14q45 0 81 -11t74 -39l80 75l35 -35l-77 -79q29 -36 43.5 -74t14.5 -88q0 -49 -14.5 -87t-43.5 -72l77 -77l-32 -31l-78 79q-33 -27 -72 -43t-88 -18h-7q-48 0 -85 13.5t-75 43.5l-76 -77l-36 34l78 78q-25 31 -40.5 70.5
t-15.5 87.5v5q1 48 16 85.5t43 70.5zM537 262q0 41 -15 77.5t-42 64.5t-64 44t-80 16q-41 0 -77 -15.5t-63 -42.5t-42.5 -63.5t-15.5 -78.5q0 -43 16 -79.5t44 -62.5t64 -41t77 -15q40 0 76 15.5t63 42t43 62t16 76.5z" />
    <glyph glyph-name="apple" unicode="&#xf8ff;" horiz-adv-x="575" 
d="M464 591q0 37 -14 68t-37.5 54t-55.5 36t-69 13q-36 0 -68 -13t-55.5 -36t-37 -54t-13.5 -68t13 -70t36.5 -58t55 -39.5t69.5 -14.5q37 0 69 14.5t55.5 39t37.5 57.5t14 71zM303 381v-15h181v-32h-181v-95l150 -239h-40l-126 209l-128 -209h-36l149 237v97h-181v32h181
v15q-40 3 -74 20.5t-59 45.5t-39.5 65t-14.5 79t15.5 78.5t42.5 63.5t64 42.5t81 15.5q42 0 79 -15t64.5 -42t43.5 -63.5t16 -79.5q0 -41 -14 -77.5t-39 -65t-59.5 -46.5t-75.5 -21z" />
    <glyph glyph-name="Eth" unicode="&#xd0;" horiz-adv-x="759" 
d="M28 424h70v350h182q76 0 150.5 -21t133 -66.5t94.5 -117.5t36 -175q0 -84 -26 -156t-75.5 -125t-121 -83t-162.5 -30h-211v363h-70v61zM637 392q0 82 -28.5 143.5t-78 102.5t-117 62t-144.5 21h-111v-297h169v-61h-169v-311h148q76 0 137.5 27t104.5 73.5t66 108
t23 131.5z" />
    <glyph glyph-name="ellipsis" unicode="&#x2026;" horiz-adv-x="821" 
d="M61 39q0 23 16.5 39.5t39.5 16.5t39.5 -16.5t16.5 -39.5t-16.5 -39.5t-39.5 -16.5t-39.5 16.5t-16.5 39.5zM336 39q0 23 16 39.5t39 16.5q24 0 40 -16.5t16 -39.5t-16 -39.5t-40 -16.5q-23 0 -39 16.5t-16 39.5zM610 39q0 23 16 39.5t40 16.5q23 0 39 -16.5t16 -39.5
t-16 -39.5t-39 -16.5q-24 0 -40 16.5t-16 39.5z" />
    <glyph glyph-name="yen" unicode="&#xa5;" horiz-adv-x="620" 
d="M45 340h207l-229 418h77l212 -411l212 411h73l-230 -418h213v-51h-240v-89h202v-52h-202v-148h-60v148h-197v52h197v89h-235v51z" />
    <glyph glyph-name="quotedbl" unicode="&#x22;" horiz-adv-x="342" 
d="M61 550v224h62v-224h-62zM183 550v224h60v-224h-60z" />
    <glyph glyph-name="exclam" unicode="!" horiz-adv-x="316" 
d="M158 -7q-25 0 -42 17.5t-17 41.5q0 26 18 42.5t41 16.5q25 0 41.5 -17t16.5 -42t-16.5 -42t-41.5 -17zM108 775h99l-23 -606h-47z" />
    </font>
</defs>
</svg>
